<?xml version="1.0" encoding="utf-8" standalone="no"?>
<!DOCTYPE svg PUBLIC "-//W3C//DTD SVG 1.1//EN"
  "http://www.w3.org/Graphics/SVG/1.1/DTD/svg11.dtd">
<!-- Created with matplotlib (http://matplotlib.org/) -->
<svg height="348pt" version="1.1" viewBox="0 0 492 348" width="492pt" xmlns="http://www.w3.org/2000/svg" xmlns:xlink="http://www.w3.org/1999/xlink">
 <defs>
  <style type="text/css">
*{stroke-linecap:butt;stroke-linejoin:round;stroke-miterlimit:100000;}
  </style>
 </defs>
 <g id="figure_1">
  <g id="patch_1">
   <path d="M 0 348.350625 
L 492.174375 348.350625 
L 492.174375 0 
L 0 0 
z
" style="fill:none;"/>
  </g>
  <g id="axes_1">
   <g id="LineCollection_1">
    <path clip-path="url(#p48d429f39b)" d="M 82.186614 161.105035 
L 181.640391 174.412464 
" style="fill:none;stroke:#000000;stroke-opacity:0.7;stroke-width:1.8444397270569681;"/>
    <path clip-path="url(#p48d429f39b)" d="M 168.275354 25.957544 
L 209.705341 95.381552 
" style="fill:none;stroke:#000000;stroke-opacity:0.7;stroke-width:1.8444397270569681;"/>
    <path clip-path="url(#p48d429f39b)" d="M 385.422432 64.718168 
L 310.460151 115.056029 
" style="fill:none;stroke:#000000;stroke-opacity:0.7;stroke-width:1.8444397270569681;"/>
    <path clip-path="url(#p48d429f39b)" d="M 367.924924 239.207307 
L 286.38353 193.840458 
" style="fill:none;stroke:#000000;stroke-opacity:0.7;stroke-width:1.8444397270569681;"/>
    <path clip-path="url(#p48d429f39b)" d="M 367.924924 239.207307 
L 441.148735 287.024574 
" style="fill:none;stroke:#000000;stroke-opacity:0.7;stroke-width:1.151292546497023;"/>
    <path clip-path="url(#p48d429f39b)" d="M 367.924924 239.207307 
L 295.090922 267.87498 
" style="fill:none;stroke:#000000;stroke-opacity:0.7;stroke-width:1.8444397270569681;"/>
    <path clip-path="url(#p48d429f39b)" d="M 310.460151 115.056029 
L 209.705341 95.381552 
" style="fill:none;stroke:#000000;stroke-opacity:0.7;stroke-width:1.8444397270569681;"/>
    <path clip-path="url(#p48d429f39b)" d="M 310.460151 115.056029 
L 286.38353 193.840458 
" style="fill:none;stroke:#000000;stroke-opacity:0.7;stroke-width:1.8444397270569681;"/>
    <path clip-path="url(#p48d429f39b)" d="M 295.090922 267.87498 
L 286.38353 193.840458 
" style="fill:none;stroke:#000000;stroke-opacity:0.7;stroke-width:1.8444397270569681;"/>
    <path clip-path="url(#p48d429f39b)" d="M 119.011597 237.407707 
L 181.640391 174.412464 
" style="fill:none;stroke:#000000;stroke-opacity:0.7;stroke-width:1.8444397270569681;"/>
    <path clip-path="url(#p48d429f39b)" d="M 181.640391 174.412464 
L 286.38353 193.840458 
" style="fill:none;stroke:#000000;stroke-opacity:0.7;stroke-width:1.8444397270569681;"/>
    <path clip-path="url(#p48d429f39b)" d="M 181.640391 174.412464 
L 209.705341 95.381552 
" style="fill:none;stroke:#000000;stroke-opacity:0.7;stroke-width:1.8444397270569681;"/>
   </g>
   <g id="PathCollection_1">
    <path clip-path="url(#p48d429f39b)" d="M 82.186614 164.978018 
C 83.213741 164.978018 84.198938 164.569936 84.925226 163.843647 
C 85.651515 163.117359 86.059597 162.132162 86.059597 161.105035 
C 86.059597 160.077907 85.651515 159.09271 84.925226 158.366422 
C 84.198938 157.640133 83.213741 157.232051 82.186614 157.232051 
C 81.159486 157.232051 80.174289 157.640133 79.448001 158.366422 
C 78.721712 159.09271 78.31363 160.077907 78.31363 161.105035 
C 78.31363 162.132162 78.721712 163.117359 79.448001 163.843647 
C 80.174289 164.569936 81.159486 164.978018 82.186614 164.978018 
z
" style="fill:#f0f921;fill-opacity:0.9;stroke:#000000;stroke-opacity:0.9;"/>
    <path clip-path="url(#p48d429f39b)" d="M 168.275354 29.830527 
C 169.302481 29.830527 170.287678 29.422445 171.013967 28.696157 
C 171.740255 27.969868 172.148337 26.984671 172.148337 25.957544 
C 172.148337 24.930417 171.740255 23.94522 171.013967 23.218931 
C 170.287678 22.492643 169.302481 22.084561 168.275354 22.084561 
C 167.248227 22.084561 166.26303 22.492643 165.536741 23.218931 
C 164.810452 23.94522 164.40237 24.930417 164.40237 25.957544 
C 164.40237 26.984671 164.810452 27.969868 165.536741 28.696157 
C 166.26303 29.422445 167.248227 29.830527 168.275354 29.830527 
z
" style="fill:#f0f921;fill-opacity:0.9;stroke:#000000;stroke-opacity:0.9;"/>
    <path clip-path="url(#p48d429f39b)" d="M 385.422432 68.591151 
C 386.449559 68.591151 387.434756 68.183069 388.161044 67.456781 
C 388.887333 66.730492 389.295415 65.745295 389.295415 64.718168 
C 389.295415 63.691041 388.887333 62.705844 388.161044 61.979555 
C 387.434756 61.253267 386.449559 60.845185 385.422432 60.845185 
C 384.395304 60.845185 383.410107 61.253267 382.683819 61.979555 
C 381.95753 62.705844 381.549448 63.691041 381.549448 64.718168 
C 381.549448 65.745295 381.95753 66.730492 382.683819 67.456781 
C 383.410107 68.183069 384.395304 68.591151 385.422432 68.591151 
z
" style="fill:#f0f921;fill-opacity:0.9;stroke:#000000;stroke-opacity:0.9;"/>
    <path clip-path="url(#p48d429f39b)" d="M 367.924924 245.016782 
C 369.465615 245.016782 370.94341 244.40466 372.032843 243.315227 
C 373.122276 242.225794 373.734399 240.747998 373.734399 239.207307 
C 373.734399 237.666617 373.122276 236.188821 372.032843 235.099388 
C 370.94341 234.009955 369.465615 233.397832 367.924924 233.397832 
C 366.384233 233.397832 364.906438 234.009955 363.817005 235.099388 
C 362.727572 236.188821 362.115449 237.666617 362.115449 239.207307 
C 362.115449 240.747998 362.727572 242.225794 363.817005 243.315227 
C 364.906438 244.40466 366.384233 245.016782 367.924924 245.016782 
z
" style="fill:#9c179e;fill-opacity:0.9;stroke:#000000;stroke-opacity:0.9;"/>
    <path clip-path="url(#p48d429f39b)" d="M 441.148735 288.961066 
C 441.662298 288.961066 442.154897 288.757025 442.518041 288.393881 
C 442.881185 288.030736 443.085226 287.538138 443.085226 287.024574 
C 443.085226 286.511011 442.881185 286.018412 442.518041 285.655268 
C 442.154897 285.292124 441.662298 285.088083 441.148735 285.088083 
C 440.635171 285.088083 440.142572 285.292124 439.779428 285.655268 
C 439.416284 286.018412 439.212243 286.511011 439.212243 287.024574 
C 439.212243 287.538138 439.416284 288.030736 439.779428 288.393881 
C 440.142572 288.757025 440.635171 288.961066 441.148735 288.961066 
z
" style="fill:#f0f921;fill-opacity:0.9;stroke:#000000;stroke-opacity:0.9;"/>
    <path clip-path="url(#p48d429f39b)" d="M 310.460151 121.764233 
C 312.239187 121.764233 313.945599 121.057414 315.203567 119.799445 
C 316.461536 118.541477 317.168355 116.835065 317.168355 115.056029 
C 317.168355 113.276992 316.461536 111.570581 315.203567 110.312612 
C 313.945599 109.054644 312.239187 108.347825 310.460151 108.347825 
C 308.681114 108.347825 306.974703 109.054644 305.716734 110.312612 
C 304.458766 111.570581 303.751947 113.276992 303.751947 115.056029 
C 303.751947 116.835065 304.458766 118.541477 305.716734 119.799445 
C 306.974703 121.057414 308.681114 121.764233 310.460151 121.764233 
z
" style="fill:#9c179e;fill-opacity:0.9;stroke:#000000;stroke-opacity:0.9;"/>
    <path clip-path="url(#p48d429f39b)" d="M 295.090922 273.352206 
C 296.543499 273.352206 297.936778 272.775091 298.963905 271.747964 
C 299.991032 270.720836 300.568147 269.327557 300.568147 267.87498 
C 300.568147 266.422403 299.991032 265.029124 298.963905 264.001997 
C 297.936778 262.97487 296.543499 262.397755 295.090922 262.397755 
C 293.638345 262.397755 292.245066 262.97487 291.217938 264.001997 
C 290.190811 265.029124 289.613696 266.422403 289.613696 267.87498 
C 289.613696 269.327557 290.190811 270.720836 291.217938 271.747964 
C 292.245066 272.775091 293.638345 273.352206 295.090922 273.352206 
z
" style="fill:#ed7953;fill-opacity:0.9;stroke:#000000;stroke-opacity:0.9;"/>
    <path clip-path="url(#p48d429f39b)" d="M 119.011597 241.28069 
C 120.038725 241.28069 121.023922 240.872608 121.75021 240.14632 
C 122.476499 239.420031 122.884581 238.434834 122.884581 237.407707 
C 122.884581 236.38058 122.476499 235.395383 121.75021 234.669094 
C 121.023922 233.942806 120.038725 233.534724 119.011597 233.534724 
C 117.98447 233.534724 116.999273 233.942806 116.272985 234.669094 
C 115.546696 235.395383 115.138614 236.38058 115.138614 237.407707 
C 115.138614 238.434834 115.546696 239.420031 116.272985 240.14632 
C 116.999273 240.872608 117.98447 241.28069 119.011597 241.28069 
z
" style="fill:#f0f921;fill-opacity:0.9;stroke:#000000;stroke-opacity:0.9;"/>
    <path clip-path="url(#p48d429f39b)" d="M 181.640391 182.158431 
C 183.694646 182.158431 185.66504 181.342267 187.117617 179.88969 
C 188.570194 178.437113 189.386358 176.466719 189.386358 174.412464 
C 189.386358 172.35821 188.570194 170.387816 187.117617 168.935239 
C 185.66504 167.482662 183.694646 166.666498 181.640391 166.666498 
C 179.586137 166.666498 177.615743 167.482662 176.163166 168.935239 
C 174.710589 170.387816 173.894425 172.35821 173.894425 174.412464 
C 173.894425 176.466719 174.710589 178.437113 176.163166 179.88969 
C 177.615743 181.342267 179.586137 182.158431 181.640391 182.158431 
z
" style="fill:#0d0887;fill-opacity:0.9;stroke:#000000;stroke-opacity:0.9;"/>
    <path clip-path="url(#p48d429f39b)" d="M 286.38353 201.586425 
C 288.437785 201.586425 290.408179 200.770261 291.860756 199.317684 
C 293.313333 197.865106 294.129497 195.894712 294.129497 193.840458 
C 294.129497 191.786204 293.313333 189.81581 291.860756 188.363232 
C 290.408179 186.910655 288.437785 186.094491 286.38353 186.094491 
C 284.329276 186.094491 282.358882 186.910655 280.906305 188.363232 
C 279.453727 189.81581 278.637564 191.786204 278.637564 193.840458 
C 278.637564 195.894712 279.453727 197.865106 280.906305 199.317684 
C 282.358882 200.770261 284.329276 201.586425 286.38353 201.586425 
z
" style="fill:#0d0887;fill-opacity:0.9;stroke:#000000;stroke-opacity:0.9;"/>
    <path clip-path="url(#p48d429f39b)" d="M 209.705341 102.089755 
C 211.484377 102.089755 213.190788 101.382937 214.448757 100.124968 
C 215.706726 98.866999 216.413545 97.160588 216.413545 95.381552 
C 216.413545 93.602515 215.706726 91.896104 214.448757 90.638135 
C 213.190788 89.380166 211.484377 88.673348 209.705341 88.673348 
C 207.926304 88.673348 206.219893 89.380166 204.961924 90.638135 
C 203.703955 91.896104 202.997137 93.602515 202.997137 95.381552 
C 202.997137 97.160588 203.703955 98.866999 204.961924 100.124968 
C 206.219893 101.382937 207.926304 102.089755 209.705341 102.089755 
z
" style="fill:#9c179e;fill-opacity:0.9;stroke:#000000;stroke-opacity:0.9;"/>
   </g>
  </g>
 </g>
 <defs>
  <clipPath id="p48d429f39b">
   <rect height="384.53" width="501.36125" x="8.160625" y="-22.993125"/>
  </clipPath>
 </defs>
</svg>
