<?xml version="1.0" encoding="utf-8" standalone="no"?>
<!DOCTYPE svg PUBLIC "-//W3C//DTD SVG 1.1//EN"
  "http://www.w3.org/Graphics/SVG/1.1/DTD/svg11.dtd">
<!-- Created with matplotlib (http://matplotlib.org/) -->
<svg height="348pt" version="1.1" viewBox="0 0 492 348" width="492pt" xmlns="http://www.w3.org/2000/svg" xmlns:xlink="http://www.w3.org/1999/xlink">
 <defs>
  <style type="text/css">
*{stroke-linecap:butt;stroke-linejoin:round;stroke-miterlimit:100000;}
  </style>
 </defs>
 <g id="figure_1">
  <g id="patch_1">
   <path d="M 0 348.350625 
L 492.174375 348.350625 
L 492.174375 0 
L 0 0 
z
" style="fill:none;"/>
  </g>
  <g id="axes_1">
   <g id="LineCollection_1">
    <path clip-path="url(#p7be15ef768)" d="M 82.186614 161.105035 
L 181.640391 174.412464 
" style="fill:none;stroke:#000000;stroke-opacity:0.7;stroke-width:1.5370331058808069;"/>
    <path clip-path="url(#p7be15ef768)" d="M 168.275354 25.957544 
L 209.705341 95.381552 
" style="fill:none;stroke:#000000;stroke-opacity:0.7;stroke-width:1.5370331058808069;"/>
    <path clip-path="url(#p7be15ef768)" d="M 385.422432 64.718168 
L 310.460151 115.056029 
" style="fill:none;stroke:#000000;stroke-opacity:0.7;stroke-width:1.5370331058808069;"/>
    <path clip-path="url(#p7be15ef768)" d="M 367.924924 239.207307 
L 286.38353 193.840458 
" style="fill:none;stroke:#000000;stroke-opacity:0.7;stroke-width:1.5370331058808069;"/>
    <path clip-path="url(#p7be15ef768)" d="M 367.924924 239.207307 
L 441.148735 287.024574 
" style="fill:none;stroke:#000000;stroke-opacity:0.7;stroke-width:0.9594104554141858;"/>
    <path clip-path="url(#p7be15ef768)" d="M 367.924924 239.207307 
L 295.090922 267.87498 
" style="fill:none;stroke:#000000;stroke-opacity:0.7;stroke-width:1.5370331058808069;"/>
    <path clip-path="url(#p7be15ef768)" d="M 310.460151 115.056029 
L 209.705341 95.381552 
" style="fill:none;stroke:#000000;stroke-opacity:0.7;stroke-width:1.5370331058808069;"/>
    <path clip-path="url(#p7be15ef768)" d="M 310.460151 115.056029 
L 286.38353 193.840458 
" style="fill:none;stroke:#000000;stroke-opacity:0.7;stroke-width:1.5370331058808069;"/>
    <path clip-path="url(#p7be15ef768)" d="M 295.090922 267.87498 
L 286.38353 193.840458 
" style="fill:none;stroke:#000000;stroke-opacity:0.7;stroke-width:1.5370331058808069;"/>
    <path clip-path="url(#p7be15ef768)" d="M 119.011597 237.407707 
L 181.640391 174.412464 
" style="fill:none;stroke:#000000;stroke-opacity:0.7;stroke-width:1.5370331058808069;"/>
    <path clip-path="url(#p7be15ef768)" d="M 181.640391 174.412464 
L 286.38353 193.840458 
" style="fill:none;stroke:#000000;stroke-opacity:0.7;stroke-width:1.5370331058808069;"/>
    <path clip-path="url(#p7be15ef768)" d="M 181.640391 174.412464 
L 209.705341 95.381552 
" style="fill:none;stroke:#000000;stroke-opacity:0.7;stroke-width:1.5370331058808069;"/>
   </g>
   <g id="PathCollection_1">
    <path clip-path="url(#p7be15ef768)" d="M 82.186614 164.482665 
C 83.082372 164.482665 83.941562 164.126777 84.574959 163.49338 
C 85.208356 162.859983 85.564244 162.000793 85.564244 161.105035 
C 85.564244 160.209277 85.208356 159.350086 84.574959 158.716689 
C 83.941562 158.083293 83.082372 157.727404 82.186614 157.727404 
C 81.290856 157.727404 80.431665 158.083293 79.798268 158.716689 
C 79.164872 159.350086 78.808983 160.209277 78.808983 161.105035 
C 78.808983 162.000793 79.164872 162.859983 79.798268 163.49338 
C 80.431665 164.126777 81.290856 164.482665 82.186614 164.482665 
z
" style="fill:#f0f921;fill-opacity:0.95;stroke:#000000;stroke-opacity:0.95;"/>
    <path clip-path="url(#p7be15ef768)" d="M 168.275354 29.335174 
C 169.171112 29.335174 170.030303 28.979286 170.663699 28.345889 
C 171.297096 27.712493 171.652984 26.853302 171.652984 25.957544 
C 171.652984 25.061786 171.297096 24.202595 170.663699 23.569199 
C 170.030303 22.935802 169.171112 22.579914 168.275354 22.579914 
C 167.379596 22.579914 166.520405 22.935802 165.887008 23.569199 
C 165.253612 24.202595 164.897723 25.061786 164.897723 25.957544 
C 164.897723 26.853302 165.253612 27.712493 165.887008 28.345889 
C 166.520405 28.979286 167.379596 29.335174 168.275354 29.335174 
z
" style="fill:#f0f921;fill-opacity:0.95;stroke:#000000;stroke-opacity:0.95;"/>
    <path clip-path="url(#p7be15ef768)" d="M 385.422432 68.095798 
C 386.31819 68.095798 387.17738 67.73991 387.810777 67.106513 
C 388.444174 66.473117 388.800062 65.613926 388.800062 64.718168 
C 388.800062 63.82241 388.444174 62.963219 387.810777 62.329823 
C 387.17738 61.696426 386.31819 61.340538 385.422432 61.340538 
C 384.526674 61.340538 383.667483 61.696426 383.034086 62.329823 
C 382.40069 62.963219 382.044801 63.82241 382.044801 64.718168 
C 382.044801 65.613926 382.40069 66.473117 383.034086 67.106513 
C 383.667483 67.73991 384.526674 68.095798 385.422432 68.095798 
z
" style="fill:#f0f921;fill-opacity:0.95;stroke:#000000;stroke-opacity:0.95;"/>
    <path clip-path="url(#p7be15ef768)" d="M 367.924924 243.428764 
C 369.044467 243.428764 370.118308 242.983965 370.909944 242.192328 
C 371.701581 241.400691 372.14638 240.326851 372.14638 239.207307 
C 372.14638 238.087764 371.701581 237.013924 370.909944 236.222287 
C 370.118308 235.43065 369.044467 234.985851 367.924924 234.985851 
C 366.805381 234.985851 365.73154 235.43065 364.939903 236.222287 
C 364.148267 237.013924 363.703467 238.087764 363.703467 239.207307 
C 363.703467 240.326851 364.148267 241.400691 364.939903 242.192328 
C 365.73154 242.983965 366.805381 243.428764 367.924924 243.428764 
z
" style="fill:#9c179e;fill-opacity:0.95;stroke:#000000;stroke-opacity:0.95;"/>
    <path clip-path="url(#p7be15ef768)" d="M 441.148735 289.331564 
C 441.760555 289.331564 442.3474 289.088485 442.780022 288.655862 
C 443.212645 288.22324 443.455724 287.636395 443.455724 287.024574 
C 443.455724 286.412753 443.212645 285.825909 442.780022 285.393286 
C 442.3474 284.960664 441.760555 284.717585 441.148735 284.717585 
C 440.536914 284.717585 439.950069 284.960664 439.517447 285.393286 
C 439.084824 285.825909 438.841745 286.412753 438.841745 287.024574 
C 438.841745 287.636395 439.084824 288.22324 439.517447 288.655862 
C 439.950069 289.088485 440.536914 289.331564 441.148735 289.331564 
z
" style="fill:#f0f921;fill-opacity:0.95;stroke:#000000;stroke-opacity:0.95;"/>
    <path clip-path="url(#p7be15ef768)" d="M 310.460151 119.625022 
C 311.671862 119.625022 312.834108 119.143604 313.690917 118.286795 
C 314.547726 117.429986 315.029144 116.26774 315.029144 115.056029 
C 315.029144 113.844318 314.547726 112.682072 313.690917 111.825263 
C 312.834108 110.968454 311.671862 110.487036 310.460151 110.487036 
C 309.24844 110.487036 308.086194 110.968454 307.229385 111.825263 
C 306.372576 112.682072 305.891158 113.844318 305.891158 115.056029 
C 305.891158 116.26774 306.372576 117.429986 307.229385 118.286795 
C 308.086194 119.143604 309.24844 119.625022 310.460151 119.625022 
z
" style="fill:#9c179e;fill-opacity:0.95;stroke:#000000;stroke-opacity:0.95;"/>
    <path clip-path="url(#p7be15ef768)" d="M 295.090922 271.961893 
C 296.174784 271.961893 297.214399 271.53127 297.980806 270.764864 
C 298.747212 269.998458 299.177835 268.958842 299.177835 267.87498 
C 299.177835 266.791118 298.747212 265.751503 297.980806 264.985096 
C 297.214399 264.21869 296.174784 263.788067 295.090922 263.788067 
C 294.00706 263.788067 292.967444 264.21869 292.201038 264.985096 
C 291.434632 265.751503 291.004009 266.791118 291.004009 267.87498 
C 291.004009 268.958842 291.434632 269.998458 292.201038 270.764864 
C 292.967444 271.53127 294.00706 271.961893 295.090922 271.961893 
z
" style="fill:#ed7953;fill-opacity:0.95;stroke:#000000;stroke-opacity:0.95;"/>
    <path clip-path="url(#p7be15ef768)" d="M 119.011597 240.785337 
C 119.907355 240.785337 120.766546 240.429449 121.399943 239.796052 
C 122.033339 239.162656 122.389228 238.303465 122.389228 237.407707 
C 122.389228 236.511949 122.033339 235.652758 121.399943 235.019362 
C 120.766546 234.385965 119.907355 234.030077 119.011597 234.030077 
C 118.115839 234.030077 117.256649 234.385965 116.623252 235.019362 
C 115.989855 235.652758 115.633967 236.511949 115.633967 237.407707 
C 115.633967 238.303465 115.989855 239.162656 116.623252 239.796052 
C 117.256649 240.429449 118.115839 240.785337 119.011597 240.785337 
z
" style="fill:#f0f921;fill-opacity:0.95;stroke:#000000;stroke-opacity:0.95;"/>
    <path clip-path="url(#p7be15ef768)" d="M 181.640391 179.357605 
C 182.951858 179.357605 184.209787 178.836553 185.137134 177.909207 
C 186.064481 176.98186 186.585532 175.723931 186.585532 174.412464 
C 186.585532 173.100998 186.064481 171.843069 185.137134 170.915722 
C 184.209787 169.988375 182.951858 169.467324 181.640391 169.467324 
C 180.328925 169.467324 179.070996 169.988375 178.143649 170.915722 
C 177.216302 171.843069 176.695251 173.100998 176.695251 174.412464 
C 176.695251 175.723931 177.216302 176.98186 178.143649 177.909207 
C 179.070996 178.836553 180.328925 179.357605 181.640391 179.357605 
z
" style="fill:#0d0887;fill-opacity:0.95;stroke:#000000;stroke-opacity:0.95;"/>
    <path clip-path="url(#p7be15ef768)" d="M 286.38353 198.785598 
C 287.694997 198.785598 288.952926 198.264547 289.880273 197.3372 
C 290.807619 196.409853 291.328671 195.151925 291.328671 193.840458 
C 291.328671 192.528991 290.807619 191.271063 289.880273 190.343716 
C 288.952926 189.416369 287.694997 188.895318 286.38353 188.895318 
C 285.072064 188.895318 283.814135 189.416369 282.886788 190.343716 
C 281.959441 191.271063 281.43839 192.528991 281.43839 193.840458 
C 281.43839 195.151925 281.959441 196.409853 282.886788 197.3372 
C 283.814135 198.264547 285.072064 198.785598 286.38353 198.785598 
z
" style="fill:#0d0887;fill-opacity:0.95;stroke:#000000;stroke-opacity:0.95;"/>
    <path clip-path="url(#p7be15ef768)" d="M 209.705341 99.950544 
C 210.917052 99.950544 212.079297 99.469126 212.936106 98.612317 
C 213.792916 97.755508 214.274333 96.593263 214.274333 95.381552 
C 214.274333 94.16984 213.792916 93.007595 212.936106 92.150786 
C 212.079297 91.293977 210.917052 90.812559 209.705341 90.812559 
C 208.49363 90.812559 207.331384 91.293977 206.474575 92.150786 
C 205.617766 93.007595 205.136348 94.16984 205.136348 95.381552 
C 205.136348 96.593263 205.617766 97.755508 206.474575 98.612317 
C 207.331384 99.469126 208.49363 99.950544 209.705341 99.950544 
z
" style="fill:#9c179e;fill-opacity:0.95;stroke:#000000;stroke-opacity:0.95;"/>
   </g>
  </g>
 </g>
 <defs>
  <clipPath id="p7be15ef768">
   <rect height="384.53" width="501.36125" x="8.160625" y="-22.993125"/>
  </clipPath>
 </defs>
</svg>
