<?xml version="1.0" encoding="utf-8" standalone="no"?>
<!DOCTYPE svg PUBLIC "-//W3C//DTD SVG 1.1//EN"
  "http://www.w3.org/Graphics/SVG/1.1/DTD/svg11.dtd">
<!-- Created with matplotlib (http://matplotlib.org/) -->
<svg height="348pt" version="1.1" viewBox="0 0 492 348" width="492pt" xmlns="http://www.w3.org/2000/svg" xmlns:xlink="http://www.w3.org/1999/xlink">
 <defs>
  <style type="text/css">
*{stroke-linecap:butt;stroke-linejoin:round;stroke-miterlimit:100000;}
  </style>
 </defs>
 <g id="figure_1">
  <g id="patch_1">
   <path d="M 0 348.350625 
L 492.174375 348.350625 
L 492.174375 0 
L 0 0 
z
" style="fill:none;"/>
  </g>
  <g id="axes_1">
   <g id="LineCollection_1">
    <path clip-path="url(#p3ce219bff9)" d="M 225.840399 137.017499 
L 160.415263 193.429011 
" style="fill:none;stroke:#000000;stroke-opacity:0.7;stroke-width:0.9594104554141858;"/>
    <path clip-path="url(#p3ce219bff9)" d="M 225.840399 137.017499 
L 312.886739 101.790705 
" style="fill:none;stroke:#000000;stroke-opacity:0.7;stroke-width:0.9594104554141858;"/>
    <path clip-path="url(#p3ce219bff9)" d="M 193.759546 105.622547 
L 160.415263 193.429011 
" style="fill:none;stroke:#000000;stroke-opacity:0.7;stroke-width:0.9594104554141858;"/>
    <path clip-path="url(#p3ce219bff9)" d="M 193.759546 105.622547 
L 312.886739 101.790705 
" style="fill:none;stroke:#000000;stroke-opacity:0.7;stroke-width:0.9594104554141858;"/>
    <path clip-path="url(#p3ce219bff9)" d="M 288.733661 198.462509 
L 356.745821 144.516795 
" style="fill:none;stroke:#000000;stroke-opacity:0.7;stroke-width:0.9594104554141858;"/>
    <path clip-path="url(#p3ce219bff9)" d="M 288.733661 198.462509 
L 204.186607 236.235852 
" style="fill:none;stroke:#000000;stroke-opacity:0.7;stroke-width:0.9594104554141858;"/>
    <path clip-path="url(#p3ce219bff9)" d="M 323.187206 232.178099 
L 356.745821 144.516795 
" style="fill:none;stroke:#000000;stroke-opacity:0.7;stroke-width:0.9594104554141858;"/>
    <path clip-path="url(#p3ce219bff9)" d="M 323.187206 232.178099 
L 204.186607 236.235852 
" style="fill:none;stroke:#000000;stroke-opacity:0.7;stroke-width:0.9594104554141858;"/>
    <path clip-path="url(#p3ce219bff9)" d="M 160.415263 193.429011 
L 98.180037 235.689819 
" style="fill:none;stroke:#000000;stroke-opacity:0.7;stroke-width:0.9594104554141858;"/>
    <path clip-path="url(#p3ce219bff9)" d="M 160.415263 193.429011 
L 207.280006 289.149103 
" style="fill:none;stroke:#000000;stroke-opacity:0.7;stroke-width:0.9594104554141858;"/>
    <path clip-path="url(#p3ce219bff9)" d="M 160.415263 193.429011 
L 139.023432 274.38315 
" style="fill:none;stroke:#000000;stroke-opacity:0.7;stroke-width:0.9594104554141858;"/>
    <path clip-path="url(#p3ce219bff9)" d="M 160.415263 193.429011 
L 92.627462 181.717188 
" style="fill:none;stroke:#000000;stroke-opacity:0.7;stroke-width:0.9594104554141858;"/>
    <path clip-path="url(#p3ce219bff9)" d="M 204.186607 236.235852 
L 98.180037 235.689819 
" style="fill:none;stroke:#000000;stroke-opacity:0.7;stroke-width:0.9594104554141858;"/>
    <path clip-path="url(#p3ce219bff9)" d="M 204.186607 236.235852 
L 207.280006 289.149103 
" style="fill:none;stroke:#000000;stroke-opacity:0.7;stroke-width:0.9594104554141858;"/>
    <path clip-path="url(#p3ce219bff9)" d="M 204.186607 236.235852 
L 139.023432 274.38315 
" style="fill:none;stroke:#000000;stroke-opacity:0.7;stroke-width:0.9594104554141858;"/>
    <path clip-path="url(#p3ce219bff9)" d="M 204.186607 236.235852 
L 92.627462 181.717188 
" style="fill:none;stroke:#000000;stroke-opacity:0.7;stroke-width:0.9594104554141858;"/>
    <path clip-path="url(#p3ce219bff9)" d="M 312.886739 101.790705 
L 422.986923 159.421178 
" style="fill:none;stroke:#000000;stroke-opacity:0.7;stroke-width:0.9594104554141858;"/>
    <path clip-path="url(#p3ce219bff9)" d="M 312.886739 101.790705 
L 420.455049 104.919818 
" style="fill:none;stroke:#000000;stroke-opacity:0.7;stroke-width:0.9594104554141858;"/>
    <path clip-path="url(#p3ce219bff9)" d="M 312.886739 101.790705 
L 381.044294 65.333416 
" style="fill:none;stroke:#000000;stroke-opacity:0.7;stroke-width:0.9594104554141858;"/>
    <path clip-path="url(#p3ce219bff9)" d="M 312.886739 101.790705 
L 314.112568 48.481389 
" style="fill:none;stroke:#000000;stroke-opacity:0.7;stroke-width:0.9594104554141858;"/>
    <path clip-path="url(#p3ce219bff9)" d="M 356.745821 144.516795 
L 422.986923 159.421178 
" style="fill:none;stroke:#000000;stroke-opacity:0.7;stroke-width:0.9594104554141858;"/>
    <path clip-path="url(#p3ce219bff9)" d="M 356.745821 144.516795 
L 420.455049 104.919818 
" style="fill:none;stroke:#000000;stroke-opacity:0.7;stroke-width:0.9594104554141858;"/>
    <path clip-path="url(#p3ce219bff9)" d="M 356.745821 144.516795 
L 381.044294 65.333416 
" style="fill:none;stroke:#000000;stroke-opacity:0.7;stroke-width:0.9594104554141858;"/>
    <path clip-path="url(#p3ce219bff9)" d="M 356.745821 144.516795 
L 314.112568 48.481389 
" style="fill:none;stroke:#000000;stroke-opacity:0.7;stroke-width:0.9594104554141858;"/>
   </g>
   <g id="PathCollection_1">
    <path clip-path="url(#p3ce219bff9)" d="M 225.840399 139.808942 
C 226.580699 139.808942 227.290777 139.514818 227.814248 138.991347 
C 228.337719 138.467877 228.631843 137.757798 228.631843 137.017499 
C 228.631843 136.277199 228.337719 135.567121 227.814248 135.04365 
C 227.290777 134.520179 226.580699 134.226055 225.840399 134.226055 
C 225.1001 134.226055 224.390021 134.520179 223.86655 135.04365 
C 223.34308 135.567121 223.048955 136.277199 223.048955 137.017499 
C 223.048955 137.757798 223.34308 138.467877 223.86655 138.991347 
C 224.390021 139.514818 225.1001 139.808942 225.840399 139.808942 
z
" style="fill:#f0f921;fill-opacity:0.95;stroke:#000000;stroke-opacity:0.95;"/>
    <path clip-path="url(#p3ce219bff9)" d="M 193.759546 108.41399 
C 194.499846 108.41399 195.209924 108.119866 195.733395 107.596396 
C 196.256866 107.072925 196.55099 106.362846 196.55099 105.622547 
C 196.55099 104.882247 196.256866 104.172169 195.733395 103.648698 
C 195.209924 103.125227 194.499846 102.831103 193.759546 102.831103 
C 193.019247 102.831103 192.309168 103.125227 191.785697 103.648698 
C 191.262227 104.172169 190.968102 104.882247 190.968102 105.622547 
C 190.968102 106.362846 191.262227 107.072925 191.785697 107.596396 
C 192.309168 108.119866 193.019247 108.41399 193.759546 108.41399 
z
" style="fill:#f0f921;fill-opacity:0.95;stroke:#000000;stroke-opacity:0.95;"/>
    <path clip-path="url(#p3ce219bff9)" d="M 288.733661 201.253952 
C 289.473961 201.253952 290.184039 200.959828 290.70751 200.436357 
C 291.230981 199.912887 291.525105 199.202808 291.525105 198.462509 
C 291.525105 197.722209 291.230981 197.012131 290.70751 196.48866 
C 290.184039 195.965189 289.473961 195.671065 288.733661 195.671065 
C 287.993362 195.671065 287.283283 195.965189 286.759812 196.48866 
C 286.236342 197.012131 285.942217 197.722209 285.942217 198.462509 
C 285.942217 199.202808 286.236342 199.912887 286.759812 200.436357 
C 287.283283 200.959828 287.993362 201.253952 288.733661 201.253952 
z
" style="fill:#f0f921;fill-opacity:0.95;stroke:#000000;stroke-opacity:0.95;"/>
    <path clip-path="url(#p3ce219bff9)" d="M 323.187206 234.969543 
C 323.927506 234.969543 324.637584 234.675419 325.161055 234.151948 
C 325.684526 233.628477 325.97865 232.918399 325.97865 232.178099 
C 325.97865 231.437799 325.684526 230.727721 325.161055 230.20425 
C 324.637584 229.680779 323.927506 229.386655 323.187206 229.386655 
C 322.446907 229.386655 321.736828 229.680779 321.213357 230.20425 
C 320.689887 230.727721 320.395762 231.437799 320.395762 232.178099 
C 320.395762 232.918399 320.689887 233.628477 321.213357 234.151948 
C 321.736828 234.675419 322.446907 234.969543 323.187206 234.969543 
z
" style="fill:#f0f921;fill-opacity:0.95;stroke:#000000;stroke-opacity:0.95;"/>
    <path clip-path="url(#p3ce219bff9)" d="M 160.415263 197.205056 
C 161.416682 197.205056 162.37722 196.807188 163.08533 196.099078 
C 163.79344 195.390968 164.191308 194.43043 164.191308 193.429011 
C 164.191308 192.427592 163.79344 191.467054 163.08533 190.758944 
C 162.37722 190.050833 161.416682 189.652965 160.415263 189.652965 
C 159.413844 189.652965 158.453306 190.050833 157.745195 190.758944 
C 157.037085 191.467054 156.639217 192.427592 156.639217 193.429011 
C 156.639217 194.43043 157.037085 195.390968 157.745195 196.099078 
C 158.453306 196.807188 159.413844 197.205056 160.415263 197.205056 
z
" style="fill:#0d0887;fill-opacity:0.95;stroke:#000000;stroke-opacity:0.95;"/>
    <path clip-path="url(#p3ce219bff9)" d="M 204.186607 240.011897 
C 205.188026 240.011897 206.148564 239.614029 206.856674 238.905919 
C 207.564784 238.197809 207.962652 237.237271 207.962652 236.235852 
C 207.962652 235.234433 207.564784 234.273895 206.856674 233.565784 
C 206.148564 232.857674 205.188026 232.459806 204.186607 232.459806 
C 203.185188 232.459806 202.224649 232.857674 201.516539 233.565784 
C 200.808429 234.273895 200.410561 235.234433 200.410561 236.235852 
C 200.410561 237.237271 200.808429 238.197809 201.516539 238.905919 
C 202.224649 239.614029 203.185188 240.011897 204.186607 240.011897 
z
" style="fill:#0d0887;fill-opacity:0.95;stroke:#000000;stroke-opacity:0.95;"/>
    <path clip-path="url(#p3ce219bff9)" d="M 312.886739 105.566751 
C 313.888158 105.566751 314.848697 105.168883 315.556807 104.460773 
C 316.264917 103.752663 316.662785 102.792124 316.662785 101.790705 
C 316.662785 100.789286 316.264917 99.828748 315.556807 99.120638 
C 314.848697 98.412528 313.888158 98.01466 312.886739 98.01466 
C 311.88532 98.01466 310.924782 98.412528 310.216672 99.120638 
C 309.508562 99.828748 309.110694 100.789286 309.110694 101.790705 
C 309.110694 102.792124 309.508562 103.752663 310.216672 104.460773 
C 310.924782 105.168883 311.88532 105.566751 312.886739 105.566751 
z
" style="fill:#0d0887;fill-opacity:0.95;stroke:#000000;stroke-opacity:0.95;"/>
    <path clip-path="url(#p3ce219bff9)" d="M 356.745821 148.29284 
C 357.74724 148.29284 358.707779 147.894972 359.415889 147.186862 
C 360.123999 146.478752 360.521867 145.518214 360.521867 144.516795 
C 360.521867 143.515376 360.123999 142.554838 359.415889 141.846728 
C 358.707779 141.138617 357.74724 140.740749 356.745821 140.740749 
C 355.744403 140.740749 354.783864 141.138617 354.075754 141.846728 
C 353.367644 142.554838 352.969776 143.515376 352.969776 144.516795 
C 352.969776 145.518214 353.367644 146.478752 354.075754 147.186862 
C 354.783864 147.894972 355.744403 148.29284 356.745821 148.29284 
z
" style="fill:#0d0887;fill-opacity:0.95;stroke:#000000;stroke-opacity:0.95;"/>
    <path clip-path="url(#p3ce219bff9)" d="M 98.180037 238.810533 
C 99.00766 238.810533 99.801498 238.481715 100.386715 237.896497 
C 100.971933 237.311279 101.300751 236.517442 101.300751 235.689819 
C 101.300751 234.862196 100.971933 234.068359 100.386715 233.483141 
C 99.801498 232.897923 99.00766 232.569105 98.180037 232.569105 
C 97.352414 232.569105 96.558577 232.897923 95.973359 233.483141 
C 95.388142 234.068359 95.059323 234.862196 95.059323 235.689819 
C 95.059323 236.517442 95.388142 237.311279 95.973359 237.896497 
C 96.558577 238.481715 97.352414 238.810533 98.180037 238.810533 
z
" style="fill:#f0f921;fill-opacity:0.95;stroke:#000000;stroke-opacity:0.95;"/>
    <path clip-path="url(#p3ce219bff9)" d="M 207.280006 292.269817 
C 208.107629 292.269817 208.901466 291.940998 209.486684 291.355781 
C 210.071902 290.770563 210.40072 289.976726 210.40072 289.149103 
C 210.40072 288.321479 210.071902 287.527642 209.486684 286.942424 
C 208.901466 286.357207 208.107629 286.028388 207.280006 286.028388 
C 206.452383 286.028388 205.658545 286.357207 205.073328 286.942424 
C 204.48811 287.527642 204.159292 288.321479 204.159292 289.149103 
C 204.159292 289.976726 204.48811 290.770563 205.073328 291.355781 
C 205.658545 291.940998 206.452383 292.269817 207.280006 292.269817 
z
" style="fill:#f0f921;fill-opacity:0.95;stroke:#000000;stroke-opacity:0.95;"/>
    <path clip-path="url(#p3ce219bff9)" d="M 139.023432 277.503865 
C 139.851055 277.503865 140.644892 277.175046 141.23011 276.589829 
C 141.815328 276.004611 142.144146 275.210774 142.144146 274.38315 
C 142.144146 273.555527 141.815328 272.76169 141.23011 272.176472 
C 140.644892 271.591255 139.851055 271.262436 139.023432 271.262436 
C 138.195809 271.262436 137.401971 271.591255 136.816754 272.176472 
C 136.231536 272.76169 135.902718 273.555527 135.902718 274.38315 
C 135.902718 275.210774 136.231536 276.004611 136.816754 276.589829 
C 137.401971 277.175046 138.195809 277.503865 139.023432 277.503865 
z
" style="fill:#f0f921;fill-opacity:0.95;stroke:#000000;stroke-opacity:0.95;"/>
    <path clip-path="url(#p3ce219bff9)" d="M 92.627462 184.837902 
C 93.455085 184.837902 94.248922 184.509084 94.83414 183.923867 
C 95.419358 183.338649 95.748176 182.544811 95.748176 181.717188 
C 95.748176 180.889565 95.419358 180.095728 94.83414 179.51051 
C 94.248922 178.925293 93.455085 178.596474 92.627462 178.596474 
C 91.799839 178.596474 91.006001 178.925293 90.420784 179.51051 
C 89.835566 180.095728 89.506748 180.889565 89.506748 181.717188 
C 89.506748 182.544811 89.835566 183.338649 90.420784 183.923867 
C 91.006001 184.509084 91.799839 184.837902 92.627462 184.837902 
z
" style="fill:#f0f921;fill-opacity:0.95;stroke:#000000;stroke-opacity:0.95;"/>
    <path clip-path="url(#p3ce219bff9)" d="M 420.455049 108.040532 
C 421.282672 108.040532 422.076509 107.711714 422.661727 107.126496 
C 423.246945 106.541278 423.575763 105.747441 423.575763 104.919818 
C 423.575763 104.092195 423.246945 103.298358 422.661727 102.71314 
C 422.076509 102.127922 421.282672 101.799104 420.455049 101.799104 
C 419.627426 101.799104 418.833589 102.127922 418.248371 102.71314 
C 417.663153 103.298358 417.334335 104.092195 417.334335 104.919818 
C 417.334335 105.747441 417.663153 106.541278 418.248371 107.126496 
C 418.833589 107.711714 419.627426 108.040532 420.455049 108.040532 
z
" style="fill:#f0f921;fill-opacity:0.95;stroke:#000000;stroke-opacity:0.95;"/>
    <path clip-path="url(#p3ce219bff9)" d="M 381.044294 68.45413 
C 381.871918 68.45413 382.665755 68.125312 383.250973 67.540094 
C 383.83619 66.954876 384.165009 66.161039 384.165009 65.333416 
C 384.165009 64.505793 383.83619 63.711956 383.250973 63.126738 
C 382.665755 62.54152 381.871918 62.212702 381.044294 62.212702 
C 380.216671 62.212702 379.422834 62.54152 378.837616 63.126738 
C 378.252399 63.711956 377.92358 64.505793 377.92358 65.333416 
C 377.92358 66.161039 378.252399 66.954876 378.837616 67.540094 
C 379.422834 68.125312 380.216671 68.45413 381.044294 68.45413 
z
" style="fill:#f0f921;fill-opacity:0.95;stroke:#000000;stroke-opacity:0.95;"/>
    <path clip-path="url(#p3ce219bff9)" d="M 314.112568 51.602103 
C 314.940191 51.602103 315.734028 51.273285 316.319246 50.688067 
C 316.904464 50.102849 317.233282 49.309012 317.233282 48.481389 
C 317.233282 47.653766 316.904464 46.859929 316.319246 46.274711 
C 315.734028 45.689493 314.940191 45.360675 314.112568 45.360675 
C 313.284945 45.360675 312.491107 45.689493 311.90589 46.274711 
C 311.320672 46.859929 310.991854 47.653766 310.991854 48.481389 
C 310.991854 49.309012 311.320672 50.102849 311.90589 50.688067 
C 312.491107 51.273285 313.284945 51.602103 314.112568 51.602103 
z
" style="fill:#f0f921;fill-opacity:0.95;stroke:#000000;stroke-opacity:0.95;"/>
    <path clip-path="url(#p3ce219bff9)" d="M 422.986923 162.541892 
C 423.814546 162.541892 424.608383 162.213074 425.193601 161.627856 
C 425.778819 161.042638 426.107637 160.248801 426.107637 159.421178 
C 426.107637 158.593555 425.778819 157.799718 425.193601 157.2145 
C 424.608383 156.629282 423.814546 156.300464 422.986923 156.300464 
C 422.1593 156.300464 421.365463 156.629282 420.780245 157.2145 
C 420.195027 157.799718 419.866209 158.593555 419.866209 159.421178 
C 419.866209 160.248801 420.195027 161.042638 420.780245 161.627856 
C 421.365463 162.213074 422.1593 162.541892 422.986923 162.541892 
z
" style="fill:#f0f921;fill-opacity:0.95;stroke:#000000;stroke-opacity:0.95;"/>
   </g>
  </g>
 </g>
 <defs>
  <clipPath id="p3ce219bff9">
   <rect height="384.53" width="501.36125" x="8.160625" y="-22.993125"/>
  </clipPath>
 </defs>
</svg>
