<?xml version="1.0" encoding="utf-8" standalone="no"?>
<!DOCTYPE svg PUBLIC "-//W3C//DTD SVG 1.1//EN"
  "http://www.w3.org/Graphics/SVG/1.1/DTD/svg11.dtd">
<!-- Created with matplotlib (http://matplotlib.org/) -->
<svg height="348pt" version="1.1" viewBox="0 0 492 348" width="492pt" xmlns="http://www.w3.org/2000/svg" xmlns:xlink="http://www.w3.org/1999/xlink">
 <defs>
  <style type="text/css">
*{stroke-linecap:butt;stroke-linejoin:round;stroke-miterlimit:100000;}
  </style>
 </defs>
 <g id="figure_1">
  <g id="patch_1">
   <path d="M 0 348.350625 
L 492.174375 348.350625 
L 492.174375 0 
L 0 0 
z
" style="fill:none;"/>
  </g>
  <g id="axes_1">
   <g id="LineCollection_1">
    <path clip-path="url(#p1469bd64ca)" d="M 225.840399 137.017499 
L 160.415263 193.429011 
" style="fill:none;stroke:#000000;stroke-opacity:0.7;stroke-width:1.151292546497023;"/>
    <path clip-path="url(#p1469bd64ca)" d="M 225.840399 137.017499 
L 312.886739 101.790705 
" style="fill:none;stroke:#000000;stroke-opacity:0.7;stroke-width:1.151292546497023;"/>
    <path clip-path="url(#p1469bd64ca)" d="M 193.759546 105.622547 
L 160.415263 193.429011 
" style="fill:none;stroke:#000000;stroke-opacity:0.7;stroke-width:1.151292546497023;"/>
    <path clip-path="url(#p1469bd64ca)" d="M 193.759546 105.622547 
L 312.886739 101.790705 
" style="fill:none;stroke:#000000;stroke-opacity:0.7;stroke-width:1.151292546497023;"/>
    <path clip-path="url(#p1469bd64ca)" d="M 288.733661 198.462509 
L 356.745821 144.516795 
" style="fill:none;stroke:#000000;stroke-opacity:0.7;stroke-width:1.151292546497023;"/>
    <path clip-path="url(#p1469bd64ca)" d="M 288.733661 198.462509 
L 204.186607 236.235852 
" style="fill:none;stroke:#000000;stroke-opacity:0.7;stroke-width:1.151292546497023;"/>
    <path clip-path="url(#p1469bd64ca)" d="M 323.187206 232.178099 
L 356.745821 144.516795 
" style="fill:none;stroke:#000000;stroke-opacity:0.7;stroke-width:1.151292546497023;"/>
    <path clip-path="url(#p1469bd64ca)" d="M 323.187206 232.178099 
L 204.186607 236.235852 
" style="fill:none;stroke:#000000;stroke-opacity:0.7;stroke-width:1.151292546497023;"/>
    <path clip-path="url(#p1469bd64ca)" d="M 160.415263 193.429011 
L 98.180037 235.689819 
" style="fill:none;stroke:#000000;stroke-opacity:0.7;stroke-width:1.151292546497023;"/>
    <path clip-path="url(#p1469bd64ca)" d="M 160.415263 193.429011 
L 207.280006 289.149103 
" style="fill:none;stroke:#000000;stroke-opacity:0.7;stroke-width:1.151292546497023;"/>
    <path clip-path="url(#p1469bd64ca)" d="M 160.415263 193.429011 
L 139.023432 274.38315 
" style="fill:none;stroke:#000000;stroke-opacity:0.7;stroke-width:1.151292546497023;"/>
    <path clip-path="url(#p1469bd64ca)" d="M 160.415263 193.429011 
L 92.627462 181.717188 
" style="fill:none;stroke:#000000;stroke-opacity:0.7;stroke-width:1.151292546497023;"/>
    <path clip-path="url(#p1469bd64ca)" d="M 204.186607 236.235852 
L 98.180037 235.689819 
" style="fill:none;stroke:#000000;stroke-opacity:0.7;stroke-width:1.151292546497023;"/>
    <path clip-path="url(#p1469bd64ca)" d="M 204.186607 236.235852 
L 207.280006 289.149103 
" style="fill:none;stroke:#000000;stroke-opacity:0.7;stroke-width:1.151292546497023;"/>
    <path clip-path="url(#p1469bd64ca)" d="M 204.186607 236.235852 
L 139.023432 274.38315 
" style="fill:none;stroke:#000000;stroke-opacity:0.7;stroke-width:1.151292546497023;"/>
    <path clip-path="url(#p1469bd64ca)" d="M 204.186607 236.235852 
L 92.627462 181.717188 
" style="fill:none;stroke:#000000;stroke-opacity:0.7;stroke-width:1.151292546497023;"/>
    <path clip-path="url(#p1469bd64ca)" d="M 312.886739 101.790705 
L 422.986923 159.421178 
" style="fill:none;stroke:#000000;stroke-opacity:0.7;stroke-width:1.151292546497023;"/>
    <path clip-path="url(#p1469bd64ca)" d="M 312.886739 101.790705 
L 420.455049 104.919818 
" style="fill:none;stroke:#000000;stroke-opacity:0.7;stroke-width:1.151292546497023;"/>
    <path clip-path="url(#p1469bd64ca)" d="M 312.886739 101.790705 
L 381.044294 65.333416 
" style="fill:none;stroke:#000000;stroke-opacity:0.7;stroke-width:1.151292546497023;"/>
    <path clip-path="url(#p1469bd64ca)" d="M 312.886739 101.790705 
L 314.112568 48.481389 
" style="fill:none;stroke:#000000;stroke-opacity:0.7;stroke-width:1.151292546497023;"/>
    <path clip-path="url(#p1469bd64ca)" d="M 356.745821 144.516795 
L 422.986923 159.421178 
" style="fill:none;stroke:#000000;stroke-opacity:0.7;stroke-width:1.151292546497023;"/>
    <path clip-path="url(#p1469bd64ca)" d="M 356.745821 144.516795 
L 420.455049 104.919818 
" style="fill:none;stroke:#000000;stroke-opacity:0.7;stroke-width:1.151292546497023;"/>
    <path clip-path="url(#p1469bd64ca)" d="M 356.745821 144.516795 
L 381.044294 65.333416 
" style="fill:none;stroke:#000000;stroke-opacity:0.7;stroke-width:1.151292546497023;"/>
    <path clip-path="url(#p1469bd64ca)" d="M 356.745821 144.516795 
L 314.112568 48.481389 
" style="fill:none;stroke:#000000;stroke-opacity:0.7;stroke-width:1.151292546497023;"/>
   </g>
   <g id="PathCollection_1">
    <path clip-path="url(#p1469bd64ca)" d="M 225.840399 141.489635 
C 227.026423 141.489635 228.164031 141.018422 229.002677 140.179776 
C 229.841323 139.34113 230.312535 138.203523 230.312535 137.017499 
C 230.312535 135.831474 229.841323 134.693867 229.002677 133.855221 
C 228.164031 133.016575 227.026423 132.545363 225.840399 132.545363 
C 224.654375 132.545363 223.516767 133.016575 222.678121 133.855221 
C 221.839476 134.693867 221.368263 135.831474 221.368263 137.017499 
C 221.368263 138.203523 221.839476 139.34113 222.678121 140.179776 
C 223.516767 141.018422 224.654375 141.489635 225.840399 141.489635 
z
" style="fill:#f0f921;fill-opacity:0.9;stroke:#000000;stroke-opacity:0.9;"/>
    <path clip-path="url(#p1469bd64ca)" d="M 193.759546 110.094683 
C 194.94557 110.094683 196.083178 109.62347 196.921824 108.784824 
C 197.76047 107.946179 198.231682 106.808571 198.231682 105.622547 
C 198.231682 104.436522 197.76047 103.298915 196.921824 102.460269 
C 196.083178 101.621623 194.94557 101.150411 193.759546 101.150411 
C 192.573522 101.150411 191.435914 101.621623 190.597268 102.460269 
C 189.758623 103.298915 189.28741 104.436522 189.28741 105.622547 
C 189.28741 106.808571 189.758623 107.946179 190.597268 108.784824 
C 191.435914 109.62347 192.573522 110.094683 193.759546 110.094683 
z
" style="fill:#f0f921;fill-opacity:0.9;stroke:#000000;stroke-opacity:0.9;"/>
    <path clip-path="url(#p1469bd64ca)" d="M 288.733661 202.934645 
C 289.919685 202.934645 291.057293 202.463432 291.895939 201.624786 
C 292.734585 200.78614 293.205797 199.648533 293.205797 198.462509 
C 293.205797 197.276484 292.734585 196.138877 291.895939 195.300231 
C 291.057293 194.461585 289.919685 193.990373 288.733661 193.990373 
C 287.547637 193.990373 286.410029 194.461585 285.571383 195.300231 
C 284.732738 196.138877 284.261525 197.276484 284.261525 198.462509 
C 284.261525 199.648533 284.732738 200.78614 285.571383 201.624786 
C 286.410029 202.463432 287.547637 202.934645 288.733661 202.934645 
z
" style="fill:#f0f921;fill-opacity:0.9;stroke:#000000;stroke-opacity:0.9;"/>
    <path clip-path="url(#p1469bd64ca)" d="M 323.187206 236.650235 
C 324.373231 236.650235 325.510838 236.179023 326.349484 235.340377 
C 327.18813 234.501731 327.659342 233.364123 327.659342 232.178099 
C 327.659342 230.992075 327.18813 229.854467 326.349484 229.015821 
C 325.510838 228.177176 324.373231 227.705963 323.187206 227.705963 
C 322.001182 227.705963 320.863574 228.177176 320.024929 229.015821 
C 319.186283 229.854467 318.71507 230.992075 318.71507 232.178099 
C 318.71507 233.364123 319.186283 234.501731 320.024929 235.340377 
C 320.863574 236.179023 322.001182 236.650235 323.187206 236.650235 
z
" style="fill:#f0f921;fill-opacity:0.9;stroke:#000000;stroke-opacity:0.9;"/>
    <path clip-path="url(#p1469bd64ca)" d="M 160.415263 201.174978 
C 162.469517 201.174978 164.439911 200.358814 165.892488 198.906237 
C 167.345066 197.453659 168.161229 195.483265 168.161229 193.429011 
C 168.161229 191.374757 167.345066 189.404363 165.892488 187.951785 
C 164.439911 186.499208 162.469517 185.683044 160.415263 185.683044 
C 158.361008 185.683044 156.390614 186.499208 154.938037 187.951785 
C 153.48546 189.404363 152.669296 191.374757 152.669296 193.429011 
C 152.669296 195.483265 153.48546 197.453659 154.938037 198.906237 
C 156.390614 200.358814 158.361008 201.174978 160.415263 201.174978 
z
" style="fill:#0d0887;fill-opacity:0.9;stroke:#000000;stroke-opacity:0.9;"/>
    <path clip-path="url(#p1469bd64ca)" d="M 204.186607 243.981819 
C 206.240861 243.981819 208.211255 243.165655 209.663832 241.713077 
C 211.11641 240.2605 211.932573 238.290106 211.932573 236.235852 
C 211.932573 234.181597 211.11641 232.211203 209.663832 230.758626 
C 208.211255 229.306049 206.240861 228.489885 204.186607 228.489885 
C 202.132352 228.489885 200.161958 229.306049 198.709381 230.758626 
C 197.256804 232.211203 196.44064 234.181597 196.44064 236.235852 
C 196.44064 238.290106 197.256804 240.2605 198.709381 241.713077 
C 200.161958 243.165655 202.132352 243.981819 204.186607 243.981819 
z
" style="fill:#0d0887;fill-opacity:0.9;stroke:#000000;stroke-opacity:0.9;"/>
    <path clip-path="url(#p1469bd64ca)" d="M 312.886739 109.536672 
C 314.940994 109.536672 316.911388 108.720508 318.363965 107.267931 
C 319.816542 105.815354 320.632706 103.84496 320.632706 101.790705 
C 320.632706 99.736451 319.816542 97.766057 318.363965 96.31348 
C 316.911388 94.860903 314.940994 94.044739 312.886739 94.044739 
C 310.832485 94.044739 308.862091 94.860903 307.409514 96.31348 
C 305.956937 97.766057 305.140773 99.736451 305.140773 101.790705 
C 305.140773 103.84496 305.956937 105.815354 307.409514 107.267931 
C 308.862091 108.720508 310.832485 109.536672 312.886739 109.536672 
z
" style="fill:#0d0887;fill-opacity:0.9;stroke:#000000;stroke-opacity:0.9;"/>
    <path clip-path="url(#p1469bd64ca)" d="M 356.745821 152.262762 
C 358.800076 152.262762 360.77047 151.446598 362.223047 149.994021 
C 363.675624 148.541443 364.491788 146.571049 364.491788 144.516795 
C 364.491788 142.462541 363.675624 140.492147 362.223047 139.039569 
C 360.77047 137.586992 358.800076 136.770828 356.745821 136.770828 
C 354.691567 136.770828 352.721173 137.586992 351.268596 139.039569 
C 349.816019 140.492147 348.999855 142.462541 348.999855 144.516795 
C 348.999855 146.571049 349.816019 148.541443 351.268596 149.994021 
C 352.721173 151.446598 354.691567 152.262762 356.745821 152.262762 
z
" style="fill:#0d0887;fill-opacity:0.9;stroke:#000000;stroke-opacity:0.9;"/>
    <path clip-path="url(#p1469bd64ca)" d="M 98.180037 241.167045 
C 99.632615 241.167045 101.025894 240.58993 102.053021 239.562803 
C 103.080148 238.535675 103.657263 237.142396 103.657263 235.689819 
C 103.657263 234.237242 103.080148 232.843963 102.053021 231.816836 
C 101.025894 230.789709 99.632615 230.212594 98.180037 230.212594 
C 96.72746 230.212594 95.334181 230.789709 94.307054 231.816836 
C 93.279927 232.843963 92.702812 234.237242 92.702812 235.689819 
C 92.702812 237.142396 93.279927 238.535675 94.307054 239.562803 
C 95.334181 240.58993 96.72746 241.167045 98.180037 241.167045 
z
" style="fill:#f0f921;fill-opacity:0.9;stroke:#000000;stroke-opacity:0.9;"/>
    <path clip-path="url(#p1469bd64ca)" d="M 207.280006 294.626328 
C 208.732583 294.626328 210.125862 294.049213 211.152989 293.022086 
C 212.180116 291.994959 212.757231 290.60168 212.757231 289.149103 
C 212.757231 287.696525 212.180116 286.303246 211.152989 285.276119 
C 210.125862 284.248992 208.732583 283.671877 207.280006 283.671877 
C 205.827428 283.671877 204.434149 284.248992 203.407022 285.276119 
C 202.379895 286.303246 201.80278 287.696525 201.80278 289.149103 
C 201.80278 290.60168 202.379895 291.994959 203.407022 293.022086 
C 204.434149 294.049213 205.827428 294.626328 207.280006 294.626328 
z
" style="fill:#f0f921;fill-opacity:0.9;stroke:#000000;stroke-opacity:0.9;"/>
    <path clip-path="url(#p1469bd64ca)" d="M 139.023432 279.860376 
C 140.476009 279.860376 141.869288 279.283261 142.896415 278.256134 
C 143.923542 277.229007 144.500657 275.835728 144.500657 274.38315 
C 144.500657 272.930573 143.923542 271.537294 142.896415 270.510167 
C 141.869288 269.48304 140.476009 268.905925 139.023432 268.905925 
C 137.570854 268.905925 136.177576 269.48304 135.150448 270.510167 
C 134.123321 271.537294 133.546206 272.930573 133.546206 274.38315 
C 133.546206 275.835728 134.123321 277.229007 135.150448 278.256134 
C 136.177576 279.283261 137.570854 279.860376 139.023432 279.860376 
z
" style="fill:#f0f921;fill-opacity:0.9;stroke:#000000;stroke-opacity:0.9;"/>
    <path clip-path="url(#p1469bd64ca)" d="M 92.627462 187.194414 
C 94.080039 187.194414 95.473318 186.617299 96.500445 185.590172 
C 97.527572 184.563045 98.104687 183.169766 98.104687 181.717188 
C 98.104687 180.264611 97.527572 178.871332 96.500445 177.844205 
C 95.473318 176.817078 94.080039 176.239963 92.627462 176.239963 
C 91.174884 176.239963 89.781605 176.817078 88.754478 177.844205 
C 87.727351 178.871332 87.150236 180.264611 87.150236 181.717188 
C 87.150236 183.169766 87.727351 184.563045 88.754478 185.590172 
C 89.781605 186.617299 91.174884 187.194414 92.627462 187.194414 
z
" style="fill:#f0f921;fill-opacity:0.9;stroke:#000000;stroke-opacity:0.9;"/>
    <path clip-path="url(#p1469bd64ca)" d="M 420.455049 110.397044 
C 421.907626 110.397044 423.300905 109.819929 424.328032 108.792802 
C 425.355159 107.765674 425.932275 106.372395 425.932275 104.919818 
C 425.932275 103.467241 425.355159 102.073962 424.328032 101.046835 
C 423.300905 100.019708 421.907626 99.442593 420.455049 99.442593 
C 419.002472 99.442593 417.609193 100.019708 416.582066 101.046835 
C 415.554938 102.073962 414.977823 103.467241 414.977823 104.919818 
C 414.977823 106.372395 415.554938 107.765674 416.582066 108.792802 
C 417.609193 109.819929 419.002472 110.397044 420.455049 110.397044 
z
" style="fill:#f0f921;fill-opacity:0.9;stroke:#000000;stroke-opacity:0.9;"/>
    <path clip-path="url(#p1469bd64ca)" d="M 381.044294 70.810642 
C 382.496872 70.810642 383.890151 70.233527 384.917278 69.206399 
C 385.944405 68.179272 386.52152 66.785993 386.52152 65.333416 
C 386.52152 63.880839 385.944405 62.48756 384.917278 61.460433 
C 383.890151 60.433305 382.496872 59.85619 381.044294 59.85619 
C 379.591717 59.85619 378.198438 60.433305 377.171311 61.460433 
C 376.144184 62.48756 375.567069 63.880839 375.567069 65.333416 
C 375.567069 66.785993 376.144184 68.179272 377.171311 69.206399 
C 378.198438 70.233527 379.591717 70.810642 381.044294 70.810642 
z
" style="fill:#f0f921;fill-opacity:0.9;stroke:#000000;stroke-opacity:0.9;"/>
    <path clip-path="url(#p1469bd64ca)" d="M 314.112568 53.958614 
C 315.565145 53.958614 316.958424 53.381499 317.985551 52.354372 
C 319.012678 51.327245 319.589793 49.933966 319.589793 48.481389 
C 319.589793 47.028812 319.012678 45.635533 317.985551 44.608405 
C 316.958424 43.581278 315.565145 43.004163 314.112568 43.004163 
C 312.65999 43.004163 311.266711 43.581278 310.239584 44.608405 
C 309.212457 45.635533 308.635342 47.028812 308.635342 48.481389 
C 308.635342 49.933966 309.212457 51.327245 310.239584 52.354372 
C 311.266711 53.381499 312.65999 53.958614 314.112568 53.958614 
z
" style="fill:#f0f921;fill-opacity:0.9;stroke:#000000;stroke-opacity:0.9;"/>
    <path clip-path="url(#p1469bd64ca)" d="M 422.986923 164.898403 
C 424.4395 164.898403 425.832779 164.321288 426.859907 163.294161 
C 427.887034 162.267034 428.464149 160.873755 428.464149 159.421178 
C 428.464149 157.968601 427.887034 156.575322 426.859907 155.548194 
C 425.832779 154.521067 424.4395 153.943952 422.986923 153.943952 
C 421.534346 153.943952 420.141067 154.521067 419.11394 155.548194 
C 418.086813 156.575322 417.509698 157.968601 417.509698 159.421178 
C 417.509698 160.873755 418.086813 162.267034 419.11394 163.294161 
C 420.141067 164.321288 421.534346 164.898403 422.986923 164.898403 
z
" style="fill:#f0f921;fill-opacity:0.9;stroke:#000000;stroke-opacity:0.9;"/>
   </g>
  </g>
 </g>
 <defs>
  <clipPath id="p1469bd64ca">
   <rect height="384.53" width="501.36125" x="8.160625" y="-22.993125"/>
  </clipPath>
 </defs>
</svg>
