<?xml version="1.0" encoding="utf-8" standalone="no"?>
<!DOCTYPE svg PUBLIC "-//W3C//DTD SVG 1.1//EN"
  "http://www.w3.org/Graphics/SVG/1.1/DTD/svg11.dtd">
<!-- Created with matplotlib (http://matplotlib.org/) -->
<svg height="348pt" version="1.1" viewBox="0 0 492 348" width="492pt" xmlns="http://www.w3.org/2000/svg" xmlns:xlink="http://www.w3.org/1999/xlink">
 <defs>
  <style type="text/css">
*{stroke-linecap:butt;stroke-linejoin:round;stroke-miterlimit:100000;}
  </style>
 </defs>
 <g id="figure_1">
  <g id="patch_1">
   <path d="M 0 348.350625 
L 492.174375 348.350625 
L 492.174375 0 
L 0 0 
z
" style="fill:none;"/>
  </g>
  <g id="axes_1">
   <g id="LineCollection_1">
    <path clip-path="url(#p5cad352833)" d="M 227.446009 198.607669 
L 163.377054 239.089064 
" style="fill:none;stroke:#000000;stroke-opacity:0.7;stroke-width:0.9594104554141858;"/>
    <path clip-path="url(#p5cad352833)" d="M 227.446009 198.607669 
L 142.323642 158.878029 
" style="fill:none;stroke:#000000;stroke-opacity:0.7;stroke-width:0.9594104554141858;"/>
    <path clip-path="url(#p5cad352833)" d="M 227.446009 198.607669 
L 218.13573 100.804386 
" style="fill:none;stroke:#000000;stroke-opacity:0.7;stroke-width:0.9594104554141858;"/>
    <path clip-path="url(#p5cad352833)" d="M 227.446009 198.607669 
L 253.583725 268.451775 
" style="fill:none;stroke:#000000;stroke-opacity:0.7;stroke-width:0.9594104554141858;"/>
    <path clip-path="url(#p5cad352833)" d="M 227.446009 198.607669 
L 345.347373 138.068227 
" style="fill:none;stroke:#000000;stroke-opacity:0.7;stroke-width:0.9594104554141858;"/>
    <path clip-path="url(#p5cad352833)" d="M 227.446009 198.607669 
L 345.208246 224.80762 
" style="fill:none;stroke:#000000;stroke-opacity:0.7;stroke-width:0.9594104554141858;"/>
    <path clip-path="url(#p5cad352833)" d="M 261.906447 182.42184 
L 163.377054 239.089064 
" style="fill:none;stroke:#000000;stroke-opacity:0.7;stroke-width:0.9594104554141858;"/>
    <path clip-path="url(#p5cad352833)" d="M 261.906447 182.42184 
L 142.323642 158.878029 
" style="fill:none;stroke:#000000;stroke-opacity:0.7;stroke-width:0.9594104554141858;"/>
    <path clip-path="url(#p5cad352833)" d="M 261.906447 182.42184 
L 218.13573 100.804386 
" style="fill:none;stroke:#000000;stroke-opacity:0.7;stroke-width:0.9594104554141858;"/>
    <path clip-path="url(#p5cad352833)" d="M 261.906447 182.42184 
L 253.583725 268.451775 
" style="fill:none;stroke:#000000;stroke-opacity:0.7;stroke-width:0.9594104554141858;"/>
    <path clip-path="url(#p5cad352833)" d="M 261.906447 182.42184 
L 345.347373 138.068227 
" style="fill:none;stroke:#000000;stroke-opacity:0.7;stroke-width:0.9594104554141858;"/>
    <path clip-path="url(#p5cad352833)" d="M 261.906447 182.42184 
L 345.208246 224.80762 
" style="fill:none;stroke:#000000;stroke-opacity:0.7;stroke-width:0.9594104554141858;"/>
    <path clip-path="url(#p5cad352833)" d="M 246.776368 205.4648 
L 163.377054 239.089064 
" style="fill:none;stroke:#000000;stroke-opacity:0.7;stroke-width:0.9594104554141858;"/>
    <path clip-path="url(#p5cad352833)" d="M 246.776368 205.4648 
L 142.323642 158.878029 
" style="fill:none;stroke:#000000;stroke-opacity:0.7;stroke-width:0.9594104554141858;"/>
    <path clip-path="url(#p5cad352833)" d="M 246.776368 205.4648 
L 218.13573 100.804386 
" style="fill:none;stroke:#000000;stroke-opacity:0.7;stroke-width:0.9594104554141858;"/>
    <path clip-path="url(#p5cad352833)" d="M 246.776368 205.4648 
L 253.583725 268.451775 
" style="fill:none;stroke:#000000;stroke-opacity:0.7;stroke-width:0.9594104554141858;"/>
    <path clip-path="url(#p5cad352833)" d="M 246.776368 205.4648 
L 345.347373 138.068227 
" style="fill:none;stroke:#000000;stroke-opacity:0.7;stroke-width:0.9594104554141858;"/>
    <path clip-path="url(#p5cad352833)" d="M 246.776368 205.4648 
L 345.208246 224.80762 
" style="fill:none;stroke:#000000;stroke-opacity:0.7;stroke-width:0.9594104554141858;"/>
    <path clip-path="url(#p5cad352833)" d="M 268.324623 197.978001 
L 163.377054 239.089064 
" style="fill:none;stroke:#000000;stroke-opacity:0.7;stroke-width:0.9594104554141858;"/>
    <path clip-path="url(#p5cad352833)" d="M 268.324623 197.978001 
L 142.323642 158.878029 
" style="fill:none;stroke:#000000;stroke-opacity:0.7;stroke-width:0.9594104554141858;"/>
    <path clip-path="url(#p5cad352833)" d="M 268.324623 197.978001 
L 218.13573 100.804386 
" style="fill:none;stroke:#000000;stroke-opacity:0.7;stroke-width:0.9594104554141858;"/>
    <path clip-path="url(#p5cad352833)" d="M 268.324623 197.978001 
L 253.583725 268.451775 
" style="fill:none;stroke:#000000;stroke-opacity:0.7;stroke-width:0.9594104554141858;"/>
    <path clip-path="url(#p5cad352833)" d="M 268.324623 197.978001 
L 345.347373 138.068227 
" style="fill:none;stroke:#000000;stroke-opacity:0.7;stroke-width:0.9594104554141858;"/>
    <path clip-path="url(#p5cad352833)" d="M 268.324623 197.978001 
L 345.208246 224.80762 
" style="fill:none;stroke:#000000;stroke-opacity:0.7;stroke-width:0.9594104554141858;"/>
    <path clip-path="url(#p5cad352833)" d="M 237.317812 171.783144 
L 163.377054 239.089064 
" style="fill:none;stroke:#000000;stroke-opacity:0.7;stroke-width:0.9594104554141858;"/>
    <path clip-path="url(#p5cad352833)" d="M 237.317812 171.783144 
L 142.323642 158.878029 
" style="fill:none;stroke:#000000;stroke-opacity:0.7;stroke-width:0.9594104554141858;"/>
    <path clip-path="url(#p5cad352833)" d="M 237.317812 171.783144 
L 218.13573 100.804386 
" style="fill:none;stroke:#000000;stroke-opacity:0.7;stroke-width:0.9594104554141858;"/>
    <path clip-path="url(#p5cad352833)" d="M 237.317812 171.783144 
L 253.583725 268.451775 
" style="fill:none;stroke:#000000;stroke-opacity:0.7;stroke-width:0.9594104554141858;"/>
    <path clip-path="url(#p5cad352833)" d="M 237.317812 171.783144 
L 345.347373 138.068227 
" style="fill:none;stroke:#000000;stroke-opacity:0.7;stroke-width:0.9594104554141858;"/>
    <path clip-path="url(#p5cad352833)" d="M 237.317812 171.783144 
L 345.208246 224.80762 
" style="fill:none;stroke:#000000;stroke-opacity:0.7;stroke-width:0.9594104554141858;"/>
    <path clip-path="url(#p5cad352833)" d="M 220.914525 180.753941 
L 163.377054 239.089064 
" style="fill:none;stroke:#000000;stroke-opacity:0.7;stroke-width:0.9594104554141858;"/>
    <path clip-path="url(#p5cad352833)" d="M 220.914525 180.753941 
L 142.323642 158.878029 
" style="fill:none;stroke:#000000;stroke-opacity:0.7;stroke-width:0.9594104554141858;"/>
    <path clip-path="url(#p5cad352833)" d="M 220.914525 180.753941 
L 218.13573 100.804386 
" style="fill:none;stroke:#000000;stroke-opacity:0.7;stroke-width:0.9594104554141858;"/>
    <path clip-path="url(#p5cad352833)" d="M 220.914525 180.753941 
L 253.583725 268.451775 
" style="fill:none;stroke:#000000;stroke-opacity:0.7;stroke-width:0.9594104554141858;"/>
    <path clip-path="url(#p5cad352833)" d="M 220.914525 180.753941 
L 345.347373 138.068227 
" style="fill:none;stroke:#000000;stroke-opacity:0.7;stroke-width:0.9594104554141858;"/>
    <path clip-path="url(#p5cad352833)" d="M 220.914525 180.753941 
L 345.208246 224.80762 
" style="fill:none;stroke:#000000;stroke-opacity:0.7;stroke-width:0.9594104554141858;"/>
    <path clip-path="url(#p5cad352833)" d="M 296.726613 157.317799 
L 376.52703 178.850902 
" style="fill:none;stroke:#000000;stroke-opacity:0.7;stroke-width:0.9594104554141858;"/>
    <path clip-path="url(#p5cad352833)" d="M 296.726613 157.317799 
L 172.939267 200.514938 
" style="fill:none;stroke:#000000;stroke-opacity:0.7;stroke-width:0.9594104554141858;"/>
    <path clip-path="url(#p5cad352833)" d="M 296.726613 157.317799 
L 173.742698 114.004339 
" style="fill:none;stroke:#000000;stroke-opacity:0.7;stroke-width:0.9594104554141858;"/>
    <path clip-path="url(#p5cad352833)" d="M 296.726613 157.317799 
L 263.172134 70.361146 
" style="fill:none;stroke:#000000;stroke-opacity:0.7;stroke-width:0.9594104554141858;"/>
    <path clip-path="url(#p5cad352833)" d="M 296.726613 157.317799 
L 299.281048 238.6507 
" style="fill:none;stroke:#000000;stroke-opacity:0.7;stroke-width:0.9594104554141858;"/>
    <path clip-path="url(#p5cad352833)" d="M 296.726613 157.317799 
L 354.245282 98.934609 
" style="fill:none;stroke:#000000;stroke-opacity:0.7;stroke-width:0.9594104554141858;"/>
    <path clip-path="url(#p5cad352833)" d="M 250.596866 141.198301 
L 376.52703 178.850902 
" style="fill:none;stroke:#000000;stroke-opacity:0.7;stroke-width:0.9594104554141858;"/>
    <path clip-path="url(#p5cad352833)" d="M 250.596866 141.198301 
L 172.939267 200.514938 
" style="fill:none;stroke:#000000;stroke-opacity:0.7;stroke-width:0.9594104554141858;"/>
    <path clip-path="url(#p5cad352833)" d="M 250.596866 141.198301 
L 173.742698 114.004339 
" style="fill:none;stroke:#000000;stroke-opacity:0.7;stroke-width:0.9594104554141858;"/>
    <path clip-path="url(#p5cad352833)" d="M 250.596866 141.198301 
L 263.172134 70.361146 
" style="fill:none;stroke:#000000;stroke-opacity:0.7;stroke-width:0.9594104554141858;"/>
    <path clip-path="url(#p5cad352833)" d="M 250.596866 141.198301 
L 299.281048 238.6507 
" style="fill:none;stroke:#000000;stroke-opacity:0.7;stroke-width:0.9594104554141858;"/>
    <path clip-path="url(#p5cad352833)" d="M 250.596866 141.198301 
L 354.245282 98.934609 
" style="fill:none;stroke:#000000;stroke-opacity:0.7;stroke-width:0.9594104554141858;"/>
    <path clip-path="url(#p5cad352833)" d="M 282.487953 167.958513 
L 376.52703 178.850902 
" style="fill:none;stroke:#000000;stroke-opacity:0.7;stroke-width:0.9594104554141858;"/>
    <path clip-path="url(#p5cad352833)" d="M 282.487953 167.958513 
L 172.939267 200.514938 
" style="fill:none;stroke:#000000;stroke-opacity:0.7;stroke-width:0.9594104554141858;"/>
    <path clip-path="url(#p5cad352833)" d="M 282.487953 167.958513 
L 173.742698 114.004339 
" style="fill:none;stroke:#000000;stroke-opacity:0.7;stroke-width:0.9594104554141858;"/>
    <path clip-path="url(#p5cad352833)" d="M 282.487953 167.958513 
L 263.172134 70.361146 
" style="fill:none;stroke:#000000;stroke-opacity:0.7;stroke-width:0.9594104554141858;"/>
    <path clip-path="url(#p5cad352833)" d="M 282.487953 167.958513 
L 299.281048 238.6507 
" style="fill:none;stroke:#000000;stroke-opacity:0.7;stroke-width:0.9594104554141858;"/>
    <path clip-path="url(#p5cad352833)" d="M 282.487953 167.958513 
L 354.245282 98.934609 
" style="fill:none;stroke:#000000;stroke-opacity:0.7;stroke-width:0.9594104554141858;"/>
    <path clip-path="url(#p5cad352833)" d="M 256.635386 156.830407 
L 376.52703 178.850902 
" style="fill:none;stroke:#000000;stroke-opacity:0.7;stroke-width:0.9594104554141858;"/>
    <path clip-path="url(#p5cad352833)" d="M 256.635386 156.830407 
L 172.939267 200.514938 
" style="fill:none;stroke:#000000;stroke-opacity:0.7;stroke-width:0.9594104554141858;"/>
    <path clip-path="url(#p5cad352833)" d="M 256.635386 156.830407 
L 173.742698 114.004339 
" style="fill:none;stroke:#000000;stroke-opacity:0.7;stroke-width:0.9594104554141858;"/>
    <path clip-path="url(#p5cad352833)" d="M 256.635386 156.830407 
L 263.172134 70.361146 
" style="fill:none;stroke:#000000;stroke-opacity:0.7;stroke-width:0.9594104554141858;"/>
    <path clip-path="url(#p5cad352833)" d="M 256.635386 156.830407 
L 299.281048 238.6507 
" style="fill:none;stroke:#000000;stroke-opacity:0.7;stroke-width:0.9594104554141858;"/>
    <path clip-path="url(#p5cad352833)" d="M 256.635386 156.830407 
L 354.245282 98.934609 
" style="fill:none;stroke:#000000;stroke-opacity:0.7;stroke-width:0.9594104554141858;"/>
    <path clip-path="url(#p5cad352833)" d="M 271.440458 133.580762 
L 376.52703 178.850902 
" style="fill:none;stroke:#000000;stroke-opacity:0.7;stroke-width:0.9594104554141858;"/>
    <path clip-path="url(#p5cad352833)" d="M 271.440458 133.580762 
L 172.939267 200.514938 
" style="fill:none;stroke:#000000;stroke-opacity:0.7;stroke-width:0.9594104554141858;"/>
    <path clip-path="url(#p5cad352833)" d="M 271.440458 133.580762 
L 173.742698 114.004339 
" style="fill:none;stroke:#000000;stroke-opacity:0.7;stroke-width:0.9594104554141858;"/>
    <path clip-path="url(#p5cad352833)" d="M 271.440458 133.580762 
L 263.172134 70.361146 
" style="fill:none;stroke:#000000;stroke-opacity:0.7;stroke-width:0.9594104554141858;"/>
    <path clip-path="url(#p5cad352833)" d="M 271.440458 133.580762 
L 299.281048 238.6507 
" style="fill:none;stroke:#000000;stroke-opacity:0.7;stroke-width:0.9594104554141858;"/>
    <path clip-path="url(#p5cad352833)" d="M 271.440458 133.580762 
L 354.245282 98.934609 
" style="fill:none;stroke:#000000;stroke-opacity:0.7;stroke-width:0.9594104554141858;"/>
    <path clip-path="url(#p5cad352833)" d="M 290.829351 139.482336 
L 376.52703 178.850902 
" style="fill:none;stroke:#000000;stroke-opacity:0.7;stroke-width:0.9594104554141858;"/>
    <path clip-path="url(#p5cad352833)" d="M 290.829351 139.482336 
L 172.939267 200.514938 
" style="fill:none;stroke:#000000;stroke-opacity:0.7;stroke-width:0.9594104554141858;"/>
    <path clip-path="url(#p5cad352833)" d="M 290.829351 139.482336 
L 173.742698 114.004339 
" style="fill:none;stroke:#000000;stroke-opacity:0.7;stroke-width:0.9594104554141858;"/>
    <path clip-path="url(#p5cad352833)" d="M 290.829351 139.482336 
L 263.172134 70.361146 
" style="fill:none;stroke:#000000;stroke-opacity:0.7;stroke-width:0.9594104554141858;"/>
    <path clip-path="url(#p5cad352833)" d="M 290.829351 139.482336 
L 299.281048 238.6507 
" style="fill:none;stroke:#000000;stroke-opacity:0.7;stroke-width:0.9594104554141858;"/>
    <path clip-path="url(#p5cad352833)" d="M 290.829351 139.482336 
L 354.245282 98.934609 
" style="fill:none;stroke:#000000;stroke-opacity:0.7;stroke-width:0.9594104554141858;"/>
    <path clip-path="url(#p5cad352833)" d="M 345.347373 138.068227 
L 408.422379 63.324247 
" style="fill:none;stroke:#000000;stroke-opacity:0.7;stroke-width:0.9594104554141858;"/>
    <path clip-path="url(#p5cad352833)" d="M 345.347373 138.068227 
L 448.13019 129.107716 
" style="fill:none;stroke:#000000;stroke-opacity:0.7;stroke-width:0.9594104554141858;"/>
    <path clip-path="url(#p5cad352833)" d="M 345.347373 138.068227 
L 436.924766 96.065054 
" style="fill:none;stroke:#000000;stroke-opacity:0.7;stroke-width:0.9594104554141858;"/>
    <path clip-path="url(#p5cad352833)" d="M 345.347373 138.068227 
L 365.038337 41.41565 
" style="fill:none;stroke:#000000;stroke-opacity:0.7;stroke-width:0.9594104554141858;"/>
    <path clip-path="url(#p5cad352833)" d="M 354.245282 98.934609 
L 436.924766 96.065054 
" style="fill:none;stroke:#000000;stroke-opacity:0.7;stroke-width:0.9594104554141858;"/>
    <path clip-path="url(#p5cad352833)" d="M 354.245282 98.934609 
L 408.422379 63.324247 
" style="fill:none;stroke:#000000;stroke-opacity:0.7;stroke-width:0.9594104554141858;"/>
    <path clip-path="url(#p5cad352833)" d="M 354.245282 98.934609 
L 448.13019 129.107716 
" style="fill:none;stroke:#000000;stroke-opacity:0.7;stroke-width:0.9594104554141858;"/>
    <path clip-path="url(#p5cad352833)" d="M 354.245282 98.934609 
L 365.038337 41.41565 
" style="fill:none;stroke:#000000;stroke-opacity:0.7;stroke-width:0.9594104554141858;"/>
    <path clip-path="url(#p5cad352833)" d="M 345.208246 224.80762 
L 450.273509 214.560857 
" style="fill:none;stroke:#000000;stroke-opacity:0.7;stroke-width:0.9594104554141858;"/>
    <path clip-path="url(#p5cad352833)" d="M 345.208246 224.80762 
L 405.401677 269.749564 
" style="fill:none;stroke:#000000;stroke-opacity:0.7;stroke-width:0.9594104554141858;"/>
    <path clip-path="url(#p5cad352833)" d="M 345.208246 224.80762 
L 432.98908 244.546506 
" style="fill:none;stroke:#000000;stroke-opacity:0.7;stroke-width:0.9594104554141858;"/>
    <path clip-path="url(#p5cad352833)" d="M 345.208246 224.80762 
L 455.838619 180.792394 
" style="fill:none;stroke:#000000;stroke-opacity:0.7;stroke-width:0.9594104554141858;"/>
    <path clip-path="url(#p5cad352833)" d="M 376.52703 178.850902 
L 450.273509 214.560857 
" style="fill:none;stroke:#000000;stroke-opacity:0.7;stroke-width:0.9594104554141858;"/>
    <path clip-path="url(#p5cad352833)" d="M 376.52703 178.850902 
L 405.401677 269.749564 
" style="fill:none;stroke:#000000;stroke-opacity:0.7;stroke-width:0.9594104554141858;"/>
    <path clip-path="url(#p5cad352833)" d="M 376.52703 178.850902 
L 432.98908 244.546506 
" style="fill:none;stroke:#000000;stroke-opacity:0.7;stroke-width:0.9594104554141858;"/>
    <path clip-path="url(#p5cad352833)" d="M 376.52703 178.850902 
L 455.838619 180.792394 
" style="fill:none;stroke:#000000;stroke-opacity:0.7;stroke-width:0.9594104554141858;"/>
    <path clip-path="url(#p5cad352833)" d="M 163.377054 239.089064 
L 80.895608 242.148001 
" style="fill:none;stroke:#000000;stroke-opacity:0.7;stroke-width:0.9594104554141858;"/>
    <path clip-path="url(#p5cad352833)" d="M 163.377054 239.089064 
L 109.4732 275.065691 
" style="fill:none;stroke:#000000;stroke-opacity:0.7;stroke-width:0.9594104554141858;"/>
    <path clip-path="url(#p5cad352833)" d="M 163.377054 239.089064 
L 69.853127 209.032277 
" style="fill:none;stroke:#000000;stroke-opacity:0.7;stroke-width:0.9594104554141858;"/>
    <path clip-path="url(#p5cad352833)" d="M 163.377054 239.089064 
L 152.565199 296.849316 
" style="fill:none;stroke:#000000;stroke-opacity:0.7;stroke-width:0.9594104554141858;"/>
    <path clip-path="url(#p5cad352833)" d="M 172.939267 200.514938 
L 80.895608 242.148001 
" style="fill:none;stroke:#000000;stroke-opacity:0.7;stroke-width:0.9594104554141858;"/>
    <path clip-path="url(#p5cad352833)" d="M 172.939267 200.514938 
L 69.853127 209.032277 
" style="fill:none;stroke:#000000;stroke-opacity:0.7;stroke-width:0.9594104554141858;"/>
    <path clip-path="url(#p5cad352833)" d="M 172.939267 200.514938 
L 152.565199 296.849316 
" style="fill:none;stroke:#000000;stroke-opacity:0.7;stroke-width:0.9594104554141858;"/>
    <path clip-path="url(#p5cad352833)" d="M 172.939267 200.514938 
L 109.4732 275.065691 
" style="fill:none;stroke:#000000;stroke-opacity:0.7;stroke-width:0.9594104554141858;"/>
    <path clip-path="url(#p5cad352833)" d="M 142.323642 158.878029 
L 68.537054 122.837955 
" style="fill:none;stroke:#000000;stroke-opacity:0.7;stroke-width:0.9594104554141858;"/>
    <path clip-path="url(#p5cad352833)" d="M 142.323642 158.878029 
L 62.620991 156.575656 
" style="fill:none;stroke:#000000;stroke-opacity:0.7;stroke-width:0.9594104554141858;"/>
    <path clip-path="url(#p5cad352833)" d="M 142.323642 158.878029 
L 116.078634 66.938829 
" style="fill:none;stroke:#000000;stroke-opacity:0.7;stroke-width:0.9594104554141858;"/>
    <path clip-path="url(#p5cad352833)" d="M 142.323642 158.878029 
L 86.322844 92.800394 
" style="fill:none;stroke:#000000;stroke-opacity:0.7;stroke-width:0.9594104554141858;"/>
    <path clip-path="url(#p5cad352833)" d="M 173.742698 114.004339 
L 62.620991 156.575656 
" style="fill:none;stroke:#000000;stroke-opacity:0.7;stroke-width:0.9594104554141858;"/>
    <path clip-path="url(#p5cad352833)" d="M 173.742698 114.004339 
L 86.322844 92.800394 
" style="fill:none;stroke:#000000;stroke-opacity:0.7;stroke-width:0.9594104554141858;"/>
    <path clip-path="url(#p5cad352833)" d="M 173.742698 114.004339 
L 116.078634 66.938829 
" style="fill:none;stroke:#000000;stroke-opacity:0.7;stroke-width:0.9594104554141858;"/>
    <path clip-path="url(#p5cad352833)" d="M 173.742698 114.004339 
L 68.537054 122.837955 
" style="fill:none;stroke:#000000;stroke-opacity:0.7;stroke-width:0.9594104554141858;"/>
    <path clip-path="url(#p5cad352833)" d="M 218.13573 100.804386 
L 241.200854 14.959986 
" style="fill:none;stroke:#000000;stroke-opacity:0.7;stroke-width:0.9594104554141858;"/>
    <path clip-path="url(#p5cad352833)" d="M 218.13573 100.804386 
L 196.268859 23.563845 
" style="fill:none;stroke:#000000;stroke-opacity:0.7;stroke-width:0.9594104554141858;"/>
    <path clip-path="url(#p5cad352833)" d="M 218.13573 100.804386 
L 158.775812 41.463716 
" style="fill:none;stroke:#000000;stroke-opacity:0.7;stroke-width:0.9594104554141858;"/>
    <path clip-path="url(#p5cad352833)" d="M 218.13573 100.804386 
L 291.384609 19.11291 
" style="fill:none;stroke:#000000;stroke-opacity:0.7;stroke-width:0.9594104554141858;"/>
    <path clip-path="url(#p5cad352833)" d="M 263.172134 70.361146 
L 158.775812 41.463716 
" style="fill:none;stroke:#000000;stroke-opacity:0.7;stroke-width:0.9594104554141858;"/>
    <path clip-path="url(#p5cad352833)" d="M 263.172134 70.361146 
L 241.200854 14.959986 
" style="fill:none;stroke:#000000;stroke-opacity:0.7;stroke-width:0.9594104554141858;"/>
    <path clip-path="url(#p5cad352833)" d="M 263.172134 70.361146 
L 196.268859 23.563845 
" style="fill:none;stroke:#000000;stroke-opacity:0.7;stroke-width:0.9594104554141858;"/>
    <path clip-path="url(#p5cad352833)" d="M 263.172134 70.361146 
L 291.384609 19.11291 
" style="fill:none;stroke:#000000;stroke-opacity:0.7;stroke-width:0.9594104554141858;"/>
    <path clip-path="url(#p5cad352833)" d="M 253.583725 268.451775 
L 272.548467 324.122106 
" style="fill:none;stroke:#000000;stroke-opacity:0.7;stroke-width:0.9594104554141858;"/>
    <path clip-path="url(#p5cad352833)" d="M 253.583725 268.451775 
L 355.101357 300.108207 
" style="fill:none;stroke:#000000;stroke-opacity:0.7;stroke-width:0.9594104554141858;"/>
    <path clip-path="url(#p5cad352833)" d="M 253.583725 268.451775 
L 222.478772 318.815592 
" style="fill:none;stroke:#000000;stroke-opacity:0.7;stroke-width:0.9594104554141858;"/>
    <path clip-path="url(#p5cad352833)" d="M 253.583725 268.451775 
L 317.952995 316.306534 
" style="fill:none;stroke:#000000;stroke-opacity:0.7;stroke-width:0.9594104554141858;"/>
    <path clip-path="url(#p5cad352833)" d="M 299.281048 238.6507 
L 272.548467 324.122106 
" style="fill:none;stroke:#000000;stroke-opacity:0.7;stroke-width:0.9594104554141858;"/>
    <path clip-path="url(#p5cad352833)" d="M 299.281048 238.6507 
L 355.101357 300.108207 
" style="fill:none;stroke:#000000;stroke-opacity:0.7;stroke-width:0.9594104554141858;"/>
    <path clip-path="url(#p5cad352833)" d="M 299.281048 238.6507 
L 222.478772 318.815592 
" style="fill:none;stroke:#000000;stroke-opacity:0.7;stroke-width:0.9594104554141858;"/>
    <path clip-path="url(#p5cad352833)" d="M 299.281048 238.6507 
L 317.952995 316.306534 
" style="fill:none;stroke:#000000;stroke-opacity:0.7;stroke-width:0.9594104554141858;"/>
   </g>
   <g id="PathCollection_1">
    <path clip-path="url(#p5cad352833)" d="M 227.446009 202.383714 
C 228.447428 202.383714 229.407966 201.985846 230.116076 201.277736 
C 230.824186 200.569626 231.222054 199.609088 231.222054 198.607669 
C 231.222054 197.60625 230.824186 196.645711 230.116076 195.937601 
C 229.407966 195.229491 228.447428 194.831623 227.446009 194.831623 
C 226.44459 194.831623 225.484051 195.229491 224.775941 195.937601 
C 224.067831 196.645711 223.669963 197.60625 223.669963 198.607669 
C 223.669963 199.609088 224.067831 200.569626 224.775941 201.277736 
C 225.484051 201.985846 226.44459 202.383714 227.446009 202.383714 
z
" style="fill:#cc4778;fill-opacity:0.95;stroke:#000000;stroke-opacity:0.95;"/>
    <path clip-path="url(#p5cad352833)" d="M 261.906447 186.197885 
C 262.907866 186.197885 263.868405 185.800017 264.576515 185.091907 
C 265.284625 184.383797 265.682493 183.423259 265.682493 182.42184 
C 265.682493 181.420421 265.284625 180.459882 264.576515 179.751772 
C 263.868405 179.043662 262.907866 178.645794 261.906447 178.645794 
C 260.905028 178.645794 259.94449 179.043662 259.23638 179.751772 
C 258.52827 180.459882 258.130402 181.420421 258.130402 182.42184 
C 258.130402 183.423259 258.52827 184.383797 259.23638 185.091907 
C 259.94449 185.800017 260.905028 186.197885 261.906447 186.197885 
z
" style="fill:#cc4778;fill-opacity:0.95;stroke:#000000;stroke-opacity:0.95;"/>
    <path clip-path="url(#p5cad352833)" d="M 246.776368 209.240845 
C 247.777787 209.240845 248.738325 208.842977 249.446435 208.134867 
C 250.154545 207.426757 250.552413 206.466219 250.552413 205.4648 
C 250.552413 204.463381 250.154545 203.502843 249.446435 202.794733 
C 248.738325 202.086622 247.777787 201.688754 246.776368 201.688754 
C 245.774949 201.688754 244.81441 202.086622 244.1063 202.794733 
C 243.39819 203.502843 243.000322 204.463381 243.000322 205.4648 
C 243.000322 206.466219 243.39819 207.426757 244.1063 208.134867 
C 244.81441 208.842977 245.774949 209.240845 246.776368 209.240845 
z
" style="fill:#cc4778;fill-opacity:0.95;stroke:#000000;stroke-opacity:0.95;"/>
    <path clip-path="url(#p5cad352833)" d="M 268.324623 201.754046 
C 269.326042 201.754046 270.286581 201.356178 270.994691 200.648068 
C 271.702801 199.939958 272.100669 198.97942 272.100669 197.978001 
C 272.100669 196.976582 271.702801 196.016044 270.994691 195.307933 
C 270.286581 194.599823 269.326042 194.201955 268.324623 194.201955 
C 267.323204 194.201955 266.362666 194.599823 265.654556 195.307933 
C 264.946446 196.016044 264.548578 196.976582 264.548578 197.978001 
C 264.548578 198.97942 264.946446 199.939958 265.654556 200.648068 
C 266.362666 201.356178 267.323204 201.754046 268.324623 201.754046 
z
" style="fill:#cc4778;fill-opacity:0.95;stroke:#000000;stroke-opacity:0.95;"/>
    <path clip-path="url(#p5cad352833)" d="M 237.317812 175.55919 
C 238.319231 175.55919 239.279769 175.161322 239.987879 174.453212 
C 240.695989 173.745102 241.093857 172.784563 241.093857 171.783144 
C 241.093857 170.781725 240.695989 169.821187 239.987879 169.113077 
C 239.279769 168.404967 238.319231 168.007099 237.317812 168.007099 
C 236.316393 168.007099 235.355854 168.404967 234.647744 169.113077 
C 233.939634 169.821187 233.541766 170.781725 233.541766 171.783144 
C 233.541766 172.784563 233.939634 173.745102 234.647744 174.453212 
C 235.355854 175.161322 236.316393 175.55919 237.317812 175.55919 
z
" style="fill:#cc4778;fill-opacity:0.95;stroke:#000000;stroke-opacity:0.95;"/>
    <path clip-path="url(#p5cad352833)" d="M 220.914525 184.529986 
C 221.915944 184.529986 222.876482 184.132118 223.584592 183.424008 
C 224.292702 182.715898 224.69057 181.75536 224.69057 180.753941 
C 224.69057 179.752522 224.292702 178.791984 223.584592 178.083873 
C 222.876482 177.375763 221.915944 176.977895 220.914525 176.977895 
C 219.913106 176.977895 218.952568 177.375763 218.244457 178.083873 
C 217.536347 178.791984 217.138479 179.752522 217.138479 180.753941 
C 217.138479 181.75536 217.536347 182.715898 218.244457 183.424008 
C 218.952568 184.132118 219.913106 184.529986 220.914525 184.529986 
z
" style="fill:#cc4778;fill-opacity:0.95;stroke:#000000;stroke-opacity:0.95;"/>
    <path clip-path="url(#p5cad352833)" d="M 296.726613 161.093844 
C 297.728032 161.093844 298.68857 160.695976 299.39668 159.987866 
C 300.10479 159.279756 300.502658 158.319218 300.502658 157.317799 
C 300.502658 156.31638 300.10479 155.355841 299.39668 154.647731 
C 298.68857 153.939621 297.728032 153.541753 296.726613 153.541753 
C 295.725194 153.541753 294.764656 153.939621 294.056545 154.647731 
C 293.348435 155.355841 292.950567 156.31638 292.950567 157.317799 
C 292.950567 158.319218 293.348435 159.279756 294.056545 159.987866 
C 294.764656 160.695976 295.725194 161.093844 296.726613 161.093844 
z
" style="fill:#cc4778;fill-opacity:0.95;stroke:#000000;stroke-opacity:0.95;"/>
    <path clip-path="url(#p5cad352833)" d="M 250.596866 144.974347 
C 251.598285 144.974347 252.558823 144.576479 253.266933 143.868368 
C 253.975043 143.160258 254.372911 142.19972 254.372911 141.198301 
C 254.372911 140.196882 253.975043 139.236344 253.266933 138.528234 
C 252.558823 137.820123 251.598285 137.422255 250.596866 137.422255 
C 249.595447 137.422255 248.634908 137.820123 247.926798 138.528234 
C 247.218688 139.236344 246.82082 140.196882 246.82082 141.198301 
C 246.82082 142.19972 247.218688 143.160258 247.926798 143.868368 
C 248.634908 144.576479 249.595447 144.974347 250.596866 144.974347 
z
" style="fill:#cc4778;fill-opacity:0.95;stroke:#000000;stroke-opacity:0.95;"/>
    <path clip-path="url(#p5cad352833)" d="M 282.487953 171.734558 
C 283.489372 171.734558 284.449911 171.33669 285.158021 170.62858 
C 285.866131 169.92047 286.263999 168.959932 286.263999 167.958513 
C 286.263999 166.957094 285.866131 165.996556 285.158021 165.288445 
C 284.449911 164.580335 283.489372 164.182467 282.487953 164.182467 
C 281.486534 164.182467 280.525996 164.580335 279.817886 165.288445 
C 279.109776 165.996556 278.711908 166.957094 278.711908 167.958513 
C 278.711908 168.959932 279.109776 169.92047 279.817886 170.62858 
C 280.525996 171.33669 281.486534 171.734558 282.487953 171.734558 
z
" style="fill:#cc4778;fill-opacity:0.95;stroke:#000000;stroke-opacity:0.95;"/>
    <path clip-path="url(#p5cad352833)" d="M 256.635386 160.606452 
C 257.636805 160.606452 258.597343 160.208584 259.305453 159.500474 
C 260.013563 158.792364 260.411431 157.831826 260.411431 156.830407 
C 260.411431 155.828988 260.013563 154.86845 259.305453 154.160339 
C 258.597343 153.452229 257.636805 153.054361 256.635386 153.054361 
C 255.633967 153.054361 254.673429 153.452229 253.965318 154.160339 
C 253.257208 154.86845 252.85934 155.828988 252.85934 156.830407 
C 252.85934 157.831826 253.257208 158.792364 253.965318 159.500474 
C 254.673429 160.208584 255.633967 160.606452 256.635386 160.606452 
z
" style="fill:#cc4778;fill-opacity:0.95;stroke:#000000;stroke-opacity:0.95;"/>
    <path clip-path="url(#p5cad352833)" d="M 271.440458 137.356807 
C 272.441877 137.356807 273.402415 136.958939 274.110526 136.250829 
C 274.818636 135.542719 275.216504 134.582181 275.216504 133.580762 
C 275.216504 132.579343 274.818636 131.618804 274.110526 130.910694 
C 273.402415 130.202584 272.441877 129.804716 271.440458 129.804716 
C 270.439039 129.804716 269.478501 130.202584 268.770391 130.910694 
C 268.062281 131.618804 267.664413 132.579343 267.664413 133.580762 
C 267.664413 134.582181 268.062281 135.542719 268.770391 136.250829 
C 269.478501 136.958939 270.439039 137.356807 271.440458 137.356807 
z
" style="fill:#cc4778;fill-opacity:0.95;stroke:#000000;stroke-opacity:0.95;"/>
    <path clip-path="url(#p5cad352833)" d="M 290.829351 143.258381 
C 291.83077 143.258381 292.791308 142.860513 293.499419 142.152403 
C 294.207529 141.444293 294.605397 140.483755 294.605397 139.482336 
C 294.605397 138.480917 294.207529 137.520379 293.499419 136.812268 
C 292.791308 136.104158 291.83077 135.70629 290.829351 135.70629 
C 289.827932 135.70629 288.867394 136.104158 288.159284 136.812268 
C 287.451174 137.520379 287.053306 138.480917 287.053306 139.482336 
C 287.053306 140.483755 287.451174 141.444293 288.159284 142.152403 
C 288.867394 142.860513 289.827932 143.258381 290.829351 143.258381 
z
" style="fill:#cc4778;fill-opacity:0.95;stroke:#000000;stroke-opacity:0.95;"/>
    <path clip-path="url(#p5cad352833)" d="M 345.347373 142.413786 
C 346.499829 142.413786 347.605238 141.95591 348.420148 141.141001 
C 349.235057 140.326092 349.692932 139.220682 349.692932 138.068227 
C 349.692932 136.915771 349.235057 135.810362 348.420148 134.995453 
C 347.605238 134.180544 346.499829 133.722668 345.347373 133.722668 
C 344.194918 133.722668 343.089509 134.180544 342.274599 134.995453 
C 341.45969 135.810362 341.001815 136.915771 341.001815 138.068227 
C 341.001815 139.220682 341.45969 140.326092 342.274599 141.141001 
C 343.089509 141.95591 344.194918 142.413786 345.347373 142.413786 
z
" style="fill:#0d0887;fill-opacity:0.95;stroke:#000000;stroke-opacity:0.95;"/>
    <path clip-path="url(#p5cad352833)" d="M 354.245282 103.280168 
C 355.397738 103.280168 356.503147 102.822292 357.318056 102.007383 
C 358.132966 101.192474 358.590841 100.087064 358.590841 98.934609 
C 358.590841 97.782153 358.132966 96.676744 357.318056 95.861835 
C 356.503147 95.046925 355.397738 94.58905 354.245282 94.58905 
C 353.092827 94.58905 351.987417 95.046925 351.172508 95.861835 
C 350.357599 96.676744 349.899723 97.782153 349.899723 98.934609 
C 349.899723 100.087064 350.357599 101.192474 351.172508 102.007383 
C 351.987417 102.822292 353.092827 103.280168 354.245282 103.280168 
z
" style="fill:#0d0887;fill-opacity:0.95;stroke:#000000;stroke-opacity:0.95;"/>
    <path clip-path="url(#p5cad352833)" d="M 345.208246 229.153179 
C 346.360701 229.153179 347.466111 228.695304 348.28102 227.880394 
C 349.095929 227.065485 349.553805 225.960076 349.553805 224.80762 
C 349.553805 223.655165 349.095929 222.549755 348.28102 221.734846 
C 347.466111 220.919937 346.360701 220.462061 345.208246 220.462061 
C 344.05579 220.462061 342.950381 220.919937 342.135472 221.734846 
C 341.320562 222.549755 340.862687 223.655165 340.862687 224.80762 
C 340.862687 225.960076 341.320562 227.065485 342.135472 227.880394 
C 342.950381 228.695304 344.05579 229.153179 345.208246 229.153179 
z
" style="fill:#0d0887;fill-opacity:0.95;stroke:#000000;stroke-opacity:0.95;"/>
    <path clip-path="url(#p5cad352833)" d="M 376.52703 183.196461 
C 377.679485 183.196461 378.784894 182.738585 379.599804 181.923676 
C 380.414713 181.108767 380.872588 180.003357 380.872588 178.850902 
C 380.872588 177.698446 380.414713 176.593037 379.599804 175.778128 
C 378.784894 174.963219 377.679485 174.505343 376.52703 174.505343 
C 375.374574 174.505343 374.269165 174.963219 373.454256 175.778128 
C 372.639346 176.593037 372.181471 177.698446 372.181471 178.850902 
C 372.181471 180.003357 372.639346 181.108767 373.454256 181.923676 
C 374.269165 182.738585 375.374574 183.196461 376.52703 183.196461 
z
" style="fill:#0d0887;fill-opacity:0.95;stroke:#000000;stroke-opacity:0.95;"/>
    <path clip-path="url(#p5cad352833)" d="M 163.377054 243.434623 
C 164.52951 243.434623 165.634919 242.976748 166.449828 242.161839 
C 167.264738 241.346929 167.722613 240.24152 167.722613 239.089064 
C 167.722613 237.936609 167.264738 236.8312 166.449828 236.01629 
C 165.634919 235.201381 164.52951 234.743506 163.377054 234.743506 
C 162.224599 234.743506 161.11919 235.201381 160.30428 236.01629 
C 159.489371 236.8312 159.031496 237.936609 159.031496 239.089064 
C 159.031496 240.24152 159.489371 241.346929 160.30428 242.161839 
C 161.11919 242.976748 162.224599 243.434623 163.377054 243.434623 
z
" style="fill:#0d0887;fill-opacity:0.95;stroke:#000000;stroke-opacity:0.95;"/>
    <path clip-path="url(#p5cad352833)" d="M 172.939267 204.860496 
C 174.091722 204.860496 175.197132 204.402621 176.012041 203.587712 
C 176.82695 202.772802 177.284826 201.667393 177.284826 200.514938 
C 177.284826 199.362482 176.82695 198.257073 176.012041 197.442163 
C 175.197132 196.627254 174.091722 196.169379 172.939267 196.169379 
C 171.786811 196.169379 170.681402 196.627254 169.866493 197.442163 
C 169.051584 198.257073 168.593708 199.362482 168.593708 200.514938 
C 168.593708 201.667393 169.051584 202.772802 169.866493 203.587712 
C 170.681402 204.402621 171.786811 204.860496 172.939267 204.860496 
z
" style="fill:#0d0887;fill-opacity:0.95;stroke:#000000;stroke-opacity:0.95;"/>
    <path clip-path="url(#p5cad352833)" d="M 142.323642 163.223588 
C 143.476098 163.223588 144.581507 162.765712 145.396416 161.950803 
C 146.211325 161.135894 146.669201 160.030485 146.669201 158.878029 
C 146.669201 157.725573 146.211325 156.620164 145.396416 155.805255 
C 144.581507 154.990346 143.476098 154.53247 142.323642 154.53247 
C 141.171186 154.53247 140.065777 154.990346 139.250868 155.805255 
C 138.435959 156.620164 137.978083 157.725573 137.978083 158.878029 
C 137.978083 160.030485 138.435959 161.135894 139.250868 161.950803 
C 140.065777 162.765712 141.171186 163.223588 142.323642 163.223588 
z
" style="fill:#0d0887;fill-opacity:0.95;stroke:#000000;stroke-opacity:0.95;"/>
    <path clip-path="url(#p5cad352833)" d="M 173.742698 118.349898 
C 174.895154 118.349898 176.000563 117.892023 176.815472 117.077114 
C 177.630382 116.262204 178.088257 115.156795 178.088257 114.004339 
C 178.088257 112.851884 177.630382 111.746475 176.815472 110.931565 
C 176.000563 110.116656 174.895154 109.658781 173.742698 109.658781 
C 172.590243 109.658781 171.484833 110.116656 170.669924 110.931565 
C 169.855015 111.746475 169.397139 112.851884 169.397139 114.004339 
C 169.397139 115.156795 169.855015 116.262204 170.669924 117.077114 
C 171.484833 117.892023 172.590243 118.349898 173.742698 118.349898 
z
" style="fill:#0d0887;fill-opacity:0.95;stroke:#000000;stroke-opacity:0.95;"/>
    <path clip-path="url(#p5cad352833)" d="M 218.13573 105.149945 
C 219.288186 105.149945 220.393595 104.692069 221.208504 103.87716 
C 222.023413 103.062251 222.481289 101.956842 222.481289 100.804386 
C 222.481289 99.65193 222.023413 98.546521 221.208504 97.731612 
C 220.393595 96.916703 219.288186 96.458827 218.13573 96.458827 
C 216.983274 96.458827 215.877865 96.916703 215.062956 97.731612 
C 214.248047 98.546521 213.790171 99.65193 213.790171 100.804386 
C 213.790171 101.956842 214.248047 103.062251 215.062956 103.87716 
C 215.877865 104.692069 216.983274 105.149945 218.13573 105.149945 
z
" style="fill:#0d0887;fill-opacity:0.95;stroke:#000000;stroke-opacity:0.95;"/>
    <path clip-path="url(#p5cad352833)" d="M 263.172134 74.706705 
C 264.324589 74.706705 265.429999 74.248829 266.244908 73.43392 
C 267.059817 72.619011 267.517693 71.513601 267.517693 70.361146 
C 267.517693 69.20869 267.059817 68.103281 266.244908 67.288372 
C 265.429999 66.473462 264.324589 66.015587 263.172134 66.015587 
C 262.019678 66.015587 260.914269 66.473462 260.09936 67.288372 
C 259.284451 68.103281 258.826575 69.20869 258.826575 70.361146 
C 258.826575 71.513601 259.284451 72.619011 260.09936 73.43392 
C 260.914269 74.248829 262.019678 74.706705 263.172134 74.706705 
z
" style="fill:#0d0887;fill-opacity:0.95;stroke:#000000;stroke-opacity:0.95;"/>
    <path clip-path="url(#p5cad352833)" d="M 253.583725 272.797334 
C 254.736181 272.797334 255.84159 272.339459 256.656499 271.524549 
C 257.471409 270.70964 257.929284 269.604231 257.929284 268.451775 
C 257.929284 267.29932 257.471409 266.19391 256.656499 265.379001 
C 255.84159 264.564092 254.736181 264.106216 253.583725 264.106216 
C 252.43127 264.106216 251.32586 264.564092 250.510951 265.379001 
C 249.696042 266.19391 249.238166 267.29932 249.238166 268.451775 
C 249.238166 269.604231 249.696042 270.70964 250.510951 271.524549 
C 251.32586 272.339459 252.43127 272.797334 253.583725 272.797334 
z
" style="fill:#0d0887;fill-opacity:0.95;stroke:#000000;stroke-opacity:0.95;"/>
    <path clip-path="url(#p5cad352833)" d="M 299.281048 242.996259 
C 300.433504 242.996259 301.538913 242.538384 302.353823 241.723474 
C 303.168732 240.908565 303.626607 239.803156 303.626607 238.6507 
C 303.626607 237.498245 303.168732 236.392835 302.353823 235.577926 
C 301.538913 234.763017 300.433504 234.305141 299.281048 234.305141 
C 298.128593 234.305141 297.023184 234.763017 296.208274 235.577926 
C 295.393365 236.392835 294.93549 237.498245 294.93549 238.6507 
C 294.93549 239.803156 295.393365 240.908565 296.208274 241.723474 
C 297.023184 242.538384 298.128593 242.996259 299.281048 242.996259 
z
" style="fill:#0d0887;fill-opacity:0.95;stroke:#000000;stroke-opacity:0.95;"/>
    <path clip-path="url(#p5cad352833)" d="M 408.422379 66.444961 
C 409.250002 66.444961 410.043839 66.116143 410.629057 65.530925 
C 411.214275 64.945707 411.543093 64.15187 411.543093 63.324247 
C 411.543093 62.496624 411.214275 61.702787 410.629057 61.117569 
C 410.043839 60.532351 409.250002 60.203533 408.422379 60.203533 
C 407.594756 60.203533 406.800919 60.532351 406.215701 61.117569 
C 405.630483 61.702787 405.301665 62.496624 405.301665 63.324247 
C 405.301665 64.15187 405.630483 64.945707 406.215701 65.530925 
C 406.800919 66.116143 407.594756 66.444961 408.422379 66.444961 
z
" style="fill:#f0f921;fill-opacity:0.95;stroke:#000000;stroke-opacity:0.95;"/>
    <path clip-path="url(#p5cad352833)" d="M 448.13019 132.228431 
C 448.957813 132.228431 449.75165 131.899612 450.336868 131.314395 
C 450.922086 130.729177 451.250904 129.93534 451.250904 129.107716 
C 451.250904 128.280093 450.922086 127.486256 450.336868 126.901038 
C 449.75165 126.315821 448.957813 125.987002 448.13019 125.987002 
C 447.302567 125.987002 446.50873 126.315821 445.923512 126.901038 
C 445.338294 127.486256 445.009476 128.280093 445.009476 129.107716 
C 445.009476 129.93534 445.338294 130.729177 445.923512 131.314395 
C 446.50873 131.899612 447.302567 132.228431 448.13019 132.228431 
z
" style="fill:#f0f921;fill-opacity:0.95;stroke:#000000;stroke-opacity:0.95;"/>
    <path clip-path="url(#p5cad352833)" d="M 436.924766 99.185768 
C 437.752389 99.185768 438.546226 98.85695 439.131444 98.271732 
C 439.716662 97.686514 440.04548 96.892677 440.04548 96.065054 
C 440.04548 95.237431 439.716662 94.443593 439.131444 93.858376 
C 438.546226 93.273158 437.752389 92.94434 436.924766 92.94434 
C 436.097143 92.94434 435.303306 93.273158 434.718088 93.858376 
C 434.13287 94.443593 433.804052 95.237431 433.804052 96.065054 
C 433.804052 96.892677 434.13287 97.686514 434.718088 98.271732 
C 435.303306 98.85695 436.097143 99.185768 436.924766 99.185768 
z
" style="fill:#f0f921;fill-opacity:0.95;stroke:#000000;stroke-opacity:0.95;"/>
    <path clip-path="url(#p5cad352833)" d="M 365.038337 44.536364 
C 365.86596 44.536364 366.659797 44.207546 367.245015 43.622328 
C 367.830232 43.03711 368.159051 42.243273 368.159051 41.41565 
C 368.159051 40.588027 367.830232 39.79419 367.245015 39.208972 
C 366.659797 38.623754 365.86596 38.294936 365.038337 38.294936 
C 364.210714 38.294936 363.416876 38.623754 362.831659 39.208972 
C 362.246441 39.79419 361.917623 40.588027 361.917623 41.41565 
C 361.917623 42.243273 362.246441 43.03711 362.831659 43.622328 
C 363.416876 44.207546 364.210714 44.536364 365.038337 44.536364 
z
" style="fill:#f0f921;fill-opacity:0.95;stroke:#000000;stroke-opacity:0.95;"/>
    <path clip-path="url(#p5cad352833)" d="M 405.401677 272.870278 
C 406.2293 272.870278 407.023138 272.54146 407.608355 271.956242 
C 408.193573 271.371024 408.522391 270.577187 408.522391 269.749564 
C 408.522391 268.921941 408.193573 268.128104 407.608355 267.542886 
C 407.023138 266.957668 406.2293 266.62885 405.401677 266.62885 
C 404.574054 266.62885 403.780217 266.957668 403.194999 267.542886 
C 402.609781 268.128104 402.280963 268.921941 402.280963 269.749564 
C 402.280963 270.577187 402.609781 271.371024 403.194999 271.956242 
C 403.780217 272.54146 404.574054 272.870278 405.401677 272.870278 
z
" style="fill:#f0f921;fill-opacity:0.95;stroke:#000000;stroke-opacity:0.95;"/>
    <path clip-path="url(#p5cad352833)" d="M 432.98908 247.667221 
C 433.816703 247.667221 434.61054 247.338402 435.195758 246.753185 
C 435.780976 246.167967 436.109794 245.37413 436.109794 244.546506 
C 436.109794 243.718883 435.780976 242.925046 435.195758 242.339828 
C 434.61054 241.754611 433.816703 241.425792 432.98908 241.425792 
C 432.161457 241.425792 431.36762 241.754611 430.782402 242.339828 
C 430.197184 242.925046 429.868366 243.718883 429.868366 244.546506 
C 429.868366 245.37413 430.197184 246.167967 430.782402 246.753185 
C 431.36762 247.338402 432.161457 247.667221 432.98908 247.667221 
z
" style="fill:#f0f921;fill-opacity:0.95;stroke:#000000;stroke-opacity:0.95;"/>
    <path clip-path="url(#p5cad352833)" d="M 455.838619 183.913108 
C 456.666242 183.913108 457.460079 183.58429 458.045297 182.999072 
C 458.630515 182.413854 458.959333 181.620017 458.959333 180.792394 
C 458.959333 179.964771 458.630515 179.170934 458.045297 178.585716 
C 457.460079 178.000498 456.666242 177.67168 455.838619 177.67168 
C 455.010996 177.67168 454.217159 178.000498 453.631941 178.585716 
C 453.046723 179.170934 452.717905 179.964771 452.717905 180.792394 
C 452.717905 181.620017 453.046723 182.413854 453.631941 182.999072 
C 454.217159 183.58429 455.010996 183.913108 455.838619 183.913108 
z
" style="fill:#f0f921;fill-opacity:0.95;stroke:#000000;stroke-opacity:0.95;"/>
    <path clip-path="url(#p5cad352833)" d="M 450.273509 217.681571 
C 451.101132 217.681571 451.894969 217.352753 452.480187 216.767535 
C 453.065405 216.182317 453.394223 215.38848 453.394223 214.560857 
C 453.394223 213.733234 453.065405 212.939397 452.480187 212.354179 
C 451.894969 211.768961 451.101132 211.440143 450.273509 211.440143 
C 449.445886 211.440143 448.652049 211.768961 448.066831 212.354179 
C 447.481613 212.939397 447.152795 213.733234 447.152795 214.560857 
C 447.152795 215.38848 447.481613 216.182317 448.066831 216.767535 
C 448.652049 217.352753 449.445886 217.681571 450.273509 217.681571 
z
" style="fill:#f0f921;fill-opacity:0.95;stroke:#000000;stroke-opacity:0.95;"/>
    <path clip-path="url(#p5cad352833)" d="M 80.895608 245.268715 
C 81.723231 245.268715 82.517069 244.939897 83.102286 244.354679 
C 83.687504 243.769461 84.016322 242.975624 84.016322 242.148001 
C 84.016322 241.320378 83.687504 240.52654 83.102286 239.941323 
C 82.517069 239.356105 81.723231 239.027287 80.895608 239.027287 
C 80.067985 239.027287 79.274148 239.356105 78.68893 239.941323 
C 78.103712 240.52654 77.774894 241.320378 77.774894 242.148001 
C 77.774894 242.975624 78.103712 243.769461 78.68893 244.354679 
C 79.274148 244.939897 80.067985 245.268715 80.895608 245.268715 
z
" style="fill:#f0f921;fill-opacity:0.95;stroke:#000000;stroke-opacity:0.95;"/>
    <path clip-path="url(#p5cad352833)" d="M 69.853127 212.152991 
C 70.68075 212.152991 71.474587 211.824173 72.059805 211.238955 
C 72.645023 210.653737 72.973841 209.8599 72.973841 209.032277 
C 72.973841 208.204654 72.645023 207.410817 72.059805 206.825599 
C 71.474587 206.240381 70.68075 205.911563 69.853127 205.911563 
C 69.025504 205.911563 68.231667 206.240381 67.646449 206.825599 
C 67.061231 207.410817 66.732413 208.204654 66.732413 209.032277 
C 66.732413 209.8599 67.061231 210.653737 67.646449 211.238955 
C 68.231667 211.824173 69.025504 212.152991 69.853127 212.152991 
z
" style="fill:#f0f921;fill-opacity:0.95;stroke:#000000;stroke-opacity:0.95;"/>
    <path clip-path="url(#p5cad352833)" d="M 152.565199 299.97003 
C 153.392822 299.97003 154.186659 299.641212 154.771877 299.055994 
C 155.357095 298.470776 155.685913 297.676939 155.685913 296.849316 
C 155.685913 296.021693 155.357095 295.227856 154.771877 294.642638 
C 154.186659 294.05742 153.392822 293.728602 152.565199 293.728602 
C 151.737576 293.728602 150.943739 294.05742 150.358521 294.642638 
C 149.773303 295.227856 149.444485 296.021693 149.444485 296.849316 
C 149.444485 297.676939 149.773303 298.470776 150.358521 299.055994 
C 150.943739 299.641212 151.737576 299.97003 152.565199 299.97003 
z
" style="fill:#f0f921;fill-opacity:0.95;stroke:#000000;stroke-opacity:0.95;"/>
    <path clip-path="url(#p5cad352833)" d="M 109.4732 278.186405 
C 110.300823 278.186405 111.09466 277.857587 111.679878 277.272369 
C 112.265096 276.687151 112.593914 275.893314 112.593914 275.065691 
C 112.593914 274.238068 112.265096 273.444231 111.679878 272.859013 
C 111.09466 272.273795 110.300823 271.944977 109.4732 271.944977 
C 108.645577 271.944977 107.851739 272.273795 107.266522 272.859013 
C 106.681304 273.444231 106.352486 274.238068 106.352486 275.065691 
C 106.352486 275.893314 106.681304 276.687151 107.266522 277.272369 
C 107.851739 277.857587 108.645577 278.186405 109.4732 278.186405 
z
" style="fill:#f0f921;fill-opacity:0.95;stroke:#000000;stroke-opacity:0.95;"/>
    <path clip-path="url(#p5cad352833)" d="M 86.322844 95.921108 
C 87.150467 95.921108 87.944304 95.59229 88.529522 95.007072 
C 89.11474 94.421854 89.443558 93.628017 89.443558 92.800394 
C 89.443558 91.972771 89.11474 91.178934 88.529522 90.593716 
C 87.944304 90.008498 87.150467 89.67968 86.322844 89.67968 
C 85.495221 89.67968 84.701384 90.008498 84.116166 90.593716 
C 83.530948 91.178934 83.20213 91.972771 83.20213 92.800394 
C 83.20213 93.628017 83.530948 94.421854 84.116166 95.007072 
C 84.701384 95.59229 85.495221 95.921108 86.322844 95.921108 
z
" style="fill:#f0f921;fill-opacity:0.95;stroke:#000000;stroke-opacity:0.95;"/>
    <path clip-path="url(#p5cad352833)" d="M 116.078634 70.059543 
C 116.906257 70.059543 117.700094 69.730725 118.285312 69.145507 
C 118.87053 68.560289 119.199348 67.766452 119.199348 66.938829 
C 119.199348 66.111206 118.87053 65.317369 118.285312 64.732151 
C 117.700094 64.146933 116.906257 63.818115 116.078634 63.818115 
C 115.251011 63.818115 114.457174 64.146933 113.871956 64.732151 
C 113.286738 65.317369 112.95792 66.111206 112.95792 66.938829 
C 112.95792 67.766452 113.286738 68.560289 113.871956 69.145507 
C 114.457174 69.730725 115.251011 70.059543 116.078634 70.059543 
z
" style="fill:#f0f921;fill-opacity:0.95;stroke:#000000;stroke-opacity:0.95;"/>
    <path clip-path="url(#p5cad352833)" d="M 68.537054 125.958669 
C 69.364677 125.958669 70.158514 125.629851 70.743732 125.044633 
C 71.328949 124.459415 71.657768 123.665578 71.657768 122.837955 
C 71.657768 122.010332 71.328949 121.216495 70.743732 120.631277 
C 70.158514 120.046059 69.364677 119.717241 68.537054 119.717241 
C 67.70943 119.717241 66.915593 120.046059 66.330375 120.631277 
C 65.745158 121.216495 65.416339 122.010332 65.416339 122.837955 
C 65.416339 123.665578 65.745158 124.459415 66.330375 125.044633 
C 66.915593 125.629851 67.70943 125.958669 68.537054 125.958669 
z
" style="fill:#f0f921;fill-opacity:0.95;stroke:#000000;stroke-opacity:0.95;"/>
    <path clip-path="url(#p5cad352833)" d="M 62.620991 159.69637 
C 63.448614 159.69637 64.242451 159.367552 64.827669 158.782334 
C 65.412887 158.197116 65.741705 157.403279 65.741705 156.575656 
C 65.741705 155.748033 65.412887 154.954196 64.827669 154.368978 
C 64.242451 153.78376 63.448614 153.454942 62.620991 153.454942 
C 61.793368 153.454942 60.999531 153.78376 60.414313 154.368978 
C 59.829095 154.954196 59.500277 155.748033 59.500277 156.575656 
C 59.500277 157.403279 59.829095 158.197116 60.414313 158.782334 
C 60.999531 159.367552 61.793368 159.69637 62.620991 159.69637 
z
" style="fill:#f0f921;fill-opacity:0.95;stroke:#000000;stroke-opacity:0.95;"/>
    <path clip-path="url(#p5cad352833)" d="M 241.200854 18.0807 
C 242.028477 18.0807 242.822315 17.751882 243.407532 17.166664 
C 243.99275 16.581446 244.321568 15.787609 244.321568 14.959986 
C 244.321568 14.132363 243.99275 13.338526 243.407532 12.753308 
C 242.822315 12.16809 242.028477 11.839272 241.200854 11.839272 
C 240.373231 11.839272 239.579394 12.16809 238.994176 12.753308 
C 238.408958 13.338526 238.08014 14.132363 238.08014 14.959986 
C 238.08014 15.787609 238.408958 16.581446 238.994176 17.166664 
C 239.579394 17.751882 240.373231 18.0807 241.200854 18.0807 
z
" style="fill:#f0f921;fill-opacity:0.95;stroke:#000000;stroke-opacity:0.95;"/>
    <path clip-path="url(#p5cad352833)" d="M 196.268859 26.684559 
C 197.096482 26.684559 197.890319 26.355741 198.475537 25.770523 
C 199.060755 25.185305 199.389573 24.391468 199.389573 23.563845 
C 199.389573 22.736222 199.060755 21.942385 198.475537 21.357167 
C 197.890319 20.771949 197.096482 20.443131 196.268859 20.443131 
C 195.441236 20.443131 194.647399 20.771949 194.062181 21.357167 
C 193.476963 21.942385 193.148145 22.736222 193.148145 23.563845 
C 193.148145 24.391468 193.476963 25.185305 194.062181 25.770523 
C 194.647399 26.355741 195.441236 26.684559 196.268859 26.684559 
z
" style="fill:#f0f921;fill-opacity:0.95;stroke:#000000;stroke-opacity:0.95;"/>
    <path clip-path="url(#p5cad352833)" d="M 158.775812 44.58443 
C 159.603435 44.58443 160.397272 44.255612 160.98249 43.670394 
C 161.567707 43.085176 161.896526 42.291339 161.896526 41.463716 
C 161.896526 40.636093 161.567707 39.842256 160.98249 39.257038 
C 160.397272 38.67182 159.603435 38.343002 158.775812 38.343002 
C 157.948188 38.343002 157.154351 38.67182 156.569133 39.257038 
C 155.983916 39.842256 155.655097 40.636093 155.655097 41.463716 
C 155.655097 42.291339 155.983916 43.085176 156.569133 43.670394 
C 157.154351 44.255612 157.948188 44.58443 158.775812 44.58443 
z
" style="fill:#f0f921;fill-opacity:0.95;stroke:#000000;stroke-opacity:0.95;"/>
    <path clip-path="url(#p5cad352833)" d="M 291.384609 22.233624 
C 292.212232 22.233624 293.006069 21.904806 293.591287 21.319588 
C 294.176505 20.73437 294.505323 19.940533 294.505323 19.11291 
C 294.505323 18.285287 294.176505 17.49145 293.591287 16.906232 
C 293.006069 16.321014 292.212232 15.992196 291.384609 15.992196 
C 290.556986 15.992196 289.763149 16.321014 289.177931 16.906232 
C 288.592713 17.49145 288.263895 18.285287 288.263895 19.11291 
C 288.263895 19.940533 288.592713 20.73437 289.177931 21.319588 
C 289.763149 21.904806 290.556986 22.233624 291.384609 22.233624 
z
" style="fill:#f0f921;fill-opacity:0.95;stroke:#000000;stroke-opacity:0.95;"/>
    <path clip-path="url(#p5cad352833)" d="M 355.101357 303.228922 
C 355.92898 303.228922 356.722817 302.900103 357.308035 302.314886 
C 357.893253 301.729668 358.222071 300.935831 358.222071 300.108207 
C 358.222071 299.280584 357.893253 298.486747 357.308035 297.901529 
C 356.722817 297.316312 355.92898 296.987493 355.101357 296.987493 
C 354.273734 296.987493 353.479896 297.316312 352.894679 297.901529 
C 352.309461 298.486747 351.980643 299.280584 351.980643 300.108207 
C 351.980643 300.935831 352.309461 301.729668 352.894679 302.314886 
C 353.479896 302.900103 354.273734 303.228922 355.101357 303.228922 
z
" style="fill:#f0f921;fill-opacity:0.95;stroke:#000000;stroke-opacity:0.95;"/>
    <path clip-path="url(#p5cad352833)" d="M 222.478772 321.936306 
C 223.306395 321.936306 224.100232 321.607488 224.68545 321.02227 
C 225.270668 320.437052 225.599486 319.643215 225.599486 318.815592 
C 225.599486 317.987969 225.270668 317.194132 224.68545 316.608914 
C 224.100232 316.023696 223.306395 315.694878 222.478772 315.694878 
C 221.651149 315.694878 220.857312 316.023696 220.272094 316.608914 
C 219.686876 317.194132 219.358058 317.987969 219.358058 318.815592 
C 219.358058 319.643215 219.686876 320.437052 220.272094 321.02227 
C 220.857312 321.607488 221.651149 321.936306 222.478772 321.936306 
z
" style="fill:#f0f921;fill-opacity:0.95;stroke:#000000;stroke-opacity:0.95;"/>
    <path clip-path="url(#p5cad352833)" d="M 317.952995 319.427248 
C 318.780618 319.427248 319.574455 319.09843 320.159673 318.513212 
C 320.744891 317.927994 321.073709 317.134157 321.073709 316.306534 
C 321.073709 315.478911 320.744891 314.685074 320.159673 314.099856 
C 319.574455 313.514638 318.780618 313.18582 317.952995 313.18582 
C 317.125372 313.18582 316.331535 313.514638 315.746317 314.099856 
C 315.161099 314.685074 314.832281 315.478911 314.832281 316.306534 
C 314.832281 317.134157 315.161099 317.927994 315.746317 318.513212 
C 316.331535 319.09843 317.125372 319.427248 317.952995 319.427248 
z
" style="fill:#f0f921;fill-opacity:0.95;stroke:#000000;stroke-opacity:0.95;"/>
    <path clip-path="url(#p5cad352833)" d="M 272.548467 327.24282 
C 273.37609 327.24282 274.169927 326.914002 274.755145 326.328784 
C 275.340362 325.743566 275.669181 324.949729 275.669181 324.122106 
C 275.669181 323.294483 275.340362 322.500646 274.755145 321.915428 
C 274.169927 321.33021 273.37609 321.001392 272.548467 321.001392 
C 271.720844 321.001392 270.927006 321.33021 270.341789 321.915428 
C 269.756571 322.500646 269.427753 323.294483 269.427753 324.122106 
C 269.427753 324.949729 269.756571 325.743566 270.341789 326.328784 
C 270.927006 326.914002 271.720844 327.24282 272.548467 327.24282 
z
" style="fill:#f0f921;fill-opacity:0.95;stroke:#000000;stroke-opacity:0.95;"/>
   </g>
  </g>
 </g>
 <defs>
  <clipPath id="p5cad352833">
   <rect height="384.53" width="501.36125" x="8.160625" y="-22.993125"/>
  </clipPath>
 </defs>
</svg>
