<?xml version="1.0" encoding="utf-8" standalone="no"?>
<!DOCTYPE svg PUBLIC "-//W3C//DTD SVG 1.1//EN"
  "http://www.w3.org/Graphics/SVG/1.1/DTD/svg11.dtd">
<!-- Created with matplotlib (http://matplotlib.org/) -->
<svg height="348pt" version="1.1" viewBox="0 0 492 348" width="492pt" xmlns="http://www.w3.org/2000/svg" xmlns:xlink="http://www.w3.org/1999/xlink">
 <defs>
  <style type="text/css">
*{stroke-linecap:butt;stroke-linejoin:round;stroke-miterlimit:100000;}
  </style>
 </defs>
 <g id="figure_1">
  <g id="patch_1">
   <path d="M 0 348.350625 
L 492.174375 348.350625 
L 492.174375 0 
L 0 0 
z
" style="fill:none;"/>
  </g>
  <g id="axes_1">
   <g id="LineCollection_1">
    <path clip-path="url(#p70d854205c)" d="M 154.049228 299.829423 
L 251.287115 279.074416 
" style="fill:none;stroke:#000000;stroke-opacity:0.7;stroke-width:0.9594104554141858;"/>
    <path clip-path="url(#p70d854205c)" d="M 154.049228 299.829423 
L 196.741392 252.300554 
" style="fill:none;stroke:#000000;stroke-opacity:0.7;stroke-width:0.9594104554141858;"/>
    <path clip-path="url(#p70d854205c)" d="M 154.049228 299.829423 
L 143.086965 219.329029 
" style="fill:none;stroke:#000000;stroke-opacity:0.7;stroke-width:0.9594104554141858;"/>
    <path clip-path="url(#p70d854205c)" d="M 190.188601 312.720792 
L 251.287115 279.074416 
" style="fill:none;stroke:#000000;stroke-opacity:0.7;stroke-width:0.9594104554141858;"/>
    <path clip-path="url(#p70d854205c)" d="M 190.188601 312.720792 
L 196.741392 252.300554 
" style="fill:none;stroke:#000000;stroke-opacity:0.7;stroke-width:0.9594104554141858;"/>
    <path clip-path="url(#p70d854205c)" d="M 190.188601 312.720792 
L 143.086965 219.329029 
" style="fill:none;stroke:#000000;stroke-opacity:0.7;stroke-width:0.9594104554141858;"/>
    <path clip-path="url(#p70d854205c)" d="M 124.163084 280.410658 
L 251.287115 279.074416 
" style="fill:none;stroke:#000000;stroke-opacity:0.7;stroke-width:0.9594104554141858;"/>
    <path clip-path="url(#p70d854205c)" d="M 124.163084 280.410658 
L 196.741392 252.300554 
" style="fill:none;stroke:#000000;stroke-opacity:0.7;stroke-width:0.9594104554141858;"/>
    <path clip-path="url(#p70d854205c)" d="M 124.163084 280.410658 
L 143.086965 219.329029 
" style="fill:none;stroke:#000000;stroke-opacity:0.7;stroke-width:0.9594104554141858;"/>
    <path clip-path="url(#p70d854205c)" d="M 251.287115 279.074416 
L 299.129387 182.81406 
" style="fill:none;stroke:#000000;stroke-opacity:0.7;stroke-width:0.9594104554141858;"/>
    <path clip-path="url(#p70d854205c)" d="M 251.287115 279.074416 
L 315.037579 192.820492 
" style="fill:none;stroke:#000000;stroke-opacity:0.7;stroke-width:0.9594104554141858;"/>
    <path clip-path="url(#p70d854205c)" d="M 251.287115 279.074416 
L 295.634899 199.789137 
" style="fill:none;stroke:#000000;stroke-opacity:0.7;stroke-width:0.9594104554141858;"/>
    <path clip-path="url(#p70d854205c)" d="M 196.741392 252.300554 
L 266.051326 165.917428 
" style="fill:none;stroke:#000000;stroke-opacity:0.7;stroke-width:0.9594104554141858;"/>
    <path clip-path="url(#p70d854205c)" d="M 196.741392 252.300554 
L 252.279434 183.744623 
" style="fill:none;stroke:#000000;stroke-opacity:0.7;stroke-width:0.9594104554141858;"/>
    <path clip-path="url(#p70d854205c)" d="M 196.741392 252.300554 
L 243.825481 170.497468 
" style="fill:none;stroke:#000000;stroke-opacity:0.7;stroke-width:0.9594104554141858;"/>
    <path clip-path="url(#p70d854205c)" d="M 143.086965 219.329029 
L 230.520606 146.750914 
" style="fill:none;stroke:#000000;stroke-opacity:0.7;stroke-width:0.9594104554141858;"/>
    <path clip-path="url(#p70d854205c)" d="M 143.086965 219.329029 
L 223.797352 133.738419 
" style="fill:none;stroke:#000000;stroke-opacity:0.7;stroke-width:0.9594104554141858;"/>
    <path clip-path="url(#p70d854205c)" d="M 143.086965 219.329029 
L 207.322621 145.794396 
" style="fill:none;stroke:#000000;stroke-opacity:0.7;stroke-width:0.9594104554141858;"/>
    <path clip-path="url(#p70d854205c)" d="M 73.851483 218.705129 
L 172.486788 212.04507 
" style="fill:none;stroke:#000000;stroke-opacity:0.7;stroke-width:0.9594104554141858;"/>
    <path clip-path="url(#p70d854205c)" d="M 73.851483 218.705129 
L 133.797994 174.55849 
" style="fill:none;stroke:#000000;stroke-opacity:0.7;stroke-width:0.9594104554141858;"/>
    <path clip-path="url(#p70d854205c)" d="M 73.851483 218.705129 
L 104.910812 130.225737 
" style="fill:none;stroke:#000000;stroke-opacity:0.7;stroke-width:0.9594104554141858;"/>
    <path clip-path="url(#p70d854205c)" d="M 57.970865 157.432196 
L 172.486788 212.04507 
" style="fill:none;stroke:#000000;stroke-opacity:0.7;stroke-width:0.9594104554141858;"/>
    <path clip-path="url(#p70d854205c)" d="M 57.970865 157.432196 
L 133.797994 174.55849 
" style="fill:none;stroke:#000000;stroke-opacity:0.7;stroke-width:0.9594104554141858;"/>
    <path clip-path="url(#p70d854205c)" d="M 57.970865 157.432196 
L 104.910812 130.225737 
" style="fill:none;stroke:#000000;stroke-opacity:0.7;stroke-width:0.9594104554141858;"/>
    <path clip-path="url(#p70d854205c)" d="M 60.778488 189.789434 
L 172.486788 212.04507 
" style="fill:none;stroke:#000000;stroke-opacity:0.7;stroke-width:0.9594104554141858;"/>
    <path clip-path="url(#p70d854205c)" d="M 60.778488 189.789434 
L 133.797994 174.55849 
" style="fill:none;stroke:#000000;stroke-opacity:0.7;stroke-width:0.9594104554141858;"/>
    <path clip-path="url(#p70d854205c)" d="M 60.778488 189.789434 
L 104.910812 130.225737 
" style="fill:none;stroke:#000000;stroke-opacity:0.7;stroke-width:0.9594104554141858;"/>
    <path clip-path="url(#p70d854205c)" d="M 172.486788 212.04507 
L 299.129387 182.81406 
" style="fill:none;stroke:#000000;stroke-opacity:0.7;stroke-width:0.9594104554141858;"/>
    <path clip-path="url(#p70d854205c)" d="M 172.486788 212.04507 
L 315.037579 192.820492 
" style="fill:none;stroke:#000000;stroke-opacity:0.7;stroke-width:0.9594104554141858;"/>
    <path clip-path="url(#p70d854205c)" d="M 172.486788 212.04507 
L 295.634899 199.789137 
" style="fill:none;stroke:#000000;stroke-opacity:0.7;stroke-width:0.9594104554141858;"/>
    <path clip-path="url(#p70d854205c)" d="M 133.797994 174.55849 
L 266.051326 165.917428 
" style="fill:none;stroke:#000000;stroke-opacity:0.7;stroke-width:0.9594104554141858;"/>
    <path clip-path="url(#p70d854205c)" d="M 133.797994 174.55849 
L 252.279434 183.744623 
" style="fill:none;stroke:#000000;stroke-opacity:0.7;stroke-width:0.9594104554141858;"/>
    <path clip-path="url(#p70d854205c)" d="M 133.797994 174.55849 
L 243.825481 170.497468 
" style="fill:none;stroke:#000000;stroke-opacity:0.7;stroke-width:0.9594104554141858;"/>
    <path clip-path="url(#p70d854205c)" d="M 104.910812 130.225737 
L 230.520606 146.750914 
" style="fill:none;stroke:#000000;stroke-opacity:0.7;stroke-width:0.9594104554141858;"/>
    <path clip-path="url(#p70d854205c)" d="M 104.910812 130.225737 
L 223.797352 133.738419 
" style="fill:none;stroke:#000000;stroke-opacity:0.7;stroke-width:0.9594104554141858;"/>
    <path clip-path="url(#p70d854205c)" d="M 104.910812 130.225737 
L 207.322621 145.794396 
" style="fill:none;stroke:#000000;stroke-opacity:0.7;stroke-width:0.9594104554141858;"/>
    <path clip-path="url(#p70d854205c)" d="M 444.144368 120.712465 
L 417.095929 206.429009 
" style="fill:none;stroke:#000000;stroke-opacity:0.7;stroke-width:0.9594104554141858;"/>
    <path clip-path="url(#p70d854205c)" d="M 444.144368 120.712465 
L 378.111331 170.992743 
" style="fill:none;stroke:#000000;stroke-opacity:0.7;stroke-width:0.9594104554141858;"/>
    <path clip-path="url(#p70d854205c)" d="M 444.144368 120.712465 
L 349.265512 122.305381 
" style="fill:none;stroke:#000000;stroke-opacity:0.7;stroke-width:0.9594104554141858;"/>
    <path clip-path="url(#p70d854205c)" d="M 460.388473 178.288142 
L 417.095929 206.429009 
" style="fill:none;stroke:#000000;stroke-opacity:0.7;stroke-width:0.9594104554141858;"/>
    <path clip-path="url(#p70d854205c)" d="M 460.388473 178.288142 
L 378.111331 170.992743 
" style="fill:none;stroke:#000000;stroke-opacity:0.7;stroke-width:0.9594104554141858;"/>
    <path clip-path="url(#p70d854205c)" d="M 460.388473 178.288142 
L 349.265512 122.305381 
" style="fill:none;stroke:#000000;stroke-opacity:0.7;stroke-width:0.9594104554141858;"/>
    <path clip-path="url(#p70d854205c)" d="M 456.02663 147.855477 
L 417.095929 206.429009 
" style="fill:none;stroke:#000000;stroke-opacity:0.7;stroke-width:0.9594104554141858;"/>
    <path clip-path="url(#p70d854205c)" d="M 456.02663 147.855477 
L 378.111331 170.992743 
" style="fill:none;stroke:#000000;stroke-opacity:0.7;stroke-width:0.9594104554141858;"/>
    <path clip-path="url(#p70d854205c)" d="M 456.02663 147.855477 
L 349.265512 122.305381 
" style="fill:none;stroke:#000000;stroke-opacity:0.7;stroke-width:0.9594104554141858;"/>
    <path clip-path="url(#p70d854205c)" d="M 417.095929 206.429009 
L 299.129387 182.81406 
" style="fill:none;stroke:#000000;stroke-opacity:0.7;stroke-width:0.9594104554141858;"/>
    <path clip-path="url(#p70d854205c)" d="M 417.095929 206.429009 
L 315.037579 192.820492 
" style="fill:none;stroke:#000000;stroke-opacity:0.7;stroke-width:0.9594104554141858;"/>
    <path clip-path="url(#p70d854205c)" d="M 417.095929 206.429009 
L 295.634899 199.789137 
" style="fill:none;stroke:#000000;stroke-opacity:0.7;stroke-width:0.9594104554141858;"/>
    <path clip-path="url(#p70d854205c)" d="M 378.111331 170.992743 
L 266.051326 165.917428 
" style="fill:none;stroke:#000000;stroke-opacity:0.7;stroke-width:0.9594104554141858;"/>
    <path clip-path="url(#p70d854205c)" d="M 378.111331 170.992743 
L 252.279434 183.744623 
" style="fill:none;stroke:#000000;stroke-opacity:0.7;stroke-width:0.9594104554141858;"/>
    <path clip-path="url(#p70d854205c)" d="M 378.111331 170.992743 
L 243.825481 170.497468 
" style="fill:none;stroke:#000000;stroke-opacity:0.7;stroke-width:0.9594104554141858;"/>
    <path clip-path="url(#p70d854205c)" d="M 349.265512 122.305381 
L 207.322621 145.794396 
" style="fill:none;stroke:#000000;stroke-opacity:0.7;stroke-width:0.9594104554141858;"/>
    <path clip-path="url(#p70d854205c)" d="M 349.265512 122.305381 
L 230.520606 146.750914 
" style="fill:none;stroke:#000000;stroke-opacity:0.7;stroke-width:0.9594104554141858;"/>
    <path clip-path="url(#p70d854205c)" d="M 349.265512 122.305381 
L 223.797352 133.738419 
" style="fill:none;stroke:#000000;stroke-opacity:0.7;stroke-width:0.9594104554141858;"/>
    <path clip-path="url(#p70d854205c)" d="M 295.122257 318.709846 
L 273.137566 240.809836 
" style="fill:none;stroke:#000000;stroke-opacity:0.7;stroke-width:0.9594104554141858;"/>
    <path clip-path="url(#p70d854205c)" d="M 295.122257 318.709846 
L 364.939318 264.729525 
" style="fill:none;stroke:#000000;stroke-opacity:0.7;stroke-width:0.9594104554141858;"/>
    <path clip-path="url(#p70d854205c)" d="M 295.122257 318.709846 
L 317.054305 256.965864 
" style="fill:none;stroke:#000000;stroke-opacity:0.7;stroke-width:0.9594104554141858;"/>
    <path clip-path="url(#p70d854205c)" d="M 405.451814 276.190442 
L 273.137566 240.809836 
" style="fill:none;stroke:#000000;stroke-opacity:0.7;stroke-width:0.9594104554141858;"/>
    <path clip-path="url(#p70d854205c)" d="M 405.451814 276.190442 
L 364.939318 264.729525 
" style="fill:none;stroke:#000000;stroke-opacity:0.7;stroke-width:0.9594104554141858;"/>
    <path clip-path="url(#p70d854205c)" d="M 405.451814 276.190442 
L 317.054305 256.965864 
" style="fill:none;stroke:#000000;stroke-opacity:0.7;stroke-width:0.9594104554141858;"/>
    <path clip-path="url(#p70d854205c)" d="M 339.609294 313.807089 
L 273.137566 240.809836 
" style="fill:none;stroke:#000000;stroke-opacity:0.7;stroke-width:0.9594104554141858;"/>
    <path clip-path="url(#p70d854205c)" d="M 339.609294 313.807089 
L 364.939318 264.729525 
" style="fill:none;stroke:#000000;stroke-opacity:0.7;stroke-width:0.9594104554141858;"/>
    <path clip-path="url(#p70d854205c)" d="M 339.609294 313.807089 
L 317.054305 256.965864 
" style="fill:none;stroke:#000000;stroke-opacity:0.7;stroke-width:0.9594104554141858;"/>
    <path clip-path="url(#p70d854205c)" d="M 364.939318 264.729525 
L 315.037579 192.820492 
" style="fill:none;stroke:#000000;stroke-opacity:0.7;stroke-width:0.9594104554141858;"/>
    <path clip-path="url(#p70d854205c)" d="M 364.939318 264.729525 
L 295.634899 199.789137 
" style="fill:none;stroke:#000000;stroke-opacity:0.7;stroke-width:0.9594104554141858;"/>
    <path clip-path="url(#p70d854205c)" d="M 364.939318 264.729525 
L 299.129387 182.81406 
" style="fill:none;stroke:#000000;stroke-opacity:0.7;stroke-width:0.9594104554141858;"/>
    <path clip-path="url(#p70d854205c)" d="M 317.054305 256.965864 
L 266.051326 165.917428 
" style="fill:none;stroke:#000000;stroke-opacity:0.7;stroke-width:0.9594104554141858;"/>
    <path clip-path="url(#p70d854205c)" d="M 317.054305 256.965864 
L 252.279434 183.744623 
" style="fill:none;stroke:#000000;stroke-opacity:0.7;stroke-width:0.9594104554141858;"/>
    <path clip-path="url(#p70d854205c)" d="M 317.054305 256.965864 
L 243.825481 170.497468 
" style="fill:none;stroke:#000000;stroke-opacity:0.7;stroke-width:0.9594104554141858;"/>
    <path clip-path="url(#p70d854205c)" d="M 273.137566 240.809836 
L 230.520606 146.750914 
" style="fill:none;stroke:#000000;stroke-opacity:0.7;stroke-width:0.9594104554141858;"/>
    <path clip-path="url(#p70d854205c)" d="M 273.137566 240.809836 
L 223.797352 133.738419 
" style="fill:none;stroke:#000000;stroke-opacity:0.7;stroke-width:0.9594104554141858;"/>
    <path clip-path="url(#p70d854205c)" d="M 273.137566 240.809836 
L 207.322621 145.794396 
" style="fill:none;stroke:#000000;stroke-opacity:0.7;stroke-width:0.9594104554141858;"/>
    <path clip-path="url(#p70d854205c)" d="M 172.177198 25.409589 
L 249.234166 93.206073 
" style="fill:none;stroke:#000000;stroke-opacity:0.7;stroke-width:0.9594104554141858;"/>
    <path clip-path="url(#p70d854205c)" d="M 172.177198 25.409589 
L 180.943499 94.663442 
" style="fill:none;stroke:#000000;stroke-opacity:0.7;stroke-width:0.9594104554141858;"/>
    <path clip-path="url(#p70d854205c)" d="M 172.177198 25.409589 
L 164.526425 66.294741 
" style="fill:none;stroke:#000000;stroke-opacity:0.7;stroke-width:0.9594104554141858;"/>
    <path clip-path="url(#p70d854205c)" d="M 222.078936 20.506831 
L 249.234166 93.206073 
" style="fill:none;stroke:#000000;stroke-opacity:0.7;stroke-width:0.9594104554141858;"/>
    <path clip-path="url(#p70d854205c)" d="M 222.078936 20.506831 
L 180.943499 94.663442 
" style="fill:none;stroke:#000000;stroke-opacity:0.7;stroke-width:0.9594104554141858;"/>
    <path clip-path="url(#p70d854205c)" d="M 222.078936 20.506831 
L 164.526425 66.294741 
" style="fill:none;stroke:#000000;stroke-opacity:0.7;stroke-width:0.9594104554141858;"/>
    <path clip-path="url(#p70d854205c)" d="M 112.017608 63.891428 
L 249.234166 93.206073 
" style="fill:none;stroke:#000000;stroke-opacity:0.7;stroke-width:0.9594104554141858;"/>
    <path clip-path="url(#p70d854205c)" d="M 112.017608 63.891428 
L 180.943499 94.663442 
" style="fill:none;stroke:#000000;stroke-opacity:0.7;stroke-width:0.9594104554141858;"/>
    <path clip-path="url(#p70d854205c)" d="M 112.017608 63.891428 
L 164.526425 66.294741 
" style="fill:none;stroke:#000000;stroke-opacity:0.7;stroke-width:0.9594104554141858;"/>
    <path clip-path="url(#p70d854205c)" d="M 249.234166 93.206073 
L 299.129387 182.81406 
" style="fill:none;stroke:#000000;stroke-opacity:0.7;stroke-width:0.9594104554141858;"/>
    <path clip-path="url(#p70d854205c)" d="M 249.234166 93.206073 
L 315.037579 192.820492 
" style="fill:none;stroke:#000000;stroke-opacity:0.7;stroke-width:0.9594104554141858;"/>
    <path clip-path="url(#p70d854205c)" d="M 249.234166 93.206073 
L 295.634899 199.789137 
" style="fill:none;stroke:#000000;stroke-opacity:0.7;stroke-width:0.9594104554141858;"/>
    <path clip-path="url(#p70d854205c)" d="M 180.943499 94.663442 
L 252.279434 183.744623 
" style="fill:none;stroke:#000000;stroke-opacity:0.7;stroke-width:0.9594104554141858;"/>
    <path clip-path="url(#p70d854205c)" d="M 180.943499 94.663442 
L 266.051326 165.917428 
" style="fill:none;stroke:#000000;stroke-opacity:0.7;stroke-width:0.9594104554141858;"/>
    <path clip-path="url(#p70d854205c)" d="M 180.943499 94.663442 
L 243.825481 170.497468 
" style="fill:none;stroke:#000000;stroke-opacity:0.7;stroke-width:0.9594104554141858;"/>
    <path clip-path="url(#p70d854205c)" d="M 164.526425 66.294741 
L 230.520606 146.750914 
" style="fill:none;stroke:#000000;stroke-opacity:0.7;stroke-width:0.9594104554141858;"/>
    <path clip-path="url(#p70d854205c)" d="M 164.526425 66.294741 
L 223.797352 133.738419 
" style="fill:none;stroke:#000000;stroke-opacity:0.7;stroke-width:0.9594104554141858;"/>
    <path clip-path="url(#p70d854205c)" d="M 164.526425 66.294741 
L 207.322621 145.794396 
" style="fill:none;stroke:#000000;stroke-opacity:0.7;stroke-width:0.9594104554141858;"/>
    <path clip-path="url(#p70d854205c)" d="M 330.751494 26.524726 
L 379.393563 116.758536 
" style="fill:none;stroke:#000000;stroke-opacity:0.7;stroke-width:0.9594104554141858;"/>
    <path clip-path="url(#p70d854205c)" d="M 330.751494 26.524726 
L 313.252733 91.105578 
" style="fill:none;stroke:#000000;stroke-opacity:0.7;stroke-width:0.9594104554141858;"/>
    <path clip-path="url(#p70d854205c)" d="M 330.751494 26.524726 
L 269.699857 55.575967 
" style="fill:none;stroke:#000000;stroke-opacity:0.7;stroke-width:0.9594104554141858;"/>
    <path clip-path="url(#p70d854205c)" d="M 364.197303 39.685265 
L 379.393563 116.758536 
" style="fill:none;stroke:#000000;stroke-opacity:0.7;stroke-width:0.9594104554141858;"/>
    <path clip-path="url(#p70d854205c)" d="M 364.197303 39.685265 
L 313.252733 91.105578 
" style="fill:none;stroke:#000000;stroke-opacity:0.7;stroke-width:0.9594104554141858;"/>
    <path clip-path="url(#p70d854205c)" d="M 364.197303 39.685265 
L 269.699857 55.575967 
" style="fill:none;stroke:#000000;stroke-opacity:0.7;stroke-width:0.9594104554141858;"/>
    <path clip-path="url(#p70d854205c)" d="M 392.328683 57.517844 
L 379.393563 116.758536 
" style="fill:none;stroke:#000000;stroke-opacity:0.7;stroke-width:0.9594104554141858;"/>
    <path clip-path="url(#p70d854205c)" d="M 392.328683 57.517844 
L 313.252733 91.105578 
" style="fill:none;stroke:#000000;stroke-opacity:0.7;stroke-width:0.9594104554141858;"/>
    <path clip-path="url(#p70d854205c)" d="M 392.328683 57.517844 
L 269.699857 55.575967 
" style="fill:none;stroke:#000000;stroke-opacity:0.7;stroke-width:0.9594104554141858;"/>
    <path clip-path="url(#p70d854205c)" d="M 379.393563 116.758536 
L 299.129387 182.81406 
" style="fill:none;stroke:#000000;stroke-opacity:0.7;stroke-width:0.9594104554141858;"/>
    <path clip-path="url(#p70d854205c)" d="M 379.393563 116.758536 
L 315.037579 192.820492 
" style="fill:none;stroke:#000000;stroke-opacity:0.7;stroke-width:0.9594104554141858;"/>
    <path clip-path="url(#p70d854205c)" d="M 379.393563 116.758536 
L 295.634899 199.789137 
" style="fill:none;stroke:#000000;stroke-opacity:0.7;stroke-width:0.9594104554141858;"/>
    <path clip-path="url(#p70d854205c)" d="M 313.252733 91.105578 
L 266.051326 165.917428 
" style="fill:none;stroke:#000000;stroke-opacity:0.7;stroke-width:0.9594104554141858;"/>
    <path clip-path="url(#p70d854205c)" d="M 313.252733 91.105578 
L 252.279434 183.744623 
" style="fill:none;stroke:#000000;stroke-opacity:0.7;stroke-width:0.9594104554141858;"/>
    <path clip-path="url(#p70d854205c)" d="M 313.252733 91.105578 
L 243.825481 170.497468 
" style="fill:none;stroke:#000000;stroke-opacity:0.7;stroke-width:0.9594104554141858;"/>
    <path clip-path="url(#p70d854205c)" d="M 269.699857 55.575967 
L 230.520606 146.750914 
" style="fill:none;stroke:#000000;stroke-opacity:0.7;stroke-width:0.9594104554141858;"/>
    <path clip-path="url(#p70d854205c)" d="M 269.699857 55.575967 
L 223.797352 133.738419 
" style="fill:none;stroke:#000000;stroke-opacity:0.7;stroke-width:0.9594104554141858;"/>
    <path clip-path="url(#p70d854205c)" d="M 269.699857 55.575967 
L 207.322621 145.794396 
" style="fill:none;stroke:#000000;stroke-opacity:0.7;stroke-width:0.9594104554141858;"/>
   </g>
   <g id="PathCollection_1">
    <path clip-path="url(#p70d854205c)" d="M 154.049228 303.207054 
C 154.944986 303.207054 155.804177 302.851165 156.437574 302.217769 
C 157.07097 301.584372 157.426859 300.725181 157.426859 299.829423 
C 157.426859 298.933665 157.07097 298.074474 156.437574 297.441078 
C 155.804177 296.807681 154.944986 296.451793 154.049228 296.451793 
C 153.15347 296.451793 152.29428 296.807681 151.660883 297.441078 
C 151.027486 298.074474 150.671598 298.933665 150.671598 299.829423 
C 150.671598 300.725181 151.027486 301.584372 151.660883 302.217769 
C 152.29428 302.851165 153.15347 303.207054 154.049228 303.207054 
z
" style="fill:#f0f921;fill-opacity:0.95;stroke:#000000;stroke-opacity:0.95;"/>
    <path clip-path="url(#p70d854205c)" d="M 190.188601 316.098422 
C 191.084359 316.098422 191.943549 315.742533 192.576946 315.109137 
C 193.210343 314.47574 193.566231 313.61655 193.566231 312.720792 
C 193.566231 311.825033 193.210343 310.965843 192.576946 310.332446 
C 191.943549 309.69905 191.084359 309.343161 190.188601 309.343161 
C 189.292843 309.343161 188.433652 309.69905 187.800255 310.332446 
C 187.166859 310.965843 186.81097 311.825033 186.81097 312.720792 
C 186.81097 313.61655 187.166859 314.47574 187.800255 315.109137 
C 188.433652 315.742533 189.292843 316.098422 190.188601 316.098422 
z
" style="fill:#f0f921;fill-opacity:0.95;stroke:#000000;stroke-opacity:0.95;"/>
    <path clip-path="url(#p70d854205c)" d="M 124.163084 283.788289 
C 125.058842 283.788289 125.918033 283.4324 126.55143 282.799004 
C 127.184826 282.165607 127.540715 281.306416 127.540715 280.410658 
C 127.540715 279.5149 127.184826 278.655709 126.55143 278.022313 
C 125.918033 277.388916 125.058842 277.033028 124.163084 277.033028 
C 123.267326 277.033028 122.408135 277.388916 121.774739 278.022313 
C 121.141342 278.655709 120.785454 279.5149 120.785454 280.410658 
C 120.785454 281.306416 121.141342 282.165607 121.774739 282.799004 
C 122.408135 283.4324 123.267326 283.788289 124.163084 283.788289 
z
" style="fill:#f0f921;fill-opacity:0.95;stroke:#000000;stroke-opacity:0.95;"/>
    <path clip-path="url(#p70d854205c)" d="M 251.287115 282.850462 
C 252.288534 282.850462 253.249072 282.452594 253.957182 281.744484 
C 254.665292 281.036374 255.06316 280.075835 255.06316 279.074416 
C 255.06316 278.072998 254.665292 277.112459 253.957182 276.404349 
C 253.249072 275.696239 252.288534 275.298371 251.287115 275.298371 
C 250.285696 275.298371 249.325157 275.696239 248.617047 276.404349 
C 247.908937 277.112459 247.511069 278.072998 247.511069 279.074416 
C 247.511069 280.075835 247.908937 281.036374 248.617047 281.744484 
C 249.325157 282.452594 250.285696 282.850462 251.287115 282.850462 
z
" style="fill:#0d0887;fill-opacity:0.95;stroke:#000000;stroke-opacity:0.95;"/>
    <path clip-path="url(#p70d854205c)" d="M 196.741392 256.076599 
C 197.742811 256.076599 198.703349 255.678731 199.41146 254.970621 
C 200.11957 254.262511 200.517438 253.301973 200.517438 252.300554 
C 200.517438 251.299135 200.11957 250.338597 199.41146 249.630487 
C 198.703349 248.922376 197.742811 248.524508 196.741392 248.524508 
C 195.739973 248.524508 194.779435 248.922376 194.071325 249.630487 
C 193.363215 250.338597 192.965347 251.299135 192.965347 252.300554 
C 192.965347 253.301973 193.363215 254.262511 194.071325 254.970621 
C 194.779435 255.678731 195.739973 256.076599 196.741392 256.076599 
z
" style="fill:#0d0887;fill-opacity:0.95;stroke:#000000;stroke-opacity:0.95;"/>
    <path clip-path="url(#p70d854205c)" d="M 143.086965 223.105075 
C 144.088384 223.105075 145.048922 222.707207 145.757032 221.999096 
C 146.465142 221.290986 146.86301 220.330448 146.86301 219.329029 
C 146.86301 218.32761 146.465142 217.367072 145.757032 216.658962 
C 145.048922 215.950852 144.088384 215.552984 143.086965 215.552984 
C 142.085546 215.552984 141.125007 215.950852 140.416897 216.658962 
C 139.708787 217.367072 139.310919 218.32761 139.310919 219.329029 
C 139.310919 220.330448 139.708787 221.290986 140.416897 221.999096 
C 141.125007 222.707207 142.085546 223.105075 143.086965 223.105075 
z
" style="fill:#0d0887;fill-opacity:0.95;stroke:#000000;stroke-opacity:0.95;"/>
    <path clip-path="url(#p70d854205c)" d="M 73.851483 222.08276 
C 74.747241 222.08276 75.606432 221.726871 76.239828 221.093475 
C 76.873225 220.460078 77.229113 219.600887 77.229113 218.705129 
C 77.229113 217.809371 76.873225 216.95018 76.239828 216.316784 
C 75.606432 215.683387 74.747241 215.327499 73.851483 215.327499 
C 72.955725 215.327499 72.096534 215.683387 71.463137 216.316784 
C 70.829741 216.95018 70.473852 217.809371 70.473852 218.705129 
C 70.473852 219.600887 70.829741 220.460078 71.463137 221.093475 
C 72.096534 221.726871 72.955725 222.08276 73.851483 222.08276 
z
" style="fill:#f0f921;fill-opacity:0.95;stroke:#000000;stroke-opacity:0.95;"/>
    <path clip-path="url(#p70d854205c)" d="M 57.970865 160.809827 
C 58.866623 160.809827 59.725814 160.453938 60.359211 159.820542 
C 60.992607 159.187145 61.348496 158.327954 61.348496 157.432196 
C 61.348496 156.536438 60.992607 155.677248 60.359211 155.043851 
C 59.725814 154.410454 58.866623 154.054566 57.970865 154.054566 
C 57.075107 154.054566 56.215916 154.410454 55.58252 155.043851 
C 54.949123 155.677248 54.593235 156.536438 54.593235 157.432196 
C 54.593235 158.327954 54.949123 159.187145 55.58252 159.820542 
C 56.215916 160.453938 57.075107 160.809827 57.970865 160.809827 
z
" style="fill:#f0f921;fill-opacity:0.95;stroke:#000000;stroke-opacity:0.95;"/>
    <path clip-path="url(#p70d854205c)" d="M 60.778488 193.167065 
C 61.674246 193.167065 62.533437 192.811176 63.166834 192.17778 
C 63.80023 191.544383 64.156119 190.685193 64.156119 189.789434 
C 64.156119 188.893676 63.80023 188.034486 63.166834 187.401089 
C 62.533437 186.767693 61.674246 186.411804 60.778488 186.411804 
C 59.88273 186.411804 59.023539 186.767693 58.390143 187.401089 
C 57.756746 188.034486 57.400858 188.893676 57.400858 189.789434 
C 57.400858 190.685193 57.756746 191.544383 58.390143 192.17778 
C 59.023539 192.811176 59.88273 193.167065 60.778488 193.167065 
z
" style="fill:#f0f921;fill-opacity:0.95;stroke:#000000;stroke-opacity:0.95;"/>
    <path clip-path="url(#p70d854205c)" d="M 172.486788 215.821115 
C 173.488207 215.821115 174.448746 215.423247 175.156856 214.715137 
C 175.864966 214.007027 176.262834 213.046489 176.262834 212.04507 
C 176.262834 211.043651 175.864966 210.083112 175.156856 209.375002 
C 174.448746 208.666892 173.488207 208.269024 172.486788 208.269024 
C 171.485369 208.269024 170.524831 208.666892 169.816721 209.375002 
C 169.108611 210.083112 168.710743 211.043651 168.710743 212.04507 
C 168.710743 213.046489 169.108611 214.007027 169.816721 214.715137 
C 170.524831 215.423247 171.485369 215.821115 172.486788 215.821115 
z
" style="fill:#0d0887;fill-opacity:0.95;stroke:#000000;stroke-opacity:0.95;"/>
    <path clip-path="url(#p70d854205c)" d="M 133.797994 178.334535 
C 134.799413 178.334535 135.759951 177.936667 136.468061 177.228557 
C 137.176172 176.520447 137.57404 175.559909 137.57404 174.55849 
C 137.57404 173.557071 137.176172 172.596532 136.468061 171.888422 
C 135.759951 171.180312 134.799413 170.782444 133.797994 170.782444 
C 132.796575 170.782444 131.836037 171.180312 131.127927 171.888422 
C 130.419816 172.596532 130.021949 173.557071 130.021949 174.55849 
C 130.021949 175.559909 130.419816 176.520447 131.127927 177.228557 
C 131.836037 177.936667 132.796575 178.334535 133.797994 178.334535 
z
" style="fill:#0d0887;fill-opacity:0.95;stroke:#000000;stroke-opacity:0.95;"/>
    <path clip-path="url(#p70d854205c)" d="M 104.910812 134.001783 
C 105.912231 134.001783 106.872769 133.603915 107.58088 132.895805 
C 108.28899 132.187695 108.686858 131.227156 108.686858 130.225737 
C 108.686858 129.224318 108.28899 128.26378 107.58088 127.55567 
C 106.872769 126.84756 105.912231 126.449692 104.910812 126.449692 
C 103.909393 126.449692 102.948855 126.84756 102.240745 127.55567 
C 101.532635 128.26378 101.134767 129.224318 101.134767 130.225737 
C 101.134767 131.227156 101.532635 132.187695 102.240745 132.895805 
C 102.948855 133.603915 103.909393 134.001783 104.910812 134.001783 
z
" style="fill:#0d0887;fill-opacity:0.95;stroke:#000000;stroke-opacity:0.95;"/>
    <path clip-path="url(#p70d854205c)" d="M 444.144368 124.090096 
C 445.040126 124.090096 445.899317 123.734207 446.532713 123.100811 
C 447.16611 122.467414 447.521998 121.608223 447.521998 120.712465 
C 447.521998 119.816707 447.16611 118.957516 446.532713 118.32412 
C 445.899317 117.690723 445.040126 117.334835 444.144368 117.334835 
C 443.24861 117.334835 442.389419 117.690723 441.756023 118.32412 
C 441.122626 118.957516 440.766738 119.816707 440.766738 120.712465 
C 440.766738 121.608223 441.122626 122.467414 441.756023 123.100811 
C 442.389419 123.734207 443.24861 124.090096 444.144368 124.090096 
z
" style="fill:#f0f921;fill-opacity:0.95;stroke:#000000;stroke-opacity:0.95;"/>
    <path clip-path="url(#p70d854205c)" d="M 460.388473 181.665773 
C 461.284231 181.665773 462.143421 181.309884 462.776818 180.676488 
C 463.410214 180.043091 463.766103 179.1839 463.766103 178.288142 
C 463.766103 177.392384 463.410214 176.533193 462.776818 175.899797 
C 462.143421 175.2664 461.284231 174.910512 460.388473 174.910512 
C 459.492714 174.910512 458.633524 175.2664 458.000127 175.899797 
C 457.366731 176.533193 457.010842 177.392384 457.010842 178.288142 
C 457.010842 179.1839 457.366731 180.043091 458.000127 180.676488 
C 458.633524 181.309884 459.492714 181.665773 460.388473 181.665773 
z
" style="fill:#f0f921;fill-opacity:0.95;stroke:#000000;stroke-opacity:0.95;"/>
    <path clip-path="url(#p70d854205c)" d="M 456.02663 151.233107 
C 456.922388 151.233107 457.781578 150.877219 458.414975 150.243822 
C 459.048372 149.610425 459.40426 148.751235 459.40426 147.855477 
C 459.40426 146.959719 459.048372 146.100528 458.414975 145.467131 
C 457.781578 144.833735 456.922388 144.477846 456.02663 144.477846 
C 455.130872 144.477846 454.271681 144.833735 453.638284 145.467131 
C 453.004888 146.100528 452.648999 146.959719 452.648999 147.855477 
C 452.648999 148.751235 453.004888 149.610425 453.638284 150.243822 
C 454.271681 150.877219 455.130872 151.233107 456.02663 151.233107 
z
" style="fill:#f0f921;fill-opacity:0.95;stroke:#000000;stroke-opacity:0.95;"/>
    <path clip-path="url(#p70d854205c)" d="M 417.095929 210.205054 
C 418.097348 210.205054 419.057886 209.807186 419.765996 209.099076 
C 420.474106 208.390966 420.871974 207.430428 420.871974 206.429009 
C 420.871974 205.42759 420.474106 204.467052 419.765996 203.758941 
C 419.057886 203.050831 418.097348 202.652963 417.095929 202.652963 
C 416.09451 202.652963 415.133971 203.050831 414.425861 203.758941 
C 413.717751 204.467052 413.319883 205.42759 413.319883 206.429009 
C 413.319883 207.430428 413.717751 208.390966 414.425861 209.099076 
C 415.133971 209.807186 416.09451 210.205054 417.095929 210.205054 
z
" style="fill:#0d0887;fill-opacity:0.95;stroke:#000000;stroke-opacity:0.95;"/>
    <path clip-path="url(#p70d854205c)" d="M 378.111331 174.768788 
C 379.11275 174.768788 380.073288 174.37092 380.781399 173.66281 
C 381.489509 172.9547 381.887377 171.994162 381.887377 170.992743 
C 381.887377 169.991324 381.489509 169.030786 380.781399 168.322675 
C 380.073288 167.614565 379.11275 167.216697 378.111331 167.216697 
C 377.109912 167.216697 376.149374 167.614565 375.441264 168.322675 
C 374.733154 169.030786 374.335286 169.991324 374.335286 170.992743 
C 374.335286 171.994162 374.733154 172.9547 375.441264 173.66281 
C 376.149374 174.37092 377.109912 174.768788 378.111331 174.768788 
z
" style="fill:#0d0887;fill-opacity:0.95;stroke:#000000;stroke-opacity:0.95;"/>
    <path clip-path="url(#p70d854205c)" d="M 349.265512 126.081426 
C 350.266931 126.081426 351.227469 125.683558 351.935579 124.975448 
C 352.643689 124.267338 353.041557 123.3068 353.041557 122.305381 
C 353.041557 121.303962 352.643689 120.343424 351.935579 119.635313 
C 351.227469 118.927203 350.266931 118.529335 349.265512 118.529335 
C 348.264093 118.529335 347.303554 118.927203 346.595444 119.635313 
C 345.887334 120.343424 345.489466 121.303962 345.489466 122.305381 
C 345.489466 123.3068 345.887334 124.267338 346.595444 124.975448 
C 347.303554 125.683558 348.264093 126.081426 349.265512 126.081426 
z
" style="fill:#0d0887;fill-opacity:0.95;stroke:#000000;stroke-opacity:0.95;"/>
    <path clip-path="url(#p70d854205c)" d="M 295.122257 322.087477 
C 296.018015 322.087477 296.877206 321.731588 297.510602 321.098192 
C 298.143999 320.464795 298.499887 319.605604 298.499887 318.709846 
C 298.499887 317.814088 298.143999 316.954897 297.510602 316.321501 
C 296.877206 315.688104 296.018015 315.332216 295.122257 315.332216 
C 294.226499 315.332216 293.367308 315.688104 292.733911 316.321501 
C 292.100515 316.954897 291.744626 317.814088 291.744626 318.709846 
C 291.744626 319.605604 292.100515 320.464795 292.733911 321.098192 
C 293.367308 321.731588 294.226499 322.087477 295.122257 322.087477 
z
" style="fill:#f0f921;fill-opacity:0.95;stroke:#000000;stroke-opacity:0.95;"/>
    <path clip-path="url(#p70d854205c)" d="M 405.451814 279.568072 
C 406.347572 279.568072 407.206762 279.212183 407.840159 278.578787 
C 408.473556 277.94539 408.829444 277.0862 408.829444 276.190442 
C 408.829444 275.294683 408.473556 274.435493 407.840159 273.802096 
C 407.206762 273.1687 406.347572 272.812811 405.451814 272.812811 
C 404.556055 272.812811 403.696865 273.1687 403.063468 273.802096 
C 402.430072 274.435493 402.074183 275.294683 402.074183 276.190442 
C 402.074183 277.0862 402.430072 277.94539 403.063468 278.578787 
C 403.696865 279.212183 404.556055 279.568072 405.451814 279.568072 
z
" style="fill:#f0f921;fill-opacity:0.95;stroke:#000000;stroke-opacity:0.95;"/>
    <path clip-path="url(#p70d854205c)" d="M 339.609294 317.184719 
C 340.505052 317.184719 341.364243 316.828831 341.997639 316.195434 
C 342.631036 315.562038 342.986924 314.702847 342.986924 313.807089 
C 342.986924 312.911331 342.631036 312.05214 341.997639 311.418743 
C 341.364243 310.785347 340.505052 310.429458 339.609294 310.429458 
C 338.713536 310.429458 337.854345 310.785347 337.220949 311.418743 
C 336.587552 312.05214 336.231664 312.911331 336.231664 313.807089 
C 336.231664 314.702847 336.587552 315.562038 337.220949 316.195434 
C 337.854345 316.828831 338.713536 317.184719 339.609294 317.184719 
z
" style="fill:#f0f921;fill-opacity:0.95;stroke:#000000;stroke-opacity:0.95;"/>
    <path clip-path="url(#p70d854205c)" d="M 364.939318 268.50557 
C 365.940737 268.50557 366.901275 268.107702 367.609385 267.399592 
C 368.317495 266.691482 368.715363 265.730944 368.715363 264.729525 
C 368.715363 263.728106 368.317495 262.767568 367.609385 262.059457 
C 366.901275 261.351347 365.940737 260.953479 364.939318 260.953479 
C 363.937899 260.953479 362.97736 261.351347 362.26925 262.059457 
C 361.56114 262.767568 361.163272 263.728106 361.163272 264.729525 
C 361.163272 265.730944 361.56114 266.691482 362.26925 267.399592 
C 362.97736 268.107702 363.937899 268.50557 364.939318 268.50557 
z
" style="fill:#0d0887;fill-opacity:0.95;stroke:#000000;stroke-opacity:0.95;"/>
    <path clip-path="url(#p70d854205c)" d="M 317.054305 260.74191 
C 318.055724 260.74191 319.016262 260.344042 319.724372 259.635932 
C 320.432482 258.927821 320.83035 257.967283 320.83035 256.965864 
C 320.83035 255.964445 320.432482 255.003907 319.724372 254.295797 
C 319.016262 253.587687 318.055724 253.189819 317.054305 253.189819 
C 316.052886 253.189819 315.092347 253.587687 314.384237 254.295797 
C 313.676127 255.003907 313.278259 255.964445 313.278259 256.965864 
C 313.278259 257.967283 313.676127 258.927821 314.384237 259.635932 
C 315.092347 260.344042 316.052886 260.74191 317.054305 260.74191 
z
" style="fill:#0d0887;fill-opacity:0.95;stroke:#000000;stroke-opacity:0.95;"/>
    <path clip-path="url(#p70d854205c)" d="M 273.137566 244.585882 
C 274.138985 244.585882 275.099523 244.188014 275.807633 243.479904 
C 276.515744 242.771793 276.913612 241.811255 276.913612 240.809836 
C 276.913612 239.808417 276.515744 238.847879 275.807633 238.139769 
C 275.099523 237.431659 274.138985 237.033791 273.137566 237.033791 
C 272.136147 237.033791 271.175609 237.431659 270.467499 238.139769 
C 269.759388 238.847879 269.361521 239.808417 269.361521 240.809836 
C 269.361521 241.811255 269.759388 242.771793 270.467499 243.479904 
C 271.175609 244.188014 272.136147 244.585882 273.137566 244.585882 
z
" style="fill:#0d0887;fill-opacity:0.95;stroke:#000000;stroke-opacity:0.95;"/>
    <path clip-path="url(#p70d854205c)" d="M 172.177198 28.787219 
C 173.072956 28.787219 173.932147 28.431331 174.565543 27.797934 
C 175.19894 27.164538 175.554828 26.305347 175.554828 25.409589 
C 175.554828 24.513831 175.19894 23.65464 174.565543 23.021243 
C 173.932147 22.387847 173.072956 22.031958 172.177198 22.031958 
C 171.28144 22.031958 170.422249 22.387847 169.788852 23.021243 
C 169.155456 23.65464 168.799567 24.513831 168.799567 25.409589 
C 168.799567 26.305347 169.155456 27.164538 169.788852 27.797934 
C 170.422249 28.431331 171.28144 28.787219 172.177198 28.787219 
z
" style="fill:#f0f921;fill-opacity:0.95;stroke:#000000;stroke-opacity:0.95;"/>
    <path clip-path="url(#p70d854205c)" d="M 222.078936 23.884462 
C 222.974694 23.884462 223.833885 23.528573 224.467282 22.895177 
C 225.100678 22.26178 225.456567 21.402589 225.456567 20.506831 
C 225.456567 19.611073 225.100678 18.751882 224.467282 18.118486 
C 223.833885 17.485089 222.974694 17.129201 222.078936 17.129201 
C 221.183178 17.129201 220.323988 17.485089 219.690591 18.118486 
C 219.057194 18.751882 218.701306 19.611073 218.701306 20.506831 
C 218.701306 21.402589 219.057194 22.26178 219.690591 22.895177 
C 220.323988 23.528573 221.183178 23.884462 222.078936 23.884462 
z
" style="fill:#f0f921;fill-opacity:0.95;stroke:#000000;stroke-opacity:0.95;"/>
    <path clip-path="url(#p70d854205c)" d="M 112.017608 67.269059 
C 112.913366 67.269059 113.772557 66.91317 114.405953 66.279774 
C 115.03935 65.646377 115.395238 64.787187 115.395238 63.891429 
C 115.395238 62.99567 115.03935 62.13648 114.405953 61.503083 
C 113.772557 60.869687 112.913366 60.513798 112.017608 60.513798 
C 111.12185 60.513798 110.262659 60.869687 109.629263 61.503083 
C 108.995866 62.13648 108.639978 62.99567 108.639978 63.891429 
C 108.639978 64.787187 108.995866 65.646377 109.629263 66.279774 
C 110.262659 66.91317 111.12185 67.269059 112.017608 67.269059 
z
" style="fill:#f0f921;fill-opacity:0.95;stroke:#000000;stroke-opacity:0.95;"/>
    <path clip-path="url(#p70d854205c)" d="M 249.234166 96.982119 
C 250.235585 96.982119 251.196123 96.584251 251.904233 95.87614 
C 252.612343 95.16803 253.010211 94.207492 253.010211 93.206073 
C 253.010211 92.204654 252.612343 91.244116 251.904233 90.536006 
C 251.196123 89.827895 250.235585 89.430028 249.234166 89.430028 
C 248.232747 89.430028 247.272208 89.827895 246.564098 90.536006 
C 245.855988 91.244116 245.45812 92.204654 245.45812 93.206073 
C 245.45812 94.207492 245.855988 95.16803 246.564098 95.87614 
C 247.272208 96.584251 248.232747 96.982119 249.234166 96.982119 
z
" style="fill:#0d0887;fill-opacity:0.95;stroke:#000000;stroke-opacity:0.95;"/>
    <path clip-path="url(#p70d854205c)" d="M 180.943499 98.439487 
C 181.944918 98.439487 182.905456 98.041619 183.613567 97.333509 
C 184.321677 96.625399 184.719545 95.664861 184.719545 94.663442 
C 184.719545 93.662023 184.321677 92.701484 183.613567 91.993374 
C 182.905456 91.285264 181.944918 90.887396 180.943499 90.887396 
C 179.94208 90.887396 178.981542 91.285264 178.273432 91.993374 
C 177.565322 92.701484 177.167454 93.662023 177.167454 94.663442 
C 177.167454 95.664861 177.565322 96.625399 178.273432 97.333509 
C 178.981542 98.041619 179.94208 98.439487 180.943499 98.439487 
z
" style="fill:#0d0887;fill-opacity:0.95;stroke:#000000;stroke-opacity:0.95;"/>
    <path clip-path="url(#p70d854205c)" d="M 164.526425 70.070787 
C 165.527844 70.070787 166.488382 69.672919 167.196492 68.964808 
C 167.904603 68.256698 168.302471 67.29616 168.302471 66.294741 
C 168.302471 65.293322 167.904603 64.332784 167.196492 63.624674 
C 166.488382 62.916563 165.527844 62.518695 164.526425 62.518695 
C 163.525006 62.518695 162.564468 62.916563 161.856358 63.624674 
C 161.148247 64.332784 160.75038 65.293322 160.75038 66.294741 
C 160.75038 67.29616 161.148247 68.256698 161.856358 68.964808 
C 162.564468 69.672919 163.525006 70.070787 164.526425 70.070787 
z
" style="fill:#0d0887;fill-opacity:0.95;stroke:#000000;stroke-opacity:0.95;"/>
    <path clip-path="url(#p70d854205c)" d="M 330.751494 29.902356 
C 331.647252 29.902356 332.506443 29.546468 333.139839 28.913071 
C 333.773236 28.279675 334.129125 27.420484 334.129125 26.524726 
C 334.129125 25.628968 333.773236 24.769777 333.139839 24.13638 
C 332.506443 23.502984 331.647252 23.147095 330.751494 23.147095 
C 329.855736 23.147095 328.996545 23.502984 328.363149 24.13638 
C 327.729752 24.769777 327.373864 25.628968 327.373864 26.524726 
C 327.373864 27.420484 327.729752 28.279675 328.363149 28.913071 
C 328.996545 29.546468 329.855736 29.902356 330.751494 29.902356 
z
" style="fill:#f0f921;fill-opacity:0.95;stroke:#000000;stroke-opacity:0.95;"/>
    <path clip-path="url(#p70d854205c)" d="M 364.197303 43.062895 
C 365.093061 43.062895 365.952252 42.707007 366.585648 42.07361 
C 367.219045 41.440214 367.574933 40.581023 367.574933 39.685265 
C 367.574933 38.789507 367.219045 37.930316 366.585648 37.29692 
C 365.952252 36.663523 365.093061 36.307635 364.197303 36.307635 
C 363.301545 36.307635 362.442354 36.663523 361.808958 37.29692 
C 361.175561 37.930316 360.819673 38.789507 360.819673 39.685265 
C 360.819673 40.581023 361.175561 41.440214 361.808958 42.07361 
C 362.442354 42.707007 363.301545 43.062895 364.197303 43.062895 
z
" style="fill:#f0f921;fill-opacity:0.95;stroke:#000000;stroke-opacity:0.95;"/>
    <path clip-path="url(#p70d854205c)" d="M 392.328683 60.895474 
C 393.224441 60.895474 394.083632 60.539586 394.717028 59.906189 
C 395.350425 59.272793 395.706313 58.413602 395.706313 57.517844 
C 395.706313 56.622086 395.350425 55.762895 394.717028 55.129498 
C 394.083632 54.496102 393.224441 54.140213 392.328683 54.140213 
C 391.432925 54.140213 390.573734 54.496102 389.940337 55.129498 
C 389.306941 55.762895 388.951052 56.622086 388.951052 57.517844 
C 388.951052 58.413602 389.306941 59.272793 389.940337 59.906189 
C 390.573734 60.539586 391.432925 60.895474 392.328683 60.895474 
z
" style="fill:#f0f921;fill-opacity:0.95;stroke:#000000;stroke-opacity:0.95;"/>
    <path clip-path="url(#p70d854205c)" d="M 379.393563 120.534581 
C 380.394982 120.534581 381.35552 120.136713 382.06363 119.428603 
C 382.77174 118.720493 383.169608 117.759955 383.169608 116.758536 
C 383.169608 115.757117 382.77174 114.796578 382.06363 114.088468 
C 381.35552 113.380358 380.394982 112.98249 379.393563 112.98249 
C 378.392144 112.98249 377.431605 113.380358 376.723495 114.088468 
C 376.015385 114.796578 375.617517 115.757117 375.617517 116.758536 
C 375.617517 117.759955 376.015385 118.720493 376.723495 119.428603 
C 377.431605 120.136713 378.392144 120.534581 379.393563 120.534581 
z
" style="fill:#0d0887;fill-opacity:0.95;stroke:#000000;stroke-opacity:0.95;"/>
    <path clip-path="url(#p70d854205c)" d="M 313.252733 94.881623 
C 314.254152 94.881623 315.21469 94.483755 315.9228 93.775645 
C 316.630911 93.067535 317.028779 92.106997 317.028779 91.105578 
C 317.028779 90.104159 316.630911 89.143621 315.9228 88.435511 
C 315.21469 87.7274 314.254152 87.329532 313.252733 87.329532 
C 312.251314 87.329532 311.290776 87.7274 310.582666 88.435511 
C 309.874555 89.143621 309.476688 90.104159 309.476688 91.105578 
C 309.476688 92.106997 309.874555 93.067535 310.582666 93.775645 
C 311.290776 94.483755 312.251314 94.881623 313.252733 94.881623 
z
" style="fill:#0d0887;fill-opacity:0.95;stroke:#000000;stroke-opacity:0.95;"/>
    <path clip-path="url(#p70d854205c)" d="M 269.699857 59.352013 
C 270.701276 59.352013 271.661815 58.954145 272.369925 58.246035 
C 273.078035 57.537925 273.475903 56.577386 273.475903 55.575967 
C 273.475903 54.574548 273.078035 53.61401 272.369925 52.9059 
C 271.661815 52.19779 270.701276 51.799922 269.699857 51.799922 
C 268.698438 51.799922 267.7379 52.19779 267.02979 52.9059 
C 266.32168 53.61401 265.923812 54.574548 265.923812 55.575967 
C 265.923812 56.577386 266.32168 57.537925 267.02979 58.246035 
C 267.7379 58.954145 268.698438 59.352013 269.699857 59.352013 
z
" style="fill:#0d0887;fill-opacity:0.95;stroke:#000000;stroke-opacity:0.95;"/>
    <path clip-path="url(#p70d854205c)" d="M 299.129387 186.590106 
C 300.130806 186.590106 301.091344 186.192238 301.799454 185.484128 
C 302.507564 184.776018 302.905432 183.815479 302.905432 182.81406 
C 302.905432 181.812641 302.507564 180.852103 301.799454 180.143993 
C 301.091344 179.435883 300.130806 179.038015 299.129387 179.038015 
C 298.127968 179.038015 297.167429 179.435883 296.459319 180.143993 
C 295.751209 180.852103 295.353341 181.812641 295.353341 182.81406 
C 295.353341 183.815479 295.751209 184.776018 296.459319 185.484128 
C 297.167429 186.192238 298.127968 186.590106 299.129387 186.590106 
z
" style="fill:#0d0887;fill-opacity:0.95;stroke:#000000;stroke-opacity:0.95;"/>
    <path clip-path="url(#p70d854205c)" d="M 315.037579 196.596538 
C 316.038998 196.596538 316.999536 196.19867 317.707647 195.49056 
C 318.415757 194.782449 318.813625 193.821911 318.813625 192.820492 
C 318.813625 191.819073 318.415757 190.858535 317.707647 190.150425 
C 316.999536 189.442315 316.038998 189.044447 315.037579 189.044447 
C 314.03616 189.044447 313.075622 189.442315 312.367512 190.150425 
C 311.659402 190.858535 311.261534 191.819073 311.261534 192.820492 
C 311.261534 193.821911 311.659402 194.782449 312.367512 195.49056 
C 313.075622 196.19867 314.03616 196.596538 315.037579 196.596538 
z
" style="fill:#0d0887;fill-opacity:0.95;stroke:#000000;stroke-opacity:0.95;"/>
    <path clip-path="url(#p70d854205c)" d="M 295.634899 203.565183 
C 296.636318 203.565183 297.596856 203.167315 298.304966 202.459205 
C 299.013076 201.751094 299.410944 200.790556 299.410944 199.789137 
C 299.410944 198.787718 299.013076 197.82718 298.304966 197.11907 
C 297.596856 196.41096 296.636318 196.013092 295.634899 196.013092 
C 294.63348 196.013092 293.672941 196.41096 292.964831 197.11907 
C 292.256721 197.82718 291.858853 198.787718 291.858853 199.789137 
C 291.858853 200.790556 292.256721 201.751094 292.964831 202.459205 
C 293.672941 203.167315 294.63348 203.565183 295.634899 203.565183 
z
" style="fill:#0d0887;fill-opacity:0.95;stroke:#000000;stroke-opacity:0.95;"/>
    <path clip-path="url(#p70d854205c)" d="M 266.051326 169.693473 
C 267.052745 169.693473 268.013283 169.295605 268.721394 168.587495 
C 269.429504 167.879385 269.827372 166.918847 269.827372 165.917428 
C 269.827372 164.916009 269.429504 163.95547 268.721394 163.24736 
C 268.013283 162.53925 267.052745 162.141382 266.051326 162.141382 
C 265.049907 162.141382 264.089369 162.53925 263.381259 163.24736 
C 262.673149 163.95547 262.275281 164.916009 262.275281 165.917428 
C 262.275281 166.918847 262.673149 167.879385 263.381259 168.587495 
C 264.089369 169.295605 265.049907 169.693473 266.051326 169.693473 
z
" style="fill:#0d0887;fill-opacity:0.95;stroke:#000000;stroke-opacity:0.95;"/>
    <path clip-path="url(#p70d854205c)" d="M 252.279434 187.520668 
C 253.280853 187.520668 254.241391 187.1228 254.949501 186.41469 
C 255.657612 185.70658 256.05548 184.746042 256.05548 183.744623 
C 256.05548 182.743204 255.657612 181.782666 254.949501 181.074555 
C 254.241391 180.366445 253.280853 179.968577 252.279434 179.968577 
C 251.278015 179.968577 250.317477 180.366445 249.609367 181.074555 
C 248.901256 181.782666 248.503388 182.743204 248.503388 183.744623 
C 248.503388 184.746042 248.901256 185.70658 249.609367 186.41469 
C 250.317477 187.1228 251.278015 187.520668 252.279434 187.520668 
z
" style="fill:#0d0887;fill-opacity:0.95;stroke:#000000;stroke-opacity:0.95;"/>
    <path clip-path="url(#p70d854205c)" d="M 243.825481 174.273514 
C 244.8269 174.273514 245.787438 173.875646 246.495548 173.167536 
C 247.203658 172.459425 247.601526 171.498887 247.601526 170.497468 
C 247.601526 169.496049 247.203658 168.535511 246.495548 167.827401 
C 245.787438 167.119291 244.8269 166.721423 243.825481 166.721423 
C 242.824062 166.721423 241.863523 167.119291 241.155413 167.827401 
C 240.447303 168.535511 240.049435 169.496049 240.049435 170.497468 
C 240.049435 171.498887 240.447303 172.459425 241.155413 173.167536 
C 241.863523 173.875646 242.824062 174.273514 243.825481 174.273514 
z
" style="fill:#0d0887;fill-opacity:0.95;stroke:#000000;stroke-opacity:0.95;"/>
    <path clip-path="url(#p70d854205c)" d="M 230.520606 150.52696 
C 231.522025 150.52696 232.482564 150.129092 233.190674 149.420982 
C 233.898784 148.712871 234.296652 147.752333 234.296652 146.750914 
C 234.296652 145.749495 233.898784 144.788957 233.190674 144.080847 
C 232.482564 143.372737 231.522025 142.974869 230.520606 142.974869 
C 229.519187 142.974869 228.558649 143.372737 227.850539 144.080847 
C 227.142429 144.788957 226.744561 145.749495 226.744561 146.750914 
C 226.744561 147.752333 227.142429 148.712871 227.850539 149.420982 
C 228.558649 150.129092 229.519187 150.52696 230.520606 150.52696 
z
" style="fill:#0d0887;fill-opacity:0.95;stroke:#000000;stroke-opacity:0.95;"/>
    <path clip-path="url(#p70d854205c)" d="M 223.797352 137.514465 
C 224.798771 137.514465 225.759309 137.116597 226.467419 136.408486 
C 227.17553 135.700376 227.573398 134.739838 227.573398 133.738419 
C 227.573398 132.737 227.17553 131.776462 226.467419 131.068352 
C 225.759309 130.360241 224.798771 129.962373 223.797352 129.962373 
C 222.795933 129.962373 221.835395 130.360241 221.127285 131.068352 
C 220.419174 131.776462 220.021306 132.737 220.021306 133.738419 
C 220.021306 134.739838 220.419174 135.700376 221.127285 136.408486 
C 221.835395 137.116597 222.795933 137.514465 223.797352 137.514465 
z
" style="fill:#0d0887;fill-opacity:0.95;stroke:#000000;stroke-opacity:0.95;"/>
    <path clip-path="url(#p70d854205c)" d="M 207.322621 149.570441 
C 208.32404 149.570441 209.284579 149.172573 209.992689 148.464463 
C 210.700799 147.756353 211.098667 146.795815 211.098667 145.794396 
C 211.098667 144.792977 210.700799 143.832439 209.992689 143.124328 
C 209.284579 142.416218 208.32404 142.01835 207.322621 142.01835 
C 206.321202 142.01835 205.360664 142.416218 204.652554 143.124328 
C 203.944444 143.832439 203.546576 144.792977 203.546576 145.794396 
C 203.546576 146.795815 203.944444 147.756353 204.652554 148.464463 
C 205.360664 149.172573 206.321202 149.570441 207.322621 149.570441 
z
" style="fill:#0d0887;fill-opacity:0.95;stroke:#000000;stroke-opacity:0.95;"/>
   </g>
  </g>
 </g>
 <defs>
  <clipPath id="p70d854205c">
   <rect height="384.53" width="501.36125" x="8.160625" y="-22.993125"/>
  </clipPath>
 </defs>
</svg>
