<?xml version="1.0" encoding="utf-8" standalone="no"?>
<!DOCTYPE svg PUBLIC "-//W3C//DTD SVG 1.1//EN"
  "http://www.w3.org/Graphics/SVG/1.1/DTD/svg11.dtd">
<!-- Created with matplotlib (http://matplotlib.org/) -->
<svg height="348pt" version="1.1" viewBox="0 0 492 348" width="492pt" xmlns="http://www.w3.org/2000/svg" xmlns:xlink="http://www.w3.org/1999/xlink">
 <defs>
  <style type="text/css">
*{stroke-linecap:butt;stroke-linejoin:round;stroke-miterlimit:100000;}
  </style>
 </defs>
 <g id="figure_1">
  <g id="patch_1">
   <path d="M 0 348.350625 
L 492.230625 348.350625 
L 492.230625 0 
L 0 0 
z
" style="fill:none;"/>
  </g>
  <g id="axes_1">
   <g id="LineCollection_1">
    <path clip-path="url(#p0d2a172588)" d="M 88.054341 207.572986 
L 146.831073 209.857575 
" style="fill:none;stroke:#000000;stroke-opacity:0.7;stroke-width:0.9594104554141858;"/>
    <path clip-path="url(#p0d2a172588)" d="M 88.054341 207.572986 
L 133.199107 213.918548 
" style="fill:none;stroke:#000000;stroke-opacity:0.7;stroke-width:0.9594104554141858;"/>
    <path clip-path="url(#p0d2a172588)" d="M 88.054341 207.572986 
L 151.672488 219.549845 
" style="fill:none;stroke:#000000;stroke-opacity:0.7;stroke-width:0.9594104554141858;"/>
    <path clip-path="url(#p0d2a172588)" d="M 88.054341 207.572986 
L 137.938935 223.584815 
" style="fill:none;stroke:#000000;stroke-opacity:0.7;stroke-width:0.9594104554141858;"/>
    <path clip-path="url(#p0d2a172588)" d="M 219.855512 130.1844 
L 283.474648 142.16251 
" style="fill:none;stroke:#000000;stroke-opacity:0.7;stroke-width:0.9594104554141858;"/>
    <path clip-path="url(#p0d2a172588)" d="M 219.855512 130.1844 
L 269.742972 146.200075 
" style="fill:none;stroke:#000000;stroke-opacity:0.7;stroke-width:0.9594104554141858;"/>
    <path clip-path="url(#p0d2a172588)" d="M 219.855512 130.1844 
L 278.632388 132.472354 
" style="fill:none;stroke:#000000;stroke-opacity:0.7;stroke-width:0.9594104554141858;"/>
    <path clip-path="url(#p0d2a172588)" d="M 219.855512 130.1844 
L 265.000995 136.533952 
" style="fill:none;stroke:#000000;stroke-opacity:0.7;stroke-width:0.9594104554141858;"/>
    <path clip-path="url(#p0d2a172588)" d="M 269.284533 240.738698 
L 328.057827 243.023287 
" style="fill:none;stroke:#000000;stroke-opacity:0.7;stroke-width:0.9594104554141858;"/>
    <path clip-path="url(#p0d2a172588)" d="M 269.284533 240.738698 
L 314.426434 247.084404 
" style="fill:none;stroke:#000000;stroke-opacity:0.7;stroke-width:0.9594104554141858;"/>
    <path clip-path="url(#p0d2a172588)" d="M 269.284533 240.738698 
L 332.900087 252.715366 
" style="fill:none;stroke:#000000;stroke-opacity:0.7;stroke-width:0.9594104554141858;"/>
    <path clip-path="url(#p0d2a172588)" d="M 269.284533 240.738698 
L 319.168411 256.750527 
" style="fill:none;stroke:#000000;stroke-opacity:0.7;stroke-width:0.9594104554141858;"/>
    <path clip-path="url(#p0d2a172588)" d="M 55.107629 85.96345 
L 118.722467 97.94156 
" style="fill:none;stroke:#000000;stroke-opacity:0.7;stroke-width:0.9594104554141858;"/>
    <path clip-path="url(#p0d2a172588)" d="M 55.107629 85.96345 
L 104.988642 101.979125 
" style="fill:none;stroke:#000000;stroke-opacity:0.7;stroke-width:0.9594104554141858;"/>
    <path clip-path="url(#p0d2a172588)" d="M 55.107629 85.96345 
L 113.880923 88.251404 
" style="fill:none;stroke:#000000;stroke-opacity:0.7;stroke-width:0.9594104554141858;"/>
    <path clip-path="url(#p0d2a172588)" d="M 55.107629 85.96345 
L 100.248814 92.313002 
" style="fill:none;stroke:#000000;stroke-opacity:0.7;stroke-width:0.9594104554141858;"/>
    <path clip-path="url(#p0d2a172588)" d="M 351.660265 52.797738 
L 410.433559 55.085691 
" style="fill:none;stroke:#000000;stroke-opacity:0.7;stroke-width:0.9594104554141858;"/>
    <path clip-path="url(#p0d2a172588)" d="M 351.660265 52.797738 
L 396.802166 59.14729 
" style="fill:none;stroke:#000000;stroke-opacity:0.7;stroke-width:0.9594104554141858;"/>
    <path clip-path="url(#p0d2a172588)" d="M 351.660265 52.797738 
L 415.275819 64.775847 
" style="fill:none;stroke:#000000;stroke-opacity:0.7;stroke-width:0.9594104554141858;"/>
    <path clip-path="url(#p0d2a172588)" d="M 351.660265 52.797738 
L 401.544143 68.813412 
" style="fill:none;stroke:#000000;stroke-opacity:0.7;stroke-width:0.9594104554141858;"/>
    <path clip-path="url(#p0d2a172588)" d="M 145.828668 179.096136 
L 146.831073 209.857575 
" style="fill:none;stroke:#000000;stroke-opacity:0.7;stroke-width:0.9594104554141858;"/>
    <path clip-path="url(#p0d2a172588)" d="M 145.828668 179.096136 
L 133.199107 213.918548 
" style="fill:none;stroke:#000000;stroke-opacity:0.7;stroke-width:0.9594104554141858;"/>
    <path clip-path="url(#p0d2a172588)" d="M 145.828668 179.096136 
L 151.672488 219.549845 
" style="fill:none;stroke:#000000;stroke-opacity:0.7;stroke-width:0.9594104554141858;"/>
    <path clip-path="url(#p0d2a172588)" d="M 145.828668 179.096136 
L 137.938935 223.584815 
" style="fill:none;stroke:#000000;stroke-opacity:0.7;stroke-width:0.9594104554141858;"/>
    <path clip-path="url(#p0d2a172588)" d="M 277.629553 101.709954 
L 283.474648 142.16251 
" style="fill:none;stroke:#000000;stroke-opacity:0.7;stroke-width:0.9594104554141858;"/>
    <path clip-path="url(#p0d2a172588)" d="M 277.629553 101.709954 
L 269.742972 146.200075 
" style="fill:none;stroke:#000000;stroke-opacity:0.7;stroke-width:0.9594104554141858;"/>
    <path clip-path="url(#p0d2a172588)" d="M 277.629553 101.709954 
L 278.632388 132.472354 
" style="fill:none;stroke:#000000;stroke-opacity:0.7;stroke-width:0.9594104554141858;"/>
    <path clip-path="url(#p0d2a172588)" d="M 277.629553 101.709954 
L 265.000995 136.533952 
" style="fill:none;stroke:#000000;stroke-opacity:0.7;stroke-width:0.9594104554141858;"/>
    <path clip-path="url(#p0d2a172588)" d="M 327.054992 212.261848 
L 328.057827 243.023287 
" style="fill:none;stroke:#000000;stroke-opacity:0.7;stroke-width:0.9594104554141858;"/>
    <path clip-path="url(#p0d2a172588)" d="M 327.054992 212.261848 
L 314.426434 247.084404 
" style="fill:none;stroke:#000000;stroke-opacity:0.7;stroke-width:0.9594104554141858;"/>
    <path clip-path="url(#p0d2a172588)" d="M 327.054992 212.261848 
L 332.900087 252.715366 
" style="fill:none;stroke:#000000;stroke-opacity:0.7;stroke-width:0.9594104554141858;"/>
    <path clip-path="url(#p0d2a172588)" d="M 327.054992 212.261848 
L 319.168411 256.750527 
" style="fill:none;stroke:#000000;stroke-opacity:0.7;stroke-width:0.9594104554141858;"/>
    <path clip-path="url(#p0d2a172588)" d="M 112.878088 57.489004 
L 118.722467 97.94156 
" style="fill:none;stroke:#000000;stroke-opacity:0.7;stroke-width:0.9594104554141858;"/>
    <path clip-path="url(#p0d2a172588)" d="M 112.878088 57.489004 
L 104.988642 101.979125 
" style="fill:none;stroke:#000000;stroke-opacity:0.7;stroke-width:0.9594104554141858;"/>
    <path clip-path="url(#p0d2a172588)" d="M 112.878088 57.489004 
L 113.880923 88.251404 
" style="fill:none;stroke:#000000;stroke-opacity:0.7;stroke-width:0.9594104554141858;"/>
    <path clip-path="url(#p0d2a172588)" d="M 112.878088 57.489004 
L 100.248814 92.313002 
" style="fill:none;stroke:#000000;stroke-opacity:0.7;stroke-width:0.9594104554141858;"/>
    <path clip-path="url(#p0d2a172588)" d="M 409.430724 24.323291 
L 410.433559 55.085691 
" style="fill:none;stroke:#000000;stroke-opacity:0.7;stroke-width:0.9594104554141858;"/>
    <path clip-path="url(#p0d2a172588)" d="M 409.430724 24.323291 
L 396.802166 59.14729 
" style="fill:none;stroke:#000000;stroke-opacity:0.7;stroke-width:0.9594104554141858;"/>
    <path clip-path="url(#p0d2a172588)" d="M 409.430724 24.323291 
L 415.275819 64.775847 
" style="fill:none;stroke:#000000;stroke-opacity:0.7;stroke-width:0.9594104554141858;"/>
    <path clip-path="url(#p0d2a172588)" d="M 409.430724 24.323291 
L 401.544143 68.813412 
" style="fill:none;stroke:#000000;stroke-opacity:0.7;stroke-width:0.9594104554141858;"/>
    <path clip-path="url(#p0d2a172588)" d="M 118.072774 250.765318 
L 146.831073 209.857575 
" style="fill:none;stroke:#000000;stroke-opacity:0.7;stroke-width:0.9594104554141858;"/>
    <path clip-path="url(#p0d2a172588)" d="M 118.072774 250.765318 
L 133.199107 213.918548 
" style="fill:none;stroke:#000000;stroke-opacity:0.7;stroke-width:0.9594104554141858;"/>
    <path clip-path="url(#p0d2a172588)" d="M 118.072774 250.765318 
L 151.672488 219.549845 
" style="fill:none;stroke:#000000;stroke-opacity:0.7;stroke-width:0.9594104554141858;"/>
    <path clip-path="url(#p0d2a172588)" d="M 118.072774 250.765318 
L 137.938935 223.584815 
" style="fill:none;stroke:#000000;stroke-opacity:0.7;stroke-width:0.9594104554141858;"/>
    <path clip-path="url(#p0d2a172588)" d="M 249.872512 173.378655 
L 283.474648 142.16251 
" style="fill:none;stroke:#000000;stroke-opacity:0.7;stroke-width:0.9594104554141858;"/>
    <path clip-path="url(#p0d2a172588)" d="M 249.872512 173.378655 
L 269.742972 146.200075 
" style="fill:none;stroke:#000000;stroke-opacity:0.7;stroke-width:0.9594104554141858;"/>
    <path clip-path="url(#p0d2a172588)" d="M 249.872512 173.378655 
L 278.632388 132.472354 
" style="fill:none;stroke:#000000;stroke-opacity:0.7;stroke-width:0.9594104554141858;"/>
    <path clip-path="url(#p0d2a172588)" d="M 249.872512 173.378655 
L 265.000995 136.533952 
" style="fill:none;stroke:#000000;stroke-opacity:0.7;stroke-width:0.9594104554141858;"/>
    <path clip-path="url(#p0d2a172588)" d="M 299.297952 283.929108 
L 328.057827 243.023287 
" style="fill:none;stroke:#000000;stroke-opacity:0.7;stroke-width:0.9594104554141858;"/>
    <path clip-path="url(#p0d2a172588)" d="M 299.297952 283.929108 
L 314.426434 247.084404 
" style="fill:none;stroke:#000000;stroke-opacity:0.7;stroke-width:0.9594104554141858;"/>
    <path clip-path="url(#p0d2a172588)" d="M 299.297952 283.929108 
L 332.900087 252.715366 
" style="fill:none;stroke:#000000;stroke-opacity:0.7;stroke-width:0.9594104554141858;"/>
    <path clip-path="url(#p0d2a172588)" d="M 299.297952 283.929108 
L 319.168411 256.750527 
" style="fill:none;stroke:#000000;stroke-opacity:0.7;stroke-width:0.9594104554141858;"/>
    <path clip-path="url(#p0d2a172588)" d="M 85.122481 129.155783 
L 118.722467 97.94156 
" style="fill:none;stroke:#000000;stroke-opacity:0.7;stroke-width:0.9594104554141858;"/>
    <path clip-path="url(#p0d2a172588)" d="M 85.122481 129.155783 
L 104.988642 101.979125 
" style="fill:none;stroke:#000000;stroke-opacity:0.7;stroke-width:0.9594104554141858;"/>
    <path clip-path="url(#p0d2a172588)" d="M 85.122481 129.155783 
L 113.880923 88.251404 
" style="fill:none;stroke:#000000;stroke-opacity:0.7;stroke-width:0.9594104554141858;"/>
    <path clip-path="url(#p0d2a172588)" d="M 85.122481 129.155783 
L 100.248814 92.313002 
" style="fill:none;stroke:#000000;stroke-opacity:0.7;stroke-width:0.9594104554141858;"/>
    <path clip-path="url(#p0d2a172588)" d="M 381.673684 95.99007 
L 410.433559 55.085691 
" style="fill:none;stroke:#000000;stroke-opacity:0.7;stroke-width:0.9594104554141858;"/>
    <path clip-path="url(#p0d2a172588)" d="M 381.673684 95.99007 
L 396.802166 59.14729 
" style="fill:none;stroke:#000000;stroke-opacity:0.7;stroke-width:0.9594104554141858;"/>
    <path clip-path="url(#p0d2a172588)" d="M 381.673684 95.99007 
L 415.275819 64.775847 
" style="fill:none;stroke:#000000;stroke-opacity:0.7;stroke-width:0.9594104554141858;"/>
    <path clip-path="url(#p0d2a172588)" d="M 381.673684 95.99007 
L 401.544143 68.813412 
" style="fill:none;stroke:#000000;stroke-opacity:0.7;stroke-width:0.9594104554141858;"/>
    <path clip-path="url(#p0d2a172588)" d="M 198.231524 213.853322 
L 146.831073 209.857575 
" style="fill:none;stroke:#000000;stroke-opacity:0.7;stroke-width:0.9594104554141858;"/>
    <path clip-path="url(#p0d2a172588)" d="M 198.231524 213.853322 
L 133.199107 213.918548 
" style="fill:none;stroke:#000000;stroke-opacity:0.7;stroke-width:0.9594104554141858;"/>
    <path clip-path="url(#p0d2a172588)" d="M 198.231524 213.853322 
L 151.672488 219.549845 
" style="fill:none;stroke:#000000;stroke-opacity:0.7;stroke-width:0.9594104554141858;"/>
    <path clip-path="url(#p0d2a172588)" d="M 198.231524 213.853322 
L 137.938935 223.584815 
" style="fill:none;stroke:#000000;stroke-opacity:0.7;stroke-width:0.9594104554141858;"/>
    <path clip-path="url(#p0d2a172588)" d="M 330.034844 136.466659 
L 283.474648 142.16251 
" style="fill:none;stroke:#000000;stroke-opacity:0.7;stroke-width:0.9594104554141858;"/>
    <path clip-path="url(#p0d2a172588)" d="M 330.034844 136.466659 
L 269.742972 146.200075 
" style="fill:none;stroke:#000000;stroke-opacity:0.7;stroke-width:0.9594104554141858;"/>
    <path clip-path="url(#p0d2a172588)" d="M 330.034844 136.466659 
L 278.632388 132.472354 
" style="fill:none;stroke:#000000;stroke-opacity:0.7;stroke-width:0.9594104554141858;"/>
    <path clip-path="url(#p0d2a172588)" d="M 330.034844 136.466659 
L 265.000995 136.533952 
" style="fill:none;stroke:#000000;stroke-opacity:0.7;stroke-width:0.9594104554141858;"/>
    <path clip-path="url(#p0d2a172588)" d="M 379.460284 247.019034 
L 328.057827 243.023287 
" style="fill:none;stroke:#000000;stroke-opacity:0.7;stroke-width:0.9594104554141858;"/>
    <path clip-path="url(#p0d2a172588)" d="M 379.460284 247.019034 
L 314.426434 247.084404 
" style="fill:none;stroke:#000000;stroke-opacity:0.7;stroke-width:0.9594104554141858;"/>
    <path clip-path="url(#p0d2a172588)" d="M 379.460284 247.019034 
L 332.900087 252.715366 
" style="fill:none;stroke:#000000;stroke-opacity:0.7;stroke-width:0.9594104554141858;"/>
    <path clip-path="url(#p0d2a172588)" d="M 379.460284 247.019034 
L 319.168411 256.750527 
" style="fill:none;stroke:#000000;stroke-opacity:0.7;stroke-width:0.9594104554141858;"/>
    <path clip-path="url(#p0d2a172588)" d="M 165.281231 92.245709 
L 118.722467 97.94156 
" style="fill:none;stroke:#000000;stroke-opacity:0.7;stroke-width:0.9594104554141858;"/>
    <path clip-path="url(#p0d2a172588)" d="M 165.281231 92.245709 
L 104.988642 101.979125 
" style="fill:none;stroke:#000000;stroke-opacity:0.7;stroke-width:0.9594104554141858;"/>
    <path clip-path="url(#p0d2a172588)" d="M 165.281231 92.245709 
L 113.880923 88.251404 
" style="fill:none;stroke:#000000;stroke-opacity:0.7;stroke-width:0.9594104554141858;"/>
    <path clip-path="url(#p0d2a172588)" d="M 165.281231 92.245709 
L 100.248814 92.313002 
" style="fill:none;stroke:#000000;stroke-opacity:0.7;stroke-width:0.9594104554141858;"/>
    <path clip-path="url(#p0d2a172588)" d="M 461.836016 59.079997 
L 410.433559 55.085691 
" style="fill:none;stroke:#000000;stroke-opacity:0.7;stroke-width:0.9594104554141858;"/>
    <path clip-path="url(#p0d2a172588)" d="M 461.836016 59.079997 
L 396.802166 59.14729 
" style="fill:none;stroke:#000000;stroke-opacity:0.7;stroke-width:0.9594104554141858;"/>
    <path clip-path="url(#p0d2a172588)" d="M 461.836016 59.079997 
L 415.275819 64.775847 
" style="fill:none;stroke:#000000;stroke-opacity:0.7;stroke-width:0.9594104554141858;"/>
    <path clip-path="url(#p0d2a172588)" d="M 461.836016 59.079997 
L 401.544143 68.813412 
" style="fill:none;stroke:#000000;stroke-opacity:0.7;stroke-width:0.9594104554141858;"/>
    <path clip-path="url(#p0d2a172588)" d="M 91.454667 232.49774 
L 146.831073 209.857575 
" style="fill:none;stroke:#000000;stroke-opacity:0.7;stroke-width:0.9594104554141858;"/>
    <path clip-path="url(#p0d2a172588)" d="M 91.454667 232.49774 
L 133.199107 213.918548 
" style="fill:none;stroke:#000000;stroke-opacity:0.7;stroke-width:0.9594104554141858;"/>
    <path clip-path="url(#p0d2a172588)" d="M 91.454667 232.49774 
L 151.672488 219.549845 
" style="fill:none;stroke:#000000;stroke-opacity:0.7;stroke-width:0.9594104554141858;"/>
    <path clip-path="url(#p0d2a172588)" d="M 91.454667 232.49774 
L 137.938935 223.584815 
" style="fill:none;stroke:#000000;stroke-opacity:0.7;stroke-width:0.9594104554141858;"/>
    <path clip-path="url(#p0d2a172588)" d="M 223.254406 155.111558 
L 283.474648 142.16251 
" style="fill:none;stroke:#000000;stroke-opacity:0.7;stroke-width:0.9594104554141858;"/>
    <path clip-path="url(#p0d2a172588)" d="M 223.254406 155.111558 
L 269.742972 146.200075 
" style="fill:none;stroke:#000000;stroke-opacity:0.7;stroke-width:0.9594104554141858;"/>
    <path clip-path="url(#p0d2a172588)" d="M 223.254406 155.111558 
L 278.632388 132.472354 
" style="fill:none;stroke:#000000;stroke-opacity:0.7;stroke-width:0.9594104554141858;"/>
    <path clip-path="url(#p0d2a172588)" d="M 223.254406 155.111558 
L 265.000995 136.533952 
" style="fill:none;stroke:#000000;stroke-opacity:0.7;stroke-width:0.9594104554141858;"/>
    <path clip-path="url(#p0d2a172588)" d="M 272.679846 265.663933 
L 328.057827 243.023287 
" style="fill:none;stroke:#000000;stroke-opacity:0.7;stroke-width:0.9594104554141858;"/>
    <path clip-path="url(#p0d2a172588)" d="M 272.679846 265.663933 
L 314.426434 247.084404 
" style="fill:none;stroke:#000000;stroke-opacity:0.7;stroke-width:0.9594104554141858;"/>
    <path clip-path="url(#p0d2a172588)" d="M 272.679846 265.663933 
L 332.900087 252.715366 
" style="fill:none;stroke:#000000;stroke-opacity:0.7;stroke-width:0.9594104554141858;"/>
    <path clip-path="url(#p0d2a172588)" d="M 272.679846 265.663933 
L 319.168411 256.750527 
" style="fill:none;stroke:#000000;stroke-opacity:0.7;stroke-width:0.9594104554141858;"/>
    <path clip-path="url(#p0d2a172588)" d="M 58.502942 110.890608 
L 118.722467 97.94156 
" style="fill:none;stroke:#000000;stroke-opacity:0.7;stroke-width:0.9594104554141858;"/>
    <path clip-path="url(#p0d2a172588)" d="M 58.502942 110.890608 
L 104.988642 101.979125 
" style="fill:none;stroke:#000000;stroke-opacity:0.7;stroke-width:0.9594104554141858;"/>
    <path clip-path="url(#p0d2a172588)" d="M 58.502942 110.890608 
L 113.880923 88.251404 
" style="fill:none;stroke:#000000;stroke-opacity:0.7;stroke-width:0.9594104554141858;"/>
    <path clip-path="url(#p0d2a172588)" d="M 58.502942 110.890608 
L 100.248814 92.313002 
" style="fill:none;stroke:#000000;stroke-opacity:0.7;stroke-width:0.9594104554141858;"/>
    <path clip-path="url(#p0d2a172588)" d="M 355.055578 77.724895 
L 410.433559 55.085691 
" style="fill:none;stroke:#000000;stroke-opacity:0.7;stroke-width:0.9594104554141858;"/>
    <path clip-path="url(#p0d2a172588)" d="M 355.055578 77.724895 
L 396.802166 59.14729 
" style="fill:none;stroke:#000000;stroke-opacity:0.7;stroke-width:0.9594104554141858;"/>
    <path clip-path="url(#p0d2a172588)" d="M 355.055578 77.724895 
L 415.275819 64.775847 
" style="fill:none;stroke:#000000;stroke-opacity:0.7;stroke-width:0.9594104554141858;"/>
    <path clip-path="url(#p0d2a172588)" d="M 355.055578 77.724895 
L 401.544143 68.813412 
" style="fill:none;stroke:#000000;stroke-opacity:0.7;stroke-width:0.9594104554141858;"/>
    <path clip-path="url(#p0d2a172588)" d="M 188.086415 238.489678 
L 146.831073 209.857575 
" style="fill:none;stroke:#000000;stroke-opacity:0.7;stroke-width:0.9594104554141858;"/>
    <path clip-path="url(#p0d2a172588)" d="M 188.086415 238.489678 
L 133.199107 213.918548 
" style="fill:none;stroke:#000000;stroke-opacity:0.7;stroke-width:0.9594104554141858;"/>
    <path clip-path="url(#p0d2a172588)" d="M 188.086415 238.489678 
L 151.672488 219.549845 
" style="fill:none;stroke:#000000;stroke-opacity:0.7;stroke-width:0.9594104554141858;"/>
    <path clip-path="url(#p0d2a172588)" d="M 188.086415 238.489678 
L 137.938935 223.584815 
" style="fill:none;stroke:#000000;stroke-opacity:0.7;stroke-width:0.9594104554141858;"/>
    <path clip-path="url(#p0d2a172588)" d="M 319.884722 161.105419 
L 283.474648 142.16251 
" style="fill:none;stroke:#000000;stroke-opacity:0.7;stroke-width:0.9594104554141858;"/>
    <path clip-path="url(#p0d2a172588)" d="M 319.884722 161.105419 
L 269.742972 146.200075 
" style="fill:none;stroke:#000000;stroke-opacity:0.7;stroke-width:0.9594104554141858;"/>
    <path clip-path="url(#p0d2a172588)" d="M 319.884722 161.105419 
L 278.632388 132.472354 
" style="fill:none;stroke:#000000;stroke-opacity:0.7;stroke-width:0.9594104554141858;"/>
    <path clip-path="url(#p0d2a172588)" d="M 319.884722 161.105419 
L 265.000995 136.533952 
" style="fill:none;stroke:#000000;stroke-opacity:0.7;stroke-width:0.9594104554141858;"/>
    <path clip-path="url(#p0d2a172588)" d="M 369.310161 271.657794 
L 328.057827 243.023287 
" style="fill:none;stroke:#000000;stroke-opacity:0.7;stroke-width:0.9594104554141858;"/>
    <path clip-path="url(#p0d2a172588)" d="M 369.310161 271.657794 
L 314.426434 247.084404 
" style="fill:none;stroke:#000000;stroke-opacity:0.7;stroke-width:0.9594104554141858;"/>
    <path clip-path="url(#p0d2a172588)" d="M 369.310161 271.657794 
L 332.900087 252.715366 
" style="fill:none;stroke:#000000;stroke-opacity:0.7;stroke-width:0.9594104554141858;"/>
    <path clip-path="url(#p0d2a172588)" d="M 369.310161 271.657794 
L 319.168411 256.750527 
" style="fill:none;stroke:#000000;stroke-opacity:0.7;stroke-width:0.9594104554141858;"/>
    <path clip-path="url(#p0d2a172588)" d="M 155.135979 116.884469 
L 118.722467 97.94156 
" style="fill:none;stroke:#000000;stroke-opacity:0.7;stroke-width:0.9594104554141858;"/>
    <path clip-path="url(#p0d2a172588)" d="M 155.135979 116.884469 
L 104.988642 101.979125 
" style="fill:none;stroke:#000000;stroke-opacity:0.7;stroke-width:0.9594104554141858;"/>
    <path clip-path="url(#p0d2a172588)" d="M 155.135979 116.884469 
L 113.880923 88.251404 
" style="fill:none;stroke:#000000;stroke-opacity:0.7;stroke-width:0.9594104554141858;"/>
    <path clip-path="url(#p0d2a172588)" d="M 155.135979 116.884469 
L 100.248814 92.313002 
" style="fill:none;stroke:#000000;stroke-opacity:0.7;stroke-width:0.9594104554141858;"/>
    <path clip-path="url(#p0d2a172588)" d="M 451.685893 83.718757 
L 410.433559 55.085691 
" style="fill:none;stroke:#000000;stroke-opacity:0.7;stroke-width:0.9594104554141858;"/>
    <path clip-path="url(#p0d2a172588)" d="M 451.685893 83.718757 
L 396.802166 59.14729 
" style="fill:none;stroke:#000000;stroke-opacity:0.7;stroke-width:0.9594104554141858;"/>
    <path clip-path="url(#p0d2a172588)" d="M 451.685893 83.718757 
L 415.275819 64.775847 
" style="fill:none;stroke:#000000;stroke-opacity:0.7;stroke-width:0.9594104554141858;"/>
    <path clip-path="url(#p0d2a172588)" d="M 451.685893 83.718757 
L 401.544143 68.813412 
" style="fill:none;stroke:#000000;stroke-opacity:0.7;stroke-width:0.9594104554141858;"/>
    <path clip-path="url(#p0d2a172588)" d="M 156.877904 253.134984 
L 146.831073 209.857575 
" style="fill:none;stroke:#000000;stroke-opacity:0.7;stroke-width:0.9594104554141858;"/>
    <path clip-path="url(#p0d2a172588)" d="M 156.877904 253.134984 
L 133.199107 213.918548 
" style="fill:none;stroke:#000000;stroke-opacity:0.7;stroke-width:0.9594104554141858;"/>
    <path clip-path="url(#p0d2a172588)" d="M 156.877904 253.134984 
L 151.672488 219.549845 
" style="fill:none;stroke:#000000;stroke-opacity:0.7;stroke-width:0.9594104554141858;"/>
    <path clip-path="url(#p0d2a172588)" d="M 156.877904 253.134984 
L 137.938935 223.584815 
" style="fill:none;stroke:#000000;stroke-opacity:0.7;stroke-width:0.9594104554141858;"/>
    <path clip-path="url(#p0d2a172588)" d="M 288.682227 175.748322 
L 283.474648 142.16251 
" style="fill:none;stroke:#000000;stroke-opacity:0.7;stroke-width:0.9594104554141858;"/>
    <path clip-path="url(#p0d2a172588)" d="M 288.682227 175.748322 
L 269.742972 146.200075 
" style="fill:none;stroke:#000000;stroke-opacity:0.7;stroke-width:0.9594104554141858;"/>
    <path clip-path="url(#p0d2a172588)" d="M 288.682227 175.748322 
L 278.632388 132.472354 
" style="fill:none;stroke:#000000;stroke-opacity:0.7;stroke-width:0.9594104554141858;"/>
    <path clip-path="url(#p0d2a172588)" d="M 288.682227 175.748322 
L 265.000995 136.533952 
" style="fill:none;stroke:#000000;stroke-opacity:0.7;stroke-width:0.9594104554141858;"/>
    <path clip-path="url(#p0d2a172588)" d="M 338.107666 286.298774 
L 328.057827 243.023287 
" style="fill:none;stroke:#000000;stroke-opacity:0.7;stroke-width:0.9594104554141858;"/>
    <path clip-path="url(#p0d2a172588)" d="M 338.107666 286.298774 
L 314.426434 247.084404 
" style="fill:none;stroke:#000000;stroke-opacity:0.7;stroke-width:0.9594104554141858;"/>
    <path clip-path="url(#p0d2a172588)" d="M 338.107666 286.298774 
L 332.900087 252.715366 
" style="fill:none;stroke:#000000;stroke-opacity:0.7;stroke-width:0.9594104554141858;"/>
    <path clip-path="url(#p0d2a172588)" d="M 338.107666 286.298774 
L 319.168411 256.750527 
" style="fill:none;stroke:#000000;stroke-opacity:0.7;stroke-width:0.9594104554141858;"/>
    <path clip-path="url(#p0d2a172588)" d="M 123.927897 131.525449 
L 118.722467 97.94156 
" style="fill:none;stroke:#000000;stroke-opacity:0.7;stroke-width:0.9594104554141858;"/>
    <path clip-path="url(#p0d2a172588)" d="M 123.927897 131.525449 
L 104.988642 101.979125 
" style="fill:none;stroke:#000000;stroke-opacity:0.7;stroke-width:0.9594104554141858;"/>
    <path clip-path="url(#p0d2a172588)" d="M 123.927897 131.525449 
L 113.880923 88.251404 
" style="fill:none;stroke:#000000;stroke-opacity:0.7;stroke-width:0.9594104554141858;"/>
    <path clip-path="url(#p0d2a172588)" d="M 123.927897 131.525449 
L 100.248814 92.313002 
" style="fill:none;stroke:#000000;stroke-opacity:0.7;stroke-width:0.9594104554141858;"/>
    <path clip-path="url(#p0d2a172588)" d="M 420.483398 98.359736 
L 410.433559 55.085691 
" style="fill:none;stroke:#000000;stroke-opacity:0.7;stroke-width:0.9594104554141858;"/>
    <path clip-path="url(#p0d2a172588)" d="M 420.483398 98.359736 
L 396.802166 59.14729 
" style="fill:none;stroke:#000000;stroke-opacity:0.7;stroke-width:0.9594104554141858;"/>
    <path clip-path="url(#p0d2a172588)" d="M 420.483398 98.359736 
L 415.275819 64.775847 
" style="fill:none;stroke:#000000;stroke-opacity:0.7;stroke-width:0.9594104554141858;"/>
    <path clip-path="url(#p0d2a172588)" d="M 420.483398 98.359736 
L 401.544143 68.813412 
" style="fill:none;stroke:#000000;stroke-opacity:0.7;stroke-width:0.9594104554141858;"/>
    <path clip-path="url(#p0d2a172588)" d="M 108.867465 186.582454 
L 146.831073 209.857575 
" style="fill:none;stroke:#000000;stroke-opacity:0.7;stroke-width:0.9594104554141858;"/>
    <path clip-path="url(#p0d2a172588)" d="M 108.867465 186.582454 
L 133.199107 213.918548 
" style="fill:none;stroke:#000000;stroke-opacity:0.7;stroke-width:0.9594104554141858;"/>
    <path clip-path="url(#p0d2a172588)" d="M 108.867465 186.582454 
L 151.672488 219.549845 
" style="fill:none;stroke:#000000;stroke-opacity:0.7;stroke-width:0.9594104554141858;"/>
    <path clip-path="url(#p0d2a172588)" d="M 108.867465 186.582454 
L 137.938935 223.584815 
" style="fill:none;stroke:#000000;stroke-opacity:0.7;stroke-width:0.9594104554141858;"/>
    <path clip-path="url(#p0d2a172588)" d="M 240.66792 109.193869 
L 283.474648 142.16251 
" style="fill:none;stroke:#000000;stroke-opacity:0.7;stroke-width:0.9594104554141858;"/>
    <path clip-path="url(#p0d2a172588)" d="M 240.66792 109.193869 
L 269.742972 146.200075 
" style="fill:none;stroke:#000000;stroke-opacity:0.7;stroke-width:0.9594104554141858;"/>
    <path clip-path="url(#p0d2a172588)" d="M 240.66792 109.193869 
L 278.632388 132.472354 
" style="fill:none;stroke:#000000;stroke-opacity:0.7;stroke-width:0.9594104554141858;"/>
    <path clip-path="url(#p0d2a172588)" d="M 240.66792 109.193869 
L 265.000995 136.533952 
" style="fill:none;stroke:#000000;stroke-opacity:0.7;stroke-width:0.9594104554141858;"/>
    <path clip-path="url(#p0d2a172588)" d="M 290.093359 219.748071 
L 328.057827 243.023287 
" style="fill:none;stroke:#000000;stroke-opacity:0.7;stroke-width:0.9594104554141858;"/>
    <path clip-path="url(#p0d2a172588)" d="M 290.093359 219.748071 
L 314.426434 247.084404 
" style="fill:none;stroke:#000000;stroke-opacity:0.7;stroke-width:0.9594104554141858;"/>
    <path clip-path="url(#p0d2a172588)" d="M 290.093359 219.748071 
L 332.900087 252.715366 
" style="fill:none;stroke:#000000;stroke-opacity:0.7;stroke-width:0.9594104554141858;"/>
    <path clip-path="url(#p0d2a172588)" d="M 290.093359 219.748071 
L 319.168411 256.750527 
" style="fill:none;stroke:#000000;stroke-opacity:0.7;stroke-width:0.9594104554141858;"/>
    <path clip-path="url(#p0d2a172588)" d="M 75.916455 64.972919 
L 118.722467 97.94156 
" style="fill:none;stroke:#000000;stroke-opacity:0.7;stroke-width:0.9594104554141858;"/>
    <path clip-path="url(#p0d2a172588)" d="M 75.916455 64.972919 
L 104.988642 101.979125 
" style="fill:none;stroke:#000000;stroke-opacity:0.7;stroke-width:0.9594104554141858;"/>
    <path clip-path="url(#p0d2a172588)" d="M 75.916455 64.972919 
L 113.880923 88.251404 
" style="fill:none;stroke:#000000;stroke-opacity:0.7;stroke-width:0.9594104554141858;"/>
    <path clip-path="url(#p0d2a172588)" d="M 75.916455 64.972919 
L 100.248814 92.313002 
" style="fill:none;stroke:#000000;stroke-opacity:0.7;stroke-width:0.9594104554141858;"/>
    <path clip-path="url(#p0d2a172588)" d="M 372.469091 31.807207 
L 410.433559 55.085691 
" style="fill:none;stroke:#000000;stroke-opacity:0.7;stroke-width:0.9594104554141858;"/>
    <path clip-path="url(#p0d2a172588)" d="M 372.469091 31.807207 
L 396.802166 59.14729 
" style="fill:none;stroke:#000000;stroke-opacity:0.7;stroke-width:0.9594104554141858;"/>
    <path clip-path="url(#p0d2a172588)" d="M 372.469091 31.807207 
L 415.275819 64.775847 
" style="fill:none;stroke:#000000;stroke-opacity:0.7;stroke-width:0.9594104554141858;"/>
    <path clip-path="url(#p0d2a172588)" d="M 372.469091 31.807207 
L 401.544143 68.813412 
" style="fill:none;stroke:#000000;stroke-opacity:0.7;stroke-width:0.9594104554141858;"/>
    <path clip-path="url(#p0d2a172588)" d="M 182.323696 190.243661 
L 146.831073 209.857575 
" style="fill:none;stroke:#000000;stroke-opacity:0.7;stroke-width:0.9594104554141858;"/>
    <path clip-path="url(#p0d2a172588)" d="M 182.323696 190.243661 
L 133.199107 213.918548 
" style="fill:none;stroke:#000000;stroke-opacity:0.7;stroke-width:0.9594104554141858;"/>
    <path clip-path="url(#p0d2a172588)" d="M 182.323696 190.243661 
L 151.672488 219.549845 
" style="fill:none;stroke:#000000;stroke-opacity:0.7;stroke-width:0.9594104554141858;"/>
    <path clip-path="url(#p0d2a172588)" d="M 182.323696 190.243661 
L 137.938935 223.584815 
" style="fill:none;stroke:#000000;stroke-opacity:0.7;stroke-width:0.9594104554141858;"/>
    <path clip-path="url(#p0d2a172588)" d="M 314.125584 112.856517 
L 283.474648 142.16251 
" style="fill:none;stroke:#000000;stroke-opacity:0.7;stroke-width:0.9594104554141858;"/>
    <path clip-path="url(#p0d2a172588)" d="M 314.125584 112.856517 
L 269.742972 146.200075 
" style="fill:none;stroke:#000000;stroke-opacity:0.7;stroke-width:0.9594104554141858;"/>
    <path clip-path="url(#p0d2a172588)" d="M 314.125584 112.856517 
L 278.632388 132.472354 
" style="fill:none;stroke:#000000;stroke-opacity:0.7;stroke-width:0.9594104554141858;"/>
    <path clip-path="url(#p0d2a172588)" d="M 314.125584 112.856517 
L 265.000995 136.533952 
" style="fill:none;stroke:#000000;stroke-opacity:0.7;stroke-width:0.9594104554141858;"/>
    <path clip-path="url(#p0d2a172588)" d="M 363.551023 223.409373 
L 328.057827 243.023287 
" style="fill:none;stroke:#000000;stroke-opacity:0.7;stroke-width:0.9594104554141858;"/>
    <path clip-path="url(#p0d2a172588)" d="M 363.551023 223.409373 
L 314.426434 247.084404 
" style="fill:none;stroke:#000000;stroke-opacity:0.7;stroke-width:0.9594104554141858;"/>
    <path clip-path="url(#p0d2a172588)" d="M 363.551023 223.409373 
L 332.900087 252.715366 
" style="fill:none;stroke:#000000;stroke-opacity:0.7;stroke-width:0.9594104554141858;"/>
    <path clip-path="url(#p0d2a172588)" d="M 363.551023 223.409373 
L 319.168411 256.750527 
" style="fill:none;stroke:#000000;stroke-opacity:0.7;stroke-width:0.9594104554141858;"/>
    <path clip-path="url(#p0d2a172588)" d="M 149.373546 68.635567 
L 118.722467 97.94156 
" style="fill:none;stroke:#000000;stroke-opacity:0.7;stroke-width:0.9594104554141858;"/>
    <path clip-path="url(#p0d2a172588)" d="M 149.373546 68.635567 
L 104.988642 101.979125 
" style="fill:none;stroke:#000000;stroke-opacity:0.7;stroke-width:0.9594104554141858;"/>
    <path clip-path="url(#p0d2a172588)" d="M 149.373546 68.635567 
L 113.880923 88.251404 
" style="fill:none;stroke:#000000;stroke-opacity:0.7;stroke-width:0.9594104554141858;"/>
    <path clip-path="url(#p0d2a172588)" d="M 149.373546 68.635567 
L 100.248814 92.313002 
" style="fill:none;stroke:#000000;stroke-opacity:0.7;stroke-width:0.9594104554141858;"/>
    <path clip-path="url(#p0d2a172588)" d="M 445.926755 35.469855 
L 410.433559 55.085691 
" style="fill:none;stroke:#000000;stroke-opacity:0.7;stroke-width:0.9594104554141858;"/>
    <path clip-path="url(#p0d2a172588)" d="M 445.926755 35.469855 
L 396.802166 59.14729 
" style="fill:none;stroke:#000000;stroke-opacity:0.7;stroke-width:0.9594104554141858;"/>
    <path clip-path="url(#p0d2a172588)" d="M 445.926755 35.469855 
L 415.275819 64.775847 
" style="fill:none;stroke:#000000;stroke-opacity:0.7;stroke-width:0.9594104554141858;"/>
    <path clip-path="url(#p0d2a172588)" d="M 445.926755 35.469855 
L 401.544143 68.813412 
" style="fill:none;stroke:#000000;stroke-opacity:0.7;stroke-width:0.9594104554141858;"/>
   </g>
   <g id="PathCollection_1">
    <path clip-path="url(#p0d2a172588)" d="M 88.054341 214.875953 
C 89.99111 214.875953 91.848815 214.106466 93.218318 212.736963 
C 94.587821 211.367461 95.357308 209.509755 95.357308 207.572986 
C 95.357308 205.636216 94.587821 203.778511 93.218318 202.409008 
C 91.848815 201.039505 89.99111 200.270018 88.054341 200.270018 
C 86.117571 200.270018 84.259866 201.039505 82.890363 202.409008 
C 81.52086 203.778511 80.751373 205.636216 80.751373 207.572986 
C 80.751373 209.509755 81.52086 211.367461 82.890363 212.736963 
C 84.259866 214.106466 86.117571 214.875953 88.054341 214.875953 
z
" style="fill:#f0f921;fill-opacity:0.9;stroke:#000000;stroke-opacity:0.9;"/>
    <path clip-path="url(#p0d2a172588)" d="M 219.855512 137.487368 
C 221.792282 137.487368 223.649987 136.717881 225.01949 135.348378 
C 226.388993 133.978875 227.158479 132.12117 227.158479 130.1844 
C 227.158479 128.247631 226.388993 126.389926 225.01949 125.020423 
C 223.649987 123.65092 221.792282 122.881433 219.855512 122.881433 
C 217.918742 122.881433 216.061037 123.65092 214.691534 125.020423 
C 213.322031 126.389926 212.552545 128.247631 212.552545 130.1844 
C 212.552545 132.12117 213.322031 133.978875 214.691534 135.348378 
C 216.061037 136.717881 217.918742 137.487368 219.855512 137.487368 
z
" style="fill:#f0f921;fill-opacity:0.9;stroke:#000000;stroke-opacity:0.9;"/>
    <path clip-path="url(#p0d2a172588)" d="M 269.284533 248.041666 
C 271.221302 248.041666 273.079008 247.272179 274.448511 245.902676 
C 275.818014 244.533173 276.5875 242.675468 276.5875 240.738698 
C 276.5875 238.801929 275.818014 236.944223 274.448511 235.57472 
C 273.079008 234.205217 271.221302 233.435731 269.284533 233.435731 
C 267.347763 233.435731 265.490058 234.205217 264.120555 235.57472 
C 262.751052 236.944223 261.981565 238.801929 261.981565 240.738698 
C 261.981565 242.675468 262.751052 244.533173 264.120555 245.902676 
C 265.490058 247.272179 267.347763 248.041666 269.284533 248.041666 
z
" style="fill:#f0f921;fill-opacity:0.9;stroke:#000000;stroke-opacity:0.9;"/>
    <path clip-path="url(#p0d2a172588)" d="M 55.107629 93.266418 
C 57.044399 93.266418 58.902104 92.496931 60.271607 91.127428 
C 61.64111 89.757925 62.410597 87.90022 62.410597 85.96345 
C 62.410597 84.026681 61.64111 82.168976 60.271607 80.799473 
C 58.902104 79.42997 57.044399 78.660483 55.107629 78.660483 
C 53.17086 78.660483 51.313154 79.42997 49.943651 80.799473 
C 48.574148 82.168976 47.804662 84.026681 47.804662 85.96345 
C 47.804662 87.90022 48.574148 89.757925 49.943651 91.127428 
C 51.313154 92.496931 53.17086 93.266418 55.107629 93.266418 
z
" style="fill:#f0f921;fill-opacity:0.9;stroke:#000000;stroke-opacity:0.9;"/>
    <path clip-path="url(#p0d2a172588)" d="M 351.660265 60.100705 
C 353.597035 60.100705 355.45474 59.331219 356.824243 57.961716 
C 358.193746 56.592213 358.963232 54.734508 358.963232 52.797738 
C 358.963232 50.860968 358.193746 49.003263 356.824243 47.63376 
C 355.45474 46.264257 353.597035 45.494771 351.660265 45.494771 
C 349.723495 45.494771 347.86579 46.264257 346.496287 47.63376 
C 345.126784 49.003263 344.357297 50.860968 344.357297 52.797738 
C 344.357297 54.734508 345.126784 56.592213 346.496287 57.961716 
C 347.86579 59.331219 349.723495 60.100705 351.660265 60.100705 
z
" style="fill:#f0f921;fill-opacity:0.9;stroke:#000000;stroke-opacity:0.9;"/>
    <path clip-path="url(#p0d2a172588)" d="M 145.828668 186.399103 
C 147.765437 186.399103 149.623143 185.629617 150.992645 184.260114 
C 152.362148 182.890611 153.131635 181.032905 153.131635 179.096136 
C 153.131635 177.159366 152.362148 175.301661 150.992645 173.932158 
C 149.623143 172.562655 147.765437 171.793168 145.828668 171.793168 
C 143.891898 171.793168 142.034193 172.562655 140.66469 173.932158 
C 139.295187 175.301661 138.5257 177.159366 138.5257 179.096136 
C 138.5257 181.032905 139.295187 182.890611 140.66469 184.260114 
C 142.034193 185.629617 143.891898 186.399103 145.828668 186.399103 
z
" style="fill:#f0f921;fill-opacity:0.9;stroke:#000000;stroke-opacity:0.9;"/>
    <path clip-path="url(#p0d2a172588)" d="M 277.629553 109.012921 
C 279.566322 109.012921 281.424027 108.243435 282.79353 106.873932 
C 284.163033 105.504429 284.93252 103.646724 284.93252 101.709954 
C 284.93252 99.773184 284.163033 97.915479 282.79353 96.545976 
C 281.424027 95.176473 279.566322 94.406987 277.629553 94.406987 
C 275.692783 94.406987 273.835078 95.176473 272.465575 96.545976 
C 271.096072 97.915479 270.326585 99.773184 270.326585 101.709954 
C 270.326585 103.646724 271.096072 105.504429 272.465575 106.873932 
C 273.835078 108.243435 275.692783 109.012921 277.629553 109.012921 
z
" style="fill:#f0f921;fill-opacity:0.9;stroke:#000000;stroke-opacity:0.9;"/>
    <path clip-path="url(#p0d2a172588)" d="M 327.054992 219.564816 
C 328.991761 219.564816 330.849467 218.795329 332.21897 217.425826 
C 333.588473 216.056323 334.357959 214.198618 334.357959 212.261848 
C 334.357959 210.325079 333.588473 208.467373 332.21897 207.097871 
C 330.849467 205.728368 328.991761 204.958881 327.054992 204.958881 
C 325.118222 204.958881 323.260517 205.728368 321.891014 207.097871 
C 320.521511 208.467373 319.752024 210.325079 319.752024 212.261848 
C 319.752024 214.198618 320.521511 216.056323 321.891014 217.425826 
C 323.260517 218.795329 325.118222 219.564816 327.054992 219.564816 
z
" style="fill:#f0f921;fill-opacity:0.9;stroke:#000000;stroke-opacity:0.9;"/>
    <path clip-path="url(#p0d2a172588)" d="M 112.878088 64.791971 
C 114.814858 64.791971 116.672563 64.022485 118.042066 62.652982 
C 119.411569 61.283479 120.181056 59.425774 120.181056 57.489004 
C 120.181056 55.552234 119.411569 53.694529 118.042066 52.325026 
C 116.672563 50.955523 114.814858 50.186037 112.878088 50.186037 
C 110.941319 50.186037 109.083613 50.955523 107.714111 52.325026 
C 106.344608 53.694529 105.575121 55.552234 105.575121 57.489004 
C 105.575121 59.425774 106.344608 61.283479 107.714111 62.652982 
C 109.083613 64.022485 110.941319 64.791971 112.878088 64.791971 
z
" style="fill:#f0f921;fill-opacity:0.9;stroke:#000000;stroke-opacity:0.9;"/>
    <path clip-path="url(#p0d2a172588)" d="M 409.430724 31.626259 
C 411.367494 31.626259 413.225199 30.856772 414.594702 29.487269 
C 415.964205 28.117766 416.733691 26.260061 416.733691 24.323291 
C 416.733691 22.386522 415.964205 20.528817 414.594702 19.159314 
C 413.225199 17.789811 411.367494 17.020324 409.430724 17.020324 
C 407.493954 17.020324 405.636249 17.789811 404.266746 19.159314 
C 402.897243 20.528817 402.127757 22.386522 402.127757 24.323291 
C 402.127757 26.260061 402.897243 28.117766 404.266746 29.487269 
C 405.636249 30.856772 407.493954 31.626259 409.430724 31.626259 
z
" style="fill:#f0f921;fill-opacity:0.9;stroke:#000000;stroke-opacity:0.9;"/>
    <path clip-path="url(#p0d2a172588)" d="M 118.072774 258.068285 
C 120.009543 258.068285 121.867248 257.298799 123.236751 255.929296 
C 124.606254 254.559793 125.375741 252.702088 125.375741 250.765318 
C 125.375741 248.828548 124.606254 246.970843 123.236751 245.60134 
C 121.867248 244.231837 120.009543 243.46235 118.072774 243.46235 
C 116.136004 243.46235 114.278299 244.231837 112.908796 245.60134 
C 111.539293 246.970843 110.769806 248.828548 110.769806 250.765318 
C 110.769806 252.702088 111.539293 254.559793 112.908796 255.929296 
C 114.278299 257.298799 116.136004 258.068285 118.072774 258.068285 
z
" style="fill:#f0f921;fill-opacity:0.9;stroke:#000000;stroke-opacity:0.9;"/>
    <path clip-path="url(#p0d2a172588)" d="M 249.872512 180.681623 
C 251.809282 180.681623 253.666987 179.912136 255.03649 178.542633 
C 256.405993 177.17313 257.17548 175.315425 257.17548 173.378655 
C 257.17548 171.441886 256.405993 169.584181 255.03649 168.214678 
C 253.666987 166.845175 251.809282 166.075688 249.872512 166.075688 
C 247.935743 166.075688 246.078038 166.845175 244.708535 168.214678 
C 243.339032 169.584181 242.569545 171.441886 242.569545 173.378655 
C 242.569545 175.315425 243.339032 177.17313 244.708535 178.542633 
C 246.078038 179.912136 247.935743 180.681623 249.872512 180.681623 
z
" style="fill:#f0f921;fill-opacity:0.9;stroke:#000000;stroke-opacity:0.9;"/>
    <path clip-path="url(#p0d2a172588)" d="M 299.297952 291.232075 
C 301.234721 291.232075 303.092427 290.462588 304.46193 289.093086 
C 305.831432 287.723583 306.600919 285.865877 306.600919 283.929108 
C 306.600919 281.992338 305.831432 280.134633 304.46193 278.76513 
C 303.092427 277.395627 301.234721 276.62614 299.297952 276.62614 
C 297.361182 276.62614 295.503477 277.395627 294.133974 278.76513 
C 292.764471 280.134633 291.994984 281.992338 291.994984 283.929108 
C 291.994984 285.865877 292.764471 287.723583 294.133974 289.093086 
C 295.503477 290.462588 297.361182 291.232075 299.297952 291.232075 
z
" style="fill:#f0f921;fill-opacity:0.9;stroke:#000000;stroke-opacity:0.9;"/>
    <path clip-path="url(#p0d2a172588)" d="M 85.122481 136.45875 
C 87.05925 136.45875 88.916956 135.689263 90.286459 134.319761 
C 91.655961 132.950258 92.425448 131.092552 92.425448 129.155783 
C 92.425448 127.219013 91.655961 125.361308 90.286459 123.991805 
C 88.916956 122.622302 87.05925 121.852815 85.122481 121.852815 
C 83.185711 121.852815 81.328006 122.622302 79.958503 123.991805 
C 78.589 125.361308 77.819513 127.219013 77.819513 129.155783 
C 77.819513 131.092552 78.589 132.950258 79.958503 134.319761 
C 81.328006 135.689263 83.185711 136.45875 85.122481 136.45875 
z
" style="fill:#f0f921;fill-opacity:0.9;stroke:#000000;stroke-opacity:0.9;"/>
    <path clip-path="url(#p0d2a172588)" d="M 381.673684 103.293038 
C 383.610453 103.293038 385.468159 102.523551 386.837662 101.154048 
C 388.207165 99.784545 388.976651 97.92684 388.976651 95.99007 
C 388.976651 94.053301 388.207165 92.195595 386.837662 90.826092 
C 385.468159 89.45659 383.610453 88.687103 381.673684 88.687103 
C 379.736914 88.687103 377.879209 89.45659 376.509706 90.826092 
C 375.140203 92.195595 374.370716 94.053301 374.370716 95.99007 
C 374.370716 97.92684 375.140203 99.784545 376.509706 101.154048 
C 377.879209 102.523551 379.736914 103.293038 381.673684 103.293038 
z
" style="fill:#f0f921;fill-opacity:0.9;stroke:#000000;stroke-opacity:0.9;"/>
    <path clip-path="url(#p0d2a172588)" d="M 198.231524 221.156289 
C 200.168294 221.156289 202.025999 220.386803 203.395502 219.0173 
C 204.765005 217.647797 205.534492 215.790091 205.534492 213.853322 
C 205.534492 211.916552 204.765005 210.058847 203.395502 208.689344 
C 202.025999 207.319841 200.168294 206.550354 198.231524 206.550354 
C 196.294755 206.550354 194.437049 207.319841 193.067546 208.689344 
C 191.698043 210.058847 190.928557 211.916552 190.928557 213.853322 
C 190.928557 215.790091 191.698043 217.647797 193.067546 219.0173 
C 194.437049 220.386803 196.294755 221.156289 198.231524 221.156289 
z
" style="fill:#f0f921;fill-opacity:0.9;stroke:#000000;stroke-opacity:0.9;"/>
    <path clip-path="url(#p0d2a172588)" d="M 330.034844 143.769627 
C 331.971614 143.769627 333.829319 143.00014 335.198822 141.630637 
C 336.568325 140.261134 337.337812 138.403429 337.337812 136.466659 
C 337.337812 134.52989 336.568325 132.672184 335.198822 131.302682 
C 333.829319 129.933179 331.971614 129.163692 330.034844 129.163692 
C 328.098075 129.163692 326.24037 129.933179 324.870867 131.302682 
C 323.501364 132.672184 322.731877 134.52989 322.731877 136.466659 
C 322.731877 138.403429 323.501364 140.261134 324.870867 141.630637 
C 326.24037 143.00014 328.098075 143.769627 330.034844 143.769627 
z
" style="fill:#f0f921;fill-opacity:0.9;stroke:#000000;stroke-opacity:0.9;"/>
    <path clip-path="url(#p0d2a172588)" d="M 379.460284 254.322002 
C 381.397053 254.322002 383.254759 253.552515 384.624262 252.183012 
C 385.993764 250.813509 386.763251 248.955804 386.763251 247.019034 
C 386.763251 245.082265 385.993764 243.224559 384.624262 241.855057 
C 383.254759 240.485554 381.397053 239.716067 379.460284 239.716067 
C 377.523514 239.716067 375.665809 240.485554 374.296306 241.855057 
C 372.926803 243.224559 372.157316 245.082265 372.157316 247.019034 
C 372.157316 248.955804 372.926803 250.813509 374.296306 252.183012 
C 375.665809 253.552515 377.523514 254.322002 379.460284 254.322002 
z
" style="fill:#f0f921;fill-opacity:0.9;stroke:#000000;stroke-opacity:0.9;"/>
    <path clip-path="url(#p0d2a172588)" d="M 165.281231 99.548677 
C 167.218001 99.548677 169.075706 98.77919 170.445209 97.409687 
C 171.814712 96.040184 172.584199 94.182479 172.584199 92.245709 
C 172.584199 90.30894 171.814712 88.451234 170.445209 87.081732 
C 169.075706 85.712229 167.218001 84.942742 165.281231 84.942742 
C 163.344462 84.942742 161.486756 85.712229 160.117253 87.081732 
C 158.747751 88.451234 157.978264 90.30894 157.978264 92.245709 
C 157.978264 94.182479 158.747751 96.040184 160.117253 97.409687 
C 161.486756 98.77919 163.344462 99.548677 165.281231 99.548677 
z
" style="fill:#f0f921;fill-opacity:0.9;stroke:#000000;stroke-opacity:0.9;"/>
    <path clip-path="url(#p0d2a172588)" d="M 461.836016 66.382964 
C 463.772785 66.382964 465.630491 65.613478 466.999994 64.243975 
C 468.369497 62.874472 469.138983 61.016766 469.138983 59.079997 
C 469.138983 57.143227 468.369497 55.285522 466.999994 53.916019 
C 465.630491 52.546516 463.772785 51.777029 461.836016 51.777029 
C 459.899246 51.777029 458.041541 52.546516 456.672038 53.916019 
C 455.302535 55.285522 454.533048 57.143227 454.533048 59.079997 
C 454.533048 61.016766 455.302535 62.874472 456.672038 64.243975 
C 458.041541 65.613478 459.899246 66.382964 461.836016 66.382964 
z
" style="fill:#f0f921;fill-opacity:0.9;stroke:#000000;stroke-opacity:0.9;"/>
    <path clip-path="url(#p0d2a172588)" d="M 91.454667 239.800707 
C 93.391437 239.800707 95.249142 239.03122 96.618645 237.661717 
C 97.988148 236.292214 98.757635 234.434509 98.757635 232.49774 
C 98.757635 230.56097 97.988148 228.703265 96.618645 227.333762 
C 95.249142 225.964259 93.391437 225.194772 91.454667 225.194772 
C 89.517898 225.194772 87.660193 225.964259 86.29069 227.333762 
C 84.921187 228.703265 84.1517 230.56097 84.1517 232.49774 
C 84.1517 234.434509 84.921187 236.292214 86.29069 237.661717 
C 87.660193 239.03122 89.517898 239.800707 91.454667 239.800707 
z
" style="fill:#f0f921;fill-opacity:0.9;stroke:#000000;stroke-opacity:0.9;"/>
    <path clip-path="url(#p0d2a172588)" d="M 223.254406 162.414525 
C 225.191176 162.414525 227.048881 161.645038 228.418384 160.275536 
C 229.787887 158.906033 230.557374 157.048327 230.557374 155.111558 
C 230.557374 153.174788 229.787887 151.317083 228.418384 149.94758 
C 227.048881 148.578077 225.191176 147.80859 223.254406 147.80859 
C 221.317637 147.80859 219.459931 148.578077 218.090428 149.94758 
C 216.720926 151.317083 215.951439 153.174788 215.951439 155.111558 
C 215.951439 157.048327 216.720926 158.906033 218.090428 160.275536 
C 219.459931 161.645038 221.317637 162.414525 223.254406 162.414525 
z
" style="fill:#f0f921;fill-opacity:0.9;stroke:#000000;stroke-opacity:0.9;"/>
    <path clip-path="url(#p0d2a172588)" d="M 272.679846 272.9669 
C 274.616615 272.9669 276.47432 272.197413 277.843823 270.827911 
C 279.213326 269.458408 279.982813 267.600702 279.982813 265.663933 
C 279.982813 263.727163 279.213326 261.869458 277.843823 260.499955 
C 276.47432 259.130452 274.616615 258.360965 272.679846 258.360965 
C 270.743076 258.360965 268.885371 259.130452 267.515868 260.499955 
C 266.146365 261.869458 265.376878 263.727163 265.376878 265.663933 
C 265.376878 267.600702 266.146365 269.458408 267.515868 270.827911 
C 268.885371 272.197413 270.743076 272.9669 272.679846 272.9669 
z
" style="fill:#f0f921;fill-opacity:0.9;stroke:#000000;stroke-opacity:0.9;"/>
    <path clip-path="url(#p0d2a172588)" d="M 58.502942 118.193575 
C 60.439712 118.193575 62.297417 117.424088 63.66692 116.054586 
C 65.036423 114.685083 65.805909 112.827377 65.805909 110.890608 
C 65.805909 108.953838 65.036423 107.096133 63.66692 105.72663 
C 62.297417 104.357127 60.439712 103.58764 58.502942 103.58764 
C 56.566172 103.58764 54.708467 104.357127 53.338964 105.72663 
C 51.969461 107.096133 51.199975 108.953838 51.199975 110.890608 
C 51.199975 112.827377 51.969461 114.685083 53.338964 116.054586 
C 54.708467 117.424088 56.566172 118.193575 58.502942 118.193575 
z
" style="fill:#f0f921;fill-opacity:0.9;stroke:#000000;stroke-opacity:0.9;"/>
    <path clip-path="url(#p0d2a172588)" d="M 355.055578 85.027863 
C 356.992347 85.027863 358.850053 84.258376 360.219556 82.888873 
C 361.589058 81.51937 362.358545 79.661665 362.358545 77.724895 
C 362.358545 75.788126 361.589058 73.93042 360.219556 72.560917 
C 358.850053 71.191415 356.992347 70.421928 355.055578 70.421928 
C 353.118808 70.421928 351.261103 71.191415 349.8916 72.560917 
C 348.522097 73.93042 347.75261 75.788126 347.75261 77.724895 
C 347.75261 79.661665 348.522097 81.51937 349.8916 82.888873 
C 351.261103 84.258376 353.118808 85.027863 355.055578 85.027863 
z
" style="fill:#f0f921;fill-opacity:0.9;stroke:#000000;stroke-opacity:0.9;"/>
    <path clip-path="url(#p0d2a172588)" d="M 188.086415 245.792646 
C 190.023185 245.792646 191.88089 245.023159 193.250393 243.653656 
C 194.619896 242.284153 195.389383 240.426448 195.389383 238.489678 
C 195.389383 236.552909 194.619896 234.695203 193.250393 233.325701 
C 191.88089 231.956198 190.023185 231.186711 188.086415 231.186711 
C 186.149646 231.186711 184.291941 231.956198 182.922438 233.325701 
C 181.552935 234.695203 180.783448 236.552909 180.783448 238.489678 
C 180.783448 240.426448 181.552935 242.284153 182.922438 243.653656 
C 184.291941 245.023159 186.149646 245.792646 188.086415 245.792646 
z
" style="fill:#f0f921;fill-opacity:0.9;stroke:#000000;stroke-opacity:0.9;"/>
    <path clip-path="url(#p0d2a172588)" d="M 319.884722 168.408387 
C 321.821491 168.408387 323.679197 167.6389 325.048699 166.269397 
C 326.418202 164.899894 327.187689 163.042189 327.187689 161.105419 
C 327.187689 159.16865 326.418202 157.310944 325.048699 155.941441 
C 323.679197 154.571938 321.821491 153.802452 319.884722 153.802452 
C 317.947952 153.802452 316.090247 154.571938 314.720744 155.941441 
C 313.351241 157.310944 312.581754 159.16865 312.581754 161.105419 
C 312.581754 163.042189 313.351241 164.899894 314.720744 166.269397 
C 316.090247 167.6389 317.947952 168.408387 319.884722 168.408387 
z
" style="fill:#f0f921;fill-opacity:0.9;stroke:#000000;stroke-opacity:0.9;"/>
    <path clip-path="url(#p0d2a172588)" d="M 369.310161 278.960762 
C 371.246931 278.960762 373.104636 278.191275 374.474139 276.821772 
C 375.843642 275.452269 376.613128 273.594564 376.613128 271.657794 
C 376.613128 269.721025 375.843642 267.863319 374.474139 266.493816 
C 373.104636 265.124313 371.246931 264.354827 369.310161 264.354827 
C 367.373391 264.354827 365.515686 265.124313 364.146183 266.493816 
C 362.77668 267.863319 362.007193 269.721025 362.007193 271.657794 
C 362.007193 273.594564 362.77668 275.452269 364.146183 276.821772 
C 365.515686 278.191275 367.373391 278.960762 369.310161 278.960762 
z
" style="fill:#f0f921;fill-opacity:0.9;stroke:#000000;stroke-opacity:0.9;"/>
    <path clip-path="url(#p0d2a172588)" d="M 155.135979 124.187437 
C 157.072749 124.187437 158.930454 123.41795 160.299957 122.048447 
C 161.66946 120.678944 162.438947 118.821239 162.438947 116.884469 
C 162.438947 114.9477 161.66946 113.089994 160.299957 111.720491 
C 158.930454 110.350988 157.072749 109.581502 155.135979 109.581502 
C 153.19921 109.581502 151.341504 110.350988 149.972002 111.720491 
C 148.602499 113.089994 147.833012 114.9477 147.833012 116.884469 
C 147.833012 118.821239 148.602499 120.678944 149.972002 122.048447 
C 151.341504 123.41795 153.19921 124.187437 155.135979 124.187437 
z
" style="fill:#f0f921;fill-opacity:0.9;stroke:#000000;stroke-opacity:0.9;"/>
    <path clip-path="url(#p0d2a172588)" d="M 451.685893 91.021724 
C 453.622663 91.021724 455.480368 90.252237 456.849871 88.882734 
C 458.219374 87.513232 458.988861 85.655526 458.988861 83.718757 
C 458.988861 81.781987 458.219374 79.924282 456.849871 78.554779 
C 455.480368 77.185276 453.622663 76.415789 451.685893 76.415789 
C 449.749123 76.415789 447.891418 77.185276 446.521915 78.554779 
C 445.152412 79.924282 444.382926 81.781987 444.382926 83.718757 
C 444.382926 85.655526 445.152412 87.513232 446.521915 88.882734 
C 447.891418 90.252237 449.749123 91.021724 451.685893 91.021724 
z
" style="fill:#f0f921;fill-opacity:0.9;stroke:#000000;stroke-opacity:0.9;"/>
    <path clip-path="url(#p0d2a172588)" d="M 156.877904 260.437951 
C 158.814673 260.437951 160.672379 259.668465 162.041882 258.298962 
C 163.411384 256.929459 164.180871 255.071754 164.180871 253.134984 
C 164.180871 251.198214 163.411384 249.340509 162.041882 247.971006 
C 160.672379 246.601503 158.814673 245.832017 156.877904 245.832017 
C 154.941134 245.832017 153.083429 246.601503 151.713926 247.971006 
C 150.344423 249.340509 149.574936 251.198214 149.574936 253.134984 
C 149.574936 255.071754 150.344423 256.929459 151.713926 258.298962 
C 153.083429 259.668465 154.941134 260.437951 156.877904 260.437951 
z
" style="fill:#f0f921;fill-opacity:0.9;stroke:#000000;stroke-opacity:0.9;"/>
    <path clip-path="url(#p0d2a172588)" d="M 288.682227 183.051289 
C 290.618997 183.051289 292.476702 182.281802 293.846205 180.912299 
C 295.215708 179.542796 295.985194 177.685091 295.985194 175.748322 
C 295.985194 173.811552 295.215708 171.953847 293.846205 170.584344 
C 292.476702 169.214841 290.618997 168.445354 288.682227 168.445354 
C 286.745457 168.445354 284.887752 169.214841 283.518249 170.584344 
C 282.148746 171.953847 281.379259 173.811552 281.379259 175.748322 
C 281.379259 177.685091 282.148746 179.542796 283.518249 180.912299 
C 284.887752 182.281802 286.745457 183.051289 288.682227 183.051289 
z
" style="fill:#f0f921;fill-opacity:0.9;stroke:#000000;stroke-opacity:0.9;"/>
    <path clip-path="url(#p0d2a172588)" d="M 338.107666 293.601741 
C 340.044436 293.601741 341.902141 292.832255 343.271644 291.462752 
C 344.641147 290.093249 345.410634 288.235543 345.410634 286.298774 
C 345.410634 284.362004 344.641147 282.504299 343.271644 281.134796 
C 341.902141 279.765293 340.044436 278.995806 338.107666 278.995806 
C 336.170897 278.995806 334.313191 279.765293 332.943688 281.134796 
C 331.574185 282.504299 330.804699 284.362004 330.804699 286.298774 
C 330.804699 288.235543 331.574185 290.093249 332.943688 291.462752 
C 334.313191 292.832255 336.170897 293.601741 338.107666 293.601741 
z
" style="fill:#f0f921;fill-opacity:0.9;stroke:#000000;stroke-opacity:0.9;"/>
    <path clip-path="url(#p0d2a172588)" d="M 123.927897 138.828416 
C 125.864667 138.828416 127.722372 138.05893 129.091875 136.689427 
C 130.461378 135.319924 131.230865 133.462218 131.230865 131.525449 
C 131.230865 129.588679 130.461378 127.730974 129.091875 126.361471 
C 127.722372 124.991968 125.864667 124.222481 123.927897 124.222481 
C 121.991128 124.222481 120.133423 124.991968 118.76392 126.361471 
C 117.394417 127.730974 116.62493 129.588679 116.62493 131.525449 
C 116.62493 133.462218 117.394417 135.319924 118.76392 136.689427 
C 120.133423 138.05893 121.991128 138.828416 123.927897 138.828416 
z
" style="fill:#f0f921;fill-opacity:0.9;stroke:#000000;stroke-opacity:0.9;"/>
    <path clip-path="url(#p0d2a172588)" d="M 420.483398 105.662704 
C 422.420168 105.662704 424.277873 104.893217 425.647376 103.523714 
C 427.016879 102.154211 427.786366 100.296506 427.786366 98.359736 
C 427.786366 96.422967 427.016879 94.565261 425.647376 93.195759 
C 424.277873 91.826256 422.420168 91.056769 420.483398 91.056769 
C 418.546629 91.056769 416.688923 91.826256 415.319421 93.195759 
C 413.949918 94.565261 413.180431 96.422967 413.180431 98.359736 
C 413.180431 100.296506 413.949918 102.154211 415.319421 103.523714 
C 416.688923 104.893217 418.546629 105.662704 420.483398 105.662704 
z
" style="fill:#f0f921;fill-opacity:0.9;stroke:#000000;stroke-opacity:0.9;"/>
    <path clip-path="url(#p0d2a172588)" d="M 108.867465 193.885422 
C 110.804234 193.885422 112.66194 193.115935 114.031442 191.746432 
C 115.400945 190.376929 116.170432 188.519224 116.170432 186.582454 
C 116.170432 184.645685 115.400945 182.787979 114.031442 181.418476 
C 112.66194 180.048974 110.804234 179.279487 108.867465 179.279487 
C 106.930695 179.279487 105.07299 180.048974 103.703487 181.418476 
C 102.333984 182.787979 101.564497 184.645685 101.564497 186.582454 
C 101.564497 188.519224 102.333984 190.376929 103.703487 191.746432 
C 105.07299 193.115935 106.930695 193.885422 108.867465 193.885422 
z
" style="fill:#f0f921;fill-opacity:0.9;stroke:#000000;stroke-opacity:0.9;"/>
    <path clip-path="url(#p0d2a172588)" d="M 240.66792 116.496837 
C 242.604689 116.496837 244.462395 115.72735 245.831898 114.357847 
C 247.2014 112.988344 247.970887 111.130639 247.970887 109.193869 
C 247.970887 107.2571 247.2014 105.399394 245.831898 104.029891 
C 244.462395 102.660388 242.604689 101.890902 240.66792 101.890902 
C 238.73115 101.890902 236.873445 102.660388 235.503942 104.029891 
C 234.134439 105.399394 233.364952 107.2571 233.364952 109.193869 
C 233.364952 111.130639 234.134439 112.988344 235.503942 114.357847 
C 236.873445 115.72735 238.73115 116.496837 240.66792 116.496837 
z
" style="fill:#f0f921;fill-opacity:0.9;stroke:#000000;stroke-opacity:0.9;"/>
    <path clip-path="url(#p0d2a172588)" d="M 290.093359 227.051038 
C 292.030129 227.051038 293.887834 226.281551 295.257337 224.912048 
C 296.62684 223.542546 297.396326 221.68484 297.396326 219.748071 
C 297.396326 217.811301 296.62684 215.953596 295.257337 214.584093 
C 293.887834 213.21459 292.030129 212.445103 290.093359 212.445103 
C 288.156589 212.445103 286.298884 213.21459 284.929381 214.584093 
C 283.559878 215.953596 282.790392 217.811301 282.790392 219.748071 
C 282.790392 221.68484 283.559878 223.542546 284.929381 224.912048 
C 286.298884 226.281551 288.156589 227.051038 290.093359 227.051038 
z
" style="fill:#f0f921;fill-opacity:0.9;stroke:#000000;stroke-opacity:0.9;"/>
    <path clip-path="url(#p0d2a172588)" d="M 75.916455 72.275887 
C 77.853225 72.275887 79.71093 71.5064 81.080433 70.136897 
C 82.449936 68.767394 83.219423 66.909689 83.219423 64.972919 
C 83.219423 63.03615 82.449936 61.178444 81.080433 59.808941 
C 79.71093 58.439438 77.853225 57.669952 75.916455 57.669952 
C 73.979686 57.669952 72.121981 58.439438 70.752478 59.808941 
C 69.382975 61.178444 68.613488 63.03615 68.613488 64.972919 
C 68.613488 66.909689 69.382975 68.767394 70.752478 70.136897 
C 72.121981 71.5064 73.979686 72.275887 75.916455 72.275887 
z
" style="fill:#f0f921;fill-opacity:0.9;stroke:#000000;stroke-opacity:0.9;"/>
    <path clip-path="url(#p0d2a172588)" d="M 372.469091 39.110174 
C 374.405861 39.110174 376.263566 38.340687 377.633069 36.971184 
C 379.002572 35.601682 379.772059 33.743976 379.772059 31.807207 
C 379.772059 29.870437 379.002572 28.012732 377.633069 26.643229 
C 376.263566 25.273726 374.405861 24.504239 372.469091 24.504239 
C 370.532322 24.504239 368.674616 25.273726 367.305113 26.643229 
C 365.93561 28.012732 365.166124 29.870437 365.166124 31.807207 
C 365.166124 33.743976 365.93561 35.601682 367.305113 36.971184 
C 368.674616 38.340687 370.532322 39.110174 372.469091 39.110174 
z
" style="fill:#f0f921;fill-opacity:0.9;stroke:#000000;stroke-opacity:0.9;"/>
    <path clip-path="url(#p0d2a172588)" d="M 182.323696 197.546628 
C 184.260465 197.546628 186.118171 196.777141 187.487674 195.407638 
C 188.857176 194.038135 189.626663 192.18043 189.626663 190.243661 
C 189.626663 188.306891 188.857176 186.449186 187.487674 185.079683 
C 186.118171 183.71018 184.260465 182.940693 182.323696 182.940693 
C 180.386926 182.940693 178.529221 183.71018 177.159718 185.079683 
C 175.790215 186.449186 175.020728 188.306891 175.020728 190.243661 
C 175.020728 192.18043 175.790215 194.038135 177.159718 195.407638 
C 178.529221 196.777141 180.386926 197.546628 182.323696 197.546628 
z
" style="fill:#f0f921;fill-opacity:0.9;stroke:#000000;stroke-opacity:0.9;"/>
    <path clip-path="url(#p0d2a172588)" d="M 314.125584 120.159485 
C 316.062353 120.159485 317.920058 119.389998 319.289561 118.020495 
C 320.659064 116.650992 321.428551 114.793287 321.428551 112.856517 
C 321.428551 110.919748 320.659064 109.062042 319.289561 107.69254 
C 317.920058 106.323037 316.062353 105.55355 314.125584 105.55355 
C 312.188814 105.55355 310.331109 106.323037 308.961606 107.69254 
C 307.592103 109.062042 306.822616 110.919748 306.822616 112.856517 
C 306.822616 114.793287 307.592103 116.650992 308.961606 118.020495 
C 310.331109 119.389998 312.188814 120.159485 314.125584 120.159485 
z
" style="fill:#f0f921;fill-opacity:0.9;stroke:#000000;stroke-opacity:0.9;"/>
    <path clip-path="url(#p0d2a172588)" d="M 363.551023 230.71234 
C 365.487792 230.71234 367.345498 229.942854 368.715001 228.573351 
C 370.084504 227.203848 370.85399 225.346143 370.85399 223.409373 
C 370.85399 221.472603 370.084504 219.614898 368.715001 218.245395 
C 367.345498 216.875892 365.487792 216.106406 363.551023 216.106406 
C 361.614253 216.106406 359.756548 216.875892 358.387045 218.245395 
C 357.017542 219.614898 356.248055 221.472603 356.248055 223.409373 
C 356.248055 225.346143 357.017542 227.203848 358.387045 228.573351 
C 359.756548 229.942854 361.614253 230.71234 363.551023 230.71234 
z
" style="fill:#f0f921;fill-opacity:0.9;stroke:#000000;stroke-opacity:0.9;"/>
    <path clip-path="url(#p0d2a172588)" d="M 149.373546 75.938535 
C 151.310316 75.938535 153.168021 75.169048 154.537524 73.799545 
C 155.907027 72.430042 156.676514 70.572337 156.676514 68.635567 
C 156.676514 66.698798 155.907027 64.841092 154.537524 63.47159 
C 153.168021 62.102087 151.310316 61.3326 149.373546 61.3326 
C 147.436777 61.3326 145.579071 62.102087 144.209568 63.47159 
C 142.840065 64.841092 142.070579 66.698798 142.070579 68.635567 
C 142.070579 70.572337 142.840065 72.430042 144.209568 73.799545 
C 145.579071 75.169048 147.436777 75.938535 149.373546 75.938535 
z
" style="fill:#f0f921;fill-opacity:0.9;stroke:#000000;stroke-opacity:0.9;"/>
    <path clip-path="url(#p0d2a172588)" d="M 445.926755 42.772822 
C 447.863525 42.772822 449.72123 42.003336 451.090733 40.633833 
C 452.460236 39.26433 453.229722 37.406624 453.229722 35.469855 
C 453.229722 33.533085 452.460236 31.67538 451.090733 30.305877 
C 449.72123 28.936374 447.863525 28.166887 445.926755 28.166887 
C 443.989985 28.166887 442.13228 28.936374 440.762777 30.305877 
C 439.393274 31.67538 438.623787 33.533085 438.623787 35.469855 
C 438.623787 37.406624 439.393274 39.26433 440.762777 40.633833 
C 442.13228 42.003336 443.989985 42.772822 445.926755 42.772822 
z
" style="fill:#f0f921;fill-opacity:0.9;stroke:#000000;stroke-opacity:0.9;"/>
    <path clip-path="url(#p0d2a172588)" d="M 151.672488 227.295812 
C 153.726742 227.295812 155.697136 226.479648 157.149714 225.027071 
C 158.602291 223.574494 159.418455 221.6041 159.418455 219.549845 
C 159.418455 217.495591 158.602291 215.525197 157.149714 214.07262 
C 155.697136 212.620043 153.726742 211.803879 151.672488 211.803879 
C 149.618234 211.803879 147.64784 212.620043 146.195263 214.07262 
C 144.742685 215.525197 143.926521 217.495591 143.926521 219.549845 
C 143.926521 221.6041 144.742685 223.574494 146.195263 225.027071 
C 147.64784 226.479648 149.618234 227.295812 151.672488 227.295812 
z
" style="fill:#0d0887;fill-opacity:0.9;stroke:#000000;stroke-opacity:0.9;"/>
    <path clip-path="url(#p0d2a172588)" d="M 137.938935 231.330782 
C 139.993189 231.330782 141.963583 230.514618 143.416161 229.06204 
C 144.868738 227.609463 145.684902 225.639069 145.684902 223.584815 
C 145.684902 221.53056 144.868738 219.560166 143.416161 218.107589 
C 141.963583 216.655012 139.993189 215.838848 137.938935 215.838848 
C 135.884681 215.838848 133.914287 216.655012 132.461709 218.107589 
C 131.009132 219.560166 130.192968 221.53056 130.192968 223.584815 
C 130.192968 225.639069 131.009132 227.609463 132.461709 229.06204 
C 133.914287 230.514618 135.884681 231.330782 137.938935 231.330782 
z
" style="fill:#0d0887;fill-opacity:0.9;stroke:#000000;stroke-opacity:0.9;"/>
    <path clip-path="url(#p0d2a172588)" d="M 146.831073 217.603541 
C 148.885327 217.603541 150.855721 216.787377 152.308298 215.3348 
C 153.760876 213.882223 154.57704 211.911829 154.57704 209.857575 
C 154.57704 207.80332 153.760876 205.832926 152.308298 204.380349 
C 150.855721 202.927772 148.885327 202.111608 146.831073 202.111608 
C 144.776819 202.111608 142.806425 202.927772 141.353847 204.380349 
C 139.90127 205.832926 139.085106 207.80332 139.085106 209.857575 
C 139.085106 211.911829 139.90127 213.882223 141.353847 215.3348 
C 142.806425 216.787377 144.776819 217.603541 146.831073 217.603541 
z
" style="fill:#0d0887;fill-opacity:0.9;stroke:#000000;stroke-opacity:0.9;"/>
    <path clip-path="url(#p0d2a172588)" d="M 133.199107 221.664514 
C 135.253361 221.664514 137.223755 220.848351 138.676333 219.395773 
C 140.12891 217.943196 140.945074 215.972802 140.945074 213.918548 
C 140.945074 211.864293 140.12891 209.893899 138.676333 208.441322 
C 137.223755 206.988745 135.253361 206.172581 133.199107 206.172581 
C 131.144853 206.172581 129.174459 206.988745 127.721881 208.441322 
C 126.269304 209.893899 125.45314 211.864293 125.45314 213.918548 
C 125.45314 215.972802 126.269304 217.943196 127.721881 219.395773 
C 129.174459 220.848351 131.144853 221.664514 133.199107 221.664514 
z
" style="fill:#0d0887;fill-opacity:0.9;stroke:#000000;stroke-opacity:0.9;"/>
    <path clip-path="url(#p0d2a172588)" d="M 283.474648 149.908477 
C 285.528902 149.908477 287.499296 149.092313 288.951874 147.639736 
C 290.404451 146.187158 291.220615 144.216764 291.220615 142.16251 
C 291.220615 140.108256 290.404451 138.137862 288.951874 136.685284 
C 287.499296 135.232707 285.528902 134.416543 283.474648 134.416543 
C 281.420394 134.416543 279.45 135.232707 277.997422 136.685284 
C 276.544845 138.137862 275.728681 140.108256 275.728681 142.16251 
C 275.728681 144.216764 276.544845 146.187158 277.997422 147.639736 
C 279.45 149.092313 281.420394 149.908477 283.474648 149.908477 
z
" style="fill:#0d0887;fill-opacity:0.9;stroke:#000000;stroke-opacity:0.9;"/>
    <path clip-path="url(#p0d2a172588)" d="M 269.742972 153.946042 
C 271.797226 153.946042 273.76762 153.129878 275.220197 151.677301 
C 276.672774 150.224723 277.488938 148.254329 277.488938 146.200075 
C 277.488938 144.145821 276.672774 142.175427 275.220197 140.722849 
C 273.76762 139.270272 271.797226 138.454108 269.742972 138.454108 
C 267.688717 138.454108 265.718323 139.270272 264.265746 140.722849 
C 262.813169 142.175427 261.997005 144.145821 261.997005 146.200075 
C 261.997005 148.254329 262.813169 150.224723 264.265746 151.677301 
C 265.718323 153.129878 267.688717 153.946042 269.742972 153.946042 
z
" style="fill:#0d0887;fill-opacity:0.9;stroke:#000000;stroke-opacity:0.9;"/>
    <path clip-path="url(#p0d2a172588)" d="M 278.632388 140.218321 
C 280.686642 140.218321 282.657036 139.402157 284.109613 137.94958 
C 285.56219 136.497002 286.378354 134.526608 286.378354 132.472354 
C 286.378354 130.4181 285.56219 128.447706 284.109613 126.995128 
C 282.657036 125.542551 280.686642 124.726387 278.632388 124.726387 
C 276.578133 124.726387 274.607739 125.542551 273.155162 126.995128 
C 271.702585 128.447706 270.886421 130.4181 270.886421 132.472354 
C 270.886421 134.526608 271.702585 136.497002 273.155162 137.94958 
C 274.607739 139.402157 276.578133 140.218321 278.632388 140.218321 
z
" style="fill:#0d0887;fill-opacity:0.9;stroke:#000000;stroke-opacity:0.9;"/>
    <path clip-path="url(#p0d2a172588)" d="M 265.000995 144.279919 
C 267.055249 144.279919 269.025643 143.463755 270.47822 142.011178 
C 271.930797 140.5586 272.746961 138.588207 272.746961 136.533952 
C 272.746961 134.479698 271.930797 132.509304 270.47822 131.056727 
C 269.025643 129.604149 267.055249 128.787985 265.000995 128.787985 
C 262.94674 128.787985 260.976346 129.604149 259.523769 131.056727 
C 258.071192 132.509304 257.255028 134.479698 257.255028 136.533952 
C 257.255028 138.588207 258.071192 140.5586 259.523769 142.011178 
C 260.976346 143.463755 262.94674 144.279919 265.000995 144.279919 
z
" style="fill:#0d0887;fill-opacity:0.9;stroke:#000000;stroke-opacity:0.9;"/>
    <path clip-path="url(#p0d2a172588)" d="M 332.900087 260.461332 
C 334.954342 260.461332 336.924736 259.645168 338.377313 258.192591 
C 339.82989 256.740014 340.646054 254.76962 340.646054 252.715366 
C 340.646054 250.661111 339.82989 248.690717 338.377313 247.23814 
C 336.924736 245.785563 334.954342 244.969399 332.900087 244.969399 
C 330.845833 244.969399 328.875439 245.785563 327.422862 247.23814 
C 325.970285 248.690717 325.154121 250.661111 325.154121 252.715366 
C 325.154121 254.76962 325.970285 256.740014 327.422862 258.192591 
C 328.875439 259.645168 330.845833 260.461332 332.900087 260.461332 
z
" style="fill:#0d0887;fill-opacity:0.9;stroke:#000000;stroke-opacity:0.9;"/>
    <path clip-path="url(#p0d2a172588)" d="M 319.168411 264.496494 
C 321.222665 264.496494 323.193059 263.68033 324.645637 262.227753 
C 326.098214 260.775176 326.914378 258.804782 326.914378 256.750527 
C 326.914378 254.696273 326.098214 252.725879 324.645637 251.273302 
C 323.193059 249.820725 321.222665 249.004561 319.168411 249.004561 
C 317.114157 249.004561 315.143763 249.820725 313.691185 251.273302 
C 312.238608 252.725879 311.422444 254.696273 311.422444 256.750527 
C 311.422444 258.804782 312.238608 260.775176 313.691185 262.227753 
C 315.143763 263.68033 317.114157 264.496494 319.168411 264.496494 
z
" style="fill:#0d0887;fill-opacity:0.9;stroke:#000000;stroke-opacity:0.9;"/>
    <path clip-path="url(#p0d2a172588)" d="M 328.057827 250.769254 
C 330.112081 250.769254 332.082475 249.95309 333.535052 248.500513 
C 334.98763 247.047935 335.803794 245.077541 335.803794 243.023287 
C 335.803794 240.969033 334.98763 238.998639 333.535052 237.546061 
C 332.082475 236.093484 330.112081 235.27732 328.057827 235.27732 
C 326.003573 235.27732 324.033179 236.093484 322.580601 237.546061 
C 321.128024 238.998639 320.31186 240.969033 320.31186 243.023287 
C 320.31186 245.077541 321.128024 247.047935 322.580601 248.500513 
C 324.033179 249.95309 326.003573 250.769254 328.057827 250.769254 
z
" style="fill:#0d0887;fill-opacity:0.9;stroke:#000000;stroke-opacity:0.9;"/>
    <path clip-path="url(#p0d2a172588)" d="M 314.426434 254.830371 
C 316.480688 254.830371 318.451082 254.014207 319.90366 252.56163 
C 321.356237 251.109053 322.172401 249.138659 322.172401 247.084404 
C 322.172401 245.03015 321.356237 243.059756 319.90366 241.607179 
C 318.451082 240.154602 316.480688 239.338438 314.426434 239.338438 
C 312.37218 239.338438 310.401786 240.154602 308.949208 241.607179 
C 307.496631 243.059756 306.680467 245.03015 306.680467 247.084404 
C 306.680467 249.138659 307.496631 251.109053 308.949208 252.56163 
C 310.401786 254.014207 312.37218 254.830371 314.426434 254.830371 
z
" style="fill:#0d0887;fill-opacity:0.9;stroke:#000000;stroke-opacity:0.9;"/>
    <path clip-path="url(#p0d2a172588)" d="M 118.722467 105.687527 
C 120.776722 105.687527 122.747116 104.871363 124.199693 103.418786 
C 125.65227 101.966208 126.468434 99.995814 126.468434 97.94156 
C 126.468434 95.887306 125.65227 93.916912 124.199693 92.464334 
C 122.747116 91.011757 120.776722 90.195593 118.722467 90.195593 
C 116.668213 90.195593 114.697819 91.011757 113.245242 92.464334 
C 111.792665 93.916912 110.976501 95.887306 110.976501 97.94156 
C 110.976501 99.995814 111.792665 101.966208 113.245242 103.418786 
C 114.697819 104.871363 116.668213 105.687527 118.722467 105.687527 
z
" style="fill:#0d0887;fill-opacity:0.9;stroke:#000000;stroke-opacity:0.9;"/>
    <path clip-path="url(#p0d2a172588)" d="M 104.988642 109.725092 
C 107.042896 109.725092 109.01329 108.908928 110.465868 107.456351 
C 111.918445 106.003773 112.734609 104.033379 112.734609 101.979125 
C 112.734609 99.924871 111.918445 97.954477 110.465868 96.501899 
C 109.01329 95.049322 107.042896 94.233158 104.988642 94.233158 
C 102.934388 94.233158 100.963994 95.049322 99.511417 96.501899 
C 98.058839 97.954477 97.242675 99.924871 97.242675 101.979125 
C 97.242675 104.033379 98.058839 106.003773 99.511417 107.456351 
C 100.963994 108.908928 102.934388 109.725092 104.988642 109.725092 
z
" style="fill:#0d0887;fill-opacity:0.9;stroke:#000000;stroke-opacity:0.9;"/>
    <path clip-path="url(#p0d2a172588)" d="M 113.880923 95.997371 
C 115.935178 95.997371 117.905572 95.181207 119.358149 93.72863 
C 120.810726 92.276052 121.62689 90.305658 121.62689 88.251404 
C 121.62689 86.19715 120.810726 84.226756 119.358149 82.774178 
C 117.905572 81.321601 115.935178 80.505437 113.880923 80.505437 
C 111.826669 80.505437 109.856275 81.321601 108.403698 82.774178 
C 106.951121 84.226756 106.134957 86.19715 106.134957 88.251404 
C 106.134957 90.305658 106.951121 92.276052 108.403698 93.72863 
C 109.856275 95.181207 111.826669 95.997371 113.880923 95.997371 
z
" style="fill:#0d0887;fill-opacity:0.9;stroke:#000000;stroke-opacity:0.9;"/>
    <path clip-path="url(#p0d2a172588)" d="M 100.248814 100.058969 
C 102.303068 100.058969 104.273462 99.242805 105.72604 97.790228 
C 107.178617 96.33765 107.994781 94.367257 107.994781 92.313002 
C 107.994781 90.258748 107.178617 88.288354 105.72604 86.835777 
C 104.273462 85.383199 102.303068 84.567035 100.248814 84.567035 
C 98.19456 84.567035 96.224166 85.383199 94.771589 86.835777 
C 93.319011 88.288354 92.502847 90.258748 92.502847 92.313002 
C 92.502847 94.367257 93.319011 96.33765 94.771589 97.790228 
C 96.224166 99.242805 98.19456 100.058969 100.248814 100.058969 
z
" style="fill:#0d0887;fill-opacity:0.9;stroke:#000000;stroke-opacity:0.9;"/>
    <path clip-path="url(#p0d2a172588)" d="M 415.275819 72.521814 
C 417.330074 72.521814 419.300468 71.70565 420.753045 70.253073 
C 422.205622 68.800496 423.021786 66.830102 423.021786 64.775847 
C 423.021786 62.721593 422.205622 60.751199 420.753045 59.298622 
C 419.300468 57.846045 417.330074 57.029881 415.275819 57.029881 
C 413.221565 57.029881 411.251171 57.846045 409.798594 59.298622 
C 408.346017 60.751199 407.529853 62.721593 407.529853 64.775847 
C 407.529853 66.830102 408.346017 68.800496 409.798594 70.253073 
C 411.251171 71.70565 413.221565 72.521814 415.275819 72.521814 
z
" style="fill:#0d0887;fill-opacity:0.9;stroke:#000000;stroke-opacity:0.9;"/>
    <path clip-path="url(#p0d2a172588)" d="M 401.544143 76.559379 
C 403.598397 76.559379 405.568791 75.743215 407.021369 74.290638 
C 408.473946 72.838061 409.29011 70.867667 409.29011 68.813412 
C 409.29011 66.759158 408.473946 64.788764 407.021369 63.336187 
C 405.568791 61.88361 403.598397 61.067446 401.544143 61.067446 
C 399.489889 61.067446 397.519495 61.88361 396.066917 63.336187 
C 394.61434 64.788764 393.798176 66.759158 393.798176 68.813412 
C 393.798176 70.867667 394.61434 72.838061 396.066917 74.290638 
C 397.519495 75.743215 399.489889 76.559379 401.544143 76.559379 
z
" style="fill:#0d0887;fill-opacity:0.9;stroke:#000000;stroke-opacity:0.9;"/>
    <path clip-path="url(#p0d2a172588)" d="M 410.433559 62.831658 
C 412.487813 62.831658 414.458207 62.015494 415.910785 60.562917 
C 417.363362 59.11034 418.179526 57.139946 418.179526 55.085691 
C 418.179526 53.031437 417.363362 51.061043 415.910785 49.608466 
C 414.458207 48.155889 412.487813 47.339725 410.433559 47.339725 
C 408.379305 47.339725 406.408911 48.155889 404.956333 49.608466 
C 403.503756 51.061043 402.687592 53.031437 402.687592 55.085691 
C 402.687592 57.139946 403.503756 59.11034 404.956333 60.562917 
C 406.408911 62.015494 408.379305 62.831658 410.433559 62.831658 
z
" style="fill:#0d0887;fill-opacity:0.9;stroke:#000000;stroke-opacity:0.9;"/>
    <path clip-path="url(#p0d2a172588)" d="M 396.802166 66.893256 
C 398.856421 66.893256 400.826815 66.077092 402.279392 64.624515 
C 403.731969 63.171938 404.548133 61.201544 404.548133 59.14729 
C 404.548133 57.093035 403.731969 55.122641 402.279392 53.670064 
C 400.826815 52.217487 398.856421 51.401323 396.802166 51.401323 
C 394.747912 51.401323 392.777518 52.217487 391.324941 53.670064 
C 389.872363 55.122641 389.056199 57.093035 389.056199 59.14729 
C 389.056199 61.201544 389.872363 63.171938 391.324941 64.624515 
C 392.777518 66.077092 394.747912 66.893256 396.802166 66.893256 
z
" style="fill:#0d0887;fill-opacity:0.9;stroke:#000000;stroke-opacity:0.9;"/>
   </g>
  </g>
 </g>
 <defs>
  <clipPath id="p0d2a172588">
   <rect height="384.53" width="501.4175" x="8.160625" y="-22.993125"/>
  </clipPath>
 </defs>
</svg>
