<?xml version="1.0" encoding="utf-8" standalone="no"?>
<!DOCTYPE svg PUBLIC "-//W3C//DTD SVG 1.1//EN"
  "http://www.w3.org/Graphics/SVG/1.1/DTD/svg11.dtd">
<!-- Created with matplotlib (http://matplotlib.org/) -->
<svg height="348pt" version="1.1" viewBox="0 0 492 348" width="492pt" xmlns="http://www.w3.org/2000/svg" xmlns:xlink="http://www.w3.org/1999/xlink">
 <defs>
  <style type="text/css">
*{stroke-linecap:butt;stroke-linejoin:round;stroke-miterlimit:100000;}
  </style>
 </defs>
 <g id="figure_1">
  <g id="patch_1">
   <path d="M 0 348.350625 
L 492.230625 348.350625 
L 492.230625 0 
L 0 0 
z
" style="fill:none;"/>
  </g>
  <g id="axes_1">
   <g id="LineCollection_1">
    <path clip-path="url(#p875c142e92)" d="M 88.054341 207.572986 
L 146.831073 209.857575 
" style="fill:none;stroke:#000000;stroke-opacity:0.7;stroke-width:0.9594104554141858;"/>
    <path clip-path="url(#p875c142e92)" d="M 88.054341 207.572986 
L 133.199107 213.918548 
" style="fill:none;stroke:#000000;stroke-opacity:0.7;stroke-width:0.9594104554141858;"/>
    <path clip-path="url(#p875c142e92)" d="M 88.054341 207.572986 
L 151.672488 219.549845 
" style="fill:none;stroke:#000000;stroke-opacity:0.7;stroke-width:0.9594104554141858;"/>
    <path clip-path="url(#p875c142e92)" d="M 88.054341 207.572986 
L 137.938935 223.584815 
" style="fill:none;stroke:#000000;stroke-opacity:0.7;stroke-width:0.9594104554141858;"/>
    <path clip-path="url(#p875c142e92)" d="M 219.855512 130.1844 
L 283.474648 142.16251 
" style="fill:none;stroke:#000000;stroke-opacity:0.7;stroke-width:0.9594104554141858;"/>
    <path clip-path="url(#p875c142e92)" d="M 219.855512 130.1844 
L 269.742972 146.200075 
" style="fill:none;stroke:#000000;stroke-opacity:0.7;stroke-width:0.9594104554141858;"/>
    <path clip-path="url(#p875c142e92)" d="M 219.855512 130.1844 
L 278.632388 132.472354 
" style="fill:none;stroke:#000000;stroke-opacity:0.7;stroke-width:0.9594104554141858;"/>
    <path clip-path="url(#p875c142e92)" d="M 219.855512 130.1844 
L 265.000995 136.533952 
" style="fill:none;stroke:#000000;stroke-opacity:0.7;stroke-width:0.9594104554141858;"/>
    <path clip-path="url(#p875c142e92)" d="M 269.284533 240.738698 
L 328.057827 243.023287 
" style="fill:none;stroke:#000000;stroke-opacity:0.7;stroke-width:0.9594104554141858;"/>
    <path clip-path="url(#p875c142e92)" d="M 269.284533 240.738698 
L 314.426434 247.084404 
" style="fill:none;stroke:#000000;stroke-opacity:0.7;stroke-width:0.9594104554141858;"/>
    <path clip-path="url(#p875c142e92)" d="M 269.284533 240.738698 
L 332.900087 252.715366 
" style="fill:none;stroke:#000000;stroke-opacity:0.7;stroke-width:0.9594104554141858;"/>
    <path clip-path="url(#p875c142e92)" d="M 269.284533 240.738698 
L 319.168411 256.750527 
" style="fill:none;stroke:#000000;stroke-opacity:0.7;stroke-width:0.9594104554141858;"/>
    <path clip-path="url(#p875c142e92)" d="M 55.107629 85.96345 
L 118.722467 97.94156 
" style="fill:none;stroke:#000000;stroke-opacity:0.7;stroke-width:0.9594104554141858;"/>
    <path clip-path="url(#p875c142e92)" d="M 55.107629 85.96345 
L 104.988642 101.979125 
" style="fill:none;stroke:#000000;stroke-opacity:0.7;stroke-width:0.9594104554141858;"/>
    <path clip-path="url(#p875c142e92)" d="M 55.107629 85.96345 
L 113.880923 88.251404 
" style="fill:none;stroke:#000000;stroke-opacity:0.7;stroke-width:0.9594104554141858;"/>
    <path clip-path="url(#p875c142e92)" d="M 55.107629 85.96345 
L 100.248814 92.313002 
" style="fill:none;stroke:#000000;stroke-opacity:0.7;stroke-width:0.9594104554141858;"/>
    <path clip-path="url(#p875c142e92)" d="M 351.660265 52.797738 
L 410.433559 55.085691 
" style="fill:none;stroke:#000000;stroke-opacity:0.7;stroke-width:0.9594104554141858;"/>
    <path clip-path="url(#p875c142e92)" d="M 351.660265 52.797738 
L 396.802166 59.14729 
" style="fill:none;stroke:#000000;stroke-opacity:0.7;stroke-width:0.9594104554141858;"/>
    <path clip-path="url(#p875c142e92)" d="M 351.660265 52.797738 
L 415.275819 64.775847 
" style="fill:none;stroke:#000000;stroke-opacity:0.7;stroke-width:0.9594104554141858;"/>
    <path clip-path="url(#p875c142e92)" d="M 351.660265 52.797738 
L 401.544143 68.813412 
" style="fill:none;stroke:#000000;stroke-opacity:0.7;stroke-width:0.9594104554141858;"/>
    <path clip-path="url(#p875c142e92)" d="M 145.828668 179.096136 
L 146.831073 209.857575 
" style="fill:none;stroke:#000000;stroke-opacity:0.7;stroke-width:0.9594104554141858;"/>
    <path clip-path="url(#p875c142e92)" d="M 145.828668 179.096136 
L 133.199107 213.918548 
" style="fill:none;stroke:#000000;stroke-opacity:0.7;stroke-width:0.9594104554141858;"/>
    <path clip-path="url(#p875c142e92)" d="M 145.828668 179.096136 
L 151.672488 219.549845 
" style="fill:none;stroke:#000000;stroke-opacity:0.7;stroke-width:0.9594104554141858;"/>
    <path clip-path="url(#p875c142e92)" d="M 145.828668 179.096136 
L 137.938935 223.584815 
" style="fill:none;stroke:#000000;stroke-opacity:0.7;stroke-width:0.9594104554141858;"/>
    <path clip-path="url(#p875c142e92)" d="M 277.629553 101.709954 
L 283.474648 142.16251 
" style="fill:none;stroke:#000000;stroke-opacity:0.7;stroke-width:0.9594104554141858;"/>
    <path clip-path="url(#p875c142e92)" d="M 277.629553 101.709954 
L 269.742972 146.200075 
" style="fill:none;stroke:#000000;stroke-opacity:0.7;stroke-width:0.9594104554141858;"/>
    <path clip-path="url(#p875c142e92)" d="M 277.629553 101.709954 
L 278.632388 132.472354 
" style="fill:none;stroke:#000000;stroke-opacity:0.7;stroke-width:0.9594104554141858;"/>
    <path clip-path="url(#p875c142e92)" d="M 277.629553 101.709954 
L 265.000995 136.533952 
" style="fill:none;stroke:#000000;stroke-opacity:0.7;stroke-width:0.9594104554141858;"/>
    <path clip-path="url(#p875c142e92)" d="M 327.054992 212.261848 
L 328.057827 243.023287 
" style="fill:none;stroke:#000000;stroke-opacity:0.7;stroke-width:0.9594104554141858;"/>
    <path clip-path="url(#p875c142e92)" d="M 327.054992 212.261848 
L 314.426434 247.084404 
" style="fill:none;stroke:#000000;stroke-opacity:0.7;stroke-width:0.9594104554141858;"/>
    <path clip-path="url(#p875c142e92)" d="M 327.054992 212.261848 
L 332.900087 252.715366 
" style="fill:none;stroke:#000000;stroke-opacity:0.7;stroke-width:0.9594104554141858;"/>
    <path clip-path="url(#p875c142e92)" d="M 327.054992 212.261848 
L 319.168411 256.750527 
" style="fill:none;stroke:#000000;stroke-opacity:0.7;stroke-width:0.9594104554141858;"/>
    <path clip-path="url(#p875c142e92)" d="M 112.878088 57.489004 
L 118.722467 97.94156 
" style="fill:none;stroke:#000000;stroke-opacity:0.7;stroke-width:0.9594104554141858;"/>
    <path clip-path="url(#p875c142e92)" d="M 112.878088 57.489004 
L 104.988642 101.979125 
" style="fill:none;stroke:#000000;stroke-opacity:0.7;stroke-width:0.9594104554141858;"/>
    <path clip-path="url(#p875c142e92)" d="M 112.878088 57.489004 
L 113.880923 88.251404 
" style="fill:none;stroke:#000000;stroke-opacity:0.7;stroke-width:0.9594104554141858;"/>
    <path clip-path="url(#p875c142e92)" d="M 112.878088 57.489004 
L 100.248814 92.313002 
" style="fill:none;stroke:#000000;stroke-opacity:0.7;stroke-width:0.9594104554141858;"/>
    <path clip-path="url(#p875c142e92)" d="M 409.430724 24.323291 
L 410.433559 55.085691 
" style="fill:none;stroke:#000000;stroke-opacity:0.7;stroke-width:0.9594104554141858;"/>
    <path clip-path="url(#p875c142e92)" d="M 409.430724 24.323291 
L 396.802166 59.14729 
" style="fill:none;stroke:#000000;stroke-opacity:0.7;stroke-width:0.9594104554141858;"/>
    <path clip-path="url(#p875c142e92)" d="M 409.430724 24.323291 
L 415.275819 64.775847 
" style="fill:none;stroke:#000000;stroke-opacity:0.7;stroke-width:0.9594104554141858;"/>
    <path clip-path="url(#p875c142e92)" d="M 409.430724 24.323291 
L 401.544143 68.813412 
" style="fill:none;stroke:#000000;stroke-opacity:0.7;stroke-width:0.9594104554141858;"/>
    <path clip-path="url(#p875c142e92)" d="M 118.072774 250.765318 
L 146.831073 209.857575 
" style="fill:none;stroke:#000000;stroke-opacity:0.7;stroke-width:0.9594104554141858;"/>
    <path clip-path="url(#p875c142e92)" d="M 118.072774 250.765318 
L 133.199107 213.918548 
" style="fill:none;stroke:#000000;stroke-opacity:0.7;stroke-width:0.9594104554141858;"/>
    <path clip-path="url(#p875c142e92)" d="M 118.072774 250.765318 
L 151.672488 219.549845 
" style="fill:none;stroke:#000000;stroke-opacity:0.7;stroke-width:0.9594104554141858;"/>
    <path clip-path="url(#p875c142e92)" d="M 118.072774 250.765318 
L 137.938935 223.584815 
" style="fill:none;stroke:#000000;stroke-opacity:0.7;stroke-width:0.9594104554141858;"/>
    <path clip-path="url(#p875c142e92)" d="M 249.872512 173.378655 
L 283.474648 142.16251 
" style="fill:none;stroke:#000000;stroke-opacity:0.7;stroke-width:0.9594104554141858;"/>
    <path clip-path="url(#p875c142e92)" d="M 249.872512 173.378655 
L 269.742972 146.200075 
" style="fill:none;stroke:#000000;stroke-opacity:0.7;stroke-width:0.9594104554141858;"/>
    <path clip-path="url(#p875c142e92)" d="M 249.872512 173.378655 
L 278.632388 132.472354 
" style="fill:none;stroke:#000000;stroke-opacity:0.7;stroke-width:0.9594104554141858;"/>
    <path clip-path="url(#p875c142e92)" d="M 249.872512 173.378655 
L 265.000995 136.533952 
" style="fill:none;stroke:#000000;stroke-opacity:0.7;stroke-width:0.9594104554141858;"/>
    <path clip-path="url(#p875c142e92)" d="M 299.297952 283.929108 
L 328.057827 243.023287 
" style="fill:none;stroke:#000000;stroke-opacity:0.7;stroke-width:0.9594104554141858;"/>
    <path clip-path="url(#p875c142e92)" d="M 299.297952 283.929108 
L 314.426434 247.084404 
" style="fill:none;stroke:#000000;stroke-opacity:0.7;stroke-width:0.9594104554141858;"/>
    <path clip-path="url(#p875c142e92)" d="M 299.297952 283.929108 
L 332.900087 252.715366 
" style="fill:none;stroke:#000000;stroke-opacity:0.7;stroke-width:0.9594104554141858;"/>
    <path clip-path="url(#p875c142e92)" d="M 299.297952 283.929108 
L 319.168411 256.750527 
" style="fill:none;stroke:#000000;stroke-opacity:0.7;stroke-width:0.9594104554141858;"/>
    <path clip-path="url(#p875c142e92)" d="M 85.122481 129.155783 
L 118.722467 97.94156 
" style="fill:none;stroke:#000000;stroke-opacity:0.7;stroke-width:0.9594104554141858;"/>
    <path clip-path="url(#p875c142e92)" d="M 85.122481 129.155783 
L 104.988642 101.979125 
" style="fill:none;stroke:#000000;stroke-opacity:0.7;stroke-width:0.9594104554141858;"/>
    <path clip-path="url(#p875c142e92)" d="M 85.122481 129.155783 
L 113.880923 88.251404 
" style="fill:none;stroke:#000000;stroke-opacity:0.7;stroke-width:0.9594104554141858;"/>
    <path clip-path="url(#p875c142e92)" d="M 85.122481 129.155783 
L 100.248814 92.313002 
" style="fill:none;stroke:#000000;stroke-opacity:0.7;stroke-width:0.9594104554141858;"/>
    <path clip-path="url(#p875c142e92)" d="M 381.673684 95.99007 
L 410.433559 55.085691 
" style="fill:none;stroke:#000000;stroke-opacity:0.7;stroke-width:0.9594104554141858;"/>
    <path clip-path="url(#p875c142e92)" d="M 381.673684 95.99007 
L 396.802166 59.14729 
" style="fill:none;stroke:#000000;stroke-opacity:0.7;stroke-width:0.9594104554141858;"/>
    <path clip-path="url(#p875c142e92)" d="M 381.673684 95.99007 
L 415.275819 64.775847 
" style="fill:none;stroke:#000000;stroke-opacity:0.7;stroke-width:0.9594104554141858;"/>
    <path clip-path="url(#p875c142e92)" d="M 381.673684 95.99007 
L 401.544143 68.813412 
" style="fill:none;stroke:#000000;stroke-opacity:0.7;stroke-width:0.9594104554141858;"/>
    <path clip-path="url(#p875c142e92)" d="M 198.231524 213.853322 
L 146.831073 209.857575 
" style="fill:none;stroke:#000000;stroke-opacity:0.7;stroke-width:0.9594104554141858;"/>
    <path clip-path="url(#p875c142e92)" d="M 198.231524 213.853322 
L 133.199107 213.918548 
" style="fill:none;stroke:#000000;stroke-opacity:0.7;stroke-width:0.9594104554141858;"/>
    <path clip-path="url(#p875c142e92)" d="M 198.231524 213.853322 
L 151.672488 219.549845 
" style="fill:none;stroke:#000000;stroke-opacity:0.7;stroke-width:0.9594104554141858;"/>
    <path clip-path="url(#p875c142e92)" d="M 198.231524 213.853322 
L 137.938935 223.584815 
" style="fill:none;stroke:#000000;stroke-opacity:0.7;stroke-width:0.9594104554141858;"/>
    <path clip-path="url(#p875c142e92)" d="M 330.034844 136.466659 
L 283.474648 142.16251 
" style="fill:none;stroke:#000000;stroke-opacity:0.7;stroke-width:0.9594104554141858;"/>
    <path clip-path="url(#p875c142e92)" d="M 330.034844 136.466659 
L 269.742972 146.200075 
" style="fill:none;stroke:#000000;stroke-opacity:0.7;stroke-width:0.9594104554141858;"/>
    <path clip-path="url(#p875c142e92)" d="M 330.034844 136.466659 
L 278.632388 132.472354 
" style="fill:none;stroke:#000000;stroke-opacity:0.7;stroke-width:0.9594104554141858;"/>
    <path clip-path="url(#p875c142e92)" d="M 330.034844 136.466659 
L 265.000995 136.533952 
" style="fill:none;stroke:#000000;stroke-opacity:0.7;stroke-width:0.9594104554141858;"/>
    <path clip-path="url(#p875c142e92)" d="M 379.460284 247.019034 
L 328.057827 243.023287 
" style="fill:none;stroke:#000000;stroke-opacity:0.7;stroke-width:0.9594104554141858;"/>
    <path clip-path="url(#p875c142e92)" d="M 379.460284 247.019034 
L 314.426434 247.084404 
" style="fill:none;stroke:#000000;stroke-opacity:0.7;stroke-width:0.9594104554141858;"/>
    <path clip-path="url(#p875c142e92)" d="M 379.460284 247.019034 
L 332.900087 252.715366 
" style="fill:none;stroke:#000000;stroke-opacity:0.7;stroke-width:0.9594104554141858;"/>
    <path clip-path="url(#p875c142e92)" d="M 379.460284 247.019034 
L 319.168411 256.750527 
" style="fill:none;stroke:#000000;stroke-opacity:0.7;stroke-width:0.9594104554141858;"/>
    <path clip-path="url(#p875c142e92)" d="M 165.281231 92.245709 
L 118.722467 97.94156 
" style="fill:none;stroke:#000000;stroke-opacity:0.7;stroke-width:0.9594104554141858;"/>
    <path clip-path="url(#p875c142e92)" d="M 165.281231 92.245709 
L 104.988642 101.979125 
" style="fill:none;stroke:#000000;stroke-opacity:0.7;stroke-width:0.9594104554141858;"/>
    <path clip-path="url(#p875c142e92)" d="M 165.281231 92.245709 
L 113.880923 88.251404 
" style="fill:none;stroke:#000000;stroke-opacity:0.7;stroke-width:0.9594104554141858;"/>
    <path clip-path="url(#p875c142e92)" d="M 165.281231 92.245709 
L 100.248814 92.313002 
" style="fill:none;stroke:#000000;stroke-opacity:0.7;stroke-width:0.9594104554141858;"/>
    <path clip-path="url(#p875c142e92)" d="M 461.836016 59.079997 
L 410.433559 55.085691 
" style="fill:none;stroke:#000000;stroke-opacity:0.7;stroke-width:0.9594104554141858;"/>
    <path clip-path="url(#p875c142e92)" d="M 461.836016 59.079997 
L 396.802166 59.14729 
" style="fill:none;stroke:#000000;stroke-opacity:0.7;stroke-width:0.9594104554141858;"/>
    <path clip-path="url(#p875c142e92)" d="M 461.836016 59.079997 
L 415.275819 64.775847 
" style="fill:none;stroke:#000000;stroke-opacity:0.7;stroke-width:0.9594104554141858;"/>
    <path clip-path="url(#p875c142e92)" d="M 461.836016 59.079997 
L 401.544143 68.813412 
" style="fill:none;stroke:#000000;stroke-opacity:0.7;stroke-width:0.9594104554141858;"/>
    <path clip-path="url(#p875c142e92)" d="M 91.454667 232.49774 
L 146.831073 209.857575 
" style="fill:none;stroke:#000000;stroke-opacity:0.7;stroke-width:0.9594104554141858;"/>
    <path clip-path="url(#p875c142e92)" d="M 91.454667 232.49774 
L 133.199107 213.918548 
" style="fill:none;stroke:#000000;stroke-opacity:0.7;stroke-width:0.9594104554141858;"/>
    <path clip-path="url(#p875c142e92)" d="M 91.454667 232.49774 
L 151.672488 219.549845 
" style="fill:none;stroke:#000000;stroke-opacity:0.7;stroke-width:0.9594104554141858;"/>
    <path clip-path="url(#p875c142e92)" d="M 91.454667 232.49774 
L 137.938935 223.584815 
" style="fill:none;stroke:#000000;stroke-opacity:0.7;stroke-width:0.9594104554141858;"/>
    <path clip-path="url(#p875c142e92)" d="M 223.254406 155.111558 
L 283.474648 142.16251 
" style="fill:none;stroke:#000000;stroke-opacity:0.7;stroke-width:0.9594104554141858;"/>
    <path clip-path="url(#p875c142e92)" d="M 223.254406 155.111558 
L 269.742972 146.200075 
" style="fill:none;stroke:#000000;stroke-opacity:0.7;stroke-width:0.9594104554141858;"/>
    <path clip-path="url(#p875c142e92)" d="M 223.254406 155.111558 
L 278.632388 132.472354 
" style="fill:none;stroke:#000000;stroke-opacity:0.7;stroke-width:0.9594104554141858;"/>
    <path clip-path="url(#p875c142e92)" d="M 223.254406 155.111558 
L 265.000995 136.533952 
" style="fill:none;stroke:#000000;stroke-opacity:0.7;stroke-width:0.9594104554141858;"/>
    <path clip-path="url(#p875c142e92)" d="M 272.679846 265.663933 
L 328.057827 243.023287 
" style="fill:none;stroke:#000000;stroke-opacity:0.7;stroke-width:0.9594104554141858;"/>
    <path clip-path="url(#p875c142e92)" d="M 272.679846 265.663933 
L 314.426434 247.084404 
" style="fill:none;stroke:#000000;stroke-opacity:0.7;stroke-width:0.9594104554141858;"/>
    <path clip-path="url(#p875c142e92)" d="M 272.679846 265.663933 
L 332.900087 252.715366 
" style="fill:none;stroke:#000000;stroke-opacity:0.7;stroke-width:0.9594104554141858;"/>
    <path clip-path="url(#p875c142e92)" d="M 272.679846 265.663933 
L 319.168411 256.750527 
" style="fill:none;stroke:#000000;stroke-opacity:0.7;stroke-width:0.9594104554141858;"/>
    <path clip-path="url(#p875c142e92)" d="M 58.502942 110.890608 
L 118.722467 97.94156 
" style="fill:none;stroke:#000000;stroke-opacity:0.7;stroke-width:0.9594104554141858;"/>
    <path clip-path="url(#p875c142e92)" d="M 58.502942 110.890608 
L 104.988642 101.979125 
" style="fill:none;stroke:#000000;stroke-opacity:0.7;stroke-width:0.9594104554141858;"/>
    <path clip-path="url(#p875c142e92)" d="M 58.502942 110.890608 
L 113.880923 88.251404 
" style="fill:none;stroke:#000000;stroke-opacity:0.7;stroke-width:0.9594104554141858;"/>
    <path clip-path="url(#p875c142e92)" d="M 58.502942 110.890608 
L 100.248814 92.313002 
" style="fill:none;stroke:#000000;stroke-opacity:0.7;stroke-width:0.9594104554141858;"/>
    <path clip-path="url(#p875c142e92)" d="M 355.055578 77.724895 
L 410.433559 55.085691 
" style="fill:none;stroke:#000000;stroke-opacity:0.7;stroke-width:0.9594104554141858;"/>
    <path clip-path="url(#p875c142e92)" d="M 355.055578 77.724895 
L 396.802166 59.14729 
" style="fill:none;stroke:#000000;stroke-opacity:0.7;stroke-width:0.9594104554141858;"/>
    <path clip-path="url(#p875c142e92)" d="M 355.055578 77.724895 
L 415.275819 64.775847 
" style="fill:none;stroke:#000000;stroke-opacity:0.7;stroke-width:0.9594104554141858;"/>
    <path clip-path="url(#p875c142e92)" d="M 355.055578 77.724895 
L 401.544143 68.813412 
" style="fill:none;stroke:#000000;stroke-opacity:0.7;stroke-width:0.9594104554141858;"/>
    <path clip-path="url(#p875c142e92)" d="M 188.086415 238.489678 
L 146.831073 209.857575 
" style="fill:none;stroke:#000000;stroke-opacity:0.7;stroke-width:0.9594104554141858;"/>
    <path clip-path="url(#p875c142e92)" d="M 188.086415 238.489678 
L 133.199107 213.918548 
" style="fill:none;stroke:#000000;stroke-opacity:0.7;stroke-width:0.9594104554141858;"/>
    <path clip-path="url(#p875c142e92)" d="M 188.086415 238.489678 
L 151.672488 219.549845 
" style="fill:none;stroke:#000000;stroke-opacity:0.7;stroke-width:0.9594104554141858;"/>
    <path clip-path="url(#p875c142e92)" d="M 188.086415 238.489678 
L 137.938935 223.584815 
" style="fill:none;stroke:#000000;stroke-opacity:0.7;stroke-width:0.9594104554141858;"/>
    <path clip-path="url(#p875c142e92)" d="M 319.884722 161.105419 
L 283.474648 142.16251 
" style="fill:none;stroke:#000000;stroke-opacity:0.7;stroke-width:0.9594104554141858;"/>
    <path clip-path="url(#p875c142e92)" d="M 319.884722 161.105419 
L 269.742972 146.200075 
" style="fill:none;stroke:#000000;stroke-opacity:0.7;stroke-width:0.9594104554141858;"/>
    <path clip-path="url(#p875c142e92)" d="M 319.884722 161.105419 
L 278.632388 132.472354 
" style="fill:none;stroke:#000000;stroke-opacity:0.7;stroke-width:0.9594104554141858;"/>
    <path clip-path="url(#p875c142e92)" d="M 319.884722 161.105419 
L 265.000995 136.533952 
" style="fill:none;stroke:#000000;stroke-opacity:0.7;stroke-width:0.9594104554141858;"/>
    <path clip-path="url(#p875c142e92)" d="M 369.310161 271.657794 
L 328.057827 243.023287 
" style="fill:none;stroke:#000000;stroke-opacity:0.7;stroke-width:0.9594104554141858;"/>
    <path clip-path="url(#p875c142e92)" d="M 369.310161 271.657794 
L 314.426434 247.084404 
" style="fill:none;stroke:#000000;stroke-opacity:0.7;stroke-width:0.9594104554141858;"/>
    <path clip-path="url(#p875c142e92)" d="M 369.310161 271.657794 
L 332.900087 252.715366 
" style="fill:none;stroke:#000000;stroke-opacity:0.7;stroke-width:0.9594104554141858;"/>
    <path clip-path="url(#p875c142e92)" d="M 369.310161 271.657794 
L 319.168411 256.750527 
" style="fill:none;stroke:#000000;stroke-opacity:0.7;stroke-width:0.9594104554141858;"/>
    <path clip-path="url(#p875c142e92)" d="M 155.135979 116.884469 
L 118.722467 97.94156 
" style="fill:none;stroke:#000000;stroke-opacity:0.7;stroke-width:0.9594104554141858;"/>
    <path clip-path="url(#p875c142e92)" d="M 155.135979 116.884469 
L 104.988642 101.979125 
" style="fill:none;stroke:#000000;stroke-opacity:0.7;stroke-width:0.9594104554141858;"/>
    <path clip-path="url(#p875c142e92)" d="M 155.135979 116.884469 
L 113.880923 88.251404 
" style="fill:none;stroke:#000000;stroke-opacity:0.7;stroke-width:0.9594104554141858;"/>
    <path clip-path="url(#p875c142e92)" d="M 155.135979 116.884469 
L 100.248814 92.313002 
" style="fill:none;stroke:#000000;stroke-opacity:0.7;stroke-width:0.9594104554141858;"/>
    <path clip-path="url(#p875c142e92)" d="M 451.685893 83.718757 
L 410.433559 55.085691 
" style="fill:none;stroke:#000000;stroke-opacity:0.7;stroke-width:0.9594104554141858;"/>
    <path clip-path="url(#p875c142e92)" d="M 451.685893 83.718757 
L 396.802166 59.14729 
" style="fill:none;stroke:#000000;stroke-opacity:0.7;stroke-width:0.9594104554141858;"/>
    <path clip-path="url(#p875c142e92)" d="M 451.685893 83.718757 
L 415.275819 64.775847 
" style="fill:none;stroke:#000000;stroke-opacity:0.7;stroke-width:0.9594104554141858;"/>
    <path clip-path="url(#p875c142e92)" d="M 451.685893 83.718757 
L 401.544143 68.813412 
" style="fill:none;stroke:#000000;stroke-opacity:0.7;stroke-width:0.9594104554141858;"/>
    <path clip-path="url(#p875c142e92)" d="M 156.877904 253.134984 
L 146.831073 209.857575 
" style="fill:none;stroke:#000000;stroke-opacity:0.7;stroke-width:0.9594104554141858;"/>
    <path clip-path="url(#p875c142e92)" d="M 156.877904 253.134984 
L 133.199107 213.918548 
" style="fill:none;stroke:#000000;stroke-opacity:0.7;stroke-width:0.9594104554141858;"/>
    <path clip-path="url(#p875c142e92)" d="M 156.877904 253.134984 
L 151.672488 219.549845 
" style="fill:none;stroke:#000000;stroke-opacity:0.7;stroke-width:0.9594104554141858;"/>
    <path clip-path="url(#p875c142e92)" d="M 156.877904 253.134984 
L 137.938935 223.584815 
" style="fill:none;stroke:#000000;stroke-opacity:0.7;stroke-width:0.9594104554141858;"/>
    <path clip-path="url(#p875c142e92)" d="M 288.682227 175.748322 
L 283.474648 142.16251 
" style="fill:none;stroke:#000000;stroke-opacity:0.7;stroke-width:0.9594104554141858;"/>
    <path clip-path="url(#p875c142e92)" d="M 288.682227 175.748322 
L 269.742972 146.200075 
" style="fill:none;stroke:#000000;stroke-opacity:0.7;stroke-width:0.9594104554141858;"/>
    <path clip-path="url(#p875c142e92)" d="M 288.682227 175.748322 
L 278.632388 132.472354 
" style="fill:none;stroke:#000000;stroke-opacity:0.7;stroke-width:0.9594104554141858;"/>
    <path clip-path="url(#p875c142e92)" d="M 288.682227 175.748322 
L 265.000995 136.533952 
" style="fill:none;stroke:#000000;stroke-opacity:0.7;stroke-width:0.9594104554141858;"/>
    <path clip-path="url(#p875c142e92)" d="M 338.107666 286.298774 
L 328.057827 243.023287 
" style="fill:none;stroke:#000000;stroke-opacity:0.7;stroke-width:0.9594104554141858;"/>
    <path clip-path="url(#p875c142e92)" d="M 338.107666 286.298774 
L 314.426434 247.084404 
" style="fill:none;stroke:#000000;stroke-opacity:0.7;stroke-width:0.9594104554141858;"/>
    <path clip-path="url(#p875c142e92)" d="M 338.107666 286.298774 
L 332.900087 252.715366 
" style="fill:none;stroke:#000000;stroke-opacity:0.7;stroke-width:0.9594104554141858;"/>
    <path clip-path="url(#p875c142e92)" d="M 338.107666 286.298774 
L 319.168411 256.750527 
" style="fill:none;stroke:#000000;stroke-opacity:0.7;stroke-width:0.9594104554141858;"/>
    <path clip-path="url(#p875c142e92)" d="M 123.927897 131.525449 
L 118.722467 97.94156 
" style="fill:none;stroke:#000000;stroke-opacity:0.7;stroke-width:0.9594104554141858;"/>
    <path clip-path="url(#p875c142e92)" d="M 123.927897 131.525449 
L 104.988642 101.979125 
" style="fill:none;stroke:#000000;stroke-opacity:0.7;stroke-width:0.9594104554141858;"/>
    <path clip-path="url(#p875c142e92)" d="M 123.927897 131.525449 
L 113.880923 88.251404 
" style="fill:none;stroke:#000000;stroke-opacity:0.7;stroke-width:0.9594104554141858;"/>
    <path clip-path="url(#p875c142e92)" d="M 123.927897 131.525449 
L 100.248814 92.313002 
" style="fill:none;stroke:#000000;stroke-opacity:0.7;stroke-width:0.9594104554141858;"/>
    <path clip-path="url(#p875c142e92)" d="M 420.483398 98.359736 
L 410.433559 55.085691 
" style="fill:none;stroke:#000000;stroke-opacity:0.7;stroke-width:0.9594104554141858;"/>
    <path clip-path="url(#p875c142e92)" d="M 420.483398 98.359736 
L 396.802166 59.14729 
" style="fill:none;stroke:#000000;stroke-opacity:0.7;stroke-width:0.9594104554141858;"/>
    <path clip-path="url(#p875c142e92)" d="M 420.483398 98.359736 
L 415.275819 64.775847 
" style="fill:none;stroke:#000000;stroke-opacity:0.7;stroke-width:0.9594104554141858;"/>
    <path clip-path="url(#p875c142e92)" d="M 420.483398 98.359736 
L 401.544143 68.813412 
" style="fill:none;stroke:#000000;stroke-opacity:0.7;stroke-width:0.9594104554141858;"/>
    <path clip-path="url(#p875c142e92)" d="M 108.867465 186.582454 
L 146.831073 209.857575 
" style="fill:none;stroke:#000000;stroke-opacity:0.7;stroke-width:0.9594104554141858;"/>
    <path clip-path="url(#p875c142e92)" d="M 108.867465 186.582454 
L 133.199107 213.918548 
" style="fill:none;stroke:#000000;stroke-opacity:0.7;stroke-width:0.9594104554141858;"/>
    <path clip-path="url(#p875c142e92)" d="M 108.867465 186.582454 
L 151.672488 219.549845 
" style="fill:none;stroke:#000000;stroke-opacity:0.7;stroke-width:0.9594104554141858;"/>
    <path clip-path="url(#p875c142e92)" d="M 108.867465 186.582454 
L 137.938935 223.584815 
" style="fill:none;stroke:#000000;stroke-opacity:0.7;stroke-width:0.9594104554141858;"/>
    <path clip-path="url(#p875c142e92)" d="M 240.66792 109.193869 
L 283.474648 142.16251 
" style="fill:none;stroke:#000000;stroke-opacity:0.7;stroke-width:0.9594104554141858;"/>
    <path clip-path="url(#p875c142e92)" d="M 240.66792 109.193869 
L 269.742972 146.200075 
" style="fill:none;stroke:#000000;stroke-opacity:0.7;stroke-width:0.9594104554141858;"/>
    <path clip-path="url(#p875c142e92)" d="M 240.66792 109.193869 
L 278.632388 132.472354 
" style="fill:none;stroke:#000000;stroke-opacity:0.7;stroke-width:0.9594104554141858;"/>
    <path clip-path="url(#p875c142e92)" d="M 240.66792 109.193869 
L 265.000995 136.533952 
" style="fill:none;stroke:#000000;stroke-opacity:0.7;stroke-width:0.9594104554141858;"/>
    <path clip-path="url(#p875c142e92)" d="M 290.093359 219.748071 
L 328.057827 243.023287 
" style="fill:none;stroke:#000000;stroke-opacity:0.7;stroke-width:0.9594104554141858;"/>
    <path clip-path="url(#p875c142e92)" d="M 290.093359 219.748071 
L 314.426434 247.084404 
" style="fill:none;stroke:#000000;stroke-opacity:0.7;stroke-width:0.9594104554141858;"/>
    <path clip-path="url(#p875c142e92)" d="M 290.093359 219.748071 
L 332.900087 252.715366 
" style="fill:none;stroke:#000000;stroke-opacity:0.7;stroke-width:0.9594104554141858;"/>
    <path clip-path="url(#p875c142e92)" d="M 290.093359 219.748071 
L 319.168411 256.750527 
" style="fill:none;stroke:#000000;stroke-opacity:0.7;stroke-width:0.9594104554141858;"/>
    <path clip-path="url(#p875c142e92)" d="M 75.916455 64.972919 
L 118.722467 97.94156 
" style="fill:none;stroke:#000000;stroke-opacity:0.7;stroke-width:0.9594104554141858;"/>
    <path clip-path="url(#p875c142e92)" d="M 75.916455 64.972919 
L 104.988642 101.979125 
" style="fill:none;stroke:#000000;stroke-opacity:0.7;stroke-width:0.9594104554141858;"/>
    <path clip-path="url(#p875c142e92)" d="M 75.916455 64.972919 
L 113.880923 88.251404 
" style="fill:none;stroke:#000000;stroke-opacity:0.7;stroke-width:0.9594104554141858;"/>
    <path clip-path="url(#p875c142e92)" d="M 75.916455 64.972919 
L 100.248814 92.313002 
" style="fill:none;stroke:#000000;stroke-opacity:0.7;stroke-width:0.9594104554141858;"/>
    <path clip-path="url(#p875c142e92)" d="M 372.469091 31.807207 
L 410.433559 55.085691 
" style="fill:none;stroke:#000000;stroke-opacity:0.7;stroke-width:0.9594104554141858;"/>
    <path clip-path="url(#p875c142e92)" d="M 372.469091 31.807207 
L 396.802166 59.14729 
" style="fill:none;stroke:#000000;stroke-opacity:0.7;stroke-width:0.9594104554141858;"/>
    <path clip-path="url(#p875c142e92)" d="M 372.469091 31.807207 
L 415.275819 64.775847 
" style="fill:none;stroke:#000000;stroke-opacity:0.7;stroke-width:0.9594104554141858;"/>
    <path clip-path="url(#p875c142e92)" d="M 372.469091 31.807207 
L 401.544143 68.813412 
" style="fill:none;stroke:#000000;stroke-opacity:0.7;stroke-width:0.9594104554141858;"/>
    <path clip-path="url(#p875c142e92)" d="M 182.323696 190.243661 
L 146.831073 209.857575 
" style="fill:none;stroke:#000000;stroke-opacity:0.7;stroke-width:0.9594104554141858;"/>
    <path clip-path="url(#p875c142e92)" d="M 182.323696 190.243661 
L 133.199107 213.918548 
" style="fill:none;stroke:#000000;stroke-opacity:0.7;stroke-width:0.9594104554141858;"/>
    <path clip-path="url(#p875c142e92)" d="M 182.323696 190.243661 
L 151.672488 219.549845 
" style="fill:none;stroke:#000000;stroke-opacity:0.7;stroke-width:0.9594104554141858;"/>
    <path clip-path="url(#p875c142e92)" d="M 182.323696 190.243661 
L 137.938935 223.584815 
" style="fill:none;stroke:#000000;stroke-opacity:0.7;stroke-width:0.9594104554141858;"/>
    <path clip-path="url(#p875c142e92)" d="M 314.125584 112.856517 
L 283.474648 142.16251 
" style="fill:none;stroke:#000000;stroke-opacity:0.7;stroke-width:0.9594104554141858;"/>
    <path clip-path="url(#p875c142e92)" d="M 314.125584 112.856517 
L 269.742972 146.200075 
" style="fill:none;stroke:#000000;stroke-opacity:0.7;stroke-width:0.9594104554141858;"/>
    <path clip-path="url(#p875c142e92)" d="M 314.125584 112.856517 
L 278.632388 132.472354 
" style="fill:none;stroke:#000000;stroke-opacity:0.7;stroke-width:0.9594104554141858;"/>
    <path clip-path="url(#p875c142e92)" d="M 314.125584 112.856517 
L 265.000995 136.533952 
" style="fill:none;stroke:#000000;stroke-opacity:0.7;stroke-width:0.9594104554141858;"/>
    <path clip-path="url(#p875c142e92)" d="M 363.551023 223.409373 
L 328.057827 243.023287 
" style="fill:none;stroke:#000000;stroke-opacity:0.7;stroke-width:0.9594104554141858;"/>
    <path clip-path="url(#p875c142e92)" d="M 363.551023 223.409373 
L 314.426434 247.084404 
" style="fill:none;stroke:#000000;stroke-opacity:0.7;stroke-width:0.9594104554141858;"/>
    <path clip-path="url(#p875c142e92)" d="M 363.551023 223.409373 
L 332.900087 252.715366 
" style="fill:none;stroke:#000000;stroke-opacity:0.7;stroke-width:0.9594104554141858;"/>
    <path clip-path="url(#p875c142e92)" d="M 363.551023 223.409373 
L 319.168411 256.750527 
" style="fill:none;stroke:#000000;stroke-opacity:0.7;stroke-width:0.9594104554141858;"/>
    <path clip-path="url(#p875c142e92)" d="M 149.373546 68.635567 
L 118.722467 97.94156 
" style="fill:none;stroke:#000000;stroke-opacity:0.7;stroke-width:0.9594104554141858;"/>
    <path clip-path="url(#p875c142e92)" d="M 149.373546 68.635567 
L 104.988642 101.979125 
" style="fill:none;stroke:#000000;stroke-opacity:0.7;stroke-width:0.9594104554141858;"/>
    <path clip-path="url(#p875c142e92)" d="M 149.373546 68.635567 
L 113.880923 88.251404 
" style="fill:none;stroke:#000000;stroke-opacity:0.7;stroke-width:0.9594104554141858;"/>
    <path clip-path="url(#p875c142e92)" d="M 149.373546 68.635567 
L 100.248814 92.313002 
" style="fill:none;stroke:#000000;stroke-opacity:0.7;stroke-width:0.9594104554141858;"/>
    <path clip-path="url(#p875c142e92)" d="M 445.926755 35.469855 
L 410.433559 55.085691 
" style="fill:none;stroke:#000000;stroke-opacity:0.7;stroke-width:0.9594104554141858;"/>
    <path clip-path="url(#p875c142e92)" d="M 445.926755 35.469855 
L 396.802166 59.14729 
" style="fill:none;stroke:#000000;stroke-opacity:0.7;stroke-width:0.9594104554141858;"/>
    <path clip-path="url(#p875c142e92)" d="M 445.926755 35.469855 
L 415.275819 64.775847 
" style="fill:none;stroke:#000000;stroke-opacity:0.7;stroke-width:0.9594104554141858;"/>
    <path clip-path="url(#p875c142e92)" d="M 445.926755 35.469855 
L 401.544143 68.813412 
" style="fill:none;stroke:#000000;stroke-opacity:0.7;stroke-width:0.9594104554141858;"/>
   </g>
   <g id="PathCollection_1">
    <path clip-path="url(#p875c142e92)" d="M 88.054341 211.659898 
C 89.138202 211.659898 90.177818 211.229276 90.944224 210.462869 
C 91.71063 209.696463 92.141253 208.656848 92.141253 207.572986 
C 92.141253 206.489124 91.71063 205.449508 90.944224 204.683102 
C 90.177818 203.916696 89.138202 203.486073 88.054341 203.486073 
C 86.970479 203.486073 85.930863 203.916696 85.164457 204.683102 
C 84.398051 205.449508 83.967428 206.489124 83.967428 207.572986 
C 83.967428 208.656848 84.398051 209.696463 85.164457 210.462869 
C 85.930863 211.229276 86.970479 211.659898 88.054341 211.659898 
z
" style="fill:#f0f921;fill-opacity:0.95;stroke:#000000;stroke-opacity:0.95;"/>
    <path clip-path="url(#p875c142e92)" d="M 219.855512 134.271313 
C 220.939374 134.271313 221.97899 133.84069 222.745396 133.074284 
C 223.511802 132.307878 223.942425 131.268262 223.942425 130.1844 
C 223.942425 129.100539 223.511802 128.060923 222.745396 127.294517 
C 221.97899 126.528111 220.939374 126.097488 219.855512 126.097488 
C 218.77165 126.097488 217.732034 126.528111 216.965628 127.294517 
C 216.199222 128.060923 215.768599 129.100539 215.768599 130.1844 
C 215.768599 131.268262 216.199222 132.307878 216.965628 133.074284 
C 217.732034 133.84069 218.77165 134.271313 219.855512 134.271313 
z
" style="fill:#f0f921;fill-opacity:0.95;stroke:#000000;stroke-opacity:0.95;"/>
    <path clip-path="url(#p875c142e92)" d="M 269.284533 244.825611 
C 270.368395 244.825611 271.40801 244.394988 272.174417 243.628582 
C 272.940823 242.862176 273.371446 241.82256 273.371446 240.738698 
C 273.371446 239.654836 272.940823 238.615221 272.174417 237.848814 
C 271.40801 237.082408 270.368395 236.651785 269.284533 236.651785 
C 268.200671 236.651785 267.161055 237.082408 266.394649 237.848814 
C 265.628243 238.615221 265.19762 239.654836 265.19762 240.738698 
C 265.19762 241.82256 265.628243 242.862176 266.394649 243.628582 
C 267.161055 244.394988 268.200671 244.825611 269.284533 244.825611 
z
" style="fill:#f0f921;fill-opacity:0.95;stroke:#000000;stroke-opacity:0.95;"/>
    <path clip-path="url(#p875c142e92)" d="M 55.107629 90.050363 
C 56.191491 90.050363 57.231107 89.61974 57.997513 88.853334 
C 58.763919 88.086928 59.194542 87.047312 59.194542 85.96345 
C 59.194542 84.879589 58.763919 83.839973 57.997513 83.073567 
C 57.231107 82.307161 56.191491 81.876538 55.107629 81.876538 
C 54.023767 81.876538 52.984152 82.307161 52.217745 83.073567 
C 51.451339 83.839973 51.020716 84.879589 51.020716 85.96345 
C 51.020716 87.047312 51.451339 88.086928 52.217745 88.853334 
C 52.984152 89.61974 54.023767 90.050363 55.107629 90.050363 
z
" style="fill:#f0f921;fill-opacity:0.95;stroke:#000000;stroke-opacity:0.95;"/>
    <path clip-path="url(#p875c142e92)" d="M 351.660265 56.884651 
C 352.744127 56.884651 353.783743 56.454028 354.550149 55.687622 
C 355.316555 54.921216 355.747178 53.8816 355.747178 52.797738 
C 355.747178 51.713876 355.316555 50.67426 354.550149 49.907854 
C 353.783743 49.141448 352.744127 48.710825 351.660265 48.710825 
C 350.576403 48.710825 349.536787 49.141448 348.770381 49.907854 
C 348.003975 50.67426 347.573352 51.713876 347.573352 52.797738 
C 347.573352 53.8816 348.003975 54.921216 348.770381 55.687622 
C 349.536787 56.454028 350.576403 56.884651 351.660265 56.884651 
z
" style="fill:#f0f921;fill-opacity:0.95;stroke:#000000;stroke-opacity:0.95;"/>
    <path clip-path="url(#p875c142e92)" d="M 145.828668 183.183049 
C 146.91253 183.183049 147.952145 182.752426 148.718551 181.98602 
C 149.484958 181.219613 149.915581 180.179998 149.915581 179.096136 
C 149.915581 178.012274 149.484958 176.972658 148.718551 176.206252 
C 147.952145 175.439846 146.91253 175.009223 145.828668 175.009223 
C 144.744806 175.009223 143.70519 175.439846 142.938784 176.206252 
C 142.172378 176.972658 141.741755 178.012274 141.741755 179.096136 
C 141.741755 180.179998 142.172378 181.219613 142.938784 181.98602 
C 143.70519 182.752426 144.744806 183.183049 145.828668 183.183049 
z
" style="fill:#f0f921;fill-opacity:0.95;stroke:#000000;stroke-opacity:0.95;"/>
    <path clip-path="url(#p875c142e92)" d="M 277.629553 105.796867 
C 278.713415 105.796867 279.75303 105.366244 280.519436 104.599838 
C 281.285843 103.833432 281.716465 102.793816 281.716465 101.709954 
C 281.716465 100.626092 281.285843 99.586476 280.519436 98.82007 
C 279.75303 98.053664 278.713415 97.623041 277.629553 97.623041 
C 276.545691 97.623041 275.506075 98.053664 274.739669 98.82007 
C 273.973263 99.586476 273.54264 100.626092 273.54264 101.709954 
C 273.54264 102.793816 273.973263 103.833432 274.739669 104.599838 
C 275.506075 105.366244 276.545691 105.796867 277.629553 105.796867 
z
" style="fill:#f0f921;fill-opacity:0.95;stroke:#000000;stroke-opacity:0.95;"/>
    <path clip-path="url(#p875c142e92)" d="M 327.054992 216.348761 
C 328.138854 216.348761 329.17847 215.918138 329.944876 215.151732 
C 330.711282 214.385326 331.141905 213.34571 331.141905 212.261848 
C 331.141905 211.177986 330.711282 210.138371 329.944876 209.371965 
C 329.17847 208.605558 328.138854 208.174935 327.054992 208.174935 
C 325.97113 208.174935 324.931514 208.605558 324.165108 209.371965 
C 323.398702 210.138371 322.968079 211.177986 322.968079 212.261848 
C 322.968079 213.34571 323.398702 214.385326 324.165108 215.151732 
C 324.931514 215.918138 325.97113 216.348761 327.054992 216.348761 
z
" style="fill:#f0f921;fill-opacity:0.95;stroke:#000000;stroke-opacity:0.95;"/>
    <path clip-path="url(#p875c142e92)" d="M 112.878088 61.575917 
C 113.96195 61.575917 115.001566 61.145294 115.767972 60.378888 
C 116.534378 59.612482 116.965001 58.572866 116.965001 57.489004 
C 116.965001 56.405142 116.534378 55.365526 115.767972 54.59912 
C 115.001566 53.832714 113.96195 53.402091 112.878088 53.402091 
C 111.794226 53.402091 110.754611 53.832714 109.988205 54.59912 
C 109.221798 55.365526 108.791175 56.405142 108.791175 57.489004 
C 108.791175 58.572866 109.221798 59.612482 109.988205 60.378888 
C 110.754611 61.145294 111.794226 61.575917 112.878088 61.575917 
z
" style="fill:#f0f921;fill-opacity:0.95;stroke:#000000;stroke-opacity:0.95;"/>
    <path clip-path="url(#p875c142e92)" d="M 409.430724 28.410204 
C 410.514586 28.410204 411.554202 27.979581 412.320608 27.213175 
C 413.087014 26.446769 413.517637 25.407153 413.517637 24.323291 
C 413.517637 23.23943 413.087014 22.199814 412.320608 21.433408 
C 411.554202 20.667002 410.514586 20.236379 409.430724 20.236379 
C 408.346862 20.236379 407.307246 20.667002 406.54084 21.433408 
C 405.774434 22.199814 405.343811 23.23943 405.343811 24.323291 
C 405.343811 25.407153 405.774434 26.446769 406.54084 27.213175 
C 407.307246 27.979581 408.346862 28.410204 409.430724 28.410204 
z
" style="fill:#f0f921;fill-opacity:0.95;stroke:#000000;stroke-opacity:0.95;"/>
    <path clip-path="url(#p875c142e92)" d="M 118.072774 254.852231 
C 119.156636 254.852231 120.196251 254.421608 120.962657 253.655202 
C 121.729064 252.888796 122.159686 251.84918 122.159686 250.765318 
C 122.159686 249.681456 121.729064 248.64184 120.962657 247.875434 
C 120.196251 247.109028 119.156636 246.678405 118.072774 246.678405 
C 116.988912 246.678405 115.949296 247.109028 115.18289 247.875434 
C 114.416484 248.64184 113.985861 249.681456 113.985861 250.765318 
C 113.985861 251.84918 114.416484 252.888796 115.18289 253.655202 
C 115.949296 254.421608 116.988912 254.852231 118.072774 254.852231 
z
" style="fill:#f0f921;fill-opacity:0.95;stroke:#000000;stroke-opacity:0.95;"/>
    <path clip-path="url(#p875c142e92)" d="M 249.872512 177.465568 
C 250.956374 177.465568 251.99599 177.034945 252.762396 176.268539 
C 253.528802 175.502133 253.959425 174.462517 253.959425 173.378655 
C 253.959425 172.294793 253.528802 171.255178 252.762396 170.488772 
C 251.99599 169.722365 250.956374 169.291743 249.872512 169.291743 
C 248.78865 169.291743 247.749035 169.722365 246.982629 170.488772 
C 246.216223 171.255178 245.7856 172.294793 245.7856 173.378655 
C 245.7856 174.462517 246.216223 175.502133 246.982629 176.268539 
C 247.749035 177.034945 248.78865 177.465568 249.872512 177.465568 
z
" style="fill:#f0f921;fill-opacity:0.95;stroke:#000000;stroke-opacity:0.95;"/>
    <path clip-path="url(#p875c142e92)" d="M 299.297952 288.016021 
C 300.381814 288.016021 301.421429 287.585398 302.187835 286.818992 
C 302.954242 286.052585 303.384865 285.01297 303.384865 283.929108 
C 303.384865 282.845246 302.954242 281.80563 302.187835 281.039224 
C 301.421429 280.272818 300.381814 279.842195 299.297952 279.842195 
C 298.21409 279.842195 297.174474 280.272818 296.408068 281.039224 
C 295.641662 281.80563 295.211039 282.845246 295.211039 283.929108 
C 295.211039 285.01297 295.641662 286.052585 296.408068 286.818992 
C 297.174474 287.585398 298.21409 288.016021 299.297952 288.016021 
z
" style="fill:#f0f921;fill-opacity:0.95;stroke:#000000;stroke-opacity:0.95;"/>
    <path clip-path="url(#p875c142e92)" d="M 85.122481 133.242696 
C 86.206343 133.242696 87.245958 132.812073 88.012365 132.045667 
C 88.778771 131.27926 89.209394 130.239645 89.209394 129.155783 
C 89.209394 128.071921 88.778771 127.032305 88.012365 126.265899 
C 87.245958 125.499493 86.206343 125.06887 85.122481 125.06887 
C 84.038619 125.06887 82.999003 125.499493 82.232597 126.265899 
C 81.466191 127.032305 81.035568 128.071921 81.035568 129.155783 
C 81.035568 130.239645 81.466191 131.27926 82.232597 132.045667 
C 82.999003 132.812073 84.038619 133.242696 85.122481 133.242696 
z
" style="fill:#f0f921;fill-opacity:0.95;stroke:#000000;stroke-opacity:0.95;"/>
    <path clip-path="url(#p875c142e92)" d="M 381.673684 100.076983 
C 382.757546 100.076983 383.797162 99.64636 384.563568 98.879954 
C 385.329974 98.113548 385.760597 97.073932 385.760597 95.99007 
C 385.760597 94.906208 385.329974 93.866593 384.563568 93.100186 
C 383.797162 92.33378 382.757546 91.903157 381.673684 91.903157 
C 380.589822 91.903157 379.550206 92.33378 378.7838 93.100186 
C 378.017394 93.866593 377.586771 94.906208 377.586771 95.99007 
C 377.586771 97.073932 378.017394 98.113548 378.7838 98.879954 
C 379.550206 99.64636 380.589822 100.076983 381.673684 100.076983 
z
" style="fill:#f0f921;fill-opacity:0.95;stroke:#000000;stroke-opacity:0.95;"/>
    <path clip-path="url(#p875c142e92)" d="M 198.231524 217.940235 
C 199.315386 217.940235 200.355002 217.509612 201.121408 216.743206 
C 201.887814 215.9768 202.318437 214.937184 202.318437 213.853322 
C 202.318437 212.76946 201.887814 211.729844 201.121408 210.963438 
C 200.355002 210.197032 199.315386 209.766409 198.231524 209.766409 
C 197.147662 209.766409 196.108046 210.197032 195.34164 210.963438 
C 194.575234 211.729844 194.144611 212.76946 194.144611 213.853322 
C 194.144611 214.937184 194.575234 215.9768 195.34164 216.743206 
C 196.108046 217.509612 197.147662 217.940235 198.231524 217.940235 
z
" style="fill:#f0f921;fill-opacity:0.95;stroke:#000000;stroke-opacity:0.95;"/>
    <path clip-path="url(#p875c142e92)" d="M 330.034844 140.553572 
C 331.118706 140.553572 332.158322 140.122949 332.924728 139.356543 
C 333.691134 138.590137 334.121757 137.550521 334.121757 136.466659 
C 334.121757 135.382797 333.691134 134.343182 332.924728 133.576776 
C 332.158322 132.810369 331.118706 132.379747 330.034844 132.379747 
C 328.950983 132.379747 327.911367 132.810369 327.144961 133.576776 
C 326.378555 134.343182 325.947932 135.382797 325.947932 136.466659 
C 325.947932 137.550521 326.378555 138.590137 327.144961 139.356543 
C 327.911367 140.122949 328.950983 140.553572 330.034844 140.553572 
z
" style="fill:#f0f921;fill-opacity:0.95;stroke:#000000;stroke-opacity:0.95;"/>
    <path clip-path="url(#p875c142e92)" d="M 379.460284 251.105947 
C 380.544146 251.105947 381.583761 250.675324 382.350168 249.908918 
C 383.116574 249.142512 383.547197 248.102896 383.547197 247.019034 
C 383.547197 245.935172 383.116574 244.895557 382.350168 244.129151 
C 381.583761 243.362744 380.544146 242.932122 379.460284 242.932122 
C 378.376422 242.932122 377.336806 243.362744 376.5704 244.129151 
C 375.803994 244.895557 375.373371 245.935172 375.373371 247.019034 
C 375.373371 248.102896 375.803994 249.142512 376.5704 249.908918 
C 377.336806 250.675324 378.376422 251.105947 379.460284 251.105947 
z
" style="fill:#f0f921;fill-opacity:0.95;stroke:#000000;stroke-opacity:0.95;"/>
    <path clip-path="url(#p875c142e92)" d="M 165.281231 96.332622 
C 166.365093 96.332622 167.404709 95.901999 168.171115 95.135593 
C 168.937521 94.369187 169.368144 93.329571 169.368144 92.245709 
C 169.368144 91.161847 168.937521 90.122232 168.171115 89.355826 
C 167.404709 88.589419 166.365093 88.158797 165.281231 88.158797 
C 164.197369 88.158797 163.157754 88.589419 162.391347 89.355826 
C 161.624941 90.122232 161.194318 91.161847 161.194318 92.245709 
C 161.194318 93.329571 161.624941 94.369187 162.391347 95.135593 
C 163.157754 95.901999 164.197369 96.332622 165.281231 96.332622 
z
" style="fill:#f0f921;fill-opacity:0.95;stroke:#000000;stroke-opacity:0.95;"/>
    <path clip-path="url(#p875c142e92)" d="M 461.836016 63.16691 
C 462.919878 63.16691 463.959494 62.736287 464.7259 61.969881 
C 465.492306 61.203475 465.922929 60.163859 465.922929 59.079997 
C 465.922929 57.996135 465.492306 56.956519 464.7259 56.190113 
C 463.959494 55.423707 462.919878 54.993084 461.836016 54.993084 
C 460.752154 54.993084 459.712538 55.423707 458.946132 56.190113 
C 458.179726 56.956519 457.749103 57.996135 457.749103 59.079997 
C 457.749103 60.163859 458.179726 61.203475 458.946132 61.969881 
C 459.712538 62.736287 460.752154 63.16691 461.836016 63.16691 
z
" style="fill:#f0f921;fill-opacity:0.95;stroke:#000000;stroke-opacity:0.95;"/>
    <path clip-path="url(#p875c142e92)" d="M 91.454667 236.584652 
C 92.538529 236.584652 93.578145 236.15403 94.344551 235.387623 
C 95.110957 234.621217 95.54158 233.581602 95.54158 232.49774 
C 95.54158 231.413878 95.110957 230.374262 94.344551 229.607856 
C 93.578145 228.84145 92.538529 228.410827 91.454667 228.410827 
C 90.370806 228.410827 89.33119 228.84145 88.564784 229.607856 
C 87.798378 230.374262 87.367755 231.413878 87.367755 232.49774 
C 87.367755 233.581602 87.798378 234.621217 88.564784 235.387623 
C 89.33119 236.15403 90.370806 236.584652 91.454667 236.584652 
z
" style="fill:#f0f921;fill-opacity:0.95;stroke:#000000;stroke-opacity:0.95;"/>
    <path clip-path="url(#p875c142e92)" d="M 223.254406 159.198471 
C 224.338268 159.198471 225.377884 158.767848 226.14429 158.001442 
C 226.910696 157.235035 227.341319 156.19542 227.341319 155.111558 
C 227.341319 154.027696 226.910696 152.98808 226.14429 152.221674 
C 225.377884 151.455268 224.338268 151.024645 223.254406 151.024645 
C 222.170544 151.024645 221.130929 151.455268 220.364523 152.221674 
C 219.598116 152.98808 219.167493 154.027696 219.167493 155.111558 
C 219.167493 156.19542 219.598116 157.235035 220.364523 158.001442 
C 221.130929 158.767848 222.170544 159.198471 223.254406 159.198471 
z
" style="fill:#f0f921;fill-opacity:0.95;stroke:#000000;stroke-opacity:0.95;"/>
    <path clip-path="url(#p875c142e92)" d="M 272.679846 269.750846 
C 273.763708 269.750846 274.803323 269.320223 275.569729 268.553817 
C 276.336135 267.78741 276.766758 266.747795 276.766758 265.663933 
C 276.766758 264.580071 276.336135 263.540455 275.569729 262.774049 
C 274.803323 262.007643 273.763708 261.57702 272.679846 261.57702 
C 271.595984 261.57702 270.556368 262.007643 269.789962 262.774049 
C 269.023556 263.540455 268.592933 264.580071 268.592933 265.663933 
C 268.592933 266.747795 269.023556 267.78741 269.789962 268.553817 
C 270.556368 269.320223 271.595984 269.750846 272.679846 269.750846 
z
" style="fill:#f0f921;fill-opacity:0.95;stroke:#000000;stroke-opacity:0.95;"/>
    <path clip-path="url(#p875c142e92)" d="M 58.502942 114.977521 
C 59.586804 114.977521 60.62642 114.546898 61.392826 113.780492 
C 62.159232 113.014085 62.589855 111.97447 62.589855 110.890608 
C 62.589855 109.806746 62.159232 108.76713 61.392826 108.000724 
C 60.62642 107.234318 59.586804 106.803695 58.502942 106.803695 
C 57.41908 106.803695 56.379464 107.234318 55.613058 108.000724 
C 54.846652 108.76713 54.416029 109.806746 54.416029 110.890608 
C 54.416029 111.97447 54.846652 113.014085 55.613058 113.780492 
C 56.379464 114.546898 57.41908 114.977521 58.502942 114.977521 
z
" style="fill:#f0f921;fill-opacity:0.95;stroke:#000000;stroke-opacity:0.95;"/>
    <path clip-path="url(#p875c142e92)" d="M 355.055578 81.811808 
C 356.13944 81.811808 357.179055 81.381185 357.945461 80.614779 
C 358.711868 79.848373 359.142491 78.808757 359.142491 77.724895 
C 359.142491 76.641033 358.711868 75.601418 357.945461 74.835011 
C 357.179055 74.068605 356.13944 73.637982 355.055578 73.637982 
C 353.971716 73.637982 352.9321 74.068605 352.165694 74.835011 
C 351.399288 75.601418 350.968665 76.641033 350.968665 77.724895 
C 350.968665 78.808757 351.399288 79.848373 352.165694 80.614779 
C 352.9321 81.381185 353.971716 81.811808 355.055578 81.811808 
z
" style="fill:#f0f921;fill-opacity:0.95;stroke:#000000;stroke-opacity:0.95;"/>
    <path clip-path="url(#p875c142e92)" d="M 188.086415 242.576591 
C 189.170277 242.576591 190.209893 242.145968 190.976299 241.379562 
C 191.742705 240.613156 192.173328 239.57354 192.173328 238.489678 
C 192.173328 237.405816 191.742705 236.366201 190.976299 235.599795 
C 190.209893 234.833388 189.170277 234.402765 188.086415 234.402765 
C 187.002554 234.402765 185.962938 234.833388 185.196532 235.599795 
C 184.430126 236.366201 183.999503 237.405816 183.999503 238.489678 
C 183.999503 239.57354 184.430126 240.613156 185.196532 241.379562 
C 185.962938 242.145968 187.002554 242.576591 188.086415 242.576591 
z
" style="fill:#f0f921;fill-opacity:0.95;stroke:#000000;stroke-opacity:0.95;"/>
    <path clip-path="url(#p875c142e92)" d="M 319.884722 165.192332 
C 320.968584 165.192332 322.008199 164.761709 322.774605 163.995303 
C 323.541012 163.228897 323.971634 162.189281 323.971634 161.105419 
C 323.971634 160.021557 323.541012 158.981941 322.774605 158.215535 
C 322.008199 157.449129 320.968584 157.018506 319.884722 157.018506 
C 318.80086 157.018506 317.761244 157.449129 316.994838 158.215535 
C 316.228432 158.981941 315.797809 160.021557 315.797809 161.105419 
C 315.797809 162.189281 316.228432 163.228897 316.994838 163.995303 
C 317.761244 164.761709 318.80086 165.192332 319.884722 165.192332 
z
" style="fill:#f0f921;fill-opacity:0.95;stroke:#000000;stroke-opacity:0.95;"/>
    <path clip-path="url(#p875c142e92)" d="M 369.310161 275.744707 
C 370.394023 275.744707 371.433639 275.314084 372.200045 274.547678 
C 372.966451 273.781272 373.397074 272.741656 373.397074 271.657794 
C 373.397074 270.573932 372.966451 269.534316 372.200045 268.76791 
C 371.433639 268.001504 370.394023 267.570881 369.310161 267.570881 
C 368.226299 267.570881 367.186683 268.001504 366.420277 268.76791 
C 365.653871 269.534316 365.223248 270.573932 365.223248 271.657794 
C 365.223248 272.741656 365.653871 273.781272 366.420277 274.547678 
C 367.186683 275.314084 368.226299 275.744707 369.310161 275.744707 
z
" style="fill:#f0f921;fill-opacity:0.95;stroke:#000000;stroke-opacity:0.95;"/>
    <path clip-path="url(#p875c142e92)" d="M 155.135979 120.971382 
C 156.219841 120.971382 157.259457 120.540759 158.025863 119.774353 
C 158.792269 119.007947 159.222892 117.968331 159.222892 116.884469 
C 159.222892 115.800607 158.792269 114.760991 158.025863 113.994585 
C 157.259457 113.228179 156.219841 112.797556 155.135979 112.797556 
C 154.052117 112.797556 153.012502 113.228179 152.246096 113.994585 
C 151.479689 114.760991 151.049066 115.800607 151.049066 116.884469 
C 151.049066 117.968331 151.479689 119.007947 152.246096 119.774353 
C 153.012502 120.540759 154.052117 120.971382 155.135979 120.971382 
z
" style="fill:#f0f921;fill-opacity:0.95;stroke:#000000;stroke-opacity:0.95;"/>
    <path clip-path="url(#p875c142e92)" d="M 451.685893 87.805669 
C 452.769755 87.805669 453.809371 87.375047 454.575777 86.60864 
C 455.342183 85.842234 455.772806 84.802619 455.772806 83.718757 
C 455.772806 82.634895 455.342183 81.595279 454.575777 80.828873 
C 453.809371 80.062467 452.769755 79.631844 451.685893 79.631844 
C 450.602031 79.631844 449.562415 80.062467 448.796009 80.828873 
C 448.029603 81.595279 447.59898 82.634895 447.59898 83.718757 
C 447.59898 84.802619 448.029603 85.842234 448.796009 86.60864 
C 449.562415 87.375047 450.602031 87.805669 451.685893 87.805669 
z
" style="fill:#f0f921;fill-opacity:0.95;stroke:#000000;stroke-opacity:0.95;"/>
    <path clip-path="url(#p875c142e92)" d="M 156.877904 257.221897 
C 157.961766 257.221897 159.001381 256.791274 159.767788 256.024868 
C 160.534194 255.258462 160.964817 254.218846 160.964817 253.134984 
C 160.964817 252.051122 160.534194 251.011506 159.767788 250.2451 
C 159.001381 249.478694 157.961766 249.048071 156.877904 249.048071 
C 155.794042 249.048071 154.754426 249.478694 153.98802 250.2451 
C 153.221614 251.011506 152.790991 252.051122 152.790991 253.134984 
C 152.790991 254.218846 153.221614 255.258462 153.98802 256.024868 
C 154.754426 256.791274 155.794042 257.221897 156.877904 257.221897 
z
" style="fill:#f0f921;fill-opacity:0.95;stroke:#000000;stroke-opacity:0.95;"/>
    <path clip-path="url(#p875c142e92)" d="M 288.682227 179.835234 
C 289.766089 179.835234 290.805705 179.404611 291.572111 178.638205 
C 292.338517 177.871799 292.76914 176.832183 292.76914 175.748322 
C 292.76914 174.66446 292.338517 173.624844 291.572111 172.858438 
C 290.805705 172.092032 289.766089 171.661409 288.682227 171.661409 
C 287.598365 171.661409 286.558749 172.092032 285.792343 172.858438 
C 285.025937 173.624844 284.595314 174.66446 284.595314 175.748322 
C 284.595314 176.832183 285.025937 177.871799 285.792343 178.638205 
C 286.558749 179.404611 287.598365 179.835234 288.682227 179.835234 
z
" style="fill:#f0f921;fill-opacity:0.95;stroke:#000000;stroke-opacity:0.95;"/>
    <path clip-path="url(#p875c142e92)" d="M 338.107666 290.385687 
C 339.191528 290.385687 340.231144 289.955064 340.99755 289.188658 
C 341.763956 288.422252 342.194579 287.382636 342.194579 286.298774 
C 342.194579 285.214912 341.763956 284.175296 340.99755 283.40889 
C 340.231144 282.642484 339.191528 282.211861 338.107666 282.211861 
C 337.023804 282.211861 335.984189 282.642484 335.217782 283.40889 
C 334.451376 284.175296 334.020753 285.214912 334.020753 286.298774 
C 334.020753 287.382636 334.451376 288.422252 335.217782 289.188658 
C 335.984189 289.955064 337.023804 290.385687 338.107666 290.385687 
z
" style="fill:#f0f921;fill-opacity:0.95;stroke:#000000;stroke-opacity:0.95;"/>
    <path clip-path="url(#p875c142e92)" d="M 123.927897 135.612362 
C 125.011759 135.612362 126.051375 135.181739 126.817781 134.415333 
C 127.584187 133.648927 128.01481 132.609311 128.01481 131.525449 
C 128.01481 130.441587 127.584187 129.401971 126.817781 128.635565 
C 126.051375 127.869159 125.011759 127.438536 123.927897 127.438536 
C 122.844035 127.438536 121.80442 127.869159 121.038014 128.635565 
C 120.271607 129.401971 119.840985 130.441587 119.840985 131.525449 
C 119.840985 132.609311 120.271607 133.648927 121.038014 134.415333 
C 121.80442 135.181739 122.844035 135.612362 123.927897 135.612362 
z
" style="fill:#f0f921;fill-opacity:0.95;stroke:#000000;stroke-opacity:0.95;"/>
    <path clip-path="url(#p875c142e92)" d="M 420.483398 102.446649 
C 421.56726 102.446649 422.606876 102.016026 423.373282 101.24962 
C 424.139688 100.483214 424.570311 99.443598 424.570311 98.359736 
C 424.570311 97.275874 424.139688 96.236259 423.373282 95.469853 
C 422.606876 94.703446 421.56726 94.272824 420.483398 94.272824 
C 419.399536 94.272824 418.359921 94.703446 417.593515 95.469853 
C 416.827108 96.236259 416.396486 97.275874 416.396486 98.359736 
C 416.396486 99.443598 416.827108 100.483214 417.593515 101.24962 
C 418.359921 102.016026 419.399536 102.446649 420.483398 102.446649 
z
" style="fill:#f0f921;fill-opacity:0.95;stroke:#000000;stroke-opacity:0.95;"/>
    <path clip-path="url(#p875c142e92)" d="M 108.867465 190.669367 
C 109.951327 190.669367 110.990942 190.238744 111.757348 189.472338 
C 112.523755 188.705932 112.954377 187.666316 112.954377 186.582454 
C 112.954377 185.498592 112.523755 184.458977 111.757348 183.69257 
C 110.990942 182.926164 109.951327 182.495541 108.867465 182.495541 
C 107.783603 182.495541 106.743987 182.926164 105.977581 183.69257 
C 105.211175 184.458977 104.780552 185.498592 104.780552 186.582454 
C 104.780552 187.666316 105.211175 188.705932 105.977581 189.472338 
C 106.743987 190.238744 107.783603 190.669367 108.867465 190.669367 
z
" style="fill:#f0f921;fill-opacity:0.95;stroke:#000000;stroke-opacity:0.95;"/>
    <path clip-path="url(#p875c142e92)" d="M 240.66792 113.280782 
C 241.751782 113.280782 242.791397 112.850159 243.557804 112.083753 
C 244.32421 111.317347 244.754833 110.277731 244.754833 109.193869 
C 244.754833 108.110007 244.32421 107.070391 243.557804 106.303985 
C 242.791397 105.537579 241.751782 105.106956 240.66792 105.106956 
C 239.584058 105.106956 238.544442 105.537579 237.778036 106.303985 
C 237.01163 107.070391 236.581007 108.110007 236.581007 109.193869 
C 236.581007 110.277731 237.01163 111.317347 237.778036 112.083753 
C 238.544442 112.850159 239.584058 113.280782 240.66792 113.280782 
z
" style="fill:#f0f921;fill-opacity:0.95;stroke:#000000;stroke-opacity:0.95;"/>
    <path clip-path="url(#p875c142e92)" d="M 290.093359 223.834983 
C 291.177221 223.834983 292.216837 223.404361 292.983243 222.637954 
C 293.749649 221.871548 294.180272 220.831933 294.180272 219.748071 
C 294.180272 218.664209 293.749649 217.624593 292.983243 216.858187 
C 292.216837 216.091781 291.177221 215.661158 290.093359 215.661158 
C 289.009497 215.661158 287.969881 216.091781 287.203475 216.858187 
C 286.437069 217.624593 286.006446 218.664209 286.006446 219.748071 
C 286.006446 220.831933 286.437069 221.871548 287.203475 222.637954 
C 287.969881 223.404361 289.009497 223.834983 290.093359 223.834983 
z
" style="fill:#f0f921;fill-opacity:0.95;stroke:#000000;stroke-opacity:0.95;"/>
    <path clip-path="url(#p875c142e92)" d="M 75.916455 69.059832 
C 77.000317 69.059832 78.039933 68.629209 78.806339 67.862803 
C 79.572745 67.096397 80.003368 66.056781 80.003368 64.972919 
C 80.003368 63.889057 79.572745 62.849441 78.806339 62.083035 
C 78.039933 61.316629 77.000317 60.886006 75.916455 60.886006 
C 74.832594 60.886006 73.792978 61.316629 73.026572 62.083035 
C 72.260166 62.849441 71.829543 63.889057 71.829543 64.972919 
C 71.829543 66.056781 72.260166 67.096397 73.026572 67.862803 
C 73.792978 68.629209 74.832594 69.059832 75.916455 69.059832 
z
" style="fill:#f0f921;fill-opacity:0.95;stroke:#000000;stroke-opacity:0.95;"/>
    <path clip-path="url(#p875c142e92)" d="M 372.469091 35.894119 
C 373.552953 35.894119 374.592569 35.463497 375.358975 34.69709 
C 376.125381 33.930684 376.556004 32.891069 376.556004 31.807207 
C 376.556004 30.723345 376.125381 29.683729 375.358975 28.917323 
C 374.592569 28.150917 373.552953 27.720294 372.469091 27.720294 
C 371.385229 27.720294 370.345614 28.150917 369.579207 28.917323 
C 368.812801 29.683729 368.382178 30.723345 368.382178 31.807207 
C 368.382178 32.891069 368.812801 33.930684 369.579207 34.69709 
C 370.345614 35.463497 371.385229 35.894119 372.469091 35.894119 
z
" style="fill:#f0f921;fill-opacity:0.95;stroke:#000000;stroke-opacity:0.95;"/>
    <path clip-path="url(#p875c142e92)" d="M 182.323696 194.330573 
C 183.407558 194.330573 184.447173 193.89995 185.21358 193.133544 
C 185.979986 192.367138 186.410609 191.327522 186.410609 190.243661 
C 186.410609 189.159799 185.979986 188.120183 185.21358 187.353777 
C 184.447173 186.587371 183.407558 186.156748 182.323696 186.156748 
C 181.239834 186.156748 180.200218 186.587371 179.433812 187.353777 
C 178.667406 188.120183 178.236783 189.159799 178.236783 190.243661 
C 178.236783 191.327522 178.667406 192.367138 179.433812 193.133544 
C 180.200218 193.89995 181.239834 194.330573 182.323696 194.330573 
z
" style="fill:#f0f921;fill-opacity:0.95;stroke:#000000;stroke-opacity:0.95;"/>
    <path clip-path="url(#p875c142e92)" d="M 314.125584 116.94343 
C 315.209445 116.94343 316.249061 116.512807 317.015467 115.746401 
C 317.781873 114.979995 318.212496 113.940379 318.212496 112.856517 
C 318.212496 111.772655 317.781873 110.73304 317.015467 109.966634 
C 316.249061 109.200227 315.209445 108.769605 314.125584 108.769605 
C 313.041722 108.769605 312.002106 109.200227 311.2357 109.966634 
C 310.469294 110.73304 310.038671 111.772655 310.038671 112.856517 
C 310.038671 113.940379 310.469294 114.979995 311.2357 115.746401 
C 312.002106 116.512807 313.041722 116.94343 314.125584 116.94343 
z
" style="fill:#f0f921;fill-opacity:0.95;stroke:#000000;stroke-opacity:0.95;"/>
    <path clip-path="url(#p875c142e92)" d="M 363.551023 227.496286 
C 364.634885 227.496286 365.6745 227.065663 366.440907 226.299257 
C 367.207313 225.532851 367.637936 224.493235 367.637936 223.409373 
C 367.637936 222.325511 367.207313 221.285895 366.440907 220.519489 
C 365.6745 219.753083 364.634885 219.32246 363.551023 219.32246 
C 362.467161 219.32246 361.427545 219.753083 360.661139 220.519489 
C 359.894733 221.285895 359.46411 222.325511 359.46411 223.409373 
C 359.46411 224.493235 359.894733 225.532851 360.661139 226.299257 
C 361.427545 227.065663 362.467161 227.496286 363.551023 227.496286 
z
" style="fill:#f0f921;fill-opacity:0.95;stroke:#000000;stroke-opacity:0.95;"/>
    <path clip-path="url(#p875c142e92)" d="M 149.373546 72.72248 
C 150.457408 72.72248 151.497024 72.291857 152.26343 71.525451 
C 153.029836 70.759045 153.460459 69.719429 153.460459 68.635567 
C 153.460459 67.551705 153.029836 66.51209 152.26343 65.745684 
C 151.497024 64.979277 150.457408 64.548655 149.373546 64.548655 
C 148.289684 64.548655 147.250069 64.979277 146.483662 65.745684 
C 145.717256 66.51209 145.286633 67.551705 145.286633 68.635567 
C 145.286633 69.719429 145.717256 70.759045 146.483662 71.525451 
C 147.250069 72.291857 148.289684 72.72248 149.373546 72.72248 
z
" style="fill:#f0f921;fill-opacity:0.95;stroke:#000000;stroke-opacity:0.95;"/>
    <path clip-path="url(#p875c142e92)" d="M 445.926755 39.556768 
C 447.010617 39.556768 448.050233 39.126145 448.816639 38.359739 
C 449.583045 37.593333 450.013668 36.553717 450.013668 35.469855 
C 450.013668 34.385993 449.583045 33.346377 448.816639 32.579971 
C 448.050233 31.813565 447.010617 31.382942 445.926755 31.382942 
C 444.842893 31.382942 443.803277 31.813565 443.036871 32.579971 
C 442.270465 33.346377 441.839842 34.385993 441.839842 35.469855 
C 441.839842 36.553717 442.270465 37.593333 443.036871 38.359739 
C 443.803277 39.126145 444.842893 39.556768 445.926755 39.556768 
z
" style="fill:#f0f921;fill-opacity:0.95;stroke:#000000;stroke-opacity:0.95;"/>
    <path clip-path="url(#p875c142e92)" d="M 151.672488 223.771302 
C 152.792031 223.771302 153.865872 223.326503 154.657509 222.534866 
C 155.449145 221.743229 155.893945 220.669389 155.893945 219.549845 
C 155.893945 218.430302 155.449145 217.356462 154.657509 216.564825 
C 153.865872 215.773188 152.792031 215.328389 151.672488 215.328389 
C 150.552945 215.328389 149.479104 215.773188 148.687468 216.564825 
C 147.895831 217.356462 147.451032 218.430302 147.451032 219.549845 
C 147.451032 220.669389 147.895831 221.743229 148.687468 222.534866 
C 149.479104 223.326503 150.552945 223.771302 151.672488 223.771302 
z
" style="fill:#0d0887;fill-opacity:0.95;stroke:#000000;stroke-opacity:0.95;"/>
    <path clip-path="url(#p875c142e92)" d="M 137.938935 227.806271 
C 139.058478 227.806271 140.132319 227.361472 140.923955 226.569835 
C 141.715592 225.778199 142.160391 224.704358 142.160391 223.584815 
C 142.160391 222.465271 141.715592 221.391431 140.923955 220.599794 
C 140.132319 219.808158 139.058478 219.363358 137.938935 219.363358 
C 136.819392 219.363358 135.745551 219.808158 134.953914 220.599794 
C 134.162278 221.391431 133.717478 222.465271 133.717478 223.584815 
C 133.717478 224.704358 134.162278 225.778199 134.953914 226.569835 
C 135.745551 227.361472 136.819392 227.806271 137.938935 227.806271 
z
" style="fill:#0d0887;fill-opacity:0.95;stroke:#000000;stroke-opacity:0.95;"/>
    <path clip-path="url(#p875c142e92)" d="M 146.831073 214.079031 
C 147.950616 214.079031 149.024457 213.634232 149.816093 212.842595 
C 150.60773 212.050958 151.052529 210.977118 151.052529 209.857575 
C 151.052529 208.738031 150.60773 207.664191 149.816093 206.872554 
C 149.024457 206.080917 147.950616 205.636118 146.831073 205.636118 
C 145.71153 205.636118 144.637689 206.080917 143.846052 206.872554 
C 143.054416 207.664191 142.609616 208.738031 142.609616 209.857575 
C 142.609616 210.977118 143.054416 212.050958 143.846052 212.842595 
C 144.637689 213.634232 145.71153 214.079031 146.831073 214.079031 
z
" style="fill:#0d0887;fill-opacity:0.95;stroke:#000000;stroke-opacity:0.95;"/>
    <path clip-path="url(#p875c142e92)" d="M 133.199107 218.140004 
C 134.31865 218.140004 135.392491 217.695205 136.184128 216.903568 
C 136.975764 216.111932 137.420563 215.038091 137.420563 213.918548 
C 137.420563 212.799004 136.975764 211.725164 136.184128 210.933527 
C 135.392491 210.141891 134.31865 209.697091 133.199107 209.697091 
C 132.079564 209.697091 131.005723 210.141891 130.214086 210.933527 
C 129.42245 211.725164 128.97765 212.799004 128.97765 213.918548 
C 128.97765 215.038091 129.42245 216.111932 130.214086 216.903568 
C 131.005723 217.695205 132.079564 218.140004 133.199107 218.140004 
z
" style="fill:#0d0887;fill-opacity:0.95;stroke:#000000;stroke-opacity:0.95;"/>
    <path clip-path="url(#p875c142e92)" d="M 283.474648 146.383967 
C 284.594191 146.383967 285.668032 145.939167 286.459669 145.147531 
C 287.251305 144.355894 287.696105 143.282053 287.696105 142.16251 
C 287.696105 141.042967 287.251305 139.969126 286.459669 139.177489 
C 285.668032 138.385853 284.594191 137.941053 283.474648 137.941053 
C 282.355105 137.941053 281.281264 138.385853 280.489628 139.177489 
C 279.697991 139.969126 279.253192 141.042967 279.253192 142.16251 
C 279.253192 143.282053 279.697991 144.355894 280.489628 145.147531 
C 281.281264 145.939167 282.355105 146.383967 283.474648 146.383967 
z
" style="fill:#0d0887;fill-opacity:0.95;stroke:#000000;stroke-opacity:0.95;"/>
    <path clip-path="url(#p875c142e92)" d="M 269.742972 150.421532 
C 270.862515 150.421532 271.936355 149.976732 272.727992 149.185096 
C 273.519629 148.393459 273.964428 147.319618 273.964428 146.200075 
C 273.964428 145.080532 273.519629 144.006691 272.727992 143.215054 
C 271.936355 142.423418 270.862515 141.978618 269.742972 141.978618 
C 268.623428 141.978618 267.549588 142.423418 266.757951 143.215054 
C 265.966314 144.006691 265.521515 145.080532 265.521515 146.200075 
C 265.521515 147.319618 265.966314 148.393459 266.757951 149.185096 
C 267.549588 149.976732 268.623428 150.421532 269.742972 150.421532 
z
" style="fill:#0d0887;fill-opacity:0.95;stroke:#000000;stroke-opacity:0.95;"/>
    <path clip-path="url(#p875c142e92)" d="M 278.632388 136.693811 
C 279.751931 136.693811 280.825771 136.249011 281.617408 135.457375 
C 282.409045 134.665738 282.853844 133.591897 282.853844 132.472354 
C 282.853844 131.352811 282.409045 130.27897 281.617408 129.487333 
C 280.825771 128.695697 279.751931 128.250897 278.632388 128.250897 
C 277.512844 128.250897 276.439004 128.695697 275.647367 129.487333 
C 274.85573 130.27897 274.410931 131.352811 274.410931 132.472354 
C 274.410931 133.591897 274.85573 134.665738 275.647367 135.457375 
C 276.439004 136.249011 277.512844 136.693811 278.632388 136.693811 
z
" style="fill:#0d0887;fill-opacity:0.95;stroke:#000000;stroke-opacity:0.95;"/>
    <path clip-path="url(#p875c142e92)" d="M 265.000995 140.755409 
C 266.120538 140.755409 267.194379 140.310609 267.986015 139.518973 
C 268.777652 138.727336 269.222451 137.653495 269.222451 136.533952 
C 269.222451 135.414409 268.777652 134.340568 267.986015 133.548932 
C 267.194379 132.757295 266.120538 132.312496 265.000995 132.312496 
C 263.881451 132.312496 262.807611 132.757295 262.015974 133.548932 
C 261.224337 134.340568 260.779538 135.414409 260.779538 136.533952 
C 260.779538 137.653495 261.224337 138.727336 262.015974 139.518973 
C 262.807611 140.310609 263.881451 140.755409 265.000995 140.755409 
z
" style="fill:#0d0887;fill-opacity:0.95;stroke:#000000;stroke-opacity:0.95;"/>
    <path clip-path="url(#p875c142e92)" d="M 332.900087 256.936822 
C 334.019631 256.936822 335.093471 256.492023 335.885108 255.700386 
C 336.676745 254.908749 337.121544 253.834909 337.121544 252.715366 
C 337.121544 251.595822 336.676745 250.521982 335.885108 249.730345 
C 335.093471 248.938708 334.019631 248.493909 332.900087 248.493909 
C 331.780544 248.493909 330.706703 248.938708 329.915067 249.730345 
C 329.12343 250.521982 328.678631 251.595822 328.678631 252.715366 
C 328.678631 253.834909 329.12343 254.908749 329.915067 255.700386 
C 330.706703 256.492023 331.780544 256.936822 332.900087 256.936822 
z
" style="fill:#0d0887;fill-opacity:0.95;stroke:#000000;stroke-opacity:0.95;"/>
    <path clip-path="url(#p875c142e92)" d="M 319.168411 260.971984 
C 320.287954 260.971984 321.361795 260.527185 322.153431 259.735548 
C 322.945068 258.943911 323.389867 257.870071 323.389867 256.750527 
C 323.389867 255.630984 322.945068 254.557144 322.153431 253.765507 
C 321.361795 252.97387 320.287954 252.529071 319.168411 252.529071 
C 318.048868 252.529071 316.975027 252.97387 316.18339 253.765507 
C 315.391754 254.557144 314.946954 255.630984 314.946954 256.750527 
C 314.946954 257.870071 315.391754 258.943911 316.18339 259.735548 
C 316.975027 260.527185 318.048868 260.971984 319.168411 260.971984 
z
" style="fill:#0d0887;fill-opacity:0.95;stroke:#000000;stroke-opacity:0.95;"/>
    <path clip-path="url(#p875c142e92)" d="M 328.057827 247.244744 
C 329.17737 247.244744 330.251211 246.799944 331.042847 246.008308 
C 331.834484 245.216671 332.279283 244.14283 332.279283 243.023287 
C 332.279283 241.903744 331.834484 240.829903 331.042847 240.038266 
C 330.251211 239.24663 329.17737 238.801831 328.057827 238.801831 
C 326.938284 238.801831 325.864443 239.24663 325.072806 240.038266 
C 324.28117 240.829903 323.83637 241.903744 323.83637 243.023287 
C 323.83637 244.14283 324.28117 245.216671 325.072806 246.008308 
C 325.864443 246.799944 326.938284 247.244744 328.057827 247.244744 
z
" style="fill:#0d0887;fill-opacity:0.95;stroke:#000000;stroke-opacity:0.95;"/>
    <path clip-path="url(#p875c142e92)" d="M 314.426434 251.305861 
C 315.545977 251.305861 316.619818 250.861062 317.411455 250.069425 
C 318.203091 249.277788 318.647891 248.203948 318.647891 247.084404 
C 318.647891 245.964861 318.203091 244.891021 317.411455 244.099384 
C 316.619818 243.307747 315.545977 242.862948 314.426434 242.862948 
C 313.306891 242.862948 312.23305 243.307747 311.441413 244.099384 
C 310.649777 244.891021 310.204977 245.964861 310.204977 247.084404 
C 310.204977 248.203948 310.649777 249.277788 311.441413 250.069425 
C 312.23305 250.861062 313.306891 251.305861 314.426434 251.305861 
z
" style="fill:#0d0887;fill-opacity:0.95;stroke:#000000;stroke-opacity:0.95;"/>
    <path clip-path="url(#p875c142e92)" d="M 118.722467 102.163017 
C 119.842011 102.163017 120.915851 101.718217 121.707488 100.926581 
C 122.499125 100.134944 122.943924 99.061103 122.943924 97.94156 
C 122.943924 96.822017 122.499125 95.748176 121.707488 94.956539 
C 120.915851 94.164903 119.842011 93.720103 118.722467 93.720103 
C 117.602924 93.720103 116.529084 94.164903 115.737447 94.956539 
C 114.94581 95.748176 114.501011 96.822017 114.501011 97.94156 
C 114.501011 99.061103 114.94581 100.134944 115.737447 100.926581 
C 116.529084 101.718217 117.602924 102.163017 118.722467 102.163017 
z
" style="fill:#0d0887;fill-opacity:0.95;stroke:#000000;stroke-opacity:0.95;"/>
    <path clip-path="url(#p875c142e92)" d="M 104.988642 106.200582 
C 106.108185 106.200582 107.182026 105.755782 107.973663 104.964146 
C 108.765299 104.172509 109.210099 103.098668 109.210099 101.979125 
C 109.210099 100.859582 108.765299 99.785741 107.973663 98.994104 
C 107.182026 98.202468 106.108185 97.757668 104.988642 97.757668 
C 103.869099 97.757668 102.795258 98.202468 102.003622 98.994104 
C 101.211985 99.785741 100.767186 100.859582 100.767186 101.979125 
C 100.767186 103.098668 101.211985 104.172509 102.003622 104.964146 
C 102.795258 105.755782 103.869099 106.200582 104.988642 106.200582 
z
" style="fill:#0d0887;fill-opacity:0.95;stroke:#000000;stroke-opacity:0.95;"/>
    <path clip-path="url(#p875c142e92)" d="M 113.880923 92.472861 
C 115.000467 92.472861 116.074307 92.028061 116.865944 91.236425 
C 117.657581 90.444788 118.10238 89.370947 118.10238 88.251404 
C 118.10238 87.131861 117.657581 86.05802 116.865944 85.266383 
C 116.074307 84.474747 115.000467 84.029947 113.880923 84.029947 
C 112.76138 84.029947 111.687539 84.474747 110.895903 85.266383 
C 110.104266 86.05802 109.659467 87.131861 109.659467 88.251404 
C 109.659467 89.370947 110.104266 90.444788 110.895903 91.236425 
C 111.687539 92.028061 112.76138 92.472861 113.880923 92.472861 
z
" style="fill:#0d0887;fill-opacity:0.95;stroke:#000000;stroke-opacity:0.95;"/>
    <path clip-path="url(#p875c142e92)" d="M 100.248814 96.534459 
C 101.368357 96.534459 102.442198 96.089659 103.233835 95.298023 
C 104.025471 94.506386 104.470271 93.432545 104.470271 92.313002 
C 104.470271 91.193459 104.025471 90.119618 103.233835 89.327982 
C 102.442198 88.536345 101.368357 88.091546 100.248814 88.091546 
C 99.129271 88.091546 98.05543 88.536345 97.263794 89.327982 
C 96.472157 90.119618 96.027358 91.193459 96.027358 92.313002 
C 96.027358 93.432545 96.472157 94.506386 97.263794 95.298023 
C 98.05543 96.089659 99.129271 96.534459 100.248814 96.534459 
z
" style="fill:#0d0887;fill-opacity:0.95;stroke:#000000;stroke-opacity:0.95;"/>
    <path clip-path="url(#p875c142e92)" d="M 415.275819 68.997304 
C 416.395363 68.997304 417.469203 68.552505 418.26084 67.760868 
C 419.052477 66.969231 419.497276 65.895391 419.497276 64.775847 
C 419.497276 63.656304 419.052477 62.582464 418.26084 61.790827 
C 417.469203 60.99919 416.395363 60.554391 415.275819 60.554391 
C 414.156276 60.554391 413.082436 60.99919 412.290799 61.790827 
C 411.499162 62.582464 411.054363 63.656304 411.054363 64.775847 
C 411.054363 65.895391 411.499162 66.969231 412.290799 67.760868 
C 413.082436 68.552505 414.156276 68.997304 415.275819 68.997304 
z
" style="fill:#0d0887;fill-opacity:0.95;stroke:#000000;stroke-opacity:0.95;"/>
    <path clip-path="url(#p875c142e92)" d="M 401.544143 73.034869 
C 402.663686 73.034869 403.737527 72.59007 404.529164 71.798433 
C 405.3208 71.006796 405.7656 69.932956 405.7656 68.813412 
C 405.7656 67.693869 405.3208 66.620029 404.529164 65.828392 
C 403.737527 65.036755 402.663686 64.591956 401.544143 64.591956 
C 400.4246 64.591956 399.350759 65.036755 398.559123 65.828392 
C 397.767486 66.620029 397.322687 67.693869 397.322687 68.813412 
C 397.322687 69.932956 397.767486 71.006796 398.559123 71.798433 
C 399.350759 72.59007 400.4246 73.034869 401.544143 73.034869 
z
" style="fill:#0d0887;fill-opacity:0.95;stroke:#000000;stroke-opacity:0.95;"/>
    <path clip-path="url(#p875c142e92)" d="M 410.433559 59.307148 
C 411.553102 59.307148 412.626943 58.862349 413.41858 58.070712 
C 414.210216 57.279075 414.655016 56.205235 414.655016 55.085691 
C 414.655016 53.966148 414.210216 52.892308 413.41858 52.100671 
C 412.626943 51.309034 411.553102 50.864235 410.433559 50.864235 
C 409.314016 50.864235 408.240175 51.309034 407.448539 52.100671 
C 406.656902 52.892308 406.212103 53.966148 406.212103 55.085691 
C 406.212103 56.205235 406.656902 57.279075 407.448539 58.070712 
C 408.240175 58.862349 409.314016 59.307148 410.433559 59.307148 
z
" style="fill:#0d0887;fill-opacity:0.95;stroke:#000000;stroke-opacity:0.95;"/>
    <path clip-path="url(#p875c142e92)" d="M 396.802166 63.368746 
C 397.921709 63.368746 398.99555 62.923947 399.787187 62.13231 
C 400.578823 61.340673 401.023623 60.266833 401.023623 59.14729 
C 401.023623 58.027746 400.578823 56.953906 399.787187 56.162269 
C 398.99555 55.370632 397.921709 54.925833 396.802166 54.925833 
C 395.682623 54.925833 394.608782 55.370632 393.817146 56.162269 
C 393.025509 56.953906 392.58071 58.027746 392.58071 59.14729 
C 392.58071 60.266833 393.025509 61.340673 393.817146 62.13231 
C 394.608782 62.923947 395.682623 63.368746 396.802166 63.368746 
z
" style="fill:#0d0887;fill-opacity:0.95;stroke:#000000;stroke-opacity:0.95;"/>
   </g>
  </g>
 </g>
 <defs>
  <clipPath id="p875c142e92">
   <rect height="384.53" width="501.4175" x="8.160625" y="-22.993125"/>
  </clipPath>
 </defs>
</svg>
