<?xml version="1.0" encoding="utf-8" standalone="no"?>
<!DOCTYPE svg PUBLIC "-//W3C//DTD SVG 1.1//EN"
  "http://www.w3.org/Graphics/SVG/1.1/DTD/svg11.dtd">
<!-- Created with matplotlib (http://matplotlib.org/) -->
<svg height="348pt" version="1.1" viewBox="0 0 492 348" width="492pt" xmlns="http://www.w3.org/2000/svg" xmlns:xlink="http://www.w3.org/1999/xlink">
 <defs>
  <style type="text/css">
*{stroke-linecap:butt;stroke-linejoin:round;stroke-miterlimit:100000;}
  </style>
 </defs>
 <g id="figure_1">
  <g id="patch_1">
   <path d="M 0 348.350625 
L 492.399375 348.350625 
L 492.399375 0 
L 0 0 
z
" style="fill:none;"/>
  </g>
  <g id="axes_1">
   <g id="LineCollection_1">
    <path clip-path="url(#p91d9c934b5)" d="M 81.2919 172.931832 
L 141.2766 159.525193 
" style="fill:none;stroke:#000000;stroke-opacity:0.7;stroke-width:1.4978661367769954;"/>
    <path clip-path="url(#p91d9c934b5)" d="M 128.035559 276.325027 
L 187.565487 296.782023 
" style="fill:none;stroke:#000000;stroke-opacity:0.7;stroke-width:1.4978661367769954;"/>
    <path clip-path="url(#p91d9c934b5)" d="M 233.439729 38.347101 
L 293.421085 24.940462 
" style="fill:none;stroke:#000000;stroke-opacity:0.7;stroke-width:1.4978661367769954;"/>
    <path clip-path="url(#p91d9c934b5)" d="M 412.639777 53.559107 
L 353.79535 21.900752 
" style="fill:none;stroke:#000000;stroke-opacity:0.7;stroke-width:1.4978661367769954;"/>
    <path clip-path="url(#p91d9c934b5)" d="M 260.491948 188.144607 
L 201.644177 156.485868 
" style="fill:none;stroke:#000000;stroke-opacity:0.7;stroke-width:1.4978661367769954;"/>
    <path clip-path="url(#p91d9c934b5)" d="M 201.644177 156.485868 
L 141.2766 159.525193 
" style="fill:none;stroke:#000000;stroke-opacity:0.7;stroke-width:1.4978661367769954;"/>
    <path clip-path="url(#p91d9c934b5)" d="M 293.421085 24.940462 
L 353.79535 21.900752 
" style="fill:none;stroke:#000000;stroke-opacity:0.7;stroke-width:1.4978661367769954;"/>
   </g>
   <g id="PathCollection_1">
    <path clip-path="url(#p91d9c934b5)" d="M 81.2919 180.677798 
C 83.346155 180.677798 85.316549 179.861634 86.769126 178.409057 
C 88.221703 176.95648 89.037867 174.986086 89.037867 172.931832 
C 89.037867 170.877577 88.221703 168.907183 86.769126 167.454606 
C 85.316549 166.002029 83.346155 165.185865 81.2919 165.185865 
C 79.237646 165.185865 77.267252 166.002029 75.814675 167.454606 
C 74.362097 168.907183 73.545934 170.877577 73.545934 172.931832 
C 73.545934 174.986086 74.362097 176.95648 75.814675 178.409057 
C 77.267252 179.861634 79.237646 180.677798 81.2919 180.677798 
z
" style="fill:#f0f921;fill-opacity:0.9;stroke:#000000;stroke-opacity:0.9;"/>
    <path clip-path="url(#p91d9c934b5)" d="M 128.035559 284.070994 
C 130.089813 284.070994 132.060207 283.25483 133.512784 281.802253 
C 134.965362 280.349675 135.781526 278.379281 135.781526 276.325027 
C 135.781526 274.270773 134.965362 272.300379 133.512784 270.847801 
C 132.060207 269.395224 130.089813 268.57906 128.035559 268.57906 
C 125.981304 268.57906 124.01091 269.395224 122.558333 270.847801 
C 121.105756 272.300379 120.289592 274.270773 120.289592 276.325027 
C 120.289592 278.379281 121.105756 280.349675 122.558333 281.802253 
C 124.01091 283.25483 125.981304 284.070994 128.035559 284.070994 
z
" style="fill:#f0f921;fill-opacity:0.9;stroke:#000000;stroke-opacity:0.9;"/>
    <path clip-path="url(#p91d9c934b5)" d="M 233.439729 46.093067 
C 235.493984 46.093067 237.464378 45.276903 238.916955 43.824326 
C 240.369532 42.371749 241.185696 40.401355 241.185696 38.347101 
C 241.185696 36.292846 240.369532 34.322452 238.916955 32.869875 
C 237.464378 31.417298 235.493984 30.601134 233.439729 30.601134 
C 231.385475 30.601134 229.415081 31.417298 227.962504 32.869875 
C 226.509927 34.322452 225.693763 36.292846 225.693763 38.347101 
C 225.693763 40.401355 226.509927 42.371749 227.962504 43.824326 
C 229.415081 45.276903 231.385475 46.093067 233.439729 46.093067 
z
" style="fill:#f0f921;fill-opacity:0.9;stroke:#000000;stroke-opacity:0.9;"/>
    <path clip-path="url(#p91d9c934b5)" d="M 412.639777 61.305074 
C 414.694031 61.305074 416.664425 60.48891 418.117003 59.036333 
C 419.56958 57.583756 420.385744 55.613362 420.385744 53.559107 
C 420.385744 51.504853 419.56958 49.534459 418.117003 48.081882 
C 416.664425 46.629305 414.694031 45.813141 412.639777 45.813141 
C 410.585523 45.813141 408.615129 46.629305 407.162551 48.081882 
C 405.709974 49.534459 404.89381 51.504853 404.89381 53.559107 
C 404.89381 55.613362 405.709974 57.583756 407.162551 59.036333 
C 408.615129 60.48891 410.585523 61.305074 412.639777 61.305074 
z
" style="fill:#f0f921;fill-opacity:0.9;stroke:#000000;stroke-opacity:0.9;"/>
    <path clip-path="url(#p91d9c934b5)" d="M 260.491948 195.890574 
C 262.546202 195.890574 264.516596 195.07441 265.969173 193.621833 
C 267.421751 192.169256 268.237915 190.198862 268.237915 188.144607 
C 268.237915 186.090353 267.421751 184.119959 265.969173 182.667382 
C 264.516596 181.214805 262.546202 180.398641 260.491948 180.398641 
C 258.437693 180.398641 256.467299 181.214805 255.014722 182.667382 
C 253.562145 184.119959 252.745981 186.090353 252.745981 188.144607 
C 252.745981 190.198862 253.562145 192.169256 255.014722 193.621833 
C 256.467299 195.07441 258.437693 195.890574 260.491948 195.890574 
z
" style="fill:#f0f921;fill-opacity:0.9;stroke:#000000;stroke-opacity:0.9;"/>
    <path clip-path="url(#p91d9c934b5)" d="M 187.565487 304.52799 
C 189.619741 304.52799 191.590135 303.711826 193.042713 302.259249 
C 194.49529 300.806671 195.311454 298.836277 195.311454 296.782023 
C 195.311454 294.727769 194.49529 292.757375 193.042713 291.304797 
C 191.590135 289.85222 189.619741 289.036056 187.565487 289.036056 
C 185.511233 289.036056 183.540839 289.85222 182.088261 291.304797 
C 180.635684 292.757375 179.81952 294.727769 179.81952 296.782023 
C 179.81952 298.836277 180.635684 300.806671 182.088261 302.259249 
C 183.540839 303.711826 185.511233 304.52799 187.565487 304.52799 
z
" style="fill:#f0f921;fill-opacity:0.9;stroke:#000000;stroke-opacity:0.9;"/>
    <path clip-path="url(#p91d9c934b5)" d="M 201.644177 164.231835 
C 203.698431 164.231835 205.668825 163.415671 207.121403 161.963094 
C 208.57398 160.510516 209.390144 158.540122 209.390144 156.485868 
C 209.390144 154.431614 208.57398 152.46122 207.121403 151.008642 
C 205.668825 149.556065 203.698431 148.739901 201.644177 148.739901 
C 199.589923 148.739901 197.619529 149.556065 196.166951 151.008642 
C 194.714374 152.46122 193.89821 154.431614 193.89821 156.485868 
C 193.89821 158.540122 194.714374 160.510516 196.166951 161.963094 
C 197.619529 163.415671 199.589923 164.231835 201.644177 164.231835 
z
" style="fill:#0d0887;fill-opacity:0.9;stroke:#000000;stroke-opacity:0.9;"/>
    <path clip-path="url(#p91d9c934b5)" d="M 293.421085 32.686429 
C 295.47534 32.686429 297.445734 31.870265 298.898311 30.417688 
C 300.350888 28.965111 301.167052 26.994717 301.167052 24.940462 
C 301.167052 22.886208 300.350888 20.915814 298.898311 19.463237 
C 297.445734 18.010659 295.47534 17.194495 293.421085 17.194495 
C 291.366831 17.194495 289.396437 18.010659 287.94386 19.463237 
C 286.491282 20.915814 285.675118 22.886208 285.675118 24.940462 
C 285.675118 26.994717 286.491282 28.965111 287.94386 30.417688 
C 289.396437 31.870265 291.366831 32.686429 293.421085 32.686429 
z
" style="fill:#0d0887;fill-opacity:0.9;stroke:#000000;stroke-opacity:0.9;"/>
    <path clip-path="url(#p91d9c934b5)" d="M 141.2766 167.27116 
C 143.330854 167.27116 145.301248 166.454996 146.753825 165.002419 
C 148.206403 163.549841 149.022567 161.579447 149.022567 159.525193 
C 149.022567 157.470939 148.206403 155.500545 146.753825 154.047968 
C 145.301248 152.59539 143.330854 151.779226 141.2766 151.779226 
C 139.222346 151.779226 137.251952 152.59539 135.799374 154.047968 
C 134.346797 155.500545 133.530633 157.470939 133.530633 159.525193 
C 133.530633 161.579447 134.346797 163.549841 135.799374 165.002419 
C 137.251952 166.454996 139.222346 167.27116 141.2766 167.27116 
z
" style="fill:#0d0887;fill-opacity:0.9;stroke:#000000;stroke-opacity:0.9;"/>
    <path clip-path="url(#p91d9c934b5)" d="M 353.79535 29.646719 
C 355.849604 29.646719 357.819998 28.830555 359.272576 27.377978 
C 360.725153 25.925401 361.541317 23.955007 361.541317 21.900753 
C 361.541317 19.846498 360.725153 17.876104 359.272576 16.423527 
C 357.819998 14.97095 355.849604 14.154786 353.79535 14.154786 
C 351.741096 14.154786 349.770702 14.97095 348.318125 16.423527 
C 346.865547 17.876104 346.049383 19.846498 346.049383 21.900753 
C 346.049383 23.955007 346.865547 25.925401 348.318125 27.377978 
C 349.770702 28.830555 351.741096 29.646719 353.79535 29.646719 
z
" style="fill:#0d0887;fill-opacity:0.9;stroke:#000000;stroke-opacity:0.9;"/>
   </g>
  </g>
 </g>
 <defs>
  <clipPath id="p91d9c934b5">
   <rect height="384.53" width="501.58625" x="8.160625" y="-22.993125"/>
  </clipPath>
 </defs>
</svg>
