<?xml version="1.0" encoding="utf-8" standalone="no"?>
<!DOCTYPE svg PUBLIC "-//W3C//DTD SVG 1.1//EN"
  "http://www.w3.org/Graphics/SVG/1.1/DTD/svg11.dtd">
<!-- Created with matplotlib (http://matplotlib.org/) -->
<svg height="348pt" version="1.1" viewBox="0 0 492 348" width="492pt" xmlns="http://www.w3.org/2000/svg" xmlns:xlink="http://www.w3.org/1999/xlink">
 <defs>
  <style type="text/css">
*{stroke-linecap:butt;stroke-linejoin:round;stroke-miterlimit:100000;}
  </style>
 </defs>
 <g id="figure_1">
  <g id="patch_1">
   <path d="M 0 348.350625 
L 492.399375 348.350625 
L 492.399375 0 
L 0 0 
z
" style="fill:none;"/>
  </g>
  <g id="axes_1">
   <g id="LineCollection_1">
    <path clip-path="url(#pcf496f6531)" d="M 81.2919 172.931832 
L 141.2766 159.525193 
" style="fill:none;stroke:#000000;stroke-opacity:0.7;stroke-width:1.2482217806474962;"/>
    <path clip-path="url(#pcf496f6531)" d="M 128.035559 276.325027 
L 187.565487 296.782023 
" style="fill:none;stroke:#000000;stroke-opacity:0.7;stroke-width:1.2482217806474962;"/>
    <path clip-path="url(#pcf496f6531)" d="M 233.439729 38.347101 
L 293.421085 24.940462 
" style="fill:none;stroke:#000000;stroke-opacity:0.7;stroke-width:1.2482217806474962;"/>
    <path clip-path="url(#pcf496f6531)" d="M 412.639777 53.559107 
L 353.79535 21.900752 
" style="fill:none;stroke:#000000;stroke-opacity:0.7;stroke-width:1.2482217806474962;"/>
    <path clip-path="url(#pcf496f6531)" d="M 260.491948 188.144607 
L 201.644177 156.485868 
" style="fill:none;stroke:#000000;stroke-opacity:0.7;stroke-width:1.2482217806474962;"/>
    <path clip-path="url(#pcf496f6531)" d="M 201.644177 156.485868 
L 141.2766 159.525193 
" style="fill:none;stroke:#000000;stroke-opacity:0.7;stroke-width:1.2482217806474962;"/>
    <path clip-path="url(#pcf496f6531)" d="M 293.421085 24.940462 
L 353.79535 21.900752 
" style="fill:none;stroke:#000000;stroke-opacity:0.7;stroke-width:1.2482217806474962;"/>
   </g>
   <g id="PathCollection_1">
    <path clip-path="url(#pcf496f6531)" d="M 81.2919 176.309462 
C 82.187658 176.309462 83.046849 175.953574 83.680246 175.320177 
C 84.313642 174.68678 84.669531 173.82759 84.669531 172.931832 
C 84.669531 172.036073 84.313642 171.176883 83.680246 170.543486 
C 83.046849 169.91009 82.187658 169.554201 81.2919 169.554201 
C 80.396142 169.554201 79.536951 169.91009 78.903555 170.543486 
C 78.270158 171.176883 77.91427 172.036073 77.91427 172.931832 
C 77.91427 173.82759 78.270158 174.68678 78.903555 175.320177 
C 79.536951 175.953574 80.396142 176.309462 81.2919 176.309462 
z
" style="fill:#f0f921;fill-opacity:0.95;stroke:#000000;stroke-opacity:0.95;"/>
    <path clip-path="url(#pcf496f6531)" d="M 128.035559 279.702657 
C 128.931317 279.702657 129.790508 279.346769 130.423904 278.713372 
C 131.057301 278.079976 131.413189 277.220785 131.413189 276.325027 
C 131.413189 275.429269 131.057301 274.570078 130.423904 273.936682 
C 129.790508 273.303285 128.931317 272.947397 128.035559 272.947397 
C 127.139801 272.947397 126.28061 273.303285 125.647213 273.936682 
C 125.013817 274.570078 124.657928 275.429269 124.657928 276.325027 
C 124.657928 277.220785 125.013817 278.079976 125.647213 278.713372 
C 126.28061 279.346769 127.139801 279.702657 128.035559 279.702657 
z
" style="fill:#f0f921;fill-opacity:0.95;stroke:#000000;stroke-opacity:0.95;"/>
    <path clip-path="url(#pcf496f6531)" d="M 233.439729 41.724731 
C 234.335487 41.724731 235.194678 41.368843 235.828075 40.735446 
C 236.461471 40.102049 236.81736 39.242859 236.81736 38.347101 
C 236.81736 37.451343 236.461471 36.592152 235.828075 35.958755 
C 235.194678 35.325359 234.335487 34.96947 233.439729 34.96947 
C 232.543971 34.96947 231.684781 35.325359 231.051384 35.958755 
C 230.417987 36.592152 230.062099 37.451343 230.062099 38.347101 
C 230.062099 39.242859 230.417987 40.102049 231.051384 40.735446 
C 231.684781 41.368843 232.543971 41.724731 233.439729 41.724731 
z
" style="fill:#f0f921;fill-opacity:0.95;stroke:#000000;stroke-opacity:0.95;"/>
    <path clip-path="url(#pcf496f6531)" d="M 412.639777 56.936738 
C 413.535535 56.936738 414.394726 56.580849 415.028122 55.947453 
C 415.661519 55.314056 416.017407 54.454865 416.017407 53.559107 
C 416.017407 52.663349 415.661519 51.804159 415.028122 51.170762 
C 414.394726 50.537365 413.535535 50.181477 412.639777 50.181477 
C 411.744019 50.181477 410.884828 50.537365 410.251432 51.170762 
C 409.618035 51.804159 409.262147 52.663349 409.262147 53.559107 
C 409.262147 54.454865 409.618035 55.314056 410.251432 55.947453 
C 410.884828 56.580849 411.744019 56.936738 412.639777 56.936738 
z
" style="fill:#f0f921;fill-opacity:0.95;stroke:#000000;stroke-opacity:0.95;"/>
    <path clip-path="url(#pcf496f6531)" d="M 260.491948 191.522238 
C 261.387706 191.522238 262.246897 191.166349 262.880293 190.532953 
C 263.51369 189.899556 263.869578 189.040365 263.869578 188.144607 
C 263.869578 187.248849 263.51369 186.389659 262.880293 185.756262 
C 262.246897 185.122865 261.387706 184.766977 260.491948 184.766977 
C 259.59619 184.766977 258.736999 185.122865 258.103602 185.756262 
C 257.470206 186.389659 257.114317 187.248849 257.114317 188.144607 
C 257.114317 189.040365 257.470206 189.899556 258.103602 190.532953 
C 258.736999 191.166349 259.59619 191.522238 260.491948 191.522238 
z
" style="fill:#f0f921;fill-opacity:0.95;stroke:#000000;stroke-opacity:0.95;"/>
    <path clip-path="url(#pcf496f6531)" d="M 187.565487 300.159653 
C 188.461245 300.159653 189.320436 299.803765 189.953832 299.170368 
C 190.587229 298.536972 190.943117 297.677781 190.943117 296.782023 
C 190.943117 295.886265 190.587229 295.027074 189.953832 294.393678 
C 189.320436 293.760281 188.461245 293.404393 187.565487 293.404393 
C 186.669729 293.404393 185.810538 293.760281 185.177142 294.393678 
C 184.543745 295.027074 184.187857 295.886265 184.187857 296.782023 
C 184.187857 297.677781 184.543745 298.536972 185.177142 299.170368 
C 185.810538 299.803765 186.669729 300.159653 187.565487 300.159653 
z
" style="fill:#f0f921;fill-opacity:0.95;stroke:#000000;stroke-opacity:0.95;"/>
    <path clip-path="url(#pcf496f6531)" d="M 201.644177 159.863498 
C 202.539935 159.863498 203.399126 159.50761 204.032522 158.874213 
C 204.665919 158.240817 205.021807 157.381626 205.021807 156.485868 
C 205.021807 155.59011 204.665919 154.730919 204.032522 154.097523 
C 203.399126 153.464126 202.539935 153.108238 201.644177 153.108238 
C 200.748419 153.108238 199.889228 153.464126 199.255832 154.097523 
C 198.622435 154.730919 198.266547 155.59011 198.266547 156.485868 
C 198.266547 157.381626 198.622435 158.240817 199.255832 158.874213 
C 199.889228 159.50761 200.748419 159.863498 201.644177 159.863498 
z
" style="fill:#0d0887;fill-opacity:0.95;stroke:#000000;stroke-opacity:0.95;"/>
    <path clip-path="url(#pcf496f6531)" d="M 293.421085 28.318093 
C 294.316843 28.318093 295.176034 27.962204 295.809431 27.328808 
C 296.442827 26.695411 296.798716 25.83622 296.798716 24.940462 
C 296.798716 24.044704 296.442827 23.185513 295.809431 22.552117 
C 295.176034 21.91872 294.316843 21.562832 293.421085 21.562832 
C 292.525327 21.562832 291.666136 21.91872 291.03274 22.552117 
C 290.399343 23.185513 290.043455 24.044704 290.043455 24.940462 
C 290.043455 25.83622 290.399343 26.695411 291.03274 27.328808 
C 291.666136 27.962204 292.525327 28.318093 293.421085 28.318093 
z
" style="fill:#0d0887;fill-opacity:0.95;stroke:#000000;stroke-opacity:0.95;"/>
    <path clip-path="url(#pcf496f6531)" d="M 141.2766 162.902824 
C 142.172358 162.902824 143.031549 162.546935 143.664945 161.913538 
C 144.298342 161.280142 144.65423 160.420951 144.65423 159.525193 
C 144.65423 158.629435 144.298342 157.770244 143.664945 157.136848 
C 143.031549 156.503451 142.172358 156.147563 141.2766 156.147563 
C 140.380842 156.147563 139.521651 156.503451 138.888255 157.136848 
C 138.254858 157.770244 137.898969 158.629435 137.898969 159.525193 
C 137.898969 160.420951 138.254858 161.280142 138.888255 161.913538 
C 139.521651 162.546935 140.380842 162.902824 141.2766 162.902824 
z
" style="fill:#0d0887;fill-opacity:0.95;stroke:#000000;stroke-opacity:0.95;"/>
    <path clip-path="url(#pcf496f6531)" d="M 353.79535 25.278383 
C 354.691108 25.278383 355.550299 24.922494 356.183695 24.289098 
C 356.817092 23.655701 357.172981 22.796511 357.172981 21.900753 
C 357.172981 21.004994 356.817092 20.145804 356.183695 19.512407 
C 355.550299 18.879011 354.691108 18.523122 353.79535 18.523122 
C 352.899592 18.523122 352.040401 18.879011 351.407005 19.512407 
C 350.773608 20.145804 350.41772 21.004994 350.41772 21.900753 
C 350.41772 22.796511 350.773608 23.655701 351.407005 24.289098 
C 352.040401 24.922494 352.899592 25.278383 353.79535 25.278383 
z
" style="fill:#0d0887;fill-opacity:0.95;stroke:#000000;stroke-opacity:0.95;"/>
   </g>
  </g>
 </g>
 <defs>
  <clipPath id="pcf496f6531">
   <rect height="384.53" width="501.58625" x="8.160625" y="-22.993125"/>
  </clipPath>
 </defs>
</svg>
